solid OpenSCAD_Model
  facet normal -1 0 0
    outer loop
      vertex 0.799999 0.799999 1.2
      vertex 0.799999 10.8 3.2
      vertex 0.799999 10.8 1.2
    endloop
  endfacet
  facet normal -1 -0 0
    outer loop
      vertex 0.799999 10.8 3.2
      vertex 0.799999 0.799999 1.2
      vertex 0.799999 0.799999 3.2
    endloop
  endfacet
  facet normal 0 0 1
    outer loop
      vertex 2 10.8 3.2
      vertex 0.799999 10.8 3.2
      vertex 2 2 3.2
    endloop
  endfacet
  facet normal -0 0 1
    outer loop
      vertex 2 2 3.2
      vertex 10.8 0.799999 3.2
      vertex 10.8 2 3.2
    endloop
  endfacet
  facet normal 0 0 1
    outer loop
      vertex 2 2 3.2
      vertex 0.799999 0.799999 3.2
      vertex 10.8 0.799999 3.2
    endloop
  endfacet
  facet normal 0 0 1
    outer loop
      vertex 0.799999 0.799999 3.2
      vertex 2 2 3.2
      vertex 0.799999 10.8 3.2
    endloop
  endfacet
  facet normal 1 -0 0
    outer loop
      vertex 10.8 0.799999 3.2
      vertex 10.8 2 1.2
      vertex 10.8 2 3.2
    endloop
  endfacet
  facet normal 1 0 0
    outer loop
      vertex 10.8 2 1.2
      vertex 10.8 0.799999 3.2
      vertex 10.8 0.799999 1.2
    endloop
  endfacet
  facet normal 0 1 -0
    outer loop
      vertex 10.8 2 1.2
      vertex 2 2 3.2
      vertex 10.8 2 3.2
    endloop
  endfacet
  facet normal 0 1 0
    outer loop
      vertex 2 2 3.2
      vertex 10.8 2 1.2
      vertex 2 2 1.2
    endloop
  endfacet
  facet normal 0 0 1
    outer loop
      vertex 76.1333 18.7 1.2
      vertex 89.1 36.6 1.2
      vertex 76.1333 25.7 1.2
    endloop
  endfacet
  facet normal 0 0 1
    outer loop
      vertex 89.1 36.6 1.2
      vertex 74.1333 25.7 1.2
      vertex 76.1333 25.7 1.2
    endloop
  endfacet
  facet normal -0 0 1
    outer loop
      vertex 71.6333 19.7 1.2
      vertex 74.1333 18.7 1.2
      vertex 74.1333 25.7 1.2
    endloop
  endfacet
  facet normal 0 0 1
    outer loop
      vertex 71.6333 19.7 1.2
      vertex 74.1333 25.7 1.2
      vertex 71.6333 24.7 1.2
    endloop
  endfacet
  facet normal 0 0 1
    outer loop
      vertex 64.1333 25.7 1.2
      vertex 74.1333 25.7 1.2
      vertex 89.1 36.6 1.2
    endloop
  endfacet
  facet normal 0 0 1
    outer loop
      vertex 74.1333 25.7 1.2
      vertex 64.1333 25.7 1.2
      vertex 71.6333 24.7 1.2
    endloop
  endfacet
  facet normal 0 0 1
    outer loop
      vertex 64.1333 18.7 1.2
      vertex 66.6333 19.7 1.2
      vertex 66.6333 24.7 1.2
    endloop
  endfacet
  facet normal 0 0 1
    outer loop
      vertex 66.6333 19.7 1.2
      vertex 64.1333 18.7 1.2
      vertex 65.6333 18.2 1.2
    endloop
  endfacet
  facet normal 0 0 1
    outer loop
      vertex 64.1333 18.7 1.2
      vertex 66.6333 24.7 1.2
      vertex 64.1333 25.7 1.2
    endloop
  endfacet
  facet normal 0 0 1
    outer loop
      vertex 71.6333 24.7 1.2
      vertex 64.1333 25.7 1.2
      vertex 66.6333 24.7 1.2
    endloop
  endfacet
  facet normal 0 0 1
    outer loop
      vertex 89.1 36.6 1.2
      vertex 62.1333 25.7 1.2
      vertex 64.1333 25.7 1.2
    endloop
  endfacet
  facet normal 0 0 1
    outer loop
      vertex 62.1333 25.7 1.2
      vertex 10.8 2 1.2
      vertex 62.1333 18.7 1.2
    endloop
  endfacet
  facet normal 0 0 1
    outer loop
      vertex 0.4 36.6 1.2
      vertex 10.8 2 1.2
      vertex 62.1333 25.7 1.2
    endloop
  endfacet
  facet normal -0 0 1
    outer loop
      vertex 0.4 36.6 1.2
      vertex 62.1333 25.7 1.2
      vertex 89.1 36.6 1.2
    endloop
  endfacet
  facet normal 0 0 1
    outer loop
      vertex 10.8 2 1.2
      vertex 0.4 36.6 1.2
      vertex 2 10.8 1.2
    endloop
  endfacet
  facet normal 0 0 1
    outer loop
      vertex 0 0 1.2
      vertex 0.799999 10.8 1.2
      vertex 0.4 36.6 1.2
    endloop
  endfacet
  facet normal 0 0 1
    outer loop
      vertex 2 10.8 1.2
      vertex 0.4 36.6 1.2
      vertex 0.799999 10.8 1.2
    endloop
  endfacet
  facet normal 0 0 1
    outer loop
      vertex 99.1 40.8 1.2
      vertex 89.9 33.6 1.2
      vertex 99.1 33.6 1.2
    endloop
  endfacet
  facet normal 0 0 1
    outer loop
      vertex 74.1333 18.7 1.2
      vertex 71.6333 19.7 1.2
      vertex 72.6333 18.2 1.2
    endloop
  endfacet
  facet normal -0 0 1
    outer loop
      vertex 66.6333 19.7 1.2
      vertex 72.6333 18.2 1.2
      vertex 71.6333 19.7 1.2
    endloop
  endfacet
  facet normal 0 0 1
    outer loop
      vertex 72.6333 18.2 1.2
      vertex 66.6333 19.7 1.2
      vertex 65.6333 18.2 1.2
    endloop
  endfacet
  facet normal -0 0 1
    outer loop
      vertex 41.5667 48.3 1.2
      vertex 89.1 37.4 1.2
      vertex 41.5667 55.3 1.2
    endloop
  endfacet
  facet normal 0 0 1
    outer loop
      vertex 38.0667 45.8 1.2
      vertex 41.5667 48.3 1.2
      vertex 39.5667 48.3 1.2
    endloop
  endfacet
  facet normal 0 0 1
    outer loop
      vertex 38.0667 45.8 1.2
      vertex 39.5667 48.3 1.2
      vertex 38.0667 47.8 1.2
    endloop
  endfacet
  facet normal 0 0 1
    outer loop
      vertex 41.5667 48.3 1.2
      vertex 38.0667 45.8 1.2
      vertex 89.1 37.4 1.2
    endloop
  endfacet
  facet normal 0 0 1
    outer loop
      vertex 0.4 37.4 1.2
      vertex 38.0667 45.8 1.2
      vertex 31.0667 45.8 1.2
    endloop
  endfacet
  facet normal 0 0 1
    outer loop
      vertex 31.0667 47.8 1.2
      vertex 29.5667 48.3 1.2
      vertex 31.0667 45.8 1.2
    endloop
  endfacet
  facet normal -0 0 1
    outer loop
      vertex 27.5667 48.3 1.2
      vertex 31.0667 45.8 1.2
      vertex 29.5667 48.3 1.2
    endloop
  endfacet
  facet normal -0 0 1
    outer loop
      vertex 2 63.2 1.2
      vertex 27.5667 55.3 1.2
      vertex 10.8 72 1.2
    endloop
  endfacet
  facet normal 0 0 1
    outer loop
      vertex 2 63.2 1.2
      vertex 10.8 72 1.2
      vertex 2 72 1.2
    endloop
  endfacet
  facet normal 0 0 1
    outer loop
      vertex 27.5667 55.3 1.2
      vertex 2 63.2 1.2
      vertex 27.5667 48.3 1.2
    endloop
  endfacet
  facet normal 0 0 1
    outer loop
      vertex 0.4 37.4 1.2
      vertex 27.5667 48.3 1.2
      vertex 2 63.2 1.2
    endloop
  endfacet
  facet normal 0 0 1
    outer loop
      vertex 0.4 37.4 1.2
      vertex 2 63.2 1.2
      vertex 0.799999 63.2 1.2
    endloop
  endfacet
  facet normal 0 0 1
    outer loop
      vertex 38.0667 45.8 1.2
      vertex 0.4 37.4 1.2
      vertex 89.1 37.4 1.2
    endloop
  endfacet
  facet normal 0 0 1
    outer loop
      vertex 27.5667 48.3 1.2
      vertex 0.4 37.4 1.2
      vertex 31.0667 45.8 1.2
    endloop
  endfacet
  facet normal 0 0 1
    outer loop
      vertex 39.5667 48.3 1.2
      vertex 37.0667 49.3 1.2
      vertex 38.0667 47.8 1.2
    endloop
  endfacet
  facet normal -0 0 1
    outer loop
      vertex 32.0667 49.3 1.2
      vertex 38.0667 47.8 1.2
      vertex 37.0667 49.3 1.2
    endloop
  endfacet
  facet normal 0 0 1
    outer loop
      vertex 38.0667 47.8 1.2
      vertex 32.0667 49.3 1.2
      vertex 31.0667 47.8 1.2
    endloop
  endfacet
  facet normal 0 0 1
    outer loop
      vertex 10.8 2 1.2
      vertex 2 10.8 1.2
      vertex 2 2 1.2
    endloop
  endfacet
  facet normal 0 0 1
    outer loop
      vertex 126.75 52 1.2
      vertex 124.25 53 1.2
      vertex 125.25 51.5 1.2
    endloop
  endfacet
  facet normal -0 0 1
    outer loop
      vertex 119.25 53 1.2
      vertex 125.25 51.5 1.2
      vertex 124.25 53 1.2
    endloop
  endfacet
  facet normal 0 0 1
    outer loop
      vertex 125.25 51.5 1.2
      vertex 119.25 53 1.2
      vertex 118.25 51.5 1.2
    endloop
  endfacet
  facet normal 0 0 1
    outer loop
      vertex 126.75 15 1.2
      vertex 124.25 16 1.2
      vertex 125.25 14.5 1.2
    endloop
  endfacet
  facet normal -0 0 1
    outer loop
      vertex 119.25 16 1.2
      vertex 125.25 14.5 1.2
      vertex 124.25 16 1.2
    endloop
  endfacet
  facet normal 0 0 1
    outer loop
      vertex 125.25 14.5 1.2
      vertex 119.25 16 1.2
      vertex 118.25 14.5 1.2
    endloop
  endfacet
  facet normal 0 0 1
    outer loop
      vertex 137.8 72 1.2
      vertex 129 72 1.2
      vertex 137.8 63.2 1.2
    endloop
  endfacet
  facet normal -0 0 1
    outer loop
      vertex 128.75 22 1.2
      vertex 139 10.8 1.2
      vertex 139 32.8 1.2
    endloop
  endfacet
  facet normal 0 0 1
    outer loop
      vertex 137.8 10.8 1.2
      vertex 129 2 1.2
      vertex 137.8 2 1.2
    endloop
  endfacet
  facet normal 0 0 1
    outer loop
      vertex 139 10.8 1.2
      vertex 128.75 22 1.2
      vertex 137.8 10.8 1.2
    endloop
  endfacet
  facet normal 0 0 1
    outer loop
      vertex 137.8 10.8 1.2
      vertex 128.75 15 1.2
      vertex 129 2 1.2
    endloop
  endfacet
  facet normal 0 0 1
    outer loop
      vertex 137.8 10.8 1.2
      vertex 128.75 22 1.2
      vertex 128.75 15 1.2
    endloop
  endfacet
  facet normal 0 0 1
    outer loop
      vertex 139 32.8 1.2
      vertex 126.75 22 1.2
      vertex 128.75 22 1.2
    endloop
  endfacet
  facet normal -0 0 1
    outer loop
      vertex 124.25 21 1.2
      vertex 126.75 15 1.2
      vertex 126.75 22 1.2
    endloop
  endfacet
  facet normal -0 0 1
    outer loop
      vertex 124.25 16 1.2
      vertex 126.75 15 1.2
      vertex 124.25 21 1.2
    endloop
  endfacet
  facet normal 0 0 1
    outer loop
      vertex 116.75 22 1.2
      vertex 126.75 22 1.2
      vertex 139 32.8 1.2
    endloop
  endfacet
  facet normal 0 0 1
    outer loop
      vertex 126.75 22 1.2
      vertex 116.75 22 1.2
      vertex 124.25 21 1.2
    endloop
  endfacet
  facet normal 0 0 1
    outer loop
      vertex 116.75 15 1.2
      vertex 119.25 16 1.2
      vertex 119.25 21 1.2
    endloop
  endfacet
  facet normal 0 0 1
    outer loop
      vertex 119.25 16 1.2
      vertex 116.75 15 1.2
      vertex 118.25 14.5 1.2
    endloop
  endfacet
  facet normal 0 0 1
    outer loop
      vertex 116.75 15 1.2
      vertex 119.25 21 1.2
      vertex 116.75 22 1.2
    endloop
  endfacet
  facet normal 0 0 1
    outer loop
      vertex 124.25 21 1.2
      vertex 116.75 22 1.2
      vertex 119.25 21 1.2
    endloop
  endfacet
  facet normal 0 0 1
    outer loop
      vertex 139 32.8 1.2
      vertex 114.75 22 1.2
      vertex 116.75 22 1.2
    endloop
  endfacet
  facet normal 0 0 1
    outer loop
      vertex 114.75 22 1.2
      vertex 89.9 32.8 1.2
      vertex 114.75 15 1.2
    endloop
  endfacet
  facet normal -0 0 1
    outer loop
      vertex 89.9 32.8 1.2
      vertex 114.75 22 1.2
      vertex 139 32.8 1.2
    endloop
  endfacet
  facet normal 0 0 1
    outer loop
      vertex 128.75 52 1.2
      vertex 139 63.2 1.2
      vertex 137.8 63.2 1.2
    endloop
  endfacet
  facet normal 0 0 1
    outer loop
      vertex 128.75 59 1.2
      vertex 137.8 63.2 1.2
      vertex 129 72 1.2
    endloop
  endfacet
  facet normal 0 0 1
    outer loop
      vertex 128.75 52 1.2
      vertex 137.8 63.2 1.2
      vertex 128.75 59 1.2
    endloop
  endfacet
  facet normal 0 0 1
    outer loop
      vertex 139 63.2 1.2
      vertex 128.75 52 1.2
      vertex 139 33.6 1.2
    endloop
  endfacet
  facet normal 0 0 1
    outer loop
      vertex 125.25 49.5 1.2
      vertex 128.75 52 1.2
      vertex 126.75 52 1.2
    endloop
  endfacet
  facet normal 0 0 1
    outer loop
      vertex 125.25 49.5 1.2
      vertex 126.75 52 1.2
      vertex 125.25 51.5 1.2
    endloop
  endfacet
  facet normal 0 0 1
    outer loop
      vertex 128.75 52 1.2
      vertex 125.25 49.5 1.2
      vertex 139 33.6 1.2
    endloop
  endfacet
  facet normal 0 0 1
    outer loop
      vertex 106.7 33.6 1.2
      vertex 125.25 49.5 1.2
      vertex 118.25 49.5 1.2
    endloop
  endfacet
  facet normal 0 0 1
    outer loop
      vertex 118.25 51.5 1.2
      vertex 116.75 52 1.2
      vertex 118.25 49.5 1.2
    endloop
  endfacet
  facet normal -0 0 1
    outer loop
      vertex 114.75 52 1.2
      vertex 118.25 49.5 1.2
      vertex 116.75 52 1.2
    endloop
  endfacet
  facet normal 0 0 1
    outer loop
      vertex 106.7 40.8 1.2
      vertex 118.25 49.5 1.2
      vertex 114.75 52 1.2
    endloop
  endfacet
  facet normal 0 0 1
    outer loop
      vertex 106.7 33.6 1.2
      vertex 118.25 49.5 1.2
      vertex 106.7 40.8 1.2
    endloop
  endfacet
  facet normal 0 0 1
    outer loop
      vertex 125.25 49.5 1.2
      vertex 106.7 33.6 1.2
      vertex 139 33.6 1.2
    endloop
  endfacet
  facet normal 0 0 1
    outer loop
      vertex 139 63.2 1.2
      vertex 139.8 74 1.2
      vertex 139 73.2 1.2
    endloop
  endfacet
  facet normal 0 0 1
    outer loop
      vertex 139.8 74 1.2
      vertex 129 73.2 1.2
      vertex 139 73.2 1.2
    endloop
  endfacet
  facet normal 0 0 1
    outer loop
      vertex 114.75 59 1.2
      vertex 129 72 1.2
      vertex 129 73.2 1.2
    endloop
  endfacet
  facet normal 0 0 1
    outer loop
      vertex 129 72 1.2
      vertex 126.75 59 1.2
      vertex 128.75 59 1.2
    endloop
  endfacet
  facet normal -0 0 1
    outer loop
      vertex 124.25 58 1.2
      vertex 126.75 52 1.2
      vertex 126.75 59 1.2
    endloop
  endfacet
  facet normal 0 0 1
    outer loop
      vertex 129 72 1.2
      vertex 124.25 58 1.2
      vertex 126.75 59 1.2
    endloop
  endfacet
  facet normal -0 0 1
    outer loop
      vertex 124.25 53 1.2
      vertex 126.75 52 1.2
      vertex 124.25 58 1.2
    endloop
  endfacet
  facet normal 0 0 1
    outer loop
      vertex 129 72 1.2
      vertex 119.25 58 1.2
      vertex 124.25 58 1.2
    endloop
  endfacet
  facet normal 0 0 1
    outer loop
      vertex 116.75 59 1.2
      vertex 119.25 53 1.2
      vertex 119.25 58 1.2
    endloop
  endfacet
  facet normal 0 0 1
    outer loop
      vertex 119.25 53 1.2
      vertex 116.75 52 1.2
      vertex 118.25 51.5 1.2
    endloop
  endfacet
  facet normal 0 0 1
    outer loop
      vertex 116.75 52 1.2
      vertex 119.25 53 1.2
      vertex 116.75 59 1.2
    endloop
  endfacet
  facet normal 0 0 1
    outer loop
      vertex 129 72 1.2
      vertex 116.75 59 1.2
      vertex 119.25 58 1.2
    endloop
  endfacet
  facet normal 0 0 1
    outer loop
      vertex 129 72 1.2
      vertex 114.75 59 1.2
      vertex 116.75 59 1.2
    endloop
  endfacet
  facet normal 0 0 1
    outer loop
      vertex 99.1 40.8 1.2
      vertex 114.75 52 1.2
      vertex 114.75 59 1.2
    endloop
  endfacet
  facet normal 0 0 1
    outer loop
      vertex 114.75 52 1.2
      vertex 99.1 40.8 1.2
      vertex 106.7 40.8 1.2
    endloop
  endfacet
  facet normal 0 0 1
    outer loop
      vertex 89.9 33.6 1.2
      vertex 99.1 40.8 1.2
      vertex 89.9 73.2 1.2
    endloop
  endfacet
  facet normal 0 0 1
    outer loop
      vertex 114.75 59 1.2
      vertex 89.9 73.2 1.2
      vertex 99.1 40.8 1.2
    endloop
  endfacet
  facet normal 0 0 1
    outer loop
      vertex 129 73.2 1.2
      vertex 89.9 73.2 1.2
      vertex 114.75 59 1.2
    endloop
  endfacet
  facet normal 0 0 1
    outer loop
      vertex 139.8 74 1.2
      vertex 89.9 73.2 1.2
      vertex 129 73.2 1.2
    endloop
  endfacet
  facet normal 0 0 1
    outer loop
      vertex 139.8 74 1.2
      vertex 89.1 73.2 1.2
      vertex 89.9 73.2 1.2
    endloop
  endfacet
  facet normal 0 0 1
    outer loop
      vertex 89.1 73.2 1.2
      vertex 41.5667 55.3 1.2
      vertex 89.1 37.4 1.2
    endloop
  endfacet
  facet normal -0 0 1
    outer loop
      vertex 10.8 73.2 1.2
      vertex 41.5667 55.3 1.2
      vertex 89.1 73.2 1.2
    endloop
  endfacet
  facet normal -0 0 1
    outer loop
      vertex 37.0667 54.3 1.2
      vertex 39.5667 48.3 1.2
      vertex 39.5667 55.3 1.2
    endloop
  endfacet
  facet normal -0 0 1
    outer loop
      vertex 37.0667 49.3 1.2
      vertex 39.5667 48.3 1.2
      vertex 37.0667 54.3 1.2
    endloop
  endfacet
  facet normal 0 0 1
    outer loop
      vertex 39.5667 55.3 1.2
      vertex 32.0667 54.3 1.2
      vertex 37.0667 54.3 1.2
    endloop
  endfacet
  facet normal 0 0 1
    outer loop
      vertex 41.5667 55.3 1.2
      vertex 10.8 73.2 1.2
      vertex 39.5667 55.3 1.2
    endloop
  endfacet
  facet normal 0 0 1
    outer loop
      vertex 29.5667 55.3 1.2
      vertex 32.0667 49.3 1.2
      vertex 32.0667 54.3 1.2
    endloop
  endfacet
  facet normal 0 0 1
    outer loop
      vertex 32.0667 49.3 1.2
      vertex 29.5667 48.3 1.2
      vertex 31.0667 47.8 1.2
    endloop
  endfacet
  facet normal 0 0 1
    outer loop
      vertex 29.5667 48.3 1.2
      vertex 32.0667 49.3 1.2
      vertex 29.5667 55.3 1.2
    endloop
  endfacet
  facet normal 0 -0 1
    outer loop
      vertex 29.5667 55.3 1.2
      vertex 39.5667 55.3 1.2
      vertex 10.8 73.2 1.2
    endloop
  endfacet
  facet normal 0 0 1
    outer loop
      vertex 39.5667 55.3 1.2
      vertex 29.5667 55.3 1.2
      vertex 32.0667 54.3 1.2
    endloop
  endfacet
  facet normal -0 0 1
    outer loop
      vertex 10.8 72 1.2
      vertex 27.5667 55.3 1.2
      vertex 10.8 73.2 1.2
    endloop
  endfacet
  facet normal 0 0 1
    outer loop
      vertex 29.5667 55.3 1.2
      vertex 10.8 73.2 1.2
      vertex 27.5667 55.3 1.2
    endloop
  endfacet
  facet normal -0 0 1
    outer loop
      vertex 0 74 1.2
      vertex 89.1 73.2 1.2
      vertex 139.8 74 1.2
    endloop
  endfacet
  facet normal 0 0 1
    outer loop
      vertex 89.1 73.2 1.2
      vertex 0 74 1.2
      vertex 10.8 73.2 1.2
    endloop
  endfacet
  facet normal 0 0 1
    outer loop
      vertex 0 74 1.2
      vertex 0.799999 63.2 1.2
      vertex 0.799999 73.2 1.2
    endloop
  endfacet
  facet normal 0 0 1
    outer loop
      vertex 0.4 37.4 1.2
      vertex 0 74 1.2
      vertex 0.4 36.6 1.2
    endloop
  endfacet
  facet normal 0 0 1
    outer loop
      vertex 0.799999 63.2 1.2
      vertex 0 74 1.2
      vertex 0.4 37.4 1.2
    endloop
  endfacet
  facet normal 0 0 1
    outer loop
      vertex 10.8 73.2 1.2
      vertex 0 74 1.2
      vertex 0.799999 73.2 1.2
    endloop
  endfacet
  facet normal 0 0 1
    outer loop
      vertex 139 33.6 1.2
      vertex 139.8 74 1.2
      vertex 139 63.2 1.2
    endloop
  endfacet
  facet normal 0 0 1
    outer loop
      vertex 139.8 74 1.2
      vertex 139 33.6 1.2
      vertex 139.8 0 1.2
    endloop
  endfacet
  facet normal -0 0 1
    outer loop
      vertex 139 32.8 1.2
      vertex 139.8 0 1.2
      vertex 139 33.6 1.2
    endloop
  endfacet
  facet normal -0 0 1
    outer loop
      vertex 139 10.8 1.2
      vertex 139.8 0 1.2
      vertex 139 32.8 1.2
    endloop
  endfacet
  facet normal -0 0 1
    outer loop
      vertex 139 0.799999 1.2
      vertex 139.8 0 1.2
      vertex 139 10.8 1.2
    endloop
  endfacet
  facet normal -0 0 1
    outer loop
      vertex 129 0.799999 1.2
      vertex 139.8 0 1.2
      vertex 139 0.799999 1.2
    endloop
  endfacet
  facet normal -0 0 1
    outer loop
      vertex 125.25 12.5 1.2
      vertex 129 2 1.2
      vertex 128.75 15 1.2
    endloop
  endfacet
  facet normal 0 0 1
    outer loop
      vertex 125.25 12.5 1.2
      vertex 128.75 15 1.2
      vertex 126.75 15 1.2
    endloop
  endfacet
  facet normal 0 0 1
    outer loop
      vertex 125.25 12.5 1.2
      vertex 126.75 15 1.2
      vertex 125.25 14.5 1.2
    endloop
  endfacet
  facet normal -0 0 1
    outer loop
      vertex 118.25 12.5 1.2
      vertex 129 2 1.2
      vertex 125.25 12.5 1.2
    endloop
  endfacet
  facet normal 0 0 1
    outer loop
      vertex 129 2 1.2
      vertex 118.25 12.5 1.2
      vertex 129 0.799999 1.2
    endloop
  endfacet
  facet normal 0 0 1
    outer loop
      vertex 118.25 14.5 1.2
      vertex 116.75 15 1.2
      vertex 118.25 12.5 1.2
    endloop
  endfacet
  facet normal -0 0 1
    outer loop
      vertex 114.75 15 1.2
      vertex 118.25 12.5 1.2
      vertex 116.75 15 1.2
    endloop
  endfacet
  facet normal 0 0 1
    outer loop
      vertex 89.9 0.799999 1.2
      vertex 118.25 12.5 1.2
      vertex 114.75 15 1.2
    endloop
  endfacet
  facet normal 0 0 1
    outer loop
      vertex 89.9 0.799999 1.2
      vertex 114.75 15 1.2
      vertex 89.9 32.8 1.2
    endloop
  endfacet
  facet normal 0 0 1
    outer loop
      vertex 118.25 12.5 1.2
      vertex 89.9 0.799999 1.2
      vertex 129 0.799999 1.2
    endloop
  endfacet
  facet normal -0 0 1
    outer loop
      vertex 89.9 0.799999 1.2
      vertex 139.8 0 1.2
      vertex 129 0.799999 1.2
    endloop
  endfacet
  facet normal -0 0 1
    outer loop
      vertex 89.1 0.799999 1.2
      vertex 139.8 0 1.2
      vertex 89.9 0.799999 1.2
    endloop
  endfacet
  facet normal 0 0 1
    outer loop
      vertex 89.1 36.6 1.2
      vertex 76.1333 18.7 1.2
      vertex 89.1 0.799999 1.2
    endloop
  endfacet
  facet normal 0 0 1
    outer loop
      vertex 72.6333 16.2 1.2
      vertex 76.1333 18.7 1.2
      vertex 74.1333 18.7 1.2
    endloop
  endfacet
  facet normal 0 0 1
    outer loop
      vertex 72.6333 16.2 1.2
      vertex 74.1333 18.7 1.2
      vertex 72.6333 18.2 1.2
    endloop
  endfacet
  facet normal 0 0 1
    outer loop
      vertex 76.1333 18.7 1.2
      vertex 72.6333 16.2 1.2
      vertex 89.1 0.799999 1.2
    endloop
  endfacet
  facet normal -0 0 1
    outer loop
      vertex 65.6333 16.2 1.2
      vertex 89.1 0.799999 1.2
      vertex 72.6333 16.2 1.2
    endloop
  endfacet
  facet normal 0 0 1
    outer loop
      vertex 65.6333 18.2 1.2
      vertex 64.1333 18.7 1.2
      vertex 65.6333 16.2 1.2
    endloop
  endfacet
  facet normal -0 0 1
    outer loop
      vertex 62.1333 18.7 1.2
      vertex 65.6333 16.2 1.2
      vertex 64.1333 18.7 1.2
    endloop
  endfacet
  facet normal 0 0 1
    outer loop
      vertex 10.8 0.799999 1.2
      vertex 62.1333 18.7 1.2
      vertex 10.8 2 1.2
    endloop
  endfacet
  facet normal 0 0 1
    outer loop
      vertex 62.1333 18.7 1.2
      vertex 10.8 0.799999 1.2
      vertex 65.6333 16.2 1.2
    endloop
  endfacet
  facet normal 0 0 1
    outer loop
      vertex 65.6333 16.2 1.2
      vertex 10.8 0.799999 1.2
      vertex 89.1 0.799999 1.2
    endloop
  endfacet
  facet normal 0 0 1
    outer loop
      vertex 0 0 1.2
      vertex 89.1 0.799999 1.2
      vertex 10.8 0.799999 1.2
    endloop
  endfacet
  facet normal 0 0 1
    outer loop
      vertex 0 0 1.2
      vertex 10.8 0.799999 1.2
      vertex 0.799999 0.799999 1.2
    endloop
  endfacet
  facet normal 0 0 1
    outer loop
      vertex 89.1 0.799999 1.2
      vertex 0 0 1.2
      vertex 139.8 0 1.2
    endloop
  endfacet
  facet normal 0 0 1
    outer loop
      vertex 0.799999 10.8 1.2
      vertex 0 0 1.2
      vertex 0.799999 0.799999 1.2
    endloop
  endfacet
  facet normal 0 0 1
    outer loop
      vertex 0 0 1.2
      vertex 0.4 36.6 1.2
      vertex 0 74 1.2
    endloop
  endfacet
  facet normal 0 -1 0
    outer loop
      vertex 0.799999 0.799999 1.2
      vertex 10.8 0.799999 3.2
      vertex 0.799999 0.799999 3.2
    endloop
  endfacet
  facet normal 0 -1 -0
    outer loop
      vertex 10.8 0.799999 3.2
      vertex 0.799999 0.799999 1.2
      vertex 10.8 0.799999 1.2
    endloop
  endfacet
  facet normal 1 -0 0
    outer loop
      vertex 2 2 3.2
      vertex 2 10.8 1.2
      vertex 2 10.8 3.2
    endloop
  endfacet
  facet normal 1 0 0
    outer loop
      vertex 2 10.8 1.2
      vertex 2 2 3.2
      vertex 2 2 1.2
    endloop
  endfacet
  facet normal 0 1 -0
    outer loop
      vertex 2 10.8 1.2
      vertex 0.799999 10.8 3.2
      vertex 2 10.8 3.2
    endloop
  endfacet
  facet normal 0 1 0
    outer loop
      vertex 0.799999 10.8 3.2
      vertex 2 10.8 1.2
      vertex 0.799999 10.8 1.2
    endloop
  endfacet
  facet normal 0 1 -0
    outer loop
      vertex 139 10.8 1.2
      vertex 137.8 10.8 3.2
      vertex 139 10.8 3.2
    endloop
  endfacet
  facet normal 0 1 0
    outer loop
      vertex 137.8 10.8 3.2
      vertex 139 10.8 1.2
      vertex 137.8 10.8 1.2
    endloop
  endfacet
  facet normal 0 0 1
    outer loop
      vertex 137.8 2 3.2
      vertex 139 10.8 3.2
      vertex 137.8 10.8 3.2
    endloop
  endfacet
  facet normal 0 0 1
    outer loop
      vertex 139 10.8 3.2
      vertex 137.8 2 3.2
      vertex 139 0.799999 3.2
    endloop
  endfacet
  facet normal 0 0 1
    outer loop
      vertex 129 0.799999 3.2
      vertex 137.8 2 3.2
      vertex 129 2 3.2
    endloop
  endfacet
  facet normal 0 0 1
    outer loop
      vertex 137.8 2 3.2
      vertex 129 0.799999 3.2
      vertex 139 0.799999 3.2
    endloop
  endfacet
  facet normal -1 0 0
    outer loop
      vertex 137.8 2 1.2
      vertex 137.8 10.8 3.2
      vertex 137.8 10.8 1.2
    endloop
  endfacet
  facet normal -1 -0 0
    outer loop
      vertex 137.8 10.8 3.2
      vertex 137.8 2 1.2
      vertex 137.8 2 3.2
    endloop
  endfacet
  facet normal 0 -1 0
    outer loop
      vertex 129 0.799999 1.2
      vertex 139 0.799999 3.2
      vertex 129 0.799999 3.2
    endloop
  endfacet
  facet normal 0 -1 -0
    outer loop
      vertex 139 0.799999 3.2
      vertex 129 0.799999 1.2
      vertex 139 0.799999 1.2
    endloop
  endfacet
  facet normal 1 -0 0
    outer loop
      vertex 139 0.799999 3.2
      vertex 139 10.8 1.2
      vertex 139 10.8 3.2
    endloop
  endfacet
  facet normal 1 0 0
    outer loop
      vertex 139 10.8 1.2
      vertex 139 0.799999 3.2
      vertex 139 0.799999 1.2
    endloop
  endfacet
  facet normal 0 1 -0
    outer loop
      vertex 137.8 2 1.2
      vertex 129 2 3.2
      vertex 137.8 2 3.2
    endloop
  endfacet
  facet normal 0 1 0
    outer loop
      vertex 129 2 3.2
      vertex 137.8 2 1.2
      vertex 129 2 1.2
    endloop
  endfacet
  facet normal -1 0 0
    outer loop
      vertex 129 0.799999 1.2
      vertex 129 2 3.2
      vertex 129 2 1.2
    endloop
  endfacet
  facet normal -1 -0 0
    outer loop
      vertex 129 2 3.2
      vertex 129 0.799999 1.2
      vertex 129 0.799999 3.2
    endloop
  endfacet
  facet normal 0 0 1
    outer loop
      vertex 139 73.2 3.2
      vertex 137.8 72 3.2
      vertex 139 63.2 3.2
    endloop
  endfacet
  facet normal -0 0 1
    outer loop
      vertex 129 73.2 3.2
      vertex 137.8 72 3.2
      vertex 139 73.2 3.2
    endloop
  endfacet
  facet normal 0 0 1
    outer loop
      vertex 137.8 72 3.2
      vertex 129 73.2 3.2
      vertex 129 72 3.2
    endloop
  endfacet
  facet normal 0 0 1
    outer loop
      vertex 139 63.2 3.2
      vertex 137.8 72 3.2
      vertex 137.8 63.2 3.2
    endloop
  endfacet
  facet normal -1 0 0
    outer loop
      vertex 129 72 1.2
      vertex 129 73.2 3.2
      vertex 129 73.2 1.2
    endloop
  endfacet
  facet normal -1 -0 0
    outer loop
      vertex 129 73.2 3.2
      vertex 129 72 1.2
      vertex 129 72 3.2
    endloop
  endfacet
  facet normal 0 1 -0
    outer loop
      vertex 139 73.2 1.2
      vertex 129 73.2 3.2
      vertex 139 73.2 3.2
    endloop
  endfacet
  facet normal 0 1 0
    outer loop
      vertex 129 73.2 3.2
      vertex 139 73.2 1.2
      vertex 129 73.2 1.2
    endloop
  endfacet
  facet normal 1 -0 0
    outer loop
      vertex 139 63.2 3.2
      vertex 139 73.2 1.2
      vertex 139 73.2 3.2
    endloop
  endfacet
  facet normal 1 0 0
    outer loop
      vertex 139 73.2 1.2
      vertex 139 63.2 3.2
      vertex 139 63.2 1.2
    endloop
  endfacet
  facet normal 0 -1 0
    outer loop
      vertex 129 72 1.2
      vertex 137.8 72 3.2
      vertex 129 72 3.2
    endloop
  endfacet
  facet normal 0 -1 -0
    outer loop
      vertex 137.8 72 3.2
      vertex 129 72 1.2
      vertex 137.8 72 1.2
    endloop
  endfacet
  facet normal -1 0 0
    outer loop
      vertex 137.8 63.2 1.2
      vertex 137.8 72 3.2
      vertex 137.8 72 1.2
    endloop
  endfacet
  facet normal -1 -0 0
    outer loop
      vertex 137.8 72 3.2
      vertex 137.8 63.2 1.2
      vertex 137.8 63.2 3.2
    endloop
  endfacet
  facet normal 0 -1 0
    outer loop
      vertex 137.8 63.2 1.2
      vertex 139 63.2 3.2
      vertex 137.8 63.2 3.2
    endloop
  endfacet
  facet normal 0 -1 -0
    outer loop
      vertex 139 63.2 3.2
      vertex 137.8 63.2 1.2
      vertex 139 63.2 1.2
    endloop
  endfacet
  facet normal 0 0 1
    outer loop
      vertex 10.8 73.2 3.2
      vertex 2 72 3.2
      vertex 10.8 72 3.2
    endloop
  endfacet
  facet normal -0 0 1
    outer loop
      vertex 0.799999 73.2 3.2
      vertex 2 72 3.2
      vertex 10.8 73.2 3.2
    endloop
  endfacet
  facet normal 0 0 1
    outer loop
      vertex 0.799999 63.2 3.2
      vertex 2 72 3.2
      vertex 0.799999 73.2 3.2
    endloop
  endfacet
  facet normal 0 0 1
    outer loop
      vertex 2 72 3.2
      vertex 0.799999 63.2 3.2
      vertex 2 63.2 3.2
    endloop
  endfacet
  facet normal 0 1 -0
    outer loop
      vertex 10.8 73.2 1.2
      vertex 0.799999 73.2 3.2
      vertex 10.8 73.2 3.2
    endloop
  endfacet
  facet normal 0 1 0
    outer loop
      vertex 0.799999 73.2 3.2
      vertex 10.8 73.2 1.2
      vertex 0.799999 73.2 1.2
    endloop
  endfacet
  facet normal 0 -1 0
    outer loop
      vertex 0.799999 63.2 1.2
      vertex 2 63.2 3.2
      vertex 0.799999 63.2 3.2
    endloop
  endfacet
  facet normal 0 -1 -0
    outer loop
      vertex 2 63.2 3.2
      vertex 0.799999 63.2 1.2
      vertex 2 63.2 1.2
    endloop
  endfacet
  facet normal -1 0 0
    outer loop
      vertex 0.799999 63.2 1.2
      vertex 0.799999 73.2 3.2
      vertex 0.799999 73.2 1.2
    endloop
  endfacet
  facet normal -1 -0 0
    outer loop
      vertex 0.799999 73.2 3.2
      vertex 0.799999 63.2 1.2
      vertex 0.799999 63.2 3.2
    endloop
  endfacet
  facet normal 1 -0 0
    outer loop
      vertex 2 63.2 3.2
      vertex 2 72 1.2
      vertex 2 72 3.2
    endloop
  endfacet
  facet normal 1 0 0
    outer loop
      vertex 2 72 1.2
      vertex 2 63.2 3.2
      vertex 2 63.2 1.2
    endloop
  endfacet
  facet normal 0 -1 0
    outer loop
      vertex 2 72 1.2
      vertex 10.8 72 3.2
      vertex 2 72 3.2
    endloop
  endfacet
  facet normal 0 -1 -0
    outer loop
      vertex 10.8 72 3.2
      vertex 2 72 1.2
      vertex 10.8 72 1.2
    endloop
  endfacet
  facet normal 1 -0 0
    outer loop
      vertex 10.8 72 3.2
      vertex 10.8 73.2 1.2
      vertex 10.8 73.2 3.2
    endloop
  endfacet
  facet normal 1 0 0
    outer loop
      vertex 10.8 73.2 1.2
      vertex 10.8 72 3.2
      vertex 10.8 72 1.2
    endloop
  endfacet
  facet normal -1 0 0
    outer loop
      vertex 0 0 0
      vertex 0 74 1.2
      vertex 0 74 0
    endloop
  endfacet
  facet normal -1 -0 0
    outer loop
      vertex 0 74 1.2
      vertex 0 0 0
      vertex 0 0 1.2
    endloop
  endfacet
  facet normal 1 0 0
    outer loop
      vertex 139.8 74 1.2
      vertex 139.8 40.9 0.599999
      vertex 139.8 74 0
    endloop
  endfacet
  facet normal 1 0 0
    outer loop
      vertex 139.8 74 1.2
      vertex 139.8 39.9 0.599999
      vertex 139.8 40.9 0.599999
    endloop
  endfacet
  facet normal 1 -0 0
    outer loop
      vertex 139.8 0 1.2
      vertex 139.8 39.9 0.599999
      vertex 139.8 74 1.2
    endloop
  endfacet
  facet normal 1 0 0
    outer loop
      vertex 139.8 0 0
      vertex 139.8 39.9 0.599999
      vertex 139.8 0 1.2
    endloop
  endfacet
  facet normal 1 0 0
    outer loop
      vertex 139.8 39.9 0.599999
      vertex 139.8 0 0
      vertex 139.8 39.9 0
    endloop
  endfacet
  facet normal 1 0 0
    outer loop
      vertex 139.8 74 0
      vertex 139.8 40.9 0.599999
      vertex 139.8 40.9 0
    endloop
  endfacet
  facet normal 0 1 0
    outer loop
      vertex 139.8 74 1.2
      vertex 100 74 0.599999
      vertex 0 74 1.2
    endloop
  endfacet
  facet normal 0 1 -0
    outer loop
      vertex 139.8 74 0
      vertex 100 74 0.599999
      vertex 139.8 74 1.2
    endloop
  endfacet
  facet normal 0 1 0
    outer loop
      vertex 100 74 0.599999
      vertex 139.8 74 0
      vertex 100 74 0
    endloop
  endfacet
  facet normal 0 1 -0
    outer loop
      vertex 99 74 0.599999
      vertex 0 74 1.2
      vertex 100 74 0.599999
    endloop
  endfacet
  facet normal 0 1 -0
    outer loop
      vertex 99 74 0
      vertex 0 74 1.2
      vertex 99 74 0.599999
    endloop
  endfacet
  facet normal 0 1 0
    outer loop
      vertex 0 74 1.2
      vertex 99 74 0
      vertex 0 74 0
    endloop
  endfacet
  facet normal 0 0 -1
    outer loop
      vertex 71.6333 24.7 0
      vertex 99 0 0
      vertex 71.6333 19.7 0
    endloop
  endfacet
  facet normal 0 0 -1
    outer loop
      vertex 99 0 0
      vertex 66.6333 19.7 0
      vertex 71.6333 19.7 0
    endloop
  endfacet
  facet normal 0 0 -1
    outer loop
      vertex 66.6333 19.7 0
      vertex 37.0667 49.3 0
      vertex 66.6333 24.7 0
    endloop
  endfacet
  facet normal 0 0 -1
    outer loop
      vertex 66.6333 19.7 0
      vertex 32.0667 49.3 0
      vertex 37.0667 49.3 0
    endloop
  endfacet
  facet normal 0 0 -1
    outer loop
      vertex 0 74 0
      vertex 32.0667 49.3 0
      vertex 0 0 0
    endloop
  endfacet
  facet normal -0 0 -1
    outer loop
      vertex 66.6333 19.7 0
      vertex 0 0 0
      vertex 32.0667 49.3 0
    endloop
  endfacet
  facet normal 0 0 -1
    outer loop
      vertex 0 0 0
      vertex 66.6333 19.7 0
      vertex 99 0 0
    endloop
  endfacet
  facet normal 0 0 -1
    outer loop
      vertex 99 0 0
      vertex 71.6333 24.7 0
      vertex 99 74 0
    endloop
  endfacet
  facet normal 0 0 -1
    outer loop
      vertex 37.0667 54.3 0
      vertex 71.6333 24.7 0
      vertex 66.6333 24.7 0
    endloop
  endfacet
  facet normal 0 0 -1
    outer loop
      vertex 37.0667 54.3 0
      vertex 66.6333 24.7 0
      vertex 37.0667 49.3 0
    endloop
  endfacet
  facet normal 0 0 -1
    outer loop
      vertex 71.6333 24.7 0
      vertex 37.0667 54.3 0
      vertex 99 74 0
    endloop
  endfacet
  facet normal 0 0 -1
    outer loop
      vertex 0 74 0
      vertex 37.0667 54.3 0
      vertex 32.0667 54.3 0
    endloop
  endfacet
  facet normal 0 0 -1
    outer loop
      vertex 37.0667 54.3 0
      vertex 0 74 0
      vertex 99 74 0
    endloop
  endfacet
  facet normal 0 0 -1
    outer loop
      vertex 32.0667 49.3 0
      vertex 0 74 0
      vertex 32.0667 54.3 0
    endloop
  endfacet
  facet normal 0 0 -1
    outer loop
      vertex 124.25 58 0
      vertex 139.8 40.9 0
      vertex 124.25 53 0
    endloop
  endfacet
  facet normal 0 0 -1
    outer loop
      vertex 139.8 40.9 0
      vertex 119.25 53 0
      vertex 124.25 53 0
    endloop
  endfacet
  facet normal -0 0 -1
    outer loop
      vertex 119.25 53 0
      vertex 100 40.9 0
      vertex 119.25 58 0
    endloop
  endfacet
  facet normal 0 0 -1
    outer loop
      vertex 100 40.9 0
      vertex 119.25 53 0
      vertex 139.8 40.9 0
    endloop
  endfacet
  facet normal 0 0 -1
    outer loop
      vertex 139.8 40.9 0
      vertex 124.25 58 0
      vertex 139.8 74 0
    endloop
  endfacet
  facet normal 0 0 -1
    outer loop
      vertex 119.25 58 0
      vertex 139.8 74 0
      vertex 124.25 58 0
    endloop
  endfacet
  facet normal 0 0 -1
    outer loop
      vertex 119.25 58 0
      vertex 100 74 0
      vertex 139.8 74 0
    endloop
  endfacet
  facet normal 0 0 -1
    outer loop
      vertex 100 74 0
      vertex 119.25 58 0
      vertex 100 40.9 0
    endloop
  endfacet
  facet normal 0 0 -1
    outer loop
      vertex 124.25 21 0
      vertex 139.8 0 0
      vertex 124.25 16 0
    endloop
  endfacet
  facet normal 0 0 -1
    outer loop
      vertex 139.8 0 0
      vertex 119.25 16 0
      vertex 124.25 16 0
    endloop
  endfacet
  facet normal 0 0 -1
    outer loop
      vertex 119.25 16 0
      vertex 106.8 33.1 0
      vertex 119.25 21 0
    endloop
  endfacet
  facet normal 0 0 -1
    outer loop
      vertex 100 0 0
      vertex 119.25 16 0
      vertex 139.8 0 0
    endloop
  endfacet
  facet normal 0 0 -1
    outer loop
      vertex 100 33.1 0
      vertex 119.25 16 0
      vertex 100 0 0
    endloop
  endfacet
  facet normal 0 0 -1
    outer loop
      vertex 119.25 16 0
      vertex 100 33.1 0
      vertex 106.8 33.1 0
    endloop
  endfacet
  facet normal 0 0 -1
    outer loop
      vertex 139.8 0 0
      vertex 124.25 21 0
      vertex 139.8 39.9 0
    endloop
  endfacet
  facet normal 0 0 -1
    outer loop
      vertex 106.8 33.1 0
      vertex 124.25 21 0
      vertex 119.25 21 0
    endloop
  endfacet
  facet normal 0 0 -1
    outer loop
      vertex 124.25 21 0
      vertex 106.8 33.1 0
      vertex 106.8 39.9 0
    endloop
  endfacet
  facet normal 0 0 -1
    outer loop
      vertex 124.25 21 0
      vertex 106.8 39.9 0
      vertex 139.8 39.9 0
    endloop
  endfacet
  facet normal 0 -1 0
    outer loop
      vertex 0 0 1.2
      vertex 99 0 0.599999
      vertex 139.8 0 1.2
    endloop
  endfacet
  facet normal 0 -1 0
    outer loop
      vertex 0 0 0
      vertex 99 0 0.599999
      vertex 0 0 1.2
    endloop
  endfacet
  facet normal 0 -1 -0
    outer loop
      vertex 99 0 0.599999
      vertex 0 0 0
      vertex 99 0 0
    endloop
  endfacet
  facet normal 0 -1 0
    outer loop
      vertex 100 0 0.599999
      vertex 139.8 0 1.2
      vertex 99 0 0.599999
    endloop
  endfacet
  facet normal 0 -1 0
    outer loop
      vertex 139.8 0 0
      vertex 100 0 0.599999
      vertex 100 0 0
    endloop
  endfacet
  facet normal 0 -1 0
    outer loop
      vertex 100 0 0.599999
      vertex 139.8 0 0
      vertex 139.8 0 1.2
    endloop
  endfacet
  facet normal 1 -0 0
    outer loop
      vertex 99.9 34 1.2
      vertex 99.9 40 0.599999
      vertex 99.9 40 1.2
    endloop
  endfacet
  facet normal 1 0 0
    outer loop
      vertex 99.9 40 0.599999
      vertex 99.9 34 1.2
      vertex 99.9 34 0.599999
    endloop
  endfacet
  facet normal -1 0 0
    outer loop
      vertex 105.9 34 0.599999
      vertex 105.9 40 1.2
      vertex 105.9 40 0.599999
    endloop
  endfacet
  facet normal -1 -0 0
    outer loop
      vertex 105.9 40 1.2
      vertex 105.9 34 0.599999
      vertex 105.9 34 1.2
    endloop
  endfacet
  facet normal 0 1 -0
    outer loop
      vertex 105.9 34 0.599999
      vertex 99.9 34 1.2
      vertex 105.9 34 1.2
    endloop
  endfacet
  facet normal 0 1 0
    outer loop
      vertex 99.9 34 1.2
      vertex 105.9 34 0.599999
      vertex 99.9 34 0.599999
    endloop
  endfacet
  facet normal 0 -1 0
    outer loop
      vertex 99.9 40 0.599999
      vertex 105.9 40 1.2
      vertex 99.9 40 1.2
    endloop
  endfacet
  facet normal 0 -1 -0
    outer loop
      vertex 105.9 40 1.2
      vertex 99.9 40 0.599999
      vertex 105.9 40 0.599999
    endloop
  endfacet
  facet normal 0 0 -1
    outer loop
      vertex 99 0 0.599999
      vertex 100 33.1 0.599999
      vertex 100 0 0.599999
    endloop
  endfacet
  facet normal -0 0 -1
    outer loop
      vertex 99.9 34 0.599999
      vertex 99 0 0.599999
      vertex 99.9 40 0.599999
    endloop
  endfacet
  facet normal -0 0 -1
    outer loop
      vertex 100 33.1 0.599999
      vertex 99 0 0.599999
      vertex 99.9 34 0.599999
    endloop
  endfacet
  facet normal 0 0 -1
    outer loop
      vertex 106.8 33.1 0.599999
      vertex 105.9 34 0.599999
      vertex 106.8 39.9 0.599999
    endloop
  endfacet
  facet normal 0 0 -1
    outer loop
      vertex 100 33.1 0.599999
      vertex 105.9 34 0.599999
      vertex 106.8 33.1 0.599999
    endloop
  endfacet
  facet normal -0 0 -1
    outer loop
      vertex 105.9 34 0.599999
      vertex 100 33.1 0.599999
      vertex 99.9 34 0.599999
    endloop
  endfacet
  facet normal 0 0 -1
    outer loop
      vertex 106.8 39.9 0.599999
      vertex 139.8 40.9 0.599999
      vertex 139.8 39.9 0.599999
    endloop
  endfacet
  facet normal 0 0 -1
    outer loop
      vertex 105.9 40 0.599999
      vertex 106.8 39.9 0.599999
      vertex 105.9 34 0.599999
    endloop
  endfacet
  facet normal 0 0 -1
    outer loop
      vertex 100 40.9 0.599999
      vertex 106.8 39.9 0.599999
      vertex 105.9 40 0.599999
    endloop
  endfacet
  facet normal 0 0 -1
    outer loop
      vertex 106.8 39.9 0.599999
      vertex 100 40.9 0.599999
      vertex 139.8 40.9 0.599999
    endloop
  endfacet
  facet normal 0 0 -1
    outer loop
      vertex 99.9 40 0.599999
      vertex 100 40.9 0.599999
      vertex 105.9 40 0.599999
    endloop
  endfacet
  facet normal 0 0 -1
    outer loop
      vertex 99 74 0.599999
      vertex 100 40.9 0.599999
      vertex 99.9 40 0.599999
    endloop
  endfacet
  facet normal 0 0 -1
    outer loop
      vertex 99 74 0.599999
      vertex 99.9 40 0.599999
      vertex 99 0 0.599999
    endloop
  endfacet
  facet normal 0 0 -1
    outer loop
      vertex 100 40.9 0.599999
      vertex 99 74 0.599999
      vertex 100 74 0.599999
    endloop
  endfacet
  facet normal -1 0 0
    outer loop
      vertex 106.8 33.1 0
      vertex 106.8 39.9 0.599999
      vertex 106.8 39.9 0
    endloop
  endfacet
  facet normal -1 -0 0
    outer loop
      vertex 106.8 39.9 0.599999
      vertex 106.8 33.1 0
      vertex 106.8 33.1 0.599999
    endloop
  endfacet
  facet normal 0 -1 0
    outer loop
      vertex 100 40.9 0
      vertex 139.8 40.9 0.599999
      vertex 100 40.9 0.599999
    endloop
  endfacet
  facet normal 0 -1 -0
    outer loop
      vertex 139.8 40.9 0.599999
      vertex 100 40.9 0
      vertex 139.8 40.9 0
    endloop
  endfacet
  facet normal 0 1 -0
    outer loop
      vertex 106.8 33.1 0
      vertex 100 33.1 0.599999
      vertex 106.8 33.1 0.599999
    endloop
  endfacet
  facet normal 0 1 0
    outer loop
      vertex 100 33.1 0.599999
      vertex 106.8 33.1 0
      vertex 100 33.1 0
    endloop
  endfacet
  facet normal 1 -0 0
    outer loop
      vertex 99 0 0.599999
      vertex 99 74 0
      vertex 99 74 0.599999
    endloop
  endfacet
  facet normal 1 0 0
    outer loop
      vertex 99 74 0
      vertex 99 0 0.599999
      vertex 99 0 0
    endloop
  endfacet
  facet normal -1 0 0
    outer loop
      vertex 100 40.9 0
      vertex 100 74 0.599999
      vertex 100 74 0
    endloop
  endfacet
  facet normal -1 -0 0
    outer loop
      vertex 100 74 0.599999
      vertex 100 40.9 0
      vertex 100 40.9 0.599999
    endloop
  endfacet
  facet normal -1 0 0
    outer loop
      vertex 100 0 0
      vertex 100 33.1 0.599999
      vertex 100 33.1 0
    endloop
  endfacet
  facet normal -1 -0 0
    outer loop
      vertex 100 33.1 0.599999
      vertex 100 0 0
      vertex 100 0 0.599999
    endloop
  endfacet
  facet normal 0 1 -0
    outer loop
      vertex 139.8 39.9 0
      vertex 106.8 39.9 0.599999
      vertex 139.8 39.9 0.599999
    endloop
  endfacet
  facet normal 0 1 0
    outer loop
      vertex 106.8 39.9 0.599999
      vertex 139.8 39.9 0
      vertex 106.8 39.9 0
    endloop
  endfacet
  facet normal 1 -0 0
    outer loop
      vertex 32.0667 49.3 1.2
      vertex 32.0667 54.3 0
      vertex 32.0667 54.3 1.2
    endloop
  endfacet
  facet normal 1 0 0
    outer loop
      vertex 32.0667 54.3 0
      vertex 32.0667 49.3 1.2
      vertex 32.0667 49.3 0
    endloop
  endfacet
  facet normal -1 0 0
    outer loop
      vertex 37.0667 49.3 0
      vertex 37.0667 54.3 1.2
      vertex 37.0667 54.3 0
    endloop
  endfacet
  facet normal -1 -0 0
    outer loop
      vertex 37.0667 54.3 1.2
      vertex 37.0667 49.3 0
      vertex 37.0667 49.3 1.2
    endloop
  endfacet
  facet normal 0 -1 0
    outer loop
      vertex 32.0667 54.3 0
      vertex 37.0667 54.3 1.2
      vertex 32.0667 54.3 1.2
    endloop
  endfacet
  facet normal 0 -1 -0
    outer loop
      vertex 37.0667 54.3 1.2
      vertex 32.0667 54.3 0
      vertex 37.0667 54.3 0
    endloop
  endfacet
  facet normal 0 1 -0
    outer loop
      vertex 37.0667 49.3 0
      vertex 32.0667 49.3 1.2
      vertex 37.0667 49.3 1.2
    endloop
  endfacet
  facet normal 0 1 0
    outer loop
      vertex 32.0667 49.3 1.2
      vertex 37.0667 49.3 0
      vertex 32.0667 49.3 0
    endloop
  endfacet
  facet normal 1 -0 0
    outer loop
      vertex 66.6333 19.7 1.2
      vertex 66.6333 24.7 0
      vertex 66.6333 24.7 1.2
    endloop
  endfacet
  facet normal 1 0 0
    outer loop
      vertex 66.6333 24.7 0
      vertex 66.6333 19.7 1.2
      vertex 66.6333 19.7 0
    endloop
  endfacet
  facet normal -1 0 0
    outer loop
      vertex 71.6333 19.7 0
      vertex 71.6333 24.7 1.2
      vertex 71.6333 24.7 0
    endloop
  endfacet
  facet normal -1 -0 0
    outer loop
      vertex 71.6333 24.7 1.2
      vertex 71.6333 19.7 0
      vertex 71.6333 19.7 1.2
    endloop
  endfacet
  facet normal 0 -1 0
    outer loop
      vertex 66.6333 24.7 0
      vertex 71.6333 24.7 1.2
      vertex 66.6333 24.7 1.2
    endloop
  endfacet
  facet normal 0 -1 -0
    outer loop
      vertex 71.6333 24.7 1.2
      vertex 66.6333 24.7 0
      vertex 71.6333 24.7 0
    endloop
  endfacet
  facet normal 0 1 -0
    outer loop
      vertex 71.6333 19.7 0
      vertex 66.6333 19.7 1.2
      vertex 71.6333 19.7 1.2
    endloop
  endfacet
  facet normal 0 1 0
    outer loop
      vertex 66.6333 19.7 1.2
      vertex 71.6333 19.7 0
      vertex 66.6333 19.7 0
    endloop
  endfacet
  facet normal 1 -0 0
    outer loop
      vertex 119.25 53 1.2
      vertex 119.25 58 0
      vertex 119.25 58 1.2
    endloop
  endfacet
  facet normal 1 0 0
    outer loop
      vertex 119.25 58 0
      vertex 119.25 53 1.2
      vertex 119.25 53 0
    endloop
  endfacet
  facet normal -1 0 0
    outer loop
      vertex 124.25 53 0
      vertex 124.25 58 1.2
      vertex 124.25 58 0
    endloop
  endfacet
  facet normal -1 -0 0
    outer loop
      vertex 124.25 58 1.2
      vertex 124.25 53 0
      vertex 124.25 53 1.2
    endloop
  endfacet
  facet normal 0 1 -0
    outer loop
      vertex 124.25 53 0
      vertex 119.25 53 1.2
      vertex 124.25 53 1.2
    endloop
  endfacet
  facet normal 0 1 0
    outer loop
      vertex 119.25 53 1.2
      vertex 124.25 53 0
      vertex 119.25 53 0
    endloop
  endfacet
  facet normal 0 -1 0
    outer loop
      vertex 119.25 58 0
      vertex 124.25 58 1.2
      vertex 119.25 58 1.2
    endloop
  endfacet
  facet normal 0 -1 -0
    outer loop
      vertex 124.25 58 1.2
      vertex 119.25 58 0
      vertex 124.25 58 0
    endloop
  endfacet
  facet normal 1 -0 0
    outer loop
      vertex 119.25 16 1.2
      vertex 119.25 21 0
      vertex 119.25 21 1.2
    endloop
  endfacet
  facet normal 1 0 0
    outer loop
      vertex 119.25 21 0
      vertex 119.25 16 1.2
      vertex 119.25 16 0
    endloop
  endfacet
  facet normal -1 0 0
    outer loop
      vertex 124.25 16 0
      vertex 124.25 21 1.2
      vertex 124.25 21 0
    endloop
  endfacet
  facet normal -1 -0 0
    outer loop
      vertex 124.25 21 1.2
      vertex 124.25 16 0
      vertex 124.25 16 1.2
    endloop
  endfacet
  facet normal 0 1 -0
    outer loop
      vertex 124.25 16 0
      vertex 119.25 16 1.2
      vertex 124.25 16 1.2
    endloop
  endfacet
  facet normal 0 1 0
    outer loop
      vertex 119.25 16 1.2
      vertex 124.25 16 0
      vertex 119.25 16 0
    endloop
  endfacet
  facet normal 0 -1 0
    outer loop
      vertex 119.25 21 0
      vertex 124.25 21 1.2
      vertex 119.25 21 1.2
    endloop
  endfacet
  facet normal 0 -1 -0
    outer loop
      vertex 124.25 21 1.2
      vertex 119.25 21 0
      vertex 124.25 21 0
    endloop
  endfacet
  facet normal -1 0 0
    outer loop
      vertex 27.5667 48.3 1.2
      vertex 27.5667 55.3 5.6
      vertex 27.5667 55.3 1.2
    endloop
  endfacet
  facet normal -1 -0 0
    outer loop
      vertex 27.5667 55.3 5.6
      vertex 27.5667 48.3 1.2
      vertex 27.5667 48.3 5.6
    endloop
  endfacet
  facet normal 0 0 -1
    outer loop
      vertex 29.5667 48.3 4.4
      vertex 30.8167 55.3 4.4
      vertex 30.8167 48.3 4.4
    endloop
  endfacet
  facet normal -0 0 -1
    outer loop
      vertex 30.8167 55.3 4.4
      vertex 29.5667 48.3 4.4
      vertex 29.5667 55.3 4.4
    endloop
  endfacet
  facet normal 1 -0 0
    outer loop
      vertex 29.5667 48.3 4.4
      vertex 29.5667 55.3 1.2
      vertex 29.5667 55.3 4.4
    endloop
  endfacet
  facet normal 1 0 0
    outer loop
      vertex 29.5667 55.3 1.2
      vertex 29.5667 48.3 4.4
      vertex 29.5667 48.3 1.2
    endloop
  endfacet
  facet normal 0 -1 0
    outer loop
      vertex 27.5667 48.3 5.6
      vertex 29.5667 48.3 4.4
      vertex 30.8167 48.3 5.6
    endloop
  endfacet
  facet normal 0 -1 0
    outer loop
      vertex 27.5667 48.3 1.2
      vertex 29.5667 48.3 4.4
      vertex 27.5667 48.3 5.6
    endloop
  endfacet
  facet normal 0 -1 -0
    outer loop
      vertex 29.5667 48.3 4.4
      vertex 27.5667 48.3 1.2
      vertex 29.5667 48.3 1.2
    endloop
  endfacet
  facet normal 0 -1 -0
    outer loop
      vertex 30.8167 48.3 5.6
      vertex 29.5667 48.3 4.4
      vertex 30.8167 48.3 4.4
    endloop
  endfacet
  facet normal 0 1 0
    outer loop
      vertex 29.5667 55.3 4.4
      vertex 30.8167 55.3 5.6
      vertex 30.8167 55.3 4.4
    endloop
  endfacet
  facet normal 0 1 0
    outer loop
      vertex 30.8167 55.3 5.6
      vertex 29.5667 55.3 4.4
      vertex 27.5667 55.3 5.6
    endloop
  endfacet
  facet normal 0 1 0
    outer loop
      vertex 27.5667 55.3 1.2
      vertex 29.5667 55.3 4.4
      vertex 29.5667 55.3 1.2
    endloop
  endfacet
  facet normal 0 1 0
    outer loop
      vertex 29.5667 55.3 4.4
      vertex 27.5667 55.3 1.2
      vertex 27.5667 55.3 5.6
    endloop
  endfacet
  facet normal -0 0 1
    outer loop
      vertex 27.5667 55.3 5.6
      vertex 30.8167 48.3 5.6
      vertex 30.8167 55.3 5.6
    endloop
  endfacet
  facet normal 0 0 1
    outer loop
      vertex 30.8167 48.3 5.6
      vertex 27.5667 55.3 5.6
      vertex 27.5667 48.3 5.6
    endloop
  endfacet
  facet normal 1 -0 0
    outer loop
      vertex 30.8167 48.3 5.6
      vertex 30.8167 55.3 4.4
      vertex 30.8167 55.3 5.6
    endloop
  endfacet
  facet normal 1 0 0
    outer loop
      vertex 30.8167 55.3 4.4
      vertex 30.8167 48.3 5.6
      vertex 30.8167 48.3 4.4
    endloop
  endfacet
  facet normal -1 0 0
    outer loop
      vertex 39.5667 48.3 1.2
      vertex 39.5667 55.3 4.4
      vertex 39.5667 55.3 1.2
    endloop
  endfacet
  facet normal -1 -0 0
    outer loop
      vertex 39.5667 55.3 4.4
      vertex 39.5667 48.3 1.2
      vertex 39.5667 48.3 4.4
    endloop
  endfacet
  facet normal 0 0 -1
    outer loop
      vertex 38.3167 48.3 4.4
      vertex 39.5667 55.3 4.4
      vertex 39.5667 48.3 4.4
    endloop
  endfacet
  facet normal -0 0 -1
    outer loop
      vertex 39.5667 55.3 4.4
      vertex 38.3167 48.3 4.4
      vertex 38.3167 55.3 4.4
    endloop
  endfacet
  facet normal 1 -0 0
    outer loop
      vertex 41.5667 48.3 5.6
      vertex 41.5667 55.3 1.2
      vertex 41.5667 55.3 5.6
    endloop
  endfacet
  facet normal 1 0 0
    outer loop
      vertex 41.5667 55.3 1.2
      vertex 41.5667 48.3 5.6
      vertex 41.5667 48.3 1.2
    endloop
  endfacet
  facet normal 0 1 0
    outer loop
      vertex 41.5667 55.3 5.6
      vertex 39.5667 55.3 4.4
      vertex 38.3167 55.3 5.6
    endloop
  endfacet
  facet normal 0 1 -0
    outer loop
      vertex 41.5667 55.3 1.2
      vertex 39.5667 55.3 4.4
      vertex 41.5667 55.3 5.6
    endloop
  endfacet
  facet normal 0 1 0
    outer loop
      vertex 39.5667 55.3 4.4
      vertex 41.5667 55.3 1.2
      vertex 39.5667 55.3 1.2
    endloop
  endfacet
  facet normal 0 1 0
    outer loop
      vertex 38.3167 55.3 5.6
      vertex 39.5667 55.3 4.4
      vertex 38.3167 55.3 4.4
    endloop
  endfacet
  facet normal 0 -1 0
    outer loop
      vertex 39.5667 48.3 4.4
      vertex 38.3167 48.3 5.6
      vertex 38.3167 48.3 4.4
    endloop
  endfacet
  facet normal 0 -1 0
    outer loop
      vertex 38.3167 48.3 5.6
      vertex 39.5667 48.3 4.4
      vertex 41.5667 48.3 5.6
    endloop
  endfacet
  facet normal 0 -1 0
    outer loop
      vertex 41.5667 48.3 1.2
      vertex 39.5667 48.3 4.4
      vertex 39.5667 48.3 1.2
    endloop
  endfacet
  facet normal 0 -1 0
    outer loop
      vertex 39.5667 48.3 4.4
      vertex 41.5667 48.3 1.2
      vertex 41.5667 48.3 5.6
    endloop
  endfacet
  facet normal -1 0 0
    outer loop
      vertex 38.3167 48.3 4.4
      vertex 38.3167 55.3 5.6
      vertex 38.3167 55.3 4.4
    endloop
  endfacet
  facet normal -1 -0 0
    outer loop
      vertex 38.3167 55.3 5.6
      vertex 38.3167 48.3 4.4
      vertex 38.3167 48.3 5.6
    endloop
  endfacet
  facet normal -0 0 1
    outer loop
      vertex 38.3167 55.3 5.6
      vertex 41.5667 48.3 5.6
      vertex 41.5667 55.3 5.6
    endloop
  endfacet
  facet normal 0 0 1
    outer loop
      vertex 41.5667 48.3 5.6
      vertex 38.3167 55.3 5.6
      vertex 38.3167 48.3 5.6
    endloop
  endfacet
  facet normal -1 0 0
    outer loop
      vertex 31.0667 45.8 1.2
      vertex 31.0667 47.8 4.08
      vertex 31.0667 47.8 1.2
    endloop
  endfacet
  facet normal -1 -0 0
    outer loop
      vertex 31.0667 47.8 4.08
      vertex 31.0667 45.8 1.2
      vertex 31.0667 45.8 4.08
    endloop
  endfacet
  facet normal -0 0 1
    outer loop
      vertex 31.0667 47.8 4.08
      vertex 38.0667 45.8 4.08
      vertex 38.0667 47.8 4.08
    endloop
  endfacet
  facet normal 0 0 1
    outer loop
      vertex 38.0667 45.8 4.08
      vertex 31.0667 47.8 4.08
      vertex 31.0667 45.8 4.08
    endloop
  endfacet
  facet normal 1 -0 0
    outer loop
      vertex 38.0667 45.8 4.08
      vertex 38.0667 47.8 1.2
      vertex 38.0667 47.8 4.08
    endloop
  endfacet
  facet normal 1 0 0
    outer loop
      vertex 38.0667 47.8 1.2
      vertex 38.0667 45.8 4.08
      vertex 38.0667 45.8 1.2
    endloop
  endfacet
  facet normal 0 -1 0
    outer loop
      vertex 31.0667 45.8 1.2
      vertex 38.0667 45.8 4.08
      vertex 31.0667 45.8 4.08
    endloop
  endfacet
  facet normal 0 -1 -0
    outer loop
      vertex 38.0667 45.8 4.08
      vertex 31.0667 45.8 1.2
      vertex 38.0667 45.8 1.2
    endloop
  endfacet
  facet normal 0 1 -0
    outer loop
      vertex 38.0667 47.8 1.2
      vertex 31.0667 47.8 4.08
      vertex 38.0667 47.8 4.08
    endloop
  endfacet
  facet normal 0 1 0
    outer loop
      vertex 31.0667 47.8 4.08
      vertex 38.0667 47.8 1.2
      vertex 31.0667 47.8 1.2
    endloop
  endfacet
  facet normal -1 0 0
    outer loop
      vertex 62.1333 18.7 1.2
      vertex 62.1333 25.7 5.6
      vertex 62.1333 25.7 1.2
    endloop
  endfacet
  facet normal -1 -0 0
    outer loop
      vertex 62.1333 25.7 5.6
      vertex 62.1333 18.7 1.2
      vertex 62.1333 18.7 5.6
    endloop
  endfacet
  facet normal 0 0 -1
    outer loop
      vertex 64.1333 18.7 4.4
      vertex 65.3833 25.7 4.4
      vertex 65.3833 18.7 4.4
    endloop
  endfacet
  facet normal -0 0 -1
    outer loop
      vertex 65.3833 25.7 4.4
      vertex 64.1333 18.7 4.4
      vertex 64.1333 25.7 4.4
    endloop
  endfacet
  facet normal 1 -0 0
    outer loop
      vertex 64.1333 18.7 4.4
      vertex 64.1333 25.7 1.2
      vertex 64.1333 25.7 4.4
    endloop
  endfacet
  facet normal 1 0 0
    outer loop
      vertex 64.1333 25.7 1.2
      vertex 64.1333 18.7 4.4
      vertex 64.1333 18.7 1.2
    endloop
  endfacet
  facet normal 0 1 0
    outer loop
      vertex 64.1333 25.7 4.4
      vertex 65.3833 25.7 5.6
      vertex 65.3833 25.7 4.4
    endloop
  endfacet
  facet normal 0 1 0
    outer loop
      vertex 65.3833 25.7 5.6
      vertex 64.1333 25.7 4.4
      vertex 62.1333 25.7 5.6
    endloop
  endfacet
  facet normal 0 1 0
    outer loop
      vertex 62.1333 25.7 1.2
      vertex 64.1333 25.7 4.4
      vertex 64.1333 25.7 1.2
    endloop
  endfacet
  facet normal 0 1 0
    outer loop
      vertex 64.1333 25.7 4.4
      vertex 62.1333 25.7 1.2
      vertex 62.1333 25.7 5.6
    endloop
  endfacet
  facet normal 0 -1 0
    outer loop
      vertex 62.1333 18.7 5.6
      vertex 64.1333 18.7 4.4
      vertex 65.3833 18.7 5.6
    endloop
  endfacet
  facet normal 0 -1 0
    outer loop
      vertex 62.1333 18.7 1.2
      vertex 64.1333 18.7 4.4
      vertex 62.1333 18.7 5.6
    endloop
  endfacet
  facet normal 0 -1 -0
    outer loop
      vertex 64.1333 18.7 4.4
      vertex 62.1333 18.7 1.2
      vertex 64.1333 18.7 1.2
    endloop
  endfacet
  facet normal 0 -1 -0
    outer loop
      vertex 65.3833 18.7 5.6
      vertex 64.1333 18.7 4.4
      vertex 65.3833 18.7 4.4
    endloop
  endfacet
  facet normal -0 0 1
    outer loop
      vertex 62.1333 25.7 5.6
      vertex 65.3833 18.7 5.6
      vertex 65.3833 25.7 5.6
    endloop
  endfacet
  facet normal 0 0 1
    outer loop
      vertex 65.3833 18.7 5.6
      vertex 62.1333 25.7 5.6
      vertex 62.1333 18.7 5.6
    endloop
  endfacet
  facet normal 1 -0 0
    outer loop
      vertex 65.3833 18.7 5.6
      vertex 65.3833 25.7 4.4
      vertex 65.3833 25.7 5.6
    endloop
  endfacet
  facet normal 1 0 0
    outer loop
      vertex 65.3833 25.7 4.4
      vertex 65.3833 18.7 5.6
      vertex 65.3833 18.7 4.4
    endloop
  endfacet
  facet normal -1 0 0
    outer loop
      vertex 74.1333 18.7 1.2
      vertex 74.1333 25.7 4.4
      vertex 74.1333 25.7 1.2
    endloop
  endfacet
  facet normal -1 -0 0
    outer loop
      vertex 74.1333 25.7 4.4
      vertex 74.1333 18.7 1.2
      vertex 74.1333 18.7 4.4
    endloop
  endfacet
  facet normal 0 0 -1
    outer loop
      vertex 72.8833 18.7 4.4
      vertex 74.1333 25.7 4.4
      vertex 74.1333 18.7 4.4
    endloop
  endfacet
  facet normal -0 0 -1
    outer loop
      vertex 74.1333 25.7 4.4
      vertex 72.8833 18.7 4.4
      vertex 72.8833 25.7 4.4
    endloop
  endfacet
  facet normal 1 -0 0
    outer loop
      vertex 76.1333 18.7 5.6
      vertex 76.1333 25.7 1.2
      vertex 76.1333 25.7 5.6
    endloop
  endfacet
  facet normal 1 0 0
    outer loop
      vertex 76.1333 25.7 1.2
      vertex 76.1333 18.7 5.6
      vertex 76.1333 18.7 1.2
    endloop
  endfacet
  facet normal 0 1 0
    outer loop
      vertex 76.1333 25.7 5.6
      vertex 74.1333 25.7 4.4
      vertex 72.8833 25.7 5.6
    endloop
  endfacet
  facet normal 0 1 -0
    outer loop
      vertex 76.1333 25.7 1.2
      vertex 74.1333 25.7 4.4
      vertex 76.1333 25.7 5.6
    endloop
  endfacet
  facet normal 0 1 0
    outer loop
      vertex 74.1333 25.7 4.4
      vertex 76.1333 25.7 1.2
      vertex 74.1333 25.7 1.2
    endloop
  endfacet
  facet normal 0 1 0
    outer loop
      vertex 72.8833 25.7 5.6
      vertex 74.1333 25.7 4.4
      vertex 72.8833 25.7 4.4
    endloop
  endfacet
  facet normal 0 -1 0
    outer loop
      vertex 74.1333 18.7 4.4
      vertex 72.8833 18.7 5.6
      vertex 72.8833 18.7 4.4
    endloop
  endfacet
  facet normal 0 -1 0
    outer loop
      vertex 72.8833 18.7 5.6
      vertex 74.1333 18.7 4.4
      vertex 76.1333 18.7 5.6
    endloop
  endfacet
  facet normal 0 -1 0
    outer loop
      vertex 76.1333 18.7 1.2
      vertex 74.1333 18.7 4.4
      vertex 74.1333 18.7 1.2
    endloop
  endfacet
  facet normal 0 -1 0
    outer loop
      vertex 74.1333 18.7 4.4
      vertex 76.1333 18.7 1.2
      vertex 76.1333 18.7 5.6
    endloop
  endfacet
  facet normal -1 0 0
    outer loop
      vertex 72.8833 18.7 4.4
      vertex 72.8833 25.7 5.6
      vertex 72.8833 25.7 4.4
    endloop
  endfacet
  facet normal -1 -0 0
    outer loop
      vertex 72.8833 25.7 5.6
      vertex 72.8833 18.7 4.4
      vertex 72.8833 18.7 5.6
    endloop
  endfacet
  facet normal -0 0 1
    outer loop
      vertex 72.8833 25.7 5.6
      vertex 76.1333 18.7 5.6
      vertex 76.1333 25.7 5.6
    endloop
  endfacet
  facet normal 0 0 1
    outer loop
      vertex 76.1333 18.7 5.6
      vertex 72.8833 25.7 5.6
      vertex 72.8833 18.7 5.6
    endloop
  endfacet
  facet normal -1 0 0
    outer loop
      vertex 65.6333 16.2 1.2
      vertex 65.6333 18.2 4.08
      vertex 65.6333 18.2 1.2
    endloop
  endfacet
  facet normal -1 -0 0
    outer loop
      vertex 65.6333 18.2 4.08
      vertex 65.6333 16.2 1.2
      vertex 65.6333 16.2 4.08
    endloop
  endfacet
  facet normal -0 0 1
    outer loop
      vertex 65.6333 18.2 4.08
      vertex 72.6333 16.2 4.08
      vertex 72.6333 18.2 4.08
    endloop
  endfacet
  facet normal 0 0 1
    outer loop
      vertex 72.6333 16.2 4.08
      vertex 65.6333 18.2 4.08
      vertex 65.6333 16.2 4.08
    endloop
  endfacet
  facet normal 1 -0 0
    outer loop
      vertex 72.6333 16.2 4.08
      vertex 72.6333 18.2 1.2
      vertex 72.6333 18.2 4.08
    endloop
  endfacet
  facet normal 1 0 0
    outer loop
      vertex 72.6333 18.2 1.2
      vertex 72.6333 16.2 4.08
      vertex 72.6333 16.2 1.2
    endloop
  endfacet
  facet normal 0 1 -0
    outer loop
      vertex 72.6333 18.2 1.2
      vertex 65.6333 18.2 4.08
      vertex 72.6333 18.2 4.08
    endloop
  endfacet
  facet normal 0 1 0
    outer loop
      vertex 65.6333 18.2 4.08
      vertex 72.6333 18.2 1.2
      vertex 65.6333 18.2 1.2
    endloop
  endfacet
  facet normal 0 -1 0
    outer loop
      vertex 65.6333 16.2 1.2
      vertex 72.6333 16.2 4.08
      vertex 65.6333 16.2 4.08
    endloop
  endfacet
  facet normal 0 -1 -0
    outer loop
      vertex 72.6333 16.2 4.08
      vertex 65.6333 16.2 1.2
      vertex 72.6333 16.2 1.2
    endloop
  endfacet
  facet normal -1 0 0
    outer loop
      vertex 114.75 52 1.2
      vertex 114.75 59 5.6
      vertex 114.75 59 1.2
    endloop
  endfacet
  facet normal -1 -0 0
    outer loop
      vertex 114.75 59 5.6
      vertex 114.75 52 1.2
      vertex 114.75 52 5.6
    endloop
  endfacet
  facet normal 0 0 -1
    outer loop
      vertex 116.75 52 4.4
      vertex 118 59 4.4
      vertex 118 52 4.4
    endloop
  endfacet
  facet normal -0 0 -1
    outer loop
      vertex 118 59 4.4
      vertex 116.75 52 4.4
      vertex 116.75 59 4.4
    endloop
  endfacet
  facet normal 1 -0 0
    outer loop
      vertex 116.75 52 4.4
      vertex 116.75 59 1.2
      vertex 116.75 59 4.4
    endloop
  endfacet
  facet normal 1 0 0
    outer loop
      vertex 116.75 59 1.2
      vertex 116.75 52 4.4
      vertex 116.75 52 1.2
    endloop
  endfacet
  facet normal 0 -1 0
    outer loop
      vertex 114.75 52 5.6
      vertex 116.75 52 4.4
      vertex 118 52 5.6
    endloop
  endfacet
  facet normal 0 -1 0
    outer loop
      vertex 114.75 52 1.2
      vertex 116.75 52 4.4
      vertex 114.75 52 5.6
    endloop
  endfacet
  facet normal 0 -1 -0
    outer loop
      vertex 116.75 52 4.4
      vertex 114.75 52 1.2
      vertex 116.75 52 1.2
    endloop
  endfacet
  facet normal 0 -1 -0
    outer loop
      vertex 118 52 5.6
      vertex 116.75 52 4.4
      vertex 118 52 4.4
    endloop
  endfacet
  facet normal 0 1 0
    outer loop
      vertex 116.75 59 4.4
      vertex 118 59 5.6
      vertex 118 59 4.4
    endloop
  endfacet
  facet normal 0 1 0
    outer loop
      vertex 118 59 5.6
      vertex 116.75 59 4.4
      vertex 114.75 59 5.6
    endloop
  endfacet
  facet normal 0 1 0
    outer loop
      vertex 114.75 59 1.2
      vertex 116.75 59 4.4
      vertex 116.75 59 1.2
    endloop
  endfacet
  facet normal 0 1 0
    outer loop
      vertex 116.75 59 4.4
      vertex 114.75 59 1.2
      vertex 114.75 59 5.6
    endloop
  endfacet
  facet normal -0 0 1
    outer loop
      vertex 114.75 59 5.6
      vertex 118 52 5.6
      vertex 118 59 5.6
    endloop
  endfacet
  facet normal 0 0 1
    outer loop
      vertex 118 52 5.6
      vertex 114.75 59 5.6
      vertex 114.75 52 5.6
    endloop
  endfacet
  facet normal 1 -0 0
    outer loop
      vertex 118 52 5.6
      vertex 118 59 4.4
      vertex 118 59 5.6
    endloop
  endfacet
  facet normal 1 0 0
    outer loop
      vertex 118 59 4.4
      vertex 118 52 5.6
      vertex 118 52 4.4
    endloop
  endfacet
  facet normal -1 0 0
    outer loop
      vertex 126.75 52 1.2
      vertex 126.75 59 4.4
      vertex 126.75 59 1.2
    endloop
  endfacet
  facet normal -1 -0 0
    outer loop
      vertex 126.75 59 4.4
      vertex 126.75 52 1.2
      vertex 126.75 52 4.4
    endloop
  endfacet
  facet normal 0 0 -1
    outer loop
      vertex 125.5 52 4.4
      vertex 126.75 59 4.4
      vertex 126.75 52 4.4
    endloop
  endfacet
  facet normal -0 0 -1
    outer loop
      vertex 126.75 59 4.4
      vertex 125.5 52 4.4
      vertex 125.5 59 4.4
    endloop
  endfacet
  facet normal 1 -0 0
    outer loop
      vertex 128.75 52 5.6
      vertex 128.75 59 1.2
      vertex 128.75 59 5.6
    endloop
  endfacet
  facet normal 1 0 0
    outer loop
      vertex 128.75 59 1.2
      vertex 128.75 52 5.6
      vertex 128.75 52 1.2
    endloop
  endfacet
  facet normal 0 1 0
    outer loop
      vertex 128.75 59 5.6
      vertex 126.75 59 4.4
      vertex 125.5 59 5.6
    endloop
  endfacet
  facet normal 0 1 -0
    outer loop
      vertex 128.75 59 1.2
      vertex 126.75 59 4.4
      vertex 128.75 59 5.6
    endloop
  endfacet
  facet normal 0 1 0
    outer loop
      vertex 126.75 59 4.4
      vertex 128.75 59 1.2
      vertex 126.75 59 1.2
    endloop
  endfacet
  facet normal 0 1 0
    outer loop
      vertex 125.5 59 5.6
      vertex 126.75 59 4.4
      vertex 125.5 59 4.4
    endloop
  endfacet
  facet normal 0 -1 0
    outer loop
      vertex 126.75 52 4.4
      vertex 125.5 52 5.6
      vertex 125.5 52 4.4
    endloop
  endfacet
  facet normal 0 -1 0
    outer loop
      vertex 125.5 52 5.6
      vertex 126.75 52 4.4
      vertex 128.75 52 5.6
    endloop
  endfacet
  facet normal 0 -1 0
    outer loop
      vertex 128.75 52 1.2
      vertex 126.75 52 4.4
      vertex 126.75 52 1.2
    endloop
  endfacet
  facet normal 0 -1 0
    outer loop
      vertex 126.75 52 4.4
      vertex 128.75 52 1.2
      vertex 128.75 52 5.6
    endloop
  endfacet
  facet normal -1 0 0
    outer loop
      vertex 125.5 52 4.4
      vertex 125.5 59 5.6
      vertex 125.5 59 4.4
    endloop
  endfacet
  facet normal -1 -0 0
    outer loop
      vertex 125.5 59 5.6
      vertex 125.5 52 4.4
      vertex 125.5 52 5.6
    endloop
  endfacet
  facet normal -0 0 1
    outer loop
      vertex 125.5 59 5.6
      vertex 128.75 52 5.6
      vertex 128.75 59 5.6
    endloop
  endfacet
  facet normal 0 0 1
    outer loop
      vertex 128.75 52 5.6
      vertex 125.5 59 5.6
      vertex 125.5 52 5.6
    endloop
  endfacet
  facet normal -1 0 0
    outer loop
      vertex 118.25 49.5 1.2
      vertex 118.25 51.5 4.08
      vertex 118.25 51.5 1.2
    endloop
  endfacet
  facet normal -1 -0 0
    outer loop
      vertex 118.25 51.5 4.08
      vertex 118.25 49.5 1.2
      vertex 118.25 49.5 4.08
    endloop
  endfacet
  facet normal -0 0 1
    outer loop
      vertex 118.25 51.5 4.08
      vertex 125.25 49.5 4.08
      vertex 125.25 51.5 4.08
    endloop
  endfacet
  facet normal 0 0 1
    outer loop
      vertex 125.25 49.5 4.08
      vertex 118.25 51.5 4.08
      vertex 118.25 49.5 4.08
    endloop
  endfacet
  facet normal 1 -0 0
    outer loop
      vertex 125.25 49.5 4.08
      vertex 125.25 51.5 1.2
      vertex 125.25 51.5 4.08
    endloop
  endfacet
  facet normal 1 0 0
    outer loop
      vertex 125.25 51.5 1.2
      vertex 125.25 49.5 4.08
      vertex 125.25 49.5 1.2
    endloop
  endfacet
  facet normal 0 1 -0
    outer loop
      vertex 125.25 51.5 1.2
      vertex 118.25 51.5 4.08
      vertex 125.25 51.5 4.08
    endloop
  endfacet
  facet normal 0 1 0
    outer loop
      vertex 118.25 51.5 4.08
      vertex 125.25 51.5 1.2
      vertex 118.25 51.5 1.2
    endloop
  endfacet
  facet normal 0 -1 0
    outer loop
      vertex 118.25 49.5 1.2
      vertex 125.25 49.5 4.08
      vertex 118.25 49.5 4.08
    endloop
  endfacet
  facet normal 0 -1 -0
    outer loop
      vertex 125.25 49.5 4.08
      vertex 118.25 49.5 1.2
      vertex 125.25 49.5 1.2
    endloop
  endfacet
  facet normal -1 0 0
    outer loop
      vertex 114.75 15 1.2
      vertex 114.75 22 5.6
      vertex 114.75 22 1.2
    endloop
  endfacet
  facet normal -1 -0 0
    outer loop
      vertex 114.75 22 5.6
      vertex 114.75 15 1.2
      vertex 114.75 15 5.6
    endloop
  endfacet
  facet normal 0 0 -1
    outer loop
      vertex 116.75 15 4.4
      vertex 118 22 4.4
      vertex 118 15 4.4
    endloop
  endfacet
  facet normal -0 0 -1
    outer loop
      vertex 118 22 4.4
      vertex 116.75 15 4.4
      vertex 116.75 22 4.4
    endloop
  endfacet
  facet normal 1 -0 0
    outer loop
      vertex 116.75 15 4.4
      vertex 116.75 22 1.2
      vertex 116.75 22 4.4
    endloop
  endfacet
  facet normal 1 0 0
    outer loop
      vertex 116.75 22 1.2
      vertex 116.75 15 4.4
      vertex 116.75 15 1.2
    endloop
  endfacet
  facet normal 0 1 0
    outer loop
      vertex 116.75 22 4.4
      vertex 118 22 5.6
      vertex 118 22 4.4
    endloop
  endfacet
  facet normal 0 1 0
    outer loop
      vertex 118 22 5.6
      vertex 116.75 22 4.4
      vertex 114.75 22 5.6
    endloop
  endfacet
  facet normal 0 1 0
    outer loop
      vertex 114.75 22 1.2
      vertex 116.75 22 4.4
      vertex 116.75 22 1.2
    endloop
  endfacet
  facet normal 0 1 0
    outer loop
      vertex 116.75 22 4.4
      vertex 114.75 22 1.2
      vertex 114.75 22 5.6
    endloop
  endfacet
  facet normal 0 -1 0
    outer loop
      vertex 114.75 15 5.6
      vertex 116.75 15 4.4
      vertex 118 15 5.6
    endloop
  endfacet
  facet normal 0 -1 0
    outer loop
      vertex 114.75 15 1.2
      vertex 116.75 15 4.4
      vertex 114.75 15 5.6
    endloop
  endfacet
  facet normal 0 -1 -0
    outer loop
      vertex 116.75 15 4.4
      vertex 114.75 15 1.2
      vertex 116.75 15 1.2
    endloop
  endfacet
  facet normal 0 -1 -0
    outer loop
      vertex 118 15 5.6
      vertex 116.75 15 4.4
      vertex 118 15 4.4
    endloop
  endfacet
  facet normal -0 0 1
    outer loop
      vertex 114.75 22 5.6
      vertex 118 15 5.6
      vertex 118 22 5.6
    endloop
  endfacet
  facet normal 0 0 1
    outer loop
      vertex 118 15 5.6
      vertex 114.75 22 5.6
      vertex 114.75 15 5.6
    endloop
  endfacet
  facet normal 1 -0 0
    outer loop
      vertex 118 15 5.6
      vertex 118 22 4.4
      vertex 118 22 5.6
    endloop
  endfacet
  facet normal 1 0 0
    outer loop
      vertex 118 22 4.4
      vertex 118 15 5.6
      vertex 118 15 4.4
    endloop
  endfacet
  facet normal -1 0 0
    outer loop
      vertex 126.75 15 1.2
      vertex 126.75 22 4.4
      vertex 126.75 22 1.2
    endloop
  endfacet
  facet normal -1 -0 0
    outer loop
      vertex 126.75 22 4.4
      vertex 126.75 15 1.2
      vertex 126.75 15 4.4
    endloop
  endfacet
  facet normal 0 0 -1
    outer loop
      vertex 125.5 15 4.4
      vertex 126.75 22 4.4
      vertex 126.75 15 4.4
    endloop
  endfacet
  facet normal -0 0 -1
    outer loop
      vertex 126.75 22 4.4
      vertex 125.5 15 4.4
      vertex 125.5 22 4.4
    endloop
  endfacet
  facet normal 1 -0 0
    outer loop
      vertex 128.75 15 5.6
      vertex 128.75 22 1.2
      vertex 128.75 22 5.6
    endloop
  endfacet
  facet normal 1 0 0
    outer loop
      vertex 128.75 22 1.2
      vertex 128.75 15 5.6
      vertex 128.75 15 1.2
    endloop
  endfacet
  facet normal 0 -1 0
    outer loop
      vertex 126.75 15 4.4
      vertex 125.5 15 5.6
      vertex 125.5 15 4.4
    endloop
  endfacet
  facet normal 0 -1 0
    outer loop
      vertex 125.5 15 5.6
      vertex 126.75 15 4.4
      vertex 128.75 15 5.6
    endloop
  endfacet
  facet normal 0 -1 0
    outer loop
      vertex 128.75 15 1.2
      vertex 126.75 15 4.4
      vertex 126.75 15 1.2
    endloop
  endfacet
  facet normal 0 -1 0
    outer loop
      vertex 126.75 15 4.4
      vertex 128.75 15 1.2
      vertex 128.75 15 5.6
    endloop
  endfacet
  facet normal 0 1 0
    outer loop
      vertex 128.75 22 5.6
      vertex 126.75 22 4.4
      vertex 125.5 22 5.6
    endloop
  endfacet
  facet normal 0 1 -0
    outer loop
      vertex 128.75 22 1.2
      vertex 126.75 22 4.4
      vertex 128.75 22 5.6
    endloop
  endfacet
  facet normal 0 1 0
    outer loop
      vertex 126.75 22 4.4
      vertex 128.75 22 1.2
      vertex 126.75 22 1.2
    endloop
  endfacet
  facet normal 0 1 0
    outer loop
      vertex 125.5 22 5.6
      vertex 126.75 22 4.4
      vertex 125.5 22 4.4
    endloop
  endfacet
  facet normal -1 0 0
    outer loop
      vertex 125.5 15 4.4
      vertex 125.5 22 5.6
      vertex 125.5 22 4.4
    endloop
  endfacet
  facet normal -1 -0 0
    outer loop
      vertex 125.5 22 5.6
      vertex 125.5 15 4.4
      vertex 125.5 15 5.6
    endloop
  endfacet
  facet normal -0 0 1
    outer loop
      vertex 125.5 22 5.6
      vertex 128.75 15 5.6
      vertex 128.75 22 5.6
    endloop
  endfacet
  facet normal 0 0 1
    outer loop
      vertex 128.75 15 5.6
      vertex 125.5 22 5.6
      vertex 125.5 15 5.6
    endloop
  endfacet
  facet normal -1 0 0
    outer loop
      vertex 118.25 12.5 1.2
      vertex 118.25 14.5 4.08
      vertex 118.25 14.5 1.2
    endloop
  endfacet
  facet normal -1 -0 0
    outer loop
      vertex 118.25 14.5 4.08
      vertex 118.25 12.5 1.2
      vertex 118.25 12.5 4.08
    endloop
  endfacet
  facet normal -0 0 1
    outer loop
      vertex 118.25 14.5 4.08
      vertex 125.25 12.5 4.08
      vertex 125.25 14.5 4.08
    endloop
  endfacet
  facet normal 0 0 1
    outer loop
      vertex 125.25 12.5 4.08
      vertex 118.25 14.5 4.08
      vertex 118.25 12.5 4.08
    endloop
  endfacet
  facet normal 1 -0 0
    outer loop
      vertex 125.25 12.5 4.08
      vertex 125.25 14.5 1.2
      vertex 125.25 14.5 4.08
    endloop
  endfacet
  facet normal 1 0 0
    outer loop
      vertex 125.25 14.5 1.2
      vertex 125.25 12.5 4.08
      vertex 125.25 12.5 1.2
    endloop
  endfacet
  facet normal 0 1 -0
    outer loop
      vertex 125.25 14.5 1.2
      vertex 118.25 14.5 4.08
      vertex 125.25 14.5 4.08
    endloop
  endfacet
  facet normal 0 1 0
    outer loop
      vertex 118.25 14.5 4.08
      vertex 125.25 14.5 1.2
      vertex 118.25 14.5 1.2
    endloop
  endfacet
  facet normal 0 -1 0
    outer loop
      vertex 118.25 12.5 1.2
      vertex 125.25 12.5 4.08
      vertex 118.25 12.5 4.08
    endloop
  endfacet
  facet normal 0 -1 -0
    outer loop
      vertex 125.25 12.5 4.08
      vertex 118.25 12.5 1.2
      vertex 125.25 12.5 1.2
    endloop
  endfacet
  facet normal -1 0 0
    outer loop
      vertex 105.9 34 1.2
      vertex 105.9 40 41.2
      vertex 105.9 40 1.2
    endloop
  endfacet
  facet normal -1 -0 0
    outer loop
      vertex 105.9 40 41.2
      vertex 105.9 34 1.2
      vertex 105.9 34 41.2
    endloop
  endfacet
  facet normal -0 0 1
    outer loop
      vertex 0.4 37.4 41.2
      vertex 89.1 36.6 41.2
      vertex 89.1 37.4 41.2
    endloop
  endfacet
  facet normal 0 0 1
    outer loop
      vertex 89.1 36.6 41.2
      vertex 0.4 37.4 41.2
      vertex 0.4 36.6 41.2
    endloop
  endfacet
  facet normal -0 0 1
    outer loop
      vertex 89.1 37.4 41.2
      vertex 89.9 33.6 41.2
      vertex 89.9 73.2 41.2
    endloop
  endfacet
  facet normal -0 0 1
    outer loop
      vertex 89.1 36.6 41.2
      vertex 89.9 33.6 41.2
      vertex 89.1 37.4 41.2
    endloop
  endfacet
  facet normal 0 0 1
    outer loop
      vertex 89.1 37.4 41.2
      vertex 89.9 73.2 41.2
      vertex 89.1 73.2 41.2
    endloop
  endfacet
  facet normal 0 0 1
    outer loop
      vertex 89.9 33.6 41.2
      vertex 89.1 36.6 41.2
      vertex 89.9 32.8 41.2
    endloop
  endfacet
  facet normal 0 0 1
    outer loop
      vertex 89.1 0.799999 41.2
      vertex 89.9 32.8 41.2
      vertex 89.1 36.6 41.2
    endloop
  endfacet
  facet normal 0 0 1
    outer loop
      vertex 89.9 32.8 41.2
      vertex 89.1 0.799999 41.2
      vertex 89.9 0.799999 41.2
    endloop
  endfacet
  facet normal 0 0 1
    outer loop
      vertex 106.7 40.8 41.2
      vertex 105.9 40 41.2
      vertex 106.7 33.6 41.2
    endloop
  endfacet
  facet normal 0 0 1
    outer loop
      vertex 106.7 40.8 41.2
      vertex 99.9 40 41.2
      vertex 105.9 40 41.2
    endloop
  endfacet
  facet normal 0 0 1
    outer loop
      vertex 99.1 33.6 41.2
      vertex 99.9 40 41.2
      vertex 99.1 40.8 41.2
    endloop
  endfacet
  facet normal -0 0 1
    outer loop
      vertex 99.1 40.8 41.2
      vertex 99.9 40 41.2
      vertex 106.7 40.8 41.2
    endloop
  endfacet
  facet normal -0 0 1
    outer loop
      vertex 106.7 33.6 41.2
      vertex 139 32.8 41.2
      vertex 139 33.6 41.2
    endloop
  endfacet
  facet normal -0 0 1
    outer loop
      vertex 105.9 34 41.2
      vertex 106.7 33.6 41.2
      vertex 105.9 40 41.2
    endloop
  endfacet
  facet normal -0 0 1
    outer loop
      vertex 99.9 34 41.2
      vertex 106.7 33.6 41.2
      vertex 105.9 34 41.2
    endloop
  endfacet
  facet normal 0 0 1
    outer loop
      vertex 99.9 40 41.2
      vertex 99.1 33.6 41.2
      vertex 99.9 34 41.2
    endloop
  endfacet
  facet normal 0 0 1
    outer loop
      vertex 99.1 33.6 41.2
      vertex 106.7 33.6 41.2
      vertex 99.9 34 41.2
    endloop
  endfacet
  facet normal 0 0 1
    outer loop
      vertex 89.9 32.8 41.2
      vertex 106.7 33.6 41.2
      vertex 99.1 33.6 41.2
    endloop
  endfacet
  facet normal 0 0 1
    outer loop
      vertex 89.9 32.8 41.2
      vertex 99.1 33.6 41.2
      vertex 89.9 33.6 41.2
    endloop
  endfacet
  facet normal 0 0 1
    outer loop
      vertex 106.7 33.6 41.2
      vertex 89.9 32.8 41.2
      vertex 139 32.8 41.2
    endloop
  endfacet
  facet normal 1 -0 0
    outer loop
      vertex 106.7 33.6 41.2
      vertex 106.7 40.8 1.2
      vertex 106.7 40.8 41.2
    endloop
  endfacet
  facet normal 1 0 0
    outer loop
      vertex 106.7 40.8 1.2
      vertex 106.7 33.6 41.2
      vertex 106.7 33.6 1.2
    endloop
  endfacet
  facet normal 0 1 -0
    outer loop
      vertex 106.7 40.8 1.2
      vertex 99.1 40.8 41.2
      vertex 106.7 40.8 41.2
    endloop
  endfacet
  facet normal 0 1 0
    outer loop
      vertex 99.1 40.8 41.2
      vertex 106.7 40.8 1.2
      vertex 99.1 40.8 1.2
    endloop
  endfacet
  facet normal -1 0 0
    outer loop
      vertex 99.1 33.6 1.2
      vertex 99.1 40.8 41.2
      vertex 99.1 40.8 1.2
    endloop
  endfacet
  facet normal -1 -0 0
    outer loop
      vertex 99.1 40.8 41.2
      vertex 99.1 33.6 1.2
      vertex 99.1 33.6 41.2
    endloop
  endfacet
  facet normal 1 -0 0
    outer loop
      vertex 99.9 34 41.2
      vertex 99.9 40 1.2
      vertex 99.9 40 41.2
    endloop
  endfacet
  facet normal 1 0 0
    outer loop
      vertex 99.9 40 1.2
      vertex 99.9 34 41.2
      vertex 99.9 34 1.2
    endloop
  endfacet
  facet normal 0 1 -0
    outer loop
      vertex 105.9 34 1.2
      vertex 99.9 34 41.2
      vertex 105.9 34 41.2
    endloop
  endfacet
  facet normal 0 1 0
    outer loop
      vertex 99.9 34 41.2
      vertex 105.9 34 1.2
      vertex 99.9 34 1.2
    endloop
  endfacet
  facet normal 0 -1 0
    outer loop
      vertex 99.9 40 1.2
      vertex 105.9 40 41.2
      vertex 99.9 40 41.2
    endloop
  endfacet
  facet normal 0 -1 -0
    outer loop
      vertex 105.9 40 41.2
      vertex 99.9 40 1.2
      vertex 105.9 40 1.2
    endloop
  endfacet
  facet normal -1 0 0
    outer loop
      vertex 89.1 0.799999 1.2
      vertex 89.1 36.6 41.2
      vertex 89.1 36.6 1.2
    endloop
  endfacet
  facet normal -1 -0 0
    outer loop
      vertex 89.1 36.6 41.2
      vertex 89.1 0.799999 1.2
      vertex 89.1 0.799999 41.2
    endloop
  endfacet
  facet normal -1 0 0
    outer loop
      vertex 89.1 37.4 1.2
      vertex 89.1 73.2 41.2
      vertex 89.1 73.2 1.2
    endloop
  endfacet
  facet normal -1 -0 0
    outer loop
      vertex 89.1 73.2 41.2
      vertex 89.1 37.4 1.2
      vertex 89.1 37.4 41.2
    endloop
  endfacet
  facet normal 1 -0 0
    outer loop
      vertex 89.9 0.799999 41.2
      vertex 89.9 32.8 1.2
      vertex 89.9 32.8 41.2
    endloop
  endfacet
  facet normal 1 0 0
    outer loop
      vertex 89.9 32.8 1.2
      vertex 89.9 0.799999 41.2
      vertex 89.9 0.799999 1.2
    endloop
  endfacet
  facet normal 1 -0 0
    outer loop
      vertex 89.9 33.6 41.2
      vertex 89.9 73.2 1.2
      vertex 89.9 73.2 41.2
    endloop
  endfacet
  facet normal 1 0 0
    outer loop
      vertex 89.9 73.2 1.2
      vertex 89.9 33.6 41.2
      vertex 89.9 33.6 1.2
    endloop
  endfacet
  facet normal 0 1 -0
    outer loop
      vertex 89.9 73.2 1.2
      vertex 89.1 73.2 41.2
      vertex 89.9 73.2 41.2
    endloop
  endfacet
  facet normal 0 1 0
    outer loop
      vertex 89.1 73.2 41.2
      vertex 89.9 73.2 1.2
      vertex 89.1 73.2 1.2
    endloop
  endfacet
  facet normal 0 -1 0
    outer loop
      vertex 89.1 0.799999 1.2
      vertex 89.9 0.799999 41.2
      vertex 89.1 0.799999 41.2
    endloop
  endfacet
  facet normal 0 -1 -0
    outer loop
      vertex 89.9 0.799999 41.2
      vertex 89.1 0.799999 1.2
      vertex 89.9 0.799999 1.2
    endloop
  endfacet
  facet normal -1 0 0
    outer loop
      vertex 0.4 36.6 1.2
      vertex 0.4 37.4 41.2
      vertex 0.4 37.4 1.2
    endloop
  endfacet
  facet normal -1 -0 0
    outer loop
      vertex 0.4 37.4 41.2
      vertex 0.4 36.6 1.2
      vertex 0.4 36.6 41.2
    endloop
  endfacet
  facet normal 0 1 -0
    outer loop
      vertex 89.1 37.4 1.2
      vertex 0.4 37.4 41.2
      vertex 89.1 37.4 41.2
    endloop
  endfacet
  facet normal 0 1 0
    outer loop
      vertex 0.4 37.4 41.2
      vertex 89.1 37.4 1.2
      vertex 0.4 37.4 1.2
    endloop
  endfacet
  facet normal 0 -1 0
    outer loop
      vertex 0.4 36.6 1.2
      vertex 89.1 36.6 41.2
      vertex 0.4 36.6 41.2
    endloop
  endfacet
  facet normal 0 -1 -0
    outer loop
      vertex 89.1 36.6 41.2
      vertex 0.4 36.6 1.2
      vertex 89.1 36.6 1.2
    endloop
  endfacet
  facet normal 1 -0 0
    outer loop
      vertex 139 32.8 41.2
      vertex 139 33.6 1.2
      vertex 139 33.6 41.2
    endloop
  endfacet
  facet normal 1 0 0
    outer loop
      vertex 139 33.6 1.2
      vertex 139 32.8 41.2
      vertex 139 32.8 1.2
    endloop
  endfacet
  facet normal 0 -1 0
    outer loop
      vertex 89.9 32.8 1.2
      vertex 139 32.8 41.2
      vertex 89.9 32.8 41.2
    endloop
  endfacet
  facet normal 0 -1 -0
    outer loop
      vertex 139 32.8 41.2
      vertex 89.9 32.8 1.2
      vertex 139 32.8 1.2
    endloop
  endfacet
  facet normal 0 1 -0
    outer loop
      vertex 139 33.6 1.2
      vertex 106.7 33.6 41.2
      vertex 139 33.6 41.2
    endloop
  endfacet
  facet normal 0 1 0
    outer loop
      vertex 106.7 33.6 41.2
      vertex 139 33.6 1.2
      vertex 106.7 33.6 1.2
    endloop
  endfacet
  facet normal 0 1 -0
    outer loop
      vertex 99.1 33.6 1.2
      vertex 89.9 33.6 41.2
      vertex 99.1 33.6 41.2
    endloop
  endfacet
  facet normal 0 1 0
    outer loop
      vertex 89.9 33.6 41.2
      vertex 99.1 33.6 1.2
      vertex 89.9 33.6 1.2
    endloop
  endfacet
endsolid OpenSCAD_Model
