solid OpenSCAD_Model
  facet normal -1 0 0
    outer loop
      vertex 0 0 -22.4
      vertex 0 7.375 -3.8147e-07
      vertex 0 7.375 -22.4
    endloop
  endfacet
  facet normal -1 -0 0
    outer loop
      vertex 0 7.375 -3.8147e-07
      vertex 0 0 -22.4
      vertex 0 0 -3.8147e-07
    endloop
  endfacet
  facet normal 0 -1 0
    outer loop
      vertex 0 0 -3.8147e-07
      vertex 1.25 0 -1.25
      vertex 55.9 0 -3.8147e-07
    endloop
  endfacet
  facet normal 0 -1 0
    outer loop
      vertex 0 0 -3.8147e-07
      vertex 1.25 0 -21.15
      vertex 1.25 0 -1.25
    endloop
  endfacet
  facet normal 0 -1 -0
    outer loop
      vertex 1.25 0 -21.15
      vertex 0 0 -22.4
      vertex 54.65 0 -21.15
    endloop
  endfacet
  facet normal 0 -1 0
    outer loop
      vertex 0 0 -22.4
      vertex 1.25 0 -21.15
      vertex 0 0 -3.8147e-07
    endloop
  endfacet
  facet normal 0 -1 0
    outer loop
      vertex 54.65 0 -1.25
      vertex 55.9 0 -3.8147e-07
      vertex 1.25 0 -1.25
    endloop
  endfacet
  facet normal 0 -1 0
    outer loop
      vertex 54.65 0 -21.15
      vertex 55.9 0 -3.8147e-07
      vertex 54.65 0 -1.25
    endloop
  endfacet
  facet normal 0 -1 0
    outer loop
      vertex 54.65 0 -21.15
      vertex 55.9 0 -22.4
      vertex 55.9 0 -3.8147e-07
    endloop
  endfacet
  facet normal 0 -1 0
    outer loop
      vertex 55.9 0 -22.4
      vertex 54.65 0 -21.15
      vertex 0 0 -22.4
    endloop
  endfacet
  facet normal 1 -0 0
    outer loop
      vertex 55.9 0 -3.8147e-07
      vertex 55.9 7.375 -22.4
      vertex 55.9 7.375 -3.8147e-07
    endloop
  endfacet
  facet normal 1 0 0
    outer loop
      vertex 55.9 7.375 -22.4
      vertex 55.9 0 -3.8147e-07
      vertex 55.9 0 -22.4
    endloop
  endfacet
  facet normal 0 1 -0
    outer loop
      vertex 48.95 7.375 -19.825
      vertex 6.95 7.375 -2.575
      vertex 48.95 7.375 -2.575
    endloop
  endfacet
  facet normal 0 1 0
    outer loop
      vertex 6.95 7.375 -2.575
      vertex 48.95 7.375 -19.825
      vertex 6.95 7.375 -19.825
    endloop
  endfacet
  facet normal 0 1 0
    outer loop
      vertex 48.95 7.375 -2.575
      vertex 55.9 7.375 -3.8147e-07
      vertex 52.7 7.375 -2.575
    endloop
  endfacet
  facet normal 0 1 0
    outer loop
      vertex 55.9 7.375 -3.8147e-07
      vertex 52.7 7.375 -19.825
      vertex 52.7 7.375 -2.575
    endloop
  endfacet
  facet normal 0 1 0
    outer loop
      vertex 55.9 7.375 -22.4
      vertex 48.95 7.375 -19.825
      vertex 52.7 7.375 -19.825
    endloop
  endfacet
  facet normal 0 1 0
    outer loop
      vertex 48.95 7.375 -19.825
      vertex 55.9 7.375 -22.4
      vertex 6.95 7.375 -19.825
    endloop
  endfacet
  facet normal 0 1 0
    outer loop
      vertex 0 7.375 -22.4
      vertex 6.95 7.375 -19.825
      vertex 55.9 7.375 -22.4
    endloop
  endfacet
  facet normal 0 1 -0
    outer loop
      vertex 55.9 7.375 -22.4
      vertex 52.7 7.375 -19.825
      vertex 55.9 7.375 -3.8147e-07
    endloop
  endfacet
  facet normal 0 1 0
    outer loop
      vertex 55.9 7.375 -3.8147e-07
      vertex 48.95 7.375 -2.575
      vertex 0 7.375 -3.8147e-07
    endloop
  endfacet
  facet normal 0 1 -0
    outer loop
      vertex 6.95 7.375 -2.575
      vertex 0 7.375 -3.8147e-07
      vertex 48.95 7.375 -2.575
    endloop
  endfacet
  facet normal 0 1 -0
    outer loop
      vertex 3.2 7.375 -2.575
      vertex 0 7.375 -3.8147e-07
      vertex 6.95 7.375 -2.575
    endloop
  endfacet
  facet normal 0 1 -0
    outer loop
      vertex 3.2 7.375 -19.825
      vertex 0 7.375 -3.8147e-07
      vertex 3.2 7.375 -2.575
    endloop
  endfacet
  facet normal 0 1 0
    outer loop
      vertex 3.2 7.375 -19.825
      vertex 0 7.375 -22.4
      vertex 0 7.375 -3.8147e-07
    endloop
  endfacet
  facet normal 0 1 0
    outer loop
      vertex 6.95 7.375 -19.825
      vertex 0 7.375 -22.4
      vertex 3.2 7.375 -19.825
    endloop
  endfacet
  facet normal 0 0 -1
    outer loop
      vertex 0 0 -22.4
      vertex 55.9 7.375 -22.4
      vertex 55.9 0 -22.4
    endloop
  endfacet
  facet normal -0 0 -1
    outer loop
      vertex 55.9 7.375 -22.4
      vertex 0 0 -22.4
      vertex 0 7.375 -22.4
    endloop
  endfacet
  facet normal -0 0 1
    outer loop
      vertex 0 7.375 -3.8147e-07
      vertex 55.9 0 -3.8147e-07
      vertex 55.9 7.375 -3.8147e-07
    endloop
  endfacet
  facet normal 0 0 1
    outer loop
      vertex 55.9 0 -3.8147e-07
      vertex 0 7.375 -3.8147e-07
      vertex 0 0 -3.8147e-07
    endloop
  endfacet
  facet normal 1 -0 0
    outer loop
      vertex 1.25 0 -1.25
      vertex 1.25 6.125 -21.15
      vertex 1.25 6.125 -1.25
    endloop
  endfacet
  facet normal 1 0 0
    outer loop
      vertex 1.25 6.125 -21.15
      vertex 1.25 0 -1.25
      vertex 1.25 0 -21.15
    endloop
  endfacet
  facet normal -1 0 0
    outer loop
      vertex 54.65 0 -21.15
      vertex 54.65 6.125 -1.25
      vertex 54.65 6.125 -21.15
    endloop
  endfacet
  facet normal -1 -0 0
    outer loop
      vertex 54.65 6.125 -1.25
      vertex 54.65 0 -21.15
      vertex 54.65 0 -1.25
    endloop
  endfacet
  facet normal 0 -1 0
    outer loop
      vertex 6.95 6.125 -19.825
      vertex 48.95 6.125 -2.575
      vertex 6.95 6.125 -2.575
    endloop
  endfacet
  facet normal 0 -1 -0
    outer loop
      vertex 48.95 6.125 -2.575
      vertex 6.95 6.125 -19.825
      vertex 48.95 6.125 -19.825
    endloop
  endfacet
  facet normal 0 -1 0
    outer loop
      vertex 6.95 6.125 -2.575
      vertex 1.25 6.125 -1.25
      vertex 3.2 6.125 -2.575
    endloop
  endfacet
  facet normal 0 -1 0
    outer loop
      vertex 1.25 6.125 -1.25
      vertex 3.2 6.125 -19.825
      vertex 3.2 6.125 -2.575
    endloop
  endfacet
  facet normal 0 -1 0
    outer loop
      vertex 1.25 6.125 -21.15
      vertex 6.95 6.125 -19.825
      vertex 3.2 6.125 -19.825
    endloop
  endfacet
  facet normal 0 -1 -0
    outer loop
      vertex 6.95 6.125 -19.825
      vertex 1.25 6.125 -21.15
      vertex 48.95 6.125 -19.825
    endloop
  endfacet
  facet normal 0 -1 0
    outer loop
      vertex 54.65 6.125 -21.15
      vertex 48.95 6.125 -19.825
      vertex 1.25 6.125 -21.15
    endloop
  endfacet
  facet normal 0 -1 0
    outer loop
      vertex 1.25 6.125 -21.15
      vertex 3.2 6.125 -19.825
      vertex 1.25 6.125 -1.25
    endloop
  endfacet
  facet normal 0 -1 0
    outer loop
      vertex 1.25 6.125 -1.25
      vertex 6.95 6.125 -2.575
      vertex 54.65 6.125 -1.25
    endloop
  endfacet
  facet normal 0 -1 0
    outer loop
      vertex 48.95 6.125 -2.575
      vertex 54.65 6.125 -1.25
      vertex 6.95 6.125 -2.575
    endloop
  endfacet
  facet normal 0 -1 0
    outer loop
      vertex 52.7 6.125 -2.575
      vertex 54.65 6.125 -1.25
      vertex 48.95 6.125 -2.575
    endloop
  endfacet
  facet normal 0 -1 0
    outer loop
      vertex 52.7 6.125 -19.825
      vertex 54.65 6.125 -1.25
      vertex 52.7 6.125 -2.575
    endloop
  endfacet
  facet normal 0 -1 0
    outer loop
      vertex 52.7 6.125 -19.825
      vertex 54.65 6.125 -21.15
      vertex 54.65 6.125 -1.25
    endloop
  endfacet
  facet normal 0 -1 0
    outer loop
      vertex 48.95 6.125 -19.825
      vertex 54.65 6.125 -21.15
      vertex 52.7 6.125 -19.825
    endloop
  endfacet
  facet normal -0 0 1
    outer loop
      vertex 1.25 6.125 -21.15
      vertex 54.65 0 -21.15
      vertex 54.65 6.125 -21.15
    endloop
  endfacet
  facet normal 0 0 1
    outer loop
      vertex 54.65 0 -21.15
      vertex 1.25 6.125 -21.15
      vertex 1.25 0 -21.15
    endloop
  endfacet
  facet normal 0 0 -1
    outer loop
      vertex 1.25 0 -1.25
      vertex 54.65 6.125 -1.25
      vertex 54.65 0 -1.25
    endloop
  endfacet
  facet normal -0 0 -1
    outer loop
      vertex 54.65 6.125 -1.25
      vertex 1.25 0 -1.25
      vertex 1.25 6.125 -1.25
    endloop
  endfacet
  facet normal 1 -0 0
    outer loop
      vertex 3.2 6.125 -2.575
      vertex 3.2 7.375 -19.825
      vertex 3.2 7.375 -2.575
    endloop
  endfacet
  facet normal 1 0 0
    outer loop
      vertex 3.2 7.375 -19.825
      vertex 3.2 6.125 -2.575
      vertex 3.2 6.125 -19.825
    endloop
  endfacet
  facet normal -1 0 0
    outer loop
      vertex 6.95 6.125 -19.825
      vertex 6.95 7.375 -2.575
      vertex 6.95 7.375 -19.825
    endloop
  endfacet
  facet normal -1 -0 0
    outer loop
      vertex 6.95 7.375 -2.575
      vertex 6.95 6.125 -19.825
      vertex 6.95 6.125 -2.575
    endloop
  endfacet
  facet normal -0 0 1
    outer loop
      vertex 3.2 7.375 -19.825
      vertex 6.95 6.125 -19.825
      vertex 6.95 7.375 -19.825
    endloop
  endfacet
  facet normal 0 0 1
    outer loop
      vertex 6.95 6.125 -19.825
      vertex 3.2 7.375 -19.825
      vertex 3.2 6.125 -19.825
    endloop
  endfacet
  facet normal 0 0 -1
    outer loop
      vertex 3.2 6.125 -2.575
      vertex 6.95 7.375 -2.575
      vertex 6.95 6.125 -2.575
    endloop
  endfacet
  facet normal -0 0 -1
    outer loop
      vertex 6.95 7.375 -2.575
      vertex 3.2 6.125 -2.575
      vertex 3.2 7.375 -2.575
    endloop
  endfacet
  facet normal 1 -0 0
    outer loop
      vertex 48.95 6.125 -2.575
      vertex 48.95 7.375 -19.825
      vertex 48.95 7.375 -2.575
    endloop
  endfacet
  facet normal 1 0 0
    outer loop
      vertex 48.95 7.375 -19.825
      vertex 48.95 6.125 -2.575
      vertex 48.95 6.125 -19.825
    endloop
  endfacet
  facet normal -1 0 0
    outer loop
      vertex 52.7 6.125 -19.825
      vertex 52.7 7.375 -2.575
      vertex 52.7 7.375 -19.825
    endloop
  endfacet
  facet normal -1 -0 0
    outer loop
      vertex 52.7 7.375 -2.575
      vertex 52.7 6.125 -19.825
      vertex 52.7 6.125 -2.575
    endloop
  endfacet
  facet normal 0 0 -1
    outer loop
      vertex 48.95 6.125 -2.575
      vertex 52.7 7.375 -2.575
      vertex 52.7 6.125 -2.575
    endloop
  endfacet
  facet normal -0 0 -1
    outer loop
      vertex 52.7 7.375 -2.575
      vertex 48.95 6.125 -2.575
      vertex 48.95 7.375 -2.575
    endloop
  endfacet
  facet normal -0 0 1
    outer loop
      vertex 48.95 7.375 -19.825
      vertex 52.7 6.125 -19.825
      vertex 52.7 7.375 -19.825
    endloop
  endfacet
  facet normal 0 0 1
    outer loop
      vertex 52.7 6.125 -19.825
      vertex 48.95 7.375 -19.825
      vertex 48.95 6.125 -19.825
    endloop
  endfacet
endsolid OpenSCAD_Model
