solid OpenSCAD_Model
  facet normal 1 -0 0
    outer loop
      vertex 28.7 0 0.25
      vertex 28.7 20.7 0
      vertex 28.7 20.7 0.25
    endloop
  endfacet
  facet normal 1 0 0
    outer loop
      vertex 28.7 20.7 0
      vertex 28.7 0 0.25
      vertex 28.7 0 0
    endloop
  endfacet
  facet normal 1 -0 0
    outer loop
      vertex 28.7 22.3 0.25
      vertex 28.7 43 0
      vertex 28.7 43 0.25
    endloop
  endfacet
  facet normal 1 0 0
    outer loop
      vertex 28.7 43 0
      vertex 28.7 22.3 0.25
      vertex 28.7 22.3 0
    endloop
  endfacet
  facet normal 0 0 -1
    outer loop
      vertex 0 20.7 0.25
      vertex 28.7 22.3 0.25
      vertex 28.7 20.7 0.25
    endloop
  endfacet
  facet normal -0 0 -1
    outer loop
      vertex 28.7 22.3 0.25
      vertex 0 20.7 0.25
      vertex 0 22.3 0.25
    endloop
  endfacet
  facet normal 0 0 -1
    outer loop
      vertex 28.7 20.7 0.25
      vertex 30.3 20.7 0.25
      vertex 30.3 0 0.25
    endloop
  endfacet
  facet normal 0 0 -1
    outer loop
      vertex 30.3 20.7 0.25
      vertex 28.7 20.7 0.25
      vertex 30.3 22.3 0.25
    endloop
  endfacet
  facet normal 0 0 -1
    outer loop
      vertex 28.7 20.7 0.25
      vertex 30.3 0 0.25
      vertex 28.7 0 0.25
    endloop
  endfacet
  facet normal 0 0 -1
    outer loop
      vertex 28.7 22.3 0.25
      vertex 30.3 22.3 0.25
      vertex 28.7 20.7 0.25
    endloop
  endfacet
  facet normal 0 0 -1
    outer loop
      vertex 30.3 22.3 0.25
      vertex 28.7 22.3 0.25
      vertex 30.3 43 0.25
    endloop
  endfacet
  facet normal -0 0 -1
    outer loop
      vertex 30.3 43 0.25
      vertex 28.7 22.3 0.25
      vertex 28.7 43 0.25
    endloop
  endfacet
  facet normal 0 0 -1
    outer loop
      vertex 30.3 20.7 0.25
      vertex 59 22.3 0.25
      vertex 59 20.7 0.25
    endloop
  endfacet
  facet normal -0 0 -1
    outer loop
      vertex 59 22.3 0.25
      vertex 30.3 20.7 0.25
      vertex 30.3 22.3 0.25
    endloop
  endfacet
  facet normal -1 0 0
    outer loop
      vertex 30.3 0 0
      vertex 30.3 20.7 0.25
      vertex 30.3 20.7 0
    endloop
  endfacet
  facet normal -1 -0 0
    outer loop
      vertex 30.3 20.7 0.25
      vertex 30.3 0 0
      vertex 30.3 0 0.25
    endloop
  endfacet
  facet normal -1 0 0
    outer loop
      vertex 30.3 22.3 0
      vertex 30.3 43 0.25
      vertex 30.3 43 0
    endloop
  endfacet
  facet normal -1 -0 0
    outer loop
      vertex 30.3 43 0.25
      vertex 30.3 22.3 0
      vertex 30.3 22.3 0.25
    endloop
  endfacet
  facet normal 0 0 -1
    outer loop
      vertex 28.7 0 0
      vertex 17.25 8.25 0
      vertex 28.7 20.7 0
    endloop
  endfacet
  facet normal 0 0 -1
    outer loop
      vertex 28.7 0 0
      vertex 12.25 8.25 0
      vertex 17.25 8.25 0
    endloop
  endfacet
  facet normal 0 0 -1
    outer loop
      vertex 0 20.7 0
      vertex 12.25 8.25 0
      vertex 0 0 0
    endloop
  endfacet
  facet normal 0 0 -1
    outer loop
      vertex 0 0 0
      vertex 12.25 8.25 0
      vertex 28.7 0 0
    endloop
  endfacet
  facet normal 0 0 -1
    outer loop
      vertex 17.25 13.25 0
      vertex 28.7 20.7 0
      vertex 17.25 8.25 0
    endloop
  endfacet
  facet normal 0 0 -1
    outer loop
      vertex 12.25 13.25 0
      vertex 28.7 20.7 0
      vertex 17.25 13.25 0
    endloop
  endfacet
  facet normal 0 0 -1
    outer loop
      vertex 12.25 13.25 0
      vertex 0 20.7 0
      vertex 28.7 20.7 0
    endloop
  endfacet
  facet normal 0 0 -1
    outer loop
      vertex 12.25 8.25 0
      vertex 0 20.7 0
      vertex 12.25 13.25 0
    endloop
  endfacet
  facet normal 0 0 -1
    outer loop
      vertex 46.75 34.75 0
      vertex 59 22.3 0
      vertex 46.75 29.75 0
    endloop
  endfacet
  facet normal 0 0 -1
    outer loop
      vertex 30.3 22.3 0
      vertex 46.75 29.75 0
      vertex 59 22.3 0
    endloop
  endfacet
  facet normal -0 0 -1
    outer loop
      vertex 41.75 29.75 0
      vertex 30.3 22.3 0
      vertex 41.75 34.75 0
    endloop
  endfacet
  facet normal -0 0 -1
    outer loop
      vertex 46.75 29.75 0
      vertex 30.3 22.3 0
      vertex 41.75 29.75 0
    endloop
  endfacet
  facet normal 0 0 -1
    outer loop
      vertex 59 22.3 0
      vertex 46.75 34.75 0
      vertex 59 43 0
    endloop
  endfacet
  facet normal 0 0 -1
    outer loop
      vertex 30.3 43 0
      vertex 46.75 34.75 0
      vertex 41.75 34.75 0
    endloop
  endfacet
  facet normal 0 0 -1
    outer loop
      vertex 46.75 34.75 0
      vertex 30.3 43 0
      vertex 59 43 0
    endloop
  endfacet
  facet normal 0 0 -1
    outer loop
      vertex 30.3 43 0
      vertex 41.75 34.75 0
      vertex 30.3 22.3 0
    endloop
  endfacet
  facet normal 0 0 -1
    outer loop
      vertex 17.25 34.75 0
      vertex 28.7 22.3 0
      vertex 17.25 29.75 0
    endloop
  endfacet
  facet normal 0 0 -1
    outer loop
      vertex 28.7 22.3 0
      vertex 12.25 29.75 0
      vertex 17.25 29.75 0
    endloop
  endfacet
  facet normal -0 0 -1
    outer loop
      vertex 12.25 29.75 0
      vertex 0 22.3 0
      vertex 12.25 34.75 0
    endloop
  endfacet
  facet normal 0 0 -1
    outer loop
      vertex 0 22.3 0
      vertex 12.25 29.75 0
      vertex 28.7 22.3 0
    endloop
  endfacet
  facet normal 0 0 -1
    outer loop
      vertex 28.7 22.3 0
      vertex 17.25 34.75 0
      vertex 28.7 43 0
    endloop
  endfacet
  facet normal 0 0 -1
    outer loop
      vertex 12.25 34.75 0
      vertex 28.7 43 0
      vertex 17.25 34.75 0
    endloop
  endfacet
  facet normal 0 0 -1
    outer loop
      vertex 12.25 34.75 0
      vertex 0 43 0
      vertex 28.7 43 0
    endloop
  endfacet
  facet normal 0 0 -1
    outer loop
      vertex 0 43 0
      vertex 12.25 34.75 0
      vertex 0 22.3 0
    endloop
  endfacet
  facet normal 0 0 -1
    outer loop
      vertex 59 0 0
      vertex 46.75 8.25 0
      vertex 59 20.7 0
    endloop
  endfacet
  facet normal 0 0 -1
    outer loop
      vertex 30.3 0 0
      vertex 46.75 8.25 0
      vertex 59 0 0
    endloop
  endfacet
  facet normal 0 0 -1
    outer loop
      vertex 30.3 20.7 0
      vertex 41.75 8.25 0
      vertex 30.3 0 0
    endloop
  endfacet
  facet normal -0 0 -1
    outer loop
      vertex 46.75 8.25 0
      vertex 30.3 0 0
      vertex 41.75 8.25 0
    endloop
  endfacet
  facet normal 0 0 -1
    outer loop
      vertex 46.75 13.25 0
      vertex 59 20.7 0
      vertex 46.75 8.25 0
    endloop
  endfacet
  facet normal 0 0 -1
    outer loop
      vertex 30.3 20.7 0
      vertex 46.75 13.25 0
      vertex 41.75 13.25 0
    endloop
  endfacet
  facet normal 0 0 -1
    outer loop
      vertex 46.75 13.25 0
      vertex 30.3 20.7 0
      vertex 59 20.7 0
    endloop
  endfacet
  facet normal 0 0 -1
    outer loop
      vertex 41.75 8.25 0
      vertex 30.3 20.7 0
      vertex 41.75 13.25 0
    endloop
  endfacet
  facet normal 0 -1 0
    outer loop
      vertex 0 0 1.5
      vertex 28.7 0 0.25
      vertex 59 0 1.5
    endloop
  endfacet
  facet normal 0 -1 0
    outer loop
      vertex 0 0 0
      vertex 28.7 0 0.25
      vertex 0 0 1.5
    endloop
  endfacet
  facet normal 0 -1 -0
    outer loop
      vertex 28.7 0 0.25
      vertex 0 0 0
      vertex 28.7 0 0
    endloop
  endfacet
  facet normal 0 -1 0
    outer loop
      vertex 30.3 0 0.25
      vertex 59 0 1.5
      vertex 28.7 0 0.25
    endloop
  endfacet
  facet normal 0 -1 0
    outer loop
      vertex 59 0 0
      vertex 30.3 0 0.25
      vertex 30.3 0 0
    endloop
  endfacet
  facet normal 0 -1 0
    outer loop
      vertex 30.3 0 0.25
      vertex 59 0 0
      vertex 59 0 1.5
    endloop
  endfacet
  facet normal 0 1 0
    outer loop
      vertex 59 43 1.5
      vertex 30.3 43 0.25
      vertex 0 43 1.5
    endloop
  endfacet
  facet normal 0 1 -0
    outer loop
      vertex 59 43 0
      vertex 30.3 43 0.25
      vertex 59 43 1.5
    endloop
  endfacet
  facet normal 0 1 0
    outer loop
      vertex 30.3 43 0.25
      vertex 59 43 0
      vertex 30.3 43 0
    endloop
  endfacet
  facet normal 0 1 -0
    outer loop
      vertex 28.7 43 0.25
      vertex 0 43 1.5
      vertex 30.3 43 0.25
    endloop
  endfacet
  facet normal 0 1 0
    outer loop
      vertex 0 43 0
      vertex 28.7 43 0.25
      vertex 28.7 43 0
    endloop
  endfacet
  facet normal 0 1 0
    outer loop
      vertex 28.7 43 0.25
      vertex 0 43 0
      vertex 0 43 1.5
    endloop
  endfacet
  facet normal -1 0 0
    outer loop
      vertex 0 20.7 0
      vertex 0 0 0
      vertex 0 20.7 0.25
    endloop
  endfacet
  facet normal -1 0 0
    outer loop
      vertex 0 22.3 0.25
      vertex 0 43 0
      vertex 0 22.3 0
    endloop
  endfacet
  facet normal -1 0 0
    outer loop
      vertex 0 43 0
      vertex 0 22.3 0.25
      vertex 0 43 1.5
    endloop
  endfacet
  facet normal -1 0 0
    outer loop
      vertex 0 20.7 0.25
      vertex 0 43 1.5
      vertex 0 22.3 0.25
    endloop
  endfacet
  facet normal -1 0 0
    outer loop
      vertex 0 0 1.5
      vertex 0 20.7 0.25
      vertex 0 0 0
    endloop
  endfacet
  facet normal -1 0 0
    outer loop
      vertex 0 20.7 0.25
      vertex 0 0 1.5
      vertex 0 43 1.5
    endloop
  endfacet
  facet normal 1 0 0
    outer loop
      vertex 59 43 1.5
      vertex 59 22.3 0.25
      vertex 59 43 0
    endloop
  endfacet
  facet normal 1 0 0
    outer loop
      vertex 59 43 1.5
      vertex 59 20.7 0.25
      vertex 59 22.3 0.25
    endloop
  endfacet
  facet normal 1 -0 0
    outer loop
      vertex 59 0 1.5
      vertex 59 20.7 0.25
      vertex 59 43 1.5
    endloop
  endfacet
  facet normal 1 0 0
    outer loop
      vertex 59 0 0
      vertex 59 20.7 0.25
      vertex 59 0 1.5
    endloop
  endfacet
  facet normal 1 0 0
    outer loop
      vertex 59 20.7 0.25
      vertex 59 0 0
      vertex 59 20.7 0
    endloop
  endfacet
  facet normal 1 0 0
    outer loop
      vertex 59 43 0
      vertex 59 22.3 0.25
      vertex 59 22.3 0
    endloop
  endfacet
  facet normal 0 -1 0
    outer loop
      vertex 30.3 22.3 0
      vertex 59 22.3 0.25
      vertex 30.3 22.3 0.25
    endloop
  endfacet
  facet normal 0 -1 -0
    outer loop
      vertex 59 22.3 0.25
      vertex 30.3 22.3 0
      vertex 59 22.3 0
    endloop
  endfacet
  facet normal 0 -1 0
    outer loop
      vertex 0 22.3 0
      vertex 28.7 22.3 0.25
      vertex 0 22.3 0.25
    endloop
  endfacet
  facet normal 0 -1 -0
    outer loop
      vertex 28.7 22.3 0.25
      vertex 0 22.3 0
      vertex 28.7 22.3 0
    endloop
  endfacet
  facet normal 0 1 -0
    outer loop
      vertex 59 20.7 0
      vertex 30.3 20.7 0.25
      vertex 59 20.7 0.25
    endloop
  endfacet
  facet normal 0 1 0
    outer loop
      vertex 30.3 20.7 0.25
      vertex 59 20.7 0
      vertex 30.3 20.7 0
    endloop
  endfacet
  facet normal 0 1 -0
    outer loop
      vertex 28.7 20.7 0
      vertex 0 20.7 0.25
      vertex 28.7 20.7 0.25
    endloop
  endfacet
  facet normal 0 1 0
    outer loop
      vertex 0 20.7 0.25
      vertex 28.7 20.7 0
      vertex 0 20.7 0
    endloop
  endfacet
  facet normal -1 0 0
    outer loop
      vertex 11.25 5.75 1.5
      vertex 11.25 3.75 1.5
      vertex 11.25 5.75 4.7
    endloop
  endfacet
  facet normal -1 0 0
    outer loop
      vertex 11.25 5.75 4.7
      vertex 11.25 7 6.2
      vertex 11.25 7 4.7
    endloop
  endfacet
  facet normal -1 0 0
    outer loop
      vertex 11.25 5.75 4.7
      vertex 11.25 3.75 6.2
      vertex 11.25 7 6.2
    endloop
  endfacet
  facet normal -1 0 0
    outer loop
      vertex 11.25 3.75 6.2
      vertex 11.25 5.75 4.7
      vertex 11.25 3.75 1.5
    endloop
  endfacet
  facet normal 0 0 -1
    outer loop
      vertex 11.25 5.75 4.7
      vertex 18.25 7 4.7
      vertex 18.25 5.75 4.7
    endloop
  endfacet
  facet normal -0 0 -1
    outer loop
      vertex 18.25 7 4.7
      vertex 11.25 5.75 4.7
      vertex 11.25 7 4.7
    endloop
  endfacet
  facet normal 1 0 0
    outer loop
      vertex 18.25 7 6.2
      vertex 18.25 5.75 4.7
      vertex 18.25 7 4.7
    endloop
  endfacet
  facet normal 1 -0 0
    outer loop
      vertex 18.25 3.75 6.2
      vertex 18.25 5.75 4.7
      vertex 18.25 7 6.2
    endloop
  endfacet
  facet normal 1 0 0
    outer loop
      vertex 18.25 3.75 1.5
      vertex 18.25 5.75 4.7
      vertex 18.25 3.75 6.2
    endloop
  endfacet
  facet normal 1 0 0
    outer loop
      vertex 18.25 5.75 4.7
      vertex 18.25 3.75 1.5
      vertex 18.25 5.75 1.5
    endloop
  endfacet
  facet normal -0 0 1
    outer loop
      vertex 17.25 8.25 1.5
      vertex 20 7.25 1.5
      vertex 17.25 13.25 1.5
    endloop
  endfacet
  facet normal 0 0 1
    outer loop
      vertex 18.25 15.75 1.5
      vertex 12.25 13.25 1.5
      vertex 17.25 13.25 1.5
    endloop
  endfacet
  facet normal 0 0 1
    outer loop
      vertex 12.25 13.25 1.5
      vertex 11.25 15.75 1.5
      vertex 12.25 8.25 1.5
    endloop
  endfacet
  facet normal -0 0 1
    outer loop
      vertex 11.25 15.75 1.5
      vertex 12.25 13.25 1.5
      vertex 18.25 15.75 1.5
    endloop
  endfacet
  facet normal -0 0 1
    outer loop
      vertex 11.25 25.25 1.5
      vertex 18.25 17.75 1.5
      vertex 18.25 25.25 1.5
    endloop
  endfacet
  facet normal 0 0 1
    outer loop
      vertex 18.25 17.75 1.5
      vertex 11.25 25.25 1.5
      vertex 11.25 17.75 1.5
    endloop
  endfacet
  facet normal -0 0 1
    outer loop
      vertex 17.25 29.75 1.5
      vertex 20 28.75 1.5
      vertex 17.25 34.75 1.5
    endloop
  endfacet
  facet normal 0 0 1
    outer loop
      vertex 18.25 37.25 1.5
      vertex 12.25 34.75 1.5
      vertex 17.25 34.75 1.5
    endloop
  endfacet
  facet normal 0 0 1
    outer loop
      vertex 12.25 34.75 1.5
      vertex 11.25 37.25 1.5
      vertex 12.25 29.75 1.5
    endloop
  endfacet
  facet normal -0 0 1
    outer loop
      vertex 11.25 37.25 1.5
      vertex 12.25 34.75 1.5
      vertex 18.25 37.25 1.5
    endloop
  endfacet
  facet normal 0 0 1
    outer loop
      vertex 18.25 25.25 1.5
      vertex 22 28.75 1.5
      vertex 20 28.75 1.5
    endloop
  endfacet
  facet normal 0 0 1
    outer loop
      vertex 22 28.75 1.5
      vertex 18.25 25.25 1.5
      vertex 22 14.25 1.5
    endloop
  endfacet
  facet normal 0 0 1
    outer loop
      vertex 37.25 14.25 1.5
      vertex 40.75 17.75 1.5
      vertex 37.25 28.75 1.5
    endloop
  endfacet
  facet normal 0 0 1
    outer loop
      vertex 40.75 17.75 1.5
      vertex 37.25 14.25 1.5
      vertex 39.25 14.25 1.5
    endloop
  endfacet
  facet normal 0 0 1
    outer loop
      vertex 20 28.75 1.5
      vertex 17.25 29.75 1.5
      vertex 18.25 27.25 1.5
    endloop
  endfacet
  facet normal -0 0 1
    outer loop
      vertex 12.25 29.75 1.5
      vertex 18.25 27.25 1.5
      vertex 17.25 29.75 1.5
    endloop
  endfacet
  facet normal 0 0 1
    outer loop
      vertex 12.25 29.75 1.5
      vertex 11.25 27.25 1.5
      vertex 18.25 27.25 1.5
    endloop
  endfacet
  facet normal 0 0 1
    outer loop
      vertex 11.25 27.25 1.5
      vertex 12.25 29.75 1.5
      vertex 11.25 37.25 1.5
    endloop
  endfacet
  facet normal 0 0 1
    outer loop
      vertex 20 7.25 1.5
      vertex 17.25 8.25 1.5
      vertex 18.25 5.75 1.5
    endloop
  endfacet
  facet normal -0 0 1
    outer loop
      vertex 12.25 8.25 1.5
      vertex 18.25 5.75 1.5
      vertex 17.25 8.25 1.5
    endloop
  endfacet
  facet normal 0 0 1
    outer loop
      vertex 12.25 8.25 1.5
      vertex 11.25 5.75 1.5
      vertex 18.25 5.75 1.5
    endloop
  endfacet
  facet normal 0 0 1
    outer loop
      vertex 11.25 5.75 1.5
      vertex 12.25 8.25 1.5
      vertex 11.25 15.75 1.5
    endloop
  endfacet
  facet normal 0 0 1
    outer loop
      vertex 47.75 15.75 1.5
      vertex 46.75 13.25 1.5
      vertex 47.75 5.75 1.5
    endloop
  endfacet
  facet normal 0 0 1
    outer loop
      vertex 47.75 15.75 1.5
      vertex 41.75 13.25 1.5
      vertex 46.75 13.25 1.5
    endloop
  endfacet
  facet normal 0 0 1
    outer loop
      vertex 41.75 13.25 1.5
      vertex 40.75 15.75 1.5
      vertex 41.75 8.25 1.5
    endloop
  endfacet
  facet normal -0 0 1
    outer loop
      vertex 40.75 15.75 1.5
      vertex 41.75 13.25 1.5
      vertex 47.75 15.75 1.5
    endloop
  endfacet
  facet normal -0 0 1
    outer loop
      vertex 40.75 25.25 1.5
      vertex 47.75 17.75 1.5
      vertex 47.75 25.25 1.5
    endloop
  endfacet
  facet normal 0 0 1
    outer loop
      vertex 47.75 17.75 1.5
      vertex 40.75 25.25 1.5
      vertex 40.75 17.75 1.5
    endloop
  endfacet
  facet normal 0 0 1
    outer loop
      vertex 47.75 37.25 1.5
      vertex 46.75 34.75 1.5
      vertex 47.75 27.25 1.5
    endloop
  endfacet
  facet normal 0 0 1
    outer loop
      vertex 47.75 37.25 1.5
      vertex 41.75 34.75 1.5
      vertex 46.75 34.75 1.5
    endloop
  endfacet
  facet normal 0 0 1
    outer loop
      vertex 41.75 34.75 1.5
      vertex 40.75 37.25 1.5
      vertex 41.75 29.75 1.5
    endloop
  endfacet
  facet normal -0 0 1
    outer loop
      vertex 40.75 37.25 1.5
      vertex 41.75 34.75 1.5
      vertex 47.75 37.25 1.5
    endloop
  endfacet
  facet normal 0 0 1
    outer loop
      vertex 47.75 37.25 1.5
      vertex 59 43 1.5
      vertex 47.75 39.25 1.5
    endloop
  endfacet
  facet normal 0 0 1
    outer loop
      vertex 59 43 1.5
      vertex 40.75 39.25 1.5
      vertex 47.75 39.25 1.5
    endloop
  endfacet
  facet normal 0 0 1
    outer loop
      vertex 39.25 35.75 1.5
      vertex 40.75 37.25 1.5
      vertex 40.75 39.25 1.5
    endloop
  endfacet
  facet normal 0 0 1
    outer loop
      vertex 40.75 37.25 1.5
      vertex 39.25 35.75 1.5
      vertex 40.75 27.25 1.5
    endloop
  endfacet
  facet normal 0 0 1
    outer loop
      vertex 40.75 27.25 1.5
      vertex 39.25 28.75 1.5
      vertex 40.75 25.25 1.5
    endloop
  endfacet
  facet normal -0 0 1
    outer loop
      vertex 37.25 28.75 1.5
      vertex 40.75 25.25 1.5
      vertex 39.25 28.75 1.5
    endloop
  endfacet
  facet normal 0 0 1
    outer loop
      vertex 40.75 25.25 1.5
      vertex 37.25 28.75 1.5
      vertex 40.75 17.75 1.5
    endloop
  endfacet
  facet normal 0 0 1
    outer loop
      vertex 40.75 17.75 1.5
      vertex 39.25 14.25 1.5
      vertex 40.75 15.75 1.5
    endloop
  endfacet
  facet normal 0 0 1
    outer loop
      vertex 40.75 27.25 1.5
      vertex 39.25 35.75 1.5
      vertex 39.25 28.75 1.5
    endloop
  endfacet
  facet normal 0 0 1
    outer loop
      vertex 40.75 39.25 1.5
      vertex 37.25 35.75 1.5
      vertex 39.25 35.75 1.5
    endloop
  endfacet
  facet normal 0 0 1
    outer loop
      vertex 22 28.75 1.5
      vertex 37.25 28.75 1.5
      vertex 37.25 35.75 1.5
    endloop
  endfacet
  facet normal 0 0 1
    outer loop
      vertex 37.25 28.75 1.5
      vertex 22 28.75 1.5
      vertex 37.25 14.25 1.5
    endloop
  endfacet
  facet normal 0 0 1
    outer loop
      vertex 22 28.75 1.5
      vertex 37.25 35.75 1.5
      vertex 22 35.75 1.5
    endloop
  endfacet
  facet normal 0 0 1
    outer loop
      vertex 40.75 39.25 1.5
      vertex 22 35.75 1.5
      vertex 37.25 35.75 1.5
    endloop
  endfacet
  facet normal 0 0 1
    outer loop
      vertex 18.25 39.25 1.5
      vertex 40.75 39.25 1.5
      vertex 59 43 1.5
    endloop
  endfacet
  facet normal 0 0 1
    outer loop
      vertex 40.75 39.25 1.5
      vertex 18.25 39.25 1.5
      vertex 22 35.75 1.5
    endloop
  endfacet
  facet normal -0 0 1
    outer loop
      vertex 17.25 34.75 1.5
      vertex 20 28.75 1.5
      vertex 20 35.75 1.5
    endloop
  endfacet
  facet normal -0 0 1
    outer loop
      vertex 18.25 17.75 1.5
      vertex 22 14.25 1.5
      vertex 18.25 25.25 1.5
    endloop
  endfacet
  facet normal -0 0 1
    outer loop
      vertex 18.25 37.25 1.5
      vertex 20 35.75 1.5
      vertex 18.25 39.25 1.5
    endloop
  endfacet
  facet normal 0 0 1
    outer loop
      vertex 22 35.75 1.5
      vertex 18.25 39.25 1.5
      vertex 20 35.75 1.5
    endloop
  endfacet
  facet normal -0 0 1
    outer loop
      vertex 0 43 1.5
      vertex 18.25 39.25 1.5
      vertex 59 43 1.5
    endloop
  endfacet
  facet normal 0 0 1
    outer loop
      vertex 0 43 1.5
      vertex 11.25 37.25 1.5
      vertex 11.25 39.25 1.5
    endloop
  endfacet
  facet normal 0 0 1
    outer loop
      vertex 11.25 37.25 1.5
      vertex 0 43 1.5
      vertex 11.25 27.25 1.5
    endloop
  endfacet
  facet normal 0 0 1
    outer loop
      vertex 11.25 27.25 1.5
      vertex 0 43 1.5
      vertex 11.25 25.25 1.5
    endloop
  endfacet
  facet normal 0 0 1
    outer loop
      vertex 11.25 25.25 1.5
      vertex 0 43 1.5
      vertex 11.25 17.75 1.5
    endloop
  endfacet
  facet normal 0 0 1
    outer loop
      vertex 0 0 1.5
      vertex 11.25 17.75 1.5
      vertex 0 43 1.5
    endloop
  endfacet
  facet normal 0 0 1
    outer loop
      vertex 11.25 17.75 1.5
      vertex 0 0 1.5
      vertex 11.25 15.75 1.5
    endloop
  endfacet
  facet normal 0 0 1
    outer loop
      vertex 11.25 15.75 1.5
      vertex 0 0 1.5
      vertex 11.25 5.75 1.5
    endloop
  endfacet
  facet normal 0 0 1
    outer loop
      vertex 18.25 39.25 1.5
      vertex 0 43 1.5
      vertex 11.25 39.25 1.5
    endloop
  endfacet
  facet normal 0 0 1
    outer loop
      vertex 47.75 27.25 1.5
      vertex 59 43 1.5
      vertex 47.75 37.25 1.5
    endloop
  endfacet
  facet normal 0 0 1
    outer loop
      vertex 47.75 25.25 1.5
      vertex 59 43 1.5
      vertex 47.75 27.25 1.5
    endloop
  endfacet
  facet normal 0 0 1
    outer loop
      vertex 59 43 1.5
      vertex 47.75 25.25 1.5
      vertex 59 0 1.5
    endloop
  endfacet
  facet normal -0 0 1
    outer loop
      vertex 47.75 17.75 1.5
      vertex 59 0 1.5
      vertex 47.75 25.25 1.5
    endloop
  endfacet
  facet normal -0 0 1
    outer loop
      vertex 47.75 15.75 1.5
      vertex 59 0 1.5
      vertex 47.75 17.75 1.5
    endloop
  endfacet
  facet normal -0 0 1
    outer loop
      vertex 47.75 5.75 1.5
      vertex 59 0 1.5
      vertex 47.75 15.75 1.5
    endloop
  endfacet
  facet normal -0 0 1
    outer loop
      vertex 47.75 3.75 1.5
      vertex 59 0 1.5
      vertex 47.75 5.75 1.5
    endloop
  endfacet
  facet normal -0 0 1
    outer loop
      vertex 40.75 3.75 1.5
      vertex 59 0 1.5
      vertex 47.75 3.75 1.5
    endloop
  endfacet
  facet normal 0 0 1
    outer loop
      vertex 40.75 15.75 1.5
      vertex 39.25 14.25 1.5
      vertex 40.75 5.75 1.5
    endloop
  endfacet
  facet normal -0 0 1
    outer loop
      vertex 39.25 7.25 1.5
      vertex 40.75 5.75 1.5
      vertex 39.25 14.25 1.5
    endloop
  endfacet
  facet normal 0 0 1
    outer loop
      vertex 40.75 5.75 1.5
      vertex 39.25 7.25 1.5
      vertex 40.75 3.75 1.5
    endloop
  endfacet
  facet normal -0 0 1
    outer loop
      vertex 37.25 7.25 1.5
      vertex 40.75 3.75 1.5
      vertex 39.25 7.25 1.5
    endloop
  endfacet
  facet normal 0 0 1
    outer loop
      vertex 22 14.25 1.5
      vertex 37.25 14.25 1.5
      vertex 22 28.75 1.5
    endloop
  endfacet
  facet normal 0 0 1
    outer loop
      vertex 37.25 14.25 1.5
      vertex 22 14.25 1.5
      vertex 37.25 7.25 1.5
    endloop
  endfacet
  facet normal 0 0 1
    outer loop
      vertex 22 7.25 1.5
      vertex 37.25 7.25 1.5
      vertex 22 14.25 1.5
    endloop
  endfacet
  facet normal 0 0 1
    outer loop
      vertex 37.25 7.25 1.5
      vertex 22 7.25 1.5
      vertex 40.75 3.75 1.5
    endloop
  endfacet
  facet normal 0 0 1
    outer loop
      vertex 18.25 3.75 1.5
      vertex 40.75 3.75 1.5
      vertex 22 7.25 1.5
    endloop
  endfacet
  facet normal 0 0 1
    outer loop
      vertex 18.25 3.75 1.5
      vertex 22 7.25 1.5
      vertex 20 7.25 1.5
    endloop
  endfacet
  facet normal 0 0 1
    outer loop
      vertex 17.25 34.75 1.5
      vertex 20 35.75 1.5
      vertex 18.25 37.25 1.5
    endloop
  endfacet
  facet normal 0 0 1
    outer loop
      vertex 20 28.75 1.5
      vertex 18.25 27.25 1.5
      vertex 18.25 25.25 1.5
    endloop
  endfacet
  facet normal 0 0 1
    outer loop
      vertex 22 14.25 1.5
      vertex 18.25 17.75 1.5
      vertex 20 14.25 1.5
    endloop
  endfacet
  facet normal -0 0 1
    outer loop
      vertex 18.25 15.75 1.5
      vertex 20 14.25 1.5
      vertex 18.25 17.75 1.5
    endloop
  endfacet
  facet normal 0 0 1
    outer loop
      vertex 17.25 13.25 1.5
      vertex 20 14.25 1.5
      vertex 18.25 15.75 1.5
    endloop
  endfacet
  facet normal 0 0 1
    outer loop
      vertex 20 14.25 1.5
      vertex 17.25 13.25 1.5
      vertex 20 7.25 1.5
    endloop
  endfacet
  facet normal 0 0 1
    outer loop
      vertex 18.25 3.75 1.5
      vertex 20 7.25 1.5
      vertex 18.25 5.75 1.5
    endloop
  endfacet
  facet normal 0 0 1
    outer loop
      vertex 40.75 3.75 1.5
      vertex 18.25 3.75 1.5
      vertex 59 0 1.5
    endloop
  endfacet
  facet normal 0 0 1
    outer loop
      vertex 0 0 1.5
      vertex 18.25 3.75 1.5
      vertex 11.25 3.75 1.5
    endloop
  endfacet
  facet normal 0 0 1
    outer loop
      vertex 18.25 3.75 1.5
      vertex 0 0 1.5
      vertex 59 0 1.5
    endloop
  endfacet
  facet normal 0 0 1
    outer loop
      vertex 11.25 5.75 1.5
      vertex 0 0 1.5
      vertex 11.25 3.75 1.5
    endloop
  endfacet
  facet normal -0 0 1
    outer loop
      vertex 46.75 29.75 1.5
      vertex 47.75 27.25 1.5
      vertex 46.75 34.75 1.5
    endloop
  endfacet
  facet normal -0 0 1
    outer loop
      vertex 41.75 29.75 1.5
      vertex 47.75 27.25 1.5
      vertex 46.75 29.75 1.5
    endloop
  endfacet
  facet normal 0 0 1
    outer loop
      vertex 41.75 29.75 1.5
      vertex 40.75 27.25 1.5
      vertex 47.75 27.25 1.5
    endloop
  endfacet
  facet normal 0 0 1
    outer loop
      vertex 40.75 27.25 1.5
      vertex 41.75 29.75 1.5
      vertex 40.75 37.25 1.5
    endloop
  endfacet
  facet normal -0 0 1
    outer loop
      vertex 46.75 8.25 1.5
      vertex 47.75 5.75 1.5
      vertex 46.75 13.25 1.5
    endloop
  endfacet
  facet normal -0 0 1
    outer loop
      vertex 41.75 8.25 1.5
      vertex 47.75 5.75 1.5
      vertex 46.75 8.25 1.5
    endloop
  endfacet
  facet normal 0 0 1
    outer loop
      vertex 41.75 8.25 1.5
      vertex 40.75 5.75 1.5
      vertex 47.75 5.75 1.5
    endloop
  endfacet
  facet normal 0 0 1
    outer loop
      vertex 40.75 5.75 1.5
      vertex 41.75 8.25 1.5
      vertex 40.75 15.75 1.5
    endloop
  endfacet
  facet normal 0 -1 0
    outer loop
      vertex 11.25 3.75 1.5
      vertex 18.25 3.75 6.2
      vertex 11.25 3.75 6.2
    endloop
  endfacet
  facet normal 0 -1 -0
    outer loop
      vertex 18.25 3.75 6.2
      vertex 11.25 3.75 1.5
      vertex 18.25 3.75 1.5
    endloop
  endfacet
  facet normal 0 1 -0
    outer loop
      vertex 18.25 5.75 1.5
      vertex 11.25 5.75 4.7
      vertex 18.25 5.75 4.7
    endloop
  endfacet
  facet normal 0 1 0
    outer loop
      vertex 11.25 5.75 4.7
      vertex 18.25 5.75 1.5
      vertex 11.25 5.75 1.5
    endloop
  endfacet
  facet normal -0 0 1
    outer loop
      vertex 11.25 7 6.2
      vertex 18.25 3.75 6.2
      vertex 18.25 7 6.2
    endloop
  endfacet
  facet normal 0 0 1
    outer loop
      vertex 18.25 3.75 6.2
      vertex 11.25 7 6.2
      vertex 11.25 3.75 6.2
    endloop
  endfacet
  facet normal 0 1 -0
    outer loop
      vertex 18.25 7 4.7
      vertex 11.25 7 6.2
      vertex 18.25 7 6.2
    endloop
  endfacet
  facet normal 0 1 0
    outer loop
      vertex 11.25 7 6.2
      vertex 18.25 7 4.7
      vertex 11.25 7 4.7
    endloop
  endfacet
  facet normal -1 0 0
    outer loop
      vertex 11.25 15.75 4.7
      vertex 11.25 17.75 1.5
      vertex 11.25 15.75 1.5
    endloop
  endfacet
  facet normal -1 0 0
    outer loop
      vertex 11.25 17.75 1.5
      vertex 11.25 15.75 4.7
      vertex 11.25 17.75 6.2
    endloop
  endfacet
  facet normal -1 0 0
    outer loop
      vertex 11.25 14.5 6.2
      vertex 11.25 15.75 4.7
      vertex 11.25 14.5 4.7
    endloop
  endfacet
  facet normal -1 0 0
    outer loop
      vertex 11.25 15.75 4.7
      vertex 11.25 14.5 6.2
      vertex 11.25 17.75 6.2
    endloop
  endfacet
  facet normal 0 0 -1
    outer loop
      vertex 11.25 14.5 4.7
      vertex 18.25 15.75 4.7
      vertex 18.25 14.5 4.7
    endloop
  endfacet
  facet normal -0 0 -1
    outer loop
      vertex 18.25 15.75 4.7
      vertex 11.25 14.5 4.7
      vertex 11.25 15.75 4.7
    endloop
  endfacet
  facet normal 1 0 0
    outer loop
      vertex 18.25 17.75 6.2
      vertex 18.25 15.75 4.7
      vertex 18.25 17.75 1.5
    endloop
  endfacet
  facet normal 1 -0 0
    outer loop
      vertex 18.25 14.5 6.2
      vertex 18.25 15.75 4.7
      vertex 18.25 17.75 6.2
    endloop
  endfacet
  facet normal 1 0 0
    outer loop
      vertex 18.25 15.75 4.7
      vertex 18.25 14.5 6.2
      vertex 18.25 14.5 4.7
    endloop
  endfacet
  facet normal 1 0 0
    outer loop
      vertex 18.25 17.75 1.5
      vertex 18.25 15.75 4.7
      vertex 18.25 15.75 1.5
    endloop
  endfacet
  facet normal 0 1 -0
    outer loop
      vertex 18.25 17.75 1.5
      vertex 11.25 17.75 6.2
      vertex 18.25 17.75 6.2
    endloop
  endfacet
  facet normal 0 1 0
    outer loop
      vertex 11.25 17.75 6.2
      vertex 18.25 17.75 1.5
      vertex 11.25 17.75 1.5
    endloop
  endfacet
  facet normal 0 -1 0
    outer loop
      vertex 11.25 15.75 1.5
      vertex 18.25 15.75 4.7
      vertex 11.25 15.75 4.7
    endloop
  endfacet
  facet normal 0 -1 -0
    outer loop
      vertex 18.25 15.75 4.7
      vertex 11.25 15.75 1.5
      vertex 18.25 15.75 1.5
    endloop
  endfacet
  facet normal -0 0 1
    outer loop
      vertex 11.25 17.75 6.2
      vertex 18.25 14.5 6.2
      vertex 18.25 17.75 6.2
    endloop
  endfacet
  facet normal 0 0 1
    outer loop
      vertex 18.25 14.5 6.2
      vertex 11.25 17.75 6.2
      vertex 11.25 14.5 6.2
    endloop
  endfacet
  facet normal 0 -1 0
    outer loop
      vertex 11.25 14.5 4.7
      vertex 18.25 14.5 6.2
      vertex 11.25 14.5 6.2
    endloop
  endfacet
  facet normal 0 -1 -0
    outer loop
      vertex 18.25 14.5 6.2
      vertex 11.25 14.5 4.7
      vertex 18.25 14.5 4.7
    endloop
  endfacet
  facet normal -1 0 0
    outer loop
      vertex 20 7.25 1.5
      vertex 20 14.25 4.38
      vertex 20 14.25 1.5
    endloop
  endfacet
  facet normal -1 -0 0
    outer loop
      vertex 20 14.25 4.38
      vertex 20 7.25 1.5
      vertex 20 7.25 4.38
    endloop
  endfacet
  facet normal -0 0 1
    outer loop
      vertex 20 14.25 4.38
      vertex 22 7.25 4.38
      vertex 22 14.25 4.38
    endloop
  endfacet
  facet normal 0 0 1
    outer loop
      vertex 22 7.25 4.38
      vertex 20 14.25 4.38
      vertex 20 7.25 4.38
    endloop
  endfacet
  facet normal 1 -0 0
    outer loop
      vertex 22 7.25 4.38
      vertex 22 14.25 1.5
      vertex 22 14.25 4.38
    endloop
  endfacet
  facet normal 1 0 0
    outer loop
      vertex 22 14.25 1.5
      vertex 22 7.25 4.38
      vertex 22 7.25 1.5
    endloop
  endfacet
  facet normal 0 1 -0
    outer loop
      vertex 22 14.25 1.5
      vertex 20 14.25 4.38
      vertex 22 14.25 4.38
    endloop
  endfacet
  facet normal 0 1 0
    outer loop
      vertex 20 14.25 4.38
      vertex 22 14.25 1.5
      vertex 20 14.25 1.5
    endloop
  endfacet
  facet normal 0 -1 0
    outer loop
      vertex 20 7.25 1.5
      vertex 22 7.25 4.38
      vertex 20 7.25 4.38
    endloop
  endfacet
  facet normal 0 -1 -0
    outer loop
      vertex 22 7.25 4.38
      vertex 20 7.25 1.5
      vertex 22 7.25 1.5
    endloop
  endfacet
  facet normal -1 0 0
    outer loop
      vertex 40.75 5.75 1.5
      vertex 40.75 3.75 1.5
      vertex 40.75 5.75 4.7
    endloop
  endfacet
  facet normal -1 0 0
    outer loop
      vertex 40.75 5.75 4.7
      vertex 40.75 7 6.2
      vertex 40.75 7 4.7
    endloop
  endfacet
  facet normal -1 0 0
    outer loop
      vertex 40.75 5.75 4.7
      vertex 40.75 3.75 6.2
      vertex 40.75 7 6.2
    endloop
  endfacet
  facet normal -1 0 0
    outer loop
      vertex 40.75 3.75 6.2
      vertex 40.75 5.75 4.7
      vertex 40.75 3.75 1.5
    endloop
  endfacet
  facet normal 0 0 -1
    outer loop
      vertex 40.75 5.75 4.7
      vertex 47.75 7 4.7
      vertex 47.75 5.75 4.7
    endloop
  endfacet
  facet normal -0 0 -1
    outer loop
      vertex 47.75 7 4.7
      vertex 40.75 5.75 4.7
      vertex 40.75 7 4.7
    endloop
  endfacet
  facet normal 1 0 0
    outer loop
      vertex 47.75 7 6.2
      vertex 47.75 5.75 4.7
      vertex 47.75 7 4.7
    endloop
  endfacet
  facet normal 1 -0 0
    outer loop
      vertex 47.75 3.75 6.2
      vertex 47.75 5.75 4.7
      vertex 47.75 7 6.2
    endloop
  endfacet
  facet normal 1 0 0
    outer loop
      vertex 47.75 3.75 1.5
      vertex 47.75 5.75 4.7
      vertex 47.75 3.75 6.2
    endloop
  endfacet
  facet normal 1 0 0
    outer loop
      vertex 47.75 5.75 4.7
      vertex 47.75 3.75 1.5
      vertex 47.75 5.75 1.5
    endloop
  endfacet
  facet normal 0 -1 0
    outer loop
      vertex 40.75 3.75 1.5
      vertex 47.75 3.75 6.2
      vertex 40.75 3.75 6.2
    endloop
  endfacet
  facet normal 0 -1 -0
    outer loop
      vertex 47.75 3.75 6.2
      vertex 40.75 3.75 1.5
      vertex 47.75 3.75 1.5
    endloop
  endfacet
  facet normal 0 1 -0
    outer loop
      vertex 47.75 5.75 1.5
      vertex 40.75 5.75 4.7
      vertex 47.75 5.75 4.7
    endloop
  endfacet
  facet normal 0 1 0
    outer loop
      vertex 40.75 5.75 4.7
      vertex 47.75 5.75 1.5
      vertex 40.75 5.75 1.5
    endloop
  endfacet
  facet normal -0 0 1
    outer loop
      vertex 40.75 7 6.2
      vertex 47.75 3.75 6.2
      vertex 47.75 7 6.2
    endloop
  endfacet
  facet normal 0 0 1
    outer loop
      vertex 47.75 3.75 6.2
      vertex 40.75 7 6.2
      vertex 40.75 3.75 6.2
    endloop
  endfacet
  facet normal 0 1 -0
    outer loop
      vertex 47.75 7 4.7
      vertex 40.75 7 6.2
      vertex 47.75 7 6.2
    endloop
  endfacet
  facet normal 0 1 0
    outer loop
      vertex 40.75 7 6.2
      vertex 47.75 7 4.7
      vertex 40.75 7 4.7
    endloop
  endfacet
  facet normal -1 0 0
    outer loop
      vertex 40.75 15.75 4.7
      vertex 40.75 17.75 1.5
      vertex 40.75 15.75 1.5
    endloop
  endfacet
  facet normal -1 0 0
    outer loop
      vertex 40.75 17.75 1.5
      vertex 40.75 15.75 4.7
      vertex 40.75 17.75 6.2
    endloop
  endfacet
  facet normal -1 0 0
    outer loop
      vertex 40.75 14.5 6.2
      vertex 40.75 15.75 4.7
      vertex 40.75 14.5 4.7
    endloop
  endfacet
  facet normal -1 0 0
    outer loop
      vertex 40.75 15.75 4.7
      vertex 40.75 14.5 6.2
      vertex 40.75 17.75 6.2
    endloop
  endfacet
  facet normal 0 0 -1
    outer loop
      vertex 40.75 14.5 4.7
      vertex 47.75 15.75 4.7
      vertex 47.75 14.5 4.7
    endloop
  endfacet
  facet normal -0 0 -1
    outer loop
      vertex 47.75 15.75 4.7
      vertex 40.75 14.5 4.7
      vertex 40.75 15.75 4.7
    endloop
  endfacet
  facet normal 1 0 0
    outer loop
      vertex 47.75 17.75 6.2
      vertex 47.75 15.75 4.7
      vertex 47.75 17.75 1.5
    endloop
  endfacet
  facet normal 1 -0 0
    outer loop
      vertex 47.75 14.5 6.2
      vertex 47.75 15.75 4.7
      vertex 47.75 17.75 6.2
    endloop
  endfacet
  facet normal 1 0 0
    outer loop
      vertex 47.75 15.75 4.7
      vertex 47.75 14.5 6.2
      vertex 47.75 14.5 4.7
    endloop
  endfacet
  facet normal 1 0 0
    outer loop
      vertex 47.75 17.75 1.5
      vertex 47.75 15.75 4.7
      vertex 47.75 15.75 1.5
    endloop
  endfacet
  facet normal 0 -1 0
    outer loop
      vertex 40.75 15.75 1.5
      vertex 47.75 15.75 4.7
      vertex 40.75 15.75 4.7
    endloop
  endfacet
  facet normal 0 -1 -0
    outer loop
      vertex 47.75 15.75 4.7
      vertex 40.75 15.75 1.5
      vertex 47.75 15.75 1.5
    endloop
  endfacet
  facet normal 0 1 -0
    outer loop
      vertex 47.75 17.75 1.5
      vertex 40.75 17.75 6.2
      vertex 47.75 17.75 6.2
    endloop
  endfacet
  facet normal 0 1 0
    outer loop
      vertex 40.75 17.75 6.2
      vertex 47.75 17.75 1.5
      vertex 40.75 17.75 1.5
    endloop
  endfacet
  facet normal -0 0 1
    outer loop
      vertex 40.75 17.75 6.2
      vertex 47.75 14.5 6.2
      vertex 47.75 17.75 6.2
    endloop
  endfacet
  facet normal 0 0 1
    outer loop
      vertex 47.75 14.5 6.2
      vertex 40.75 17.75 6.2
      vertex 40.75 14.5 6.2
    endloop
  endfacet
  facet normal 0 -1 0
    outer loop
      vertex 40.75 14.5 4.7
      vertex 47.75 14.5 6.2
      vertex 40.75 14.5 6.2
    endloop
  endfacet
  facet normal 0 -1 -0
    outer loop
      vertex 47.75 14.5 6.2
      vertex 40.75 14.5 4.7
      vertex 47.75 14.5 4.7
    endloop
  endfacet
  facet normal -1 0 0
    outer loop
      vertex 37.25 7.25 1.5
      vertex 37.25 14.25 4.38
      vertex 37.25 14.25 1.5
    endloop
  endfacet
  facet normal -1 -0 0
    outer loop
      vertex 37.25 14.25 4.38
      vertex 37.25 7.25 1.5
      vertex 37.25 7.25 4.38
    endloop
  endfacet
  facet normal -0 0 1
    outer loop
      vertex 37.25 14.25 4.38
      vertex 39.25 7.25 4.38
      vertex 39.25 14.25 4.38
    endloop
  endfacet
  facet normal 0 0 1
    outer loop
      vertex 39.25 7.25 4.38
      vertex 37.25 14.25 4.38
      vertex 37.25 7.25 4.38
    endloop
  endfacet
  facet normal 1 -0 0
    outer loop
      vertex 39.25 7.25 4.38
      vertex 39.25 14.25 1.5
      vertex 39.25 14.25 4.38
    endloop
  endfacet
  facet normal 1 0 0
    outer loop
      vertex 39.25 14.25 1.5
      vertex 39.25 7.25 4.38
      vertex 39.25 7.25 1.5
    endloop
  endfacet
  facet normal 0 -1 0
    outer loop
      vertex 37.25 7.25 1.5
      vertex 39.25 7.25 4.38
      vertex 37.25 7.25 4.38
    endloop
  endfacet
  facet normal 0 -1 -0
    outer loop
      vertex 39.25 7.25 4.38
      vertex 37.25 7.25 1.5
      vertex 39.25 7.25 1.5
    endloop
  endfacet
  facet normal 0 1 -0
    outer loop
      vertex 39.25 14.25 1.5
      vertex 37.25 14.25 4.38
      vertex 39.25 14.25 4.38
    endloop
  endfacet
  facet normal 0 1 0
    outer loop
      vertex 37.25 14.25 4.38
      vertex 39.25 14.25 1.5
      vertex 37.25 14.25 1.5
    endloop
  endfacet
  facet normal -1 0 0
    outer loop
      vertex 11.25 27.25 1.5
      vertex 11.25 25.25 1.5
      vertex 11.25 27.25 4.7
    endloop
  endfacet
  facet normal -1 0 0
    outer loop
      vertex 11.25 27.25 4.7
      vertex 11.25 28.5 6.2
      vertex 11.25 28.5 4.7
    endloop
  endfacet
  facet normal -1 0 0
    outer loop
      vertex 11.25 27.25 4.7
      vertex 11.25 25.25 6.2
      vertex 11.25 28.5 6.2
    endloop
  endfacet
  facet normal -1 0 0
    outer loop
      vertex 11.25 25.25 6.2
      vertex 11.25 27.25 4.7
      vertex 11.25 25.25 1.5
    endloop
  endfacet
  facet normal 0 0 -1
    outer loop
      vertex 11.25 27.25 4.7
      vertex 18.25 28.5 4.7
      vertex 18.25 27.25 4.7
    endloop
  endfacet
  facet normal -0 0 -1
    outer loop
      vertex 18.25 28.5 4.7
      vertex 11.25 27.25 4.7
      vertex 11.25 28.5 4.7
    endloop
  endfacet
  facet normal 1 0 0
    outer loop
      vertex 18.25 28.5 6.2
      vertex 18.25 27.25 4.7
      vertex 18.25 28.5 4.7
    endloop
  endfacet
  facet normal 1 -0 0
    outer loop
      vertex 18.25 25.25 6.2
      vertex 18.25 27.25 4.7
      vertex 18.25 28.5 6.2
    endloop
  endfacet
  facet normal 1 0 0
    outer loop
      vertex 18.25 25.25 1.5
      vertex 18.25 27.25 4.7
      vertex 18.25 25.25 6.2
    endloop
  endfacet
  facet normal 1 0 0
    outer loop
      vertex 18.25 27.25 4.7
      vertex 18.25 25.25 1.5
      vertex 18.25 27.25 1.5
    endloop
  endfacet
  facet normal 0 -1 0
    outer loop
      vertex 11.25 25.25 1.5
      vertex 18.25 25.25 6.2
      vertex 11.25 25.25 6.2
    endloop
  endfacet
  facet normal 0 -1 -0
    outer loop
      vertex 18.25 25.25 6.2
      vertex 11.25 25.25 1.5
      vertex 18.25 25.25 1.5
    endloop
  endfacet
  facet normal 0 1 -0
    outer loop
      vertex 18.25 27.25 1.5
      vertex 11.25 27.25 4.7
      vertex 18.25 27.25 4.7
    endloop
  endfacet
  facet normal 0 1 0
    outer loop
      vertex 11.25 27.25 4.7
      vertex 18.25 27.25 1.5
      vertex 11.25 27.25 1.5
    endloop
  endfacet
  facet normal -0 0 1
    outer loop
      vertex 11.25 28.5 6.2
      vertex 18.25 25.25 6.2
      vertex 18.25 28.5 6.2
    endloop
  endfacet
  facet normal 0 0 1
    outer loop
      vertex 18.25 25.25 6.2
      vertex 11.25 28.5 6.2
      vertex 11.25 25.25 6.2
    endloop
  endfacet
  facet normal 0 1 -0
    outer loop
      vertex 18.25 28.5 4.7
      vertex 11.25 28.5 6.2
      vertex 18.25 28.5 6.2
    endloop
  endfacet
  facet normal 0 1 0
    outer loop
      vertex 11.25 28.5 6.2
      vertex 18.25 28.5 4.7
      vertex 11.25 28.5 4.7
    endloop
  endfacet
  facet normal -1 0 0
    outer loop
      vertex 11.25 37.25 4.7
      vertex 11.25 39.25 1.5
      vertex 11.25 37.25 1.5
    endloop
  endfacet
  facet normal -1 0 0
    outer loop
      vertex 11.25 39.25 1.5
      vertex 11.25 37.25 4.7
      vertex 11.25 39.25 6.2
    endloop
  endfacet
  facet normal -1 0 0
    outer loop
      vertex 11.25 36 6.2
      vertex 11.25 37.25 4.7
      vertex 11.25 36 4.7
    endloop
  endfacet
  facet normal -1 0 0
    outer loop
      vertex 11.25 37.25 4.7
      vertex 11.25 36 6.2
      vertex 11.25 39.25 6.2
    endloop
  endfacet
  facet normal 0 0 -1
    outer loop
      vertex 11.25 36 4.7
      vertex 18.25 37.25 4.7
      vertex 18.25 36 4.7
    endloop
  endfacet
  facet normal -0 0 -1
    outer loop
      vertex 18.25 37.25 4.7
      vertex 11.25 36 4.7
      vertex 11.25 37.25 4.7
    endloop
  endfacet
  facet normal 1 0 0
    outer loop
      vertex 18.25 39.25 6.2
      vertex 18.25 37.25 4.7
      vertex 18.25 39.25 1.5
    endloop
  endfacet
  facet normal 1 -0 0
    outer loop
      vertex 18.25 36 6.2
      vertex 18.25 37.25 4.7
      vertex 18.25 39.25 6.2
    endloop
  endfacet
  facet normal 1 0 0
    outer loop
      vertex 18.25 37.25 4.7
      vertex 18.25 36 6.2
      vertex 18.25 36 4.7
    endloop
  endfacet
  facet normal 1 0 0
    outer loop
      vertex 18.25 39.25 1.5
      vertex 18.25 37.25 4.7
      vertex 18.25 37.25 1.5
    endloop
  endfacet
  facet normal 0 1 -0
    outer loop
      vertex 18.25 39.25 1.5
      vertex 11.25 39.25 6.2
      vertex 18.25 39.25 6.2
    endloop
  endfacet
  facet normal 0 1 0
    outer loop
      vertex 11.25 39.25 6.2
      vertex 18.25 39.25 1.5
      vertex 11.25 39.25 1.5
    endloop
  endfacet
  facet normal 0 -1 0
    outer loop
      vertex 11.25 37.25 1.5
      vertex 18.25 37.25 4.7
      vertex 11.25 37.25 4.7
    endloop
  endfacet
  facet normal 0 -1 -0
    outer loop
      vertex 18.25 37.25 4.7
      vertex 11.25 37.25 1.5
      vertex 18.25 37.25 1.5
    endloop
  endfacet
  facet normal -0 0 1
    outer loop
      vertex 11.25 39.25 6.2
      vertex 18.25 36 6.2
      vertex 18.25 39.25 6.2
    endloop
  endfacet
  facet normal 0 0 1
    outer loop
      vertex 18.25 36 6.2
      vertex 11.25 39.25 6.2
      vertex 11.25 36 6.2
    endloop
  endfacet
  facet normal 0 -1 0
    outer loop
      vertex 11.25 36 4.7
      vertex 18.25 36 6.2
      vertex 11.25 36 6.2
    endloop
  endfacet
  facet normal 0 -1 -0
    outer loop
      vertex 18.25 36 6.2
      vertex 11.25 36 4.7
      vertex 18.25 36 4.7
    endloop
  endfacet
  facet normal -1 0 0
    outer loop
      vertex 20 28.75 1.5
      vertex 20 35.75 4.38
      vertex 20 35.75 1.5
    endloop
  endfacet
  facet normal -1 -0 0
    outer loop
      vertex 20 35.75 4.38
      vertex 20 28.75 1.5
      vertex 20 28.75 4.38
    endloop
  endfacet
  facet normal -0 0 1
    outer loop
      vertex 20 35.75 4.38
      vertex 22 28.75 4.38
      vertex 22 35.75 4.38
    endloop
  endfacet
  facet normal 0 0 1
    outer loop
      vertex 22 28.75 4.38
      vertex 20 35.75 4.38
      vertex 20 28.75 4.38
    endloop
  endfacet
  facet normal 1 -0 0
    outer loop
      vertex 22 28.75 4.38
      vertex 22 35.75 1.5
      vertex 22 35.75 4.38
    endloop
  endfacet
  facet normal 1 0 0
    outer loop
      vertex 22 35.75 1.5
      vertex 22 28.75 4.38
      vertex 22 28.75 1.5
    endloop
  endfacet
  facet normal 0 -1 0
    outer loop
      vertex 20 28.75 1.5
      vertex 22 28.75 4.38
      vertex 20 28.75 4.38
    endloop
  endfacet
  facet normal 0 -1 -0
    outer loop
      vertex 22 28.75 4.38
      vertex 20 28.75 1.5
      vertex 22 28.75 1.5
    endloop
  endfacet
  facet normal 0 1 -0
    outer loop
      vertex 22 35.75 1.5
      vertex 20 35.75 4.38
      vertex 22 35.75 4.38
    endloop
  endfacet
  facet normal 0 1 0
    outer loop
      vertex 20 35.75 4.38
      vertex 22 35.75 1.5
      vertex 20 35.75 1.5
    endloop
  endfacet
  facet normal -1 0 0
    outer loop
      vertex 40.75 27.25 1.5
      vertex 40.75 25.25 1.5
      vertex 40.75 27.25 4.7
    endloop
  endfacet
  facet normal -1 0 0
    outer loop
      vertex 40.75 27.25 4.7
      vertex 40.75 28.5 6.2
      vertex 40.75 28.5 4.7
    endloop
  endfacet
  facet normal -1 0 0
    outer loop
      vertex 40.75 27.25 4.7
      vertex 40.75 25.25 6.2
      vertex 40.75 28.5 6.2
    endloop
  endfacet
  facet normal -1 0 0
    outer loop
      vertex 40.75 25.25 6.2
      vertex 40.75 27.25 4.7
      vertex 40.75 25.25 1.5
    endloop
  endfacet
  facet normal 0 0 -1
    outer loop
      vertex 40.75 27.25 4.7
      vertex 47.75 28.5 4.7
      vertex 47.75 27.25 4.7
    endloop
  endfacet
  facet normal -0 0 -1
    outer loop
      vertex 47.75 28.5 4.7
      vertex 40.75 27.25 4.7
      vertex 40.75 28.5 4.7
    endloop
  endfacet
  facet normal 1 0 0
    outer loop
      vertex 47.75 28.5 6.2
      vertex 47.75 27.25 4.7
      vertex 47.75 28.5 4.7
    endloop
  endfacet
  facet normal 1 -0 0
    outer loop
      vertex 47.75 25.25 6.2
      vertex 47.75 27.25 4.7
      vertex 47.75 28.5 6.2
    endloop
  endfacet
  facet normal 1 0 0
    outer loop
      vertex 47.75 25.25 1.5
      vertex 47.75 27.25 4.7
      vertex 47.75 25.25 6.2
    endloop
  endfacet
  facet normal 1 0 0
    outer loop
      vertex 47.75 27.25 4.7
      vertex 47.75 25.25 1.5
      vertex 47.75 27.25 1.5
    endloop
  endfacet
  facet normal 0 1 -0
    outer loop
      vertex 47.75 27.25 1.5
      vertex 40.75 27.25 4.7
      vertex 47.75 27.25 4.7
    endloop
  endfacet
  facet normal 0 1 0
    outer loop
      vertex 40.75 27.25 4.7
      vertex 47.75 27.25 1.5
      vertex 40.75 27.25 1.5
    endloop
  endfacet
  facet normal 0 -1 0
    outer loop
      vertex 40.75 25.25 1.5
      vertex 47.75 25.25 6.2
      vertex 40.75 25.25 6.2
    endloop
  endfacet
  facet normal 0 -1 -0
    outer loop
      vertex 47.75 25.25 6.2
      vertex 40.75 25.25 1.5
      vertex 47.75 25.25 1.5
    endloop
  endfacet
  facet normal -0 0 1
    outer loop
      vertex 40.75 28.5 6.2
      vertex 47.75 25.25 6.2
      vertex 47.75 28.5 6.2
    endloop
  endfacet
  facet normal 0 0 1
    outer loop
      vertex 47.75 25.25 6.2
      vertex 40.75 28.5 6.2
      vertex 40.75 25.25 6.2
    endloop
  endfacet
  facet normal 0 1 -0
    outer loop
      vertex 47.75 28.5 4.7
      vertex 40.75 28.5 6.2
      vertex 47.75 28.5 6.2
    endloop
  endfacet
  facet normal 0 1 0
    outer loop
      vertex 40.75 28.5 6.2
      vertex 47.75 28.5 4.7
      vertex 40.75 28.5 4.7
    endloop
  endfacet
  facet normal -1 0 0
    outer loop
      vertex 40.75 37.25 4.7
      vertex 40.75 39.25 1.5
      vertex 40.75 37.25 1.5
    endloop
  endfacet
  facet normal -1 0 0
    outer loop
      vertex 40.75 39.25 1.5
      vertex 40.75 37.25 4.7
      vertex 40.75 39.25 6.2
    endloop
  endfacet
  facet normal -1 0 0
    outer loop
      vertex 40.75 36 6.2
      vertex 40.75 37.25 4.7
      vertex 40.75 36 4.7
    endloop
  endfacet
  facet normal -1 0 0
    outer loop
      vertex 40.75 37.25 4.7
      vertex 40.75 36 6.2
      vertex 40.75 39.25 6.2
    endloop
  endfacet
  facet normal 0 0 -1
    outer loop
      vertex 40.75 36 4.7
      vertex 47.75 37.25 4.7
      vertex 47.75 36 4.7
    endloop
  endfacet
  facet normal -0 0 -1
    outer loop
      vertex 47.75 37.25 4.7
      vertex 40.75 36 4.7
      vertex 40.75 37.25 4.7
    endloop
  endfacet
  facet normal 1 0 0
    outer loop
      vertex 47.75 39.25 6.2
      vertex 47.75 37.25 4.7
      vertex 47.75 39.25 1.5
    endloop
  endfacet
  facet normal 1 -0 0
    outer loop
      vertex 47.75 36 6.2
      vertex 47.75 37.25 4.7
      vertex 47.75 39.25 6.2
    endloop
  endfacet
  facet normal 1 0 0
    outer loop
      vertex 47.75 37.25 4.7
      vertex 47.75 36 6.2
      vertex 47.75 36 4.7
    endloop
  endfacet
  facet normal 1 0 0
    outer loop
      vertex 47.75 39.25 1.5
      vertex 47.75 37.25 4.7
      vertex 47.75 37.25 1.5
    endloop
  endfacet
  facet normal 0 1 -0
    outer loop
      vertex 47.75 39.25 1.5
      vertex 40.75 39.25 6.2
      vertex 47.75 39.25 6.2
    endloop
  endfacet
  facet normal 0 1 0
    outer loop
      vertex 40.75 39.25 6.2
      vertex 47.75 39.25 1.5
      vertex 40.75 39.25 1.5
    endloop
  endfacet
  facet normal 0 -1 0
    outer loop
      vertex 40.75 37.25 1.5
      vertex 47.75 37.25 4.7
      vertex 40.75 37.25 4.7
    endloop
  endfacet
  facet normal 0 -1 -0
    outer loop
      vertex 47.75 37.25 4.7
      vertex 40.75 37.25 1.5
      vertex 47.75 37.25 1.5
    endloop
  endfacet
  facet normal -0 0 1
    outer loop
      vertex 40.75 39.25 6.2
      vertex 47.75 36 6.2
      vertex 47.75 39.25 6.2
    endloop
  endfacet
  facet normal 0 0 1
    outer loop
      vertex 47.75 36 6.2
      vertex 40.75 39.25 6.2
      vertex 40.75 36 6.2
    endloop
  endfacet
  facet normal 0 -1 0
    outer loop
      vertex 40.75 36 4.7
      vertex 47.75 36 6.2
      vertex 40.75 36 6.2
    endloop
  endfacet
  facet normal 0 -1 -0
    outer loop
      vertex 47.75 36 6.2
      vertex 40.75 36 4.7
      vertex 47.75 36 4.7
    endloop
  endfacet
  facet normal -1 0 0
    outer loop
      vertex 37.25 28.75 1.5
      vertex 37.25 35.75 4.38
      vertex 37.25 35.75 1.5
    endloop
  endfacet
  facet normal -1 -0 0
    outer loop
      vertex 37.25 35.75 4.38
      vertex 37.25 28.75 1.5
      vertex 37.25 28.75 4.38
    endloop
  endfacet
  facet normal -0 0 1
    outer loop
      vertex 37.25 35.75 4.38
      vertex 39.25 28.75 4.38
      vertex 39.25 35.75 4.38
    endloop
  endfacet
  facet normal 0 0 1
    outer loop
      vertex 39.25 28.75 4.38
      vertex 37.25 35.75 4.38
      vertex 37.25 28.75 4.38
    endloop
  endfacet
  facet normal 1 -0 0
    outer loop
      vertex 39.25 28.75 4.38
      vertex 39.25 35.75 1.5
      vertex 39.25 35.75 4.38
    endloop
  endfacet
  facet normal 1 0 0
    outer loop
      vertex 39.25 35.75 1.5
      vertex 39.25 28.75 4.38
      vertex 39.25 28.75 1.5
    endloop
  endfacet
  facet normal 0 1 -0
    outer loop
      vertex 39.25 35.75 1.5
      vertex 37.25 35.75 4.38
      vertex 39.25 35.75 4.38
    endloop
  endfacet
  facet normal 0 1 0
    outer loop
      vertex 37.25 35.75 4.38
      vertex 39.25 35.75 1.5
      vertex 37.25 35.75 1.5
    endloop
  endfacet
  facet normal 0 -1 0
    outer loop
      vertex 37.25 28.75 1.5
      vertex 39.25 28.75 4.38
      vertex 37.25 28.75 4.38
    endloop
  endfacet
  facet normal 0 -1 -0
    outer loop
      vertex 39.25 28.75 4.38
      vertex 37.25 28.75 1.5
      vertex 39.25 28.75 1.5
    endloop
  endfacet
  facet normal 1 -0 0
    outer loop
      vertex 12.25 8.25 1.5
      vertex 12.25 13.25 0
      vertex 12.25 13.25 1.5
    endloop
  endfacet
  facet normal 1 0 0
    outer loop
      vertex 12.25 13.25 0
      vertex 12.25 8.25 1.5
      vertex 12.25 8.25 0
    endloop
  endfacet
  facet normal -1 0 0
    outer loop
      vertex 17.25 8.25 0
      vertex 17.25 13.25 1.5
      vertex 17.25 13.25 0
    endloop
  endfacet
  facet normal -1 -0 0
    outer loop
      vertex 17.25 13.25 1.5
      vertex 17.25 8.25 0
      vertex 17.25 8.25 1.5
    endloop
  endfacet
  facet normal 0 -1 0
    outer loop
      vertex 12.25 13.25 0
      vertex 17.25 13.25 1.5
      vertex 12.25 13.25 1.5
    endloop
  endfacet
  facet normal 0 -1 -0
    outer loop
      vertex 17.25 13.25 1.5
      vertex 12.25 13.25 0
      vertex 17.25 13.25 0
    endloop
  endfacet
  facet normal 0 1 -0
    outer loop
      vertex 17.25 8.25 0
      vertex 12.25 8.25 1.5
      vertex 17.25 8.25 1.5
    endloop
  endfacet
  facet normal 0 1 0
    outer loop
      vertex 12.25 8.25 1.5
      vertex 17.25 8.25 0
      vertex 12.25 8.25 0
    endloop
  endfacet
  facet normal 1 -0 0
    outer loop
      vertex 41.75 8.25 1.5
      vertex 41.75 13.25 0
      vertex 41.75 13.25 1.5
    endloop
  endfacet
  facet normal 1 0 0
    outer loop
      vertex 41.75 13.25 0
      vertex 41.75 8.25 1.5
      vertex 41.75 8.25 0
    endloop
  endfacet
  facet normal -1 0 0
    outer loop
      vertex 46.75 8.25 0
      vertex 46.75 13.25 1.5
      vertex 46.75 13.25 0
    endloop
  endfacet
  facet normal -1 -0 0
    outer loop
      vertex 46.75 13.25 1.5
      vertex 46.75 8.25 0
      vertex 46.75 8.25 1.5
    endloop
  endfacet
  facet normal 0 -1 0
    outer loop
      vertex 41.75 13.25 0
      vertex 46.75 13.25 1.5
      vertex 41.75 13.25 1.5
    endloop
  endfacet
  facet normal 0 -1 -0
    outer loop
      vertex 46.75 13.25 1.5
      vertex 41.75 13.25 0
      vertex 46.75 13.25 0
    endloop
  endfacet
  facet normal 0 1 -0
    outer loop
      vertex 46.75 8.25 0
      vertex 41.75 8.25 1.5
      vertex 46.75 8.25 1.5
    endloop
  endfacet
  facet normal 0 1 0
    outer loop
      vertex 41.75 8.25 1.5
      vertex 46.75 8.25 0
      vertex 41.75 8.25 0
    endloop
  endfacet
  facet normal 1 -0 0
    outer loop
      vertex 12.25 29.75 1.5
      vertex 12.25 34.75 0
      vertex 12.25 34.75 1.5
    endloop
  endfacet
  facet normal 1 0 0
    outer loop
      vertex 12.25 34.75 0
      vertex 12.25 29.75 1.5
      vertex 12.25 29.75 0
    endloop
  endfacet
  facet normal -1 0 0
    outer loop
      vertex 17.25 29.75 0
      vertex 17.25 34.75 1.5
      vertex 17.25 34.75 0
    endloop
  endfacet
  facet normal -1 -0 0
    outer loop
      vertex 17.25 34.75 1.5
      vertex 17.25 29.75 0
      vertex 17.25 29.75 1.5
    endloop
  endfacet
  facet normal 0 -1 0
    outer loop
      vertex 12.25 34.75 0
      vertex 17.25 34.75 1.5
      vertex 12.25 34.75 1.5
    endloop
  endfacet
  facet normal 0 -1 -0
    outer loop
      vertex 17.25 34.75 1.5
      vertex 12.25 34.75 0
      vertex 17.25 34.75 0
    endloop
  endfacet
  facet normal 0 1 -0
    outer loop
      vertex 17.25 29.75 0
      vertex 12.25 29.75 1.5
      vertex 17.25 29.75 1.5
    endloop
  endfacet
  facet normal 0 1 0
    outer loop
      vertex 12.25 29.75 1.5
      vertex 17.25 29.75 0
      vertex 12.25 29.75 0
    endloop
  endfacet
  facet normal 1 -0 0
    outer loop
      vertex 41.75 29.75 1.5
      vertex 41.75 34.75 0
      vertex 41.75 34.75 1.5
    endloop
  endfacet
  facet normal 1 0 0
    outer loop
      vertex 41.75 34.75 0
      vertex 41.75 29.75 1.5
      vertex 41.75 29.75 0
    endloop
  endfacet
  facet normal -1 0 0
    outer loop
      vertex 46.75 29.75 0
      vertex 46.75 34.75 1.5
      vertex 46.75 34.75 0
    endloop
  endfacet
  facet normal -1 -0 0
    outer loop
      vertex 46.75 34.75 1.5
      vertex 46.75 29.75 0
      vertex 46.75 29.75 1.5
    endloop
  endfacet
  facet normal 0 1 -0
    outer loop
      vertex 46.75 29.75 0
      vertex 41.75 29.75 1.5
      vertex 46.75 29.75 1.5
    endloop
  endfacet
  facet normal 0 1 0
    outer loop
      vertex 41.75 29.75 1.5
      vertex 46.75 29.75 0
      vertex 41.75 29.75 0
    endloop
  endfacet
  facet normal 0 -1 0
    outer loop
      vertex 41.75 34.75 0
      vertex 46.75 34.75 1.5
      vertex 41.75 34.75 1.5
    endloop
  endfacet
  facet normal 0 -1 -0
    outer loop
      vertex 46.75 34.75 1.5
      vertex 41.75 34.75 0
      vertex 46.75 34.75 0
    endloop
  endfacet
endsolid OpenSCAD_Model
