solid OpenSCAD_Model
  facet normal -1 0 0
    outer loop
      vertex 0 43 0
      vertex 0 22.125 1
      vertex 0 43 1
    endloop
  endfacet
  facet normal -1 0 0
    outer loop
      vertex 0 22.125 1
      vertex 0 20.875 1
      vertex 0 22.125 37
    endloop
  endfacet
  facet normal -1 0 0
    outer loop
      vertex 0 43 0
      vertex 0 20.875 1
      vertex 0 22.125 1
    endloop
  endfacet
  facet normal -1 0 0
    outer loop
      vertex 0 0 0
      vertex 0 20.875 1
      vertex 0 43 0
    endloop
  endfacet
  facet normal -1 -0 0
    outer loop
      vertex 0 20.875 1
      vertex 0 0 0
      vertex 0 0 1
    endloop
  endfacet
  facet normal -1 -0 0
    outer loop
      vertex 0 22.125 37
      vertex 0 20.875 1
      vertex 0 20.875 37
    endloop
  endfacet
  facet normal -0 0 1
    outer loop
      vertex 30.125 20.875 1
      vertex 59 0 1
      vertex 59 20.875 1
    endloop
  endfacet
  facet normal 0 0 1
    outer loop
      vertex 59 0 1
      vertex 30.125 20.875 1
      vertex 30.125 0 1
    endloop
  endfacet
  facet normal -0 0 1
    outer loop
      vertex 0 20.875 1
      vertex 28.875 0 1
      vertex 28.875 20.875 1
    endloop
  endfacet
  facet normal 0 0 1
    outer loop
      vertex 28.875 0 1
      vertex 0 20.875 1
      vertex 0 0 1
    endloop
  endfacet
  facet normal -0 0 1
    outer loop
      vertex 30.125 43 1
      vertex 59 22.125 1
      vertex 59 43 1
    endloop
  endfacet
  facet normal 0 0 1
    outer loop
      vertex 59 22.125 1
      vertex 30.125 43 1
      vertex 30.125 22.125 1
    endloop
  endfacet
  facet normal -0 0 1
    outer loop
      vertex 0 43 1
      vertex 28.875 22.125 1
      vertex 28.875 43 1
    endloop
  endfacet
  facet normal 0 0 1
    outer loop
      vertex 28.875 22.125 1
      vertex 0 43 1
      vertex 0 22.125 1
    endloop
  endfacet
  facet normal 1 0 0
    outer loop
      vertex 59 22.125 37
      vertex 59 20.875 37
      vertex 59 22.125 1
    endloop
  endfacet
  facet normal 1 -0 0
    outer loop
      vertex 59 22.125 1
      vertex 59 43 0
      vertex 59 43 1
    endloop
  endfacet
  facet normal 1 0 0
    outer loop
      vertex 59 20.875 1
      vertex 59 22.125 1
      vertex 59 20.875 37
    endloop
  endfacet
  facet normal 1 -0 0
    outer loop
      vertex 59 20.875 1
      vertex 59 43 0
      vertex 59 22.125 1
    endloop
  endfacet
  facet normal 1 0 0
    outer loop
      vertex 59 0 0
      vertex 59 20.875 1
      vertex 59 0 1
    endloop
  endfacet
  facet normal 1 0 0
    outer loop
      vertex 59 20.875 1
      vertex 59 0 0
      vertex 59 43 0
    endloop
  endfacet
  facet normal 0 0 -1
    outer loop
      vertex 0 0 0
      vertex 59 43 0
      vertex 59 0 0
    endloop
  endfacet
  facet normal -0 0 -1
    outer loop
      vertex 59 43 0
      vertex 0 0 0
      vertex 0 43 0
    endloop
  endfacet
  facet normal 0 -1 0
    outer loop
      vertex 0 0 0
      vertex 28.875 0 1
      vertex 0 0 1
    endloop
  endfacet
  facet normal 0 -1 -0
    outer loop
      vertex 28.875 0 1
      vertex 0 0 0
      vertex 30.125 0 1
    endloop
  endfacet
  facet normal 0 -1 0
    outer loop
      vertex 59 0 0
      vertex 30.125 0 1
      vertex 0 0 0
    endloop
  endfacet
  facet normal 0 -1 0
    outer loop
      vertex 30.125 0 1
      vertex 59 0 0
      vertex 59 0 1
    endloop
  endfacet
  facet normal 0 -1 0
    outer loop
      vertex 28.875 0 1
      vertex 30.125 0 37
      vertex 28.875 0 37
    endloop
  endfacet
  facet normal 0 -1 -0
    outer loop
      vertex 30.125 0 37
      vertex 28.875 0 1
      vertex 30.125 0 1
    endloop
  endfacet
  facet normal 0 1 -0
    outer loop
      vertex 59 43 0
      vertex 30.125 43 1
      vertex 59 43 1
    endloop
  endfacet
  facet normal 0 1 0
    outer loop
      vertex 30.125 43 1
      vertex 59 43 0
      vertex 28.875 43 1
    endloop
  endfacet
  facet normal 0 1 0
    outer loop
      vertex 0 43 0
      vertex 28.875 43 1
      vertex 59 43 0
    endloop
  endfacet
  facet normal 0 1 0
    outer loop
      vertex 28.875 43 1
      vertex 0 43 0
      vertex 0 43 1
    endloop
  endfacet
  facet normal 0 1 -0
    outer loop
      vertex 30.125 43 1
      vertex 28.875 43 37
      vertex 30.125 43 37
    endloop
  endfacet
  facet normal 0 1 0
    outer loop
      vertex 28.875 43 37
      vertex 30.125 43 1
      vertex 28.875 43 1
    endloop
  endfacet
  facet normal -1 0 0
    outer loop
      vertex 28.875 0 1
      vertex 28.875 20.875 37
      vertex 28.875 20.875 1
    endloop
  endfacet
  facet normal -1 -0 0
    outer loop
      vertex 28.875 20.875 37
      vertex 28.875 0 1
      vertex 28.875 0 37
    endloop
  endfacet
  facet normal -1 0 0
    outer loop
      vertex 28.875 22.125 1
      vertex 28.875 43 37
      vertex 28.875 43 1
    endloop
  endfacet
  facet normal -1 -0 0
    outer loop
      vertex 28.875 43 37
      vertex 28.875 22.125 1
      vertex 28.875 22.125 37
    endloop
  endfacet
  facet normal -0 0 1
    outer loop
      vertex 0 22.125 37
      vertex 28.875 20.875 37
      vertex 28.875 22.125 37
    endloop
  endfacet
  facet normal 0 0 1
    outer loop
      vertex 28.875 20.875 37
      vertex 0 22.125 37
      vertex 0 20.875 37
    endloop
  endfacet
  facet normal 0 0 1
    outer loop
      vertex 28.875 22.125 37
      vertex 30.125 22.125 37
      vertex 30.125 43 37
    endloop
  endfacet
  facet normal 0 0 1
    outer loop
      vertex 30.125 22.125 37
      vertex 28.875 22.125 37
      vertex 30.125 20.875 37
    endloop
  endfacet
  facet normal 0 0 1
    outer loop
      vertex 28.875 22.125 37
      vertex 30.125 43 37
      vertex 28.875 43 37
    endloop
  endfacet
  facet normal 0 0 1
    outer loop
      vertex 28.875 20.875 37
      vertex 30.125 20.875 37
      vertex 28.875 22.125 37
    endloop
  endfacet
  facet normal 0 0 1
    outer loop
      vertex 30.125 20.875 37
      vertex 28.875 20.875 37
      vertex 30.125 0 37
    endloop
  endfacet
  facet normal 0 0 1
    outer loop
      vertex 30.125 0 37
      vertex 28.875 20.875 37
      vertex 28.875 0 37
    endloop
  endfacet
  facet normal -0 0 1
    outer loop
      vertex 30.125 22.125 37
      vertex 59 20.875 37
      vertex 59 22.125 37
    endloop
  endfacet
  facet normal 0 0 1
    outer loop
      vertex 59 20.875 37
      vertex 30.125 22.125 37
      vertex 30.125 20.875 37
    endloop
  endfacet
  facet normal 1 -0 0
    outer loop
      vertex 30.125 0 37
      vertex 30.125 20.875 1
      vertex 30.125 20.875 37
    endloop
  endfacet
  facet normal 1 0 0
    outer loop
      vertex 30.125 20.875 1
      vertex 30.125 0 37
      vertex 30.125 0 1
    endloop
  endfacet
  facet normal 1 -0 0
    outer loop
      vertex 30.125 22.125 37
      vertex 30.125 43 1
      vertex 30.125 43 37
    endloop
  endfacet
  facet normal 1 0 0
    outer loop
      vertex 30.125 43 1
      vertex 30.125 22.125 37
      vertex 30.125 22.125 1
    endloop
  endfacet
  facet normal 0 1 -0
    outer loop
      vertex 59 22.125 1
      vertex 30.125 22.125 37
      vertex 59 22.125 37
    endloop
  endfacet
  facet normal 0 1 0
    outer loop
      vertex 30.125 22.125 37
      vertex 59 22.125 1
      vertex 30.125 22.125 1
    endloop
  endfacet
  facet normal 0 1 -0
    outer loop
      vertex 28.875 22.125 1
      vertex 0 22.125 37
      vertex 28.875 22.125 37
    endloop
  endfacet
  facet normal 0 1 0
    outer loop
      vertex 0 22.125 37
      vertex 28.875 22.125 1
      vertex 0 22.125 1
    endloop
  endfacet
  facet normal 0 -1 0
    outer loop
      vertex 30.125 20.875 1
      vertex 59 20.875 37
      vertex 30.125 20.875 37
    endloop
  endfacet
  facet normal 0 -1 -0
    outer loop
      vertex 59 20.875 37
      vertex 30.125 20.875 1
      vertex 59 20.875 1
    endloop
  endfacet
  facet normal 0 -1 0
    outer loop
      vertex 0 20.875 1
      vertex 28.875 20.875 37
      vertex 0 20.875 37
    endloop
  endfacet
  facet normal 0 -1 -0
    outer loop
      vertex 28.875 20.875 37
      vertex 0 20.875 1
      vertex 28.875 20.875 1
    endloop
  endfacet
endsolid OpenSCAD_Model
