solid OpenSCAD_Model
  facet normal -1 0 0
    outer loop
      vertex 0 0 0
      vertex 0 39 0.75
      vertex 0 39 0
    endloop
  endfacet
  facet normal -1 -0 0
    outer loop
      vertex 0 39 0.75
      vertex 0 0 0
      vertex 0 0 0.75
    endloop
  endfacet
  facet normal 0 0 1
    outer loop
      vertex 17 15.5 0.75
      vertex 60 39 0.75
      vertex 17 29.5 0.75
    endloop
  endfacet
  facet normal -0 0 1
    outer loop
      vertex 0 39 0.75
      vertex 17 29.5 0.75
      vertex 60 39 0.75
    endloop
  endfacet
  facet normal 0 0 1
    outer loop
      vertex 7 29.5 0.75
      vertex 0 39 0.75
      vertex 7 15.5 0.75
    endloop
  endfacet
  facet normal 0 0 1
    outer loop
      vertex 17 29.5 0.75
      vertex 0 39 0.75
      vertex 7 29.5 0.75
    endloop
  endfacet
  facet normal 0 0 1
    outer loop
      vertex 60 39 0.75
      vertex 17 15.5 0.75
      vertex 60 0 0.75
    endloop
  endfacet
  facet normal 0 0 1
    outer loop
      vertex 0 0 0.75
      vertex 17 15.5 0.75
      vertex 7 15.5 0.75
    endloop
  endfacet
  facet normal 0 0 1
    outer loop
      vertex 17 15.5 0.75
      vertex 0 0 0.75
      vertex 60 0 0.75
    endloop
  endfacet
  facet normal 0 0 1
    outer loop
      vertex 0 0 0.75
      vertex 7 15.5 0.75
      vertex 0 39 0.75
    endloop
  endfacet
  facet normal 1 -0 0
    outer loop
      vertex 60 0 0.75
      vertex 60 39 0
      vertex 60 39 0.75
    endloop
  endfacet
  facet normal 1 0 0
    outer loop
      vertex 60 39 0
      vertex 60 0 0.75
      vertex 60 0 0
    endloop
  endfacet
  facet normal 0 0 -1
    outer loop
      vertex 60 0 0
      vertex 17 15.5 0
      vertex 60 39 0
    endloop
  endfacet
  facet normal 0 0 -1
    outer loop
      vertex 0 0 0
      vertex 17 15.5 0
      vertex 60 0 0
    endloop
  endfacet
  facet normal 0 0 -1
    outer loop
      vertex 0 39 0
      vertex 7 15.5 0
      vertex 0 0 0
    endloop
  endfacet
  facet normal -0 0 -1
    outer loop
      vertex 17 15.5 0
      vertex 0 0 0
      vertex 7 15.5 0
    endloop
  endfacet
  facet normal 0 0 -1
    outer loop
      vertex 17 29.5 0
      vertex 60 39 0
      vertex 17 15.5 0
    endloop
  endfacet
  facet normal 0 0 -1
    outer loop
      vertex 0 39 0
      vertex 17 29.5 0
      vertex 7 29.5 0
    endloop
  endfacet
  facet normal 0 0 -1
    outer loop
      vertex 17 29.5 0
      vertex 0 39 0
      vertex 60 39 0
    endloop
  endfacet
  facet normal 0 0 -1
    outer loop
      vertex 7 15.5 0
      vertex 0 39 0
      vertex 7 29.5 0
    endloop
  endfacet
  facet normal 0 -1 0
    outer loop
      vertex 0 0 0
      vertex 60 0 0.75
      vertex 0 0 0.75
    endloop
  endfacet
  facet normal 0 -1 -0
    outer loop
      vertex 60 0 0.75
      vertex 0 0 0
      vertex 60 0 0
    endloop
  endfacet
  facet normal 0 1 -0
    outer loop
      vertex 60 39 0
      vertex 0 39 0.75
      vertex 60 39 0.75
    endloop
  endfacet
  facet normal 0 1 0
    outer loop
      vertex 0 39 0.75
      vertex 60 39 0
      vertex 0 39 0
    endloop
  endfacet
  facet normal 1 -0 0
    outer loop
      vertex 7 15.5 0.75
      vertex 7 29.5 0
      vertex 7 29.5 0.75
    endloop
  endfacet
  facet normal 1 0 0
    outer loop
      vertex 7 29.5 0
      vertex 7 15.5 0.75
      vertex 7 15.5 0
    endloop
  endfacet
  facet normal -1 0 0
    outer loop
      vertex 17 15.5 0
      vertex 17 29.5 0.75
      vertex 17 29.5 0
    endloop
  endfacet
  facet normal -1 -0 0
    outer loop
      vertex 17 29.5 0.75
      vertex 17 15.5 0
      vertex 17 15.5 0.75
    endloop
  endfacet
  facet normal 0 1 -0
    outer loop
      vertex 17 15.5 0
      vertex 7 15.5 0.75
      vertex 17 15.5 0.75
    endloop
  endfacet
  facet normal 0 1 0
    outer loop
      vertex 7 15.5 0.75
      vertex 17 15.5 0
      vertex 7 15.5 0
    endloop
  endfacet
  facet normal 0 -1 0
    outer loop
      vertex 7 29.5 0
      vertex 17 29.5 0.75
      vertex 7 29.5 0.75
    endloop
  endfacet
  facet normal 0 -1 -0
    outer loop
      vertex 17 29.5 0.75
      vertex 7 29.5 0
      vertex 17 29.5 0
    endloop
  endfacet
endsolid OpenSCAD_Model
