solid OpenSCAD_Model
  facet normal -1 0 0
    outer loop
      vertex 0 0 0
      vertex 0 28 0.75
      vertex 0 28 0
    endloop
  endfacet
  facet normal -1 -0 0
    outer loop
      vertex 0 28 0.75
      vertex 0 0 0
      vertex 0 0 0.75
    endloop
  endfacet
  facet normal 0 0 1
    outer loop
      vertex 21.25 11 0.75
      vertex 36.5 28 0.75
      vertex 21.25 21.75 0.75
    endloop
  endfacet
  facet normal -0 0 1
    outer loop
      vertex 0 28 0.75
      vertex 21.25 21.75 0.75
      vertex 36.5 28 0.75
    endloop
  endfacet
  facet normal 0 0 1
    outer loop
      vertex 8.5 21.75 0.75
      vertex 0 28 0.75
      vertex 8.5 11 0.75
    endloop
  endfacet
  facet normal 0 0 1
    outer loop
      vertex 21.25 21.75 0.75
      vertex 0 28 0.75
      vertex 8.5 21.75 0.75
    endloop
  endfacet
  facet normal 0 0 1
    outer loop
      vertex 36.5 28 0.75
      vertex 21.25 11 0.75
      vertex 36.5 0 0.75
    endloop
  endfacet
  facet normal 0 0 1
    outer loop
      vertex 0 0 0.75
      vertex 21.25 11 0.75
      vertex 8.5 11 0.75
    endloop
  endfacet
  facet normal 0 0 1
    outer loop
      vertex 21.25 11 0.75
      vertex 0 0 0.75
      vertex 36.5 0 0.75
    endloop
  endfacet
  facet normal 0 0 1
    outer loop
      vertex 0 0 0.75
      vertex 8.5 11 0.75
      vertex 0 28 0.75
    endloop
  endfacet
  facet normal 1 -0 0
    outer loop
      vertex 36.5 0 0.75
      vertex 36.5 28 0
      vertex 36.5 28 0.75
    endloop
  endfacet
  facet normal 1 0 0
    outer loop
      vertex 36.5 28 0
      vertex 36.5 0 0.75
      vertex 36.5 0 0
    endloop
  endfacet
  facet normal 0 1 -0
    outer loop
      vertex 36.5 28 0
      vertex 0 28 0.75
      vertex 36.5 28 0.75
    endloop
  endfacet
  facet normal 0 1 0
    outer loop
      vertex 0 28 0.75
      vertex 36.5 28 0
      vertex 0 28 0
    endloop
  endfacet
  facet normal 0 0 -1
    outer loop
      vertex 36.5 0 0
      vertex 21.25 11 0
      vertex 36.5 28 0
    endloop
  endfacet
  facet normal 0 0 -1
    outer loop
      vertex 0 0 0
      vertex 21.25 11 0
      vertex 36.5 0 0
    endloop
  endfacet
  facet normal 0 0 -1
    outer loop
      vertex 0 28 0
      vertex 8.5 11 0
      vertex 0 0 0
    endloop
  endfacet
  facet normal -0 0 -1
    outer loop
      vertex 21.25 11 0
      vertex 0 0 0
      vertex 8.5 11 0
    endloop
  endfacet
  facet normal 0 0 -1
    outer loop
      vertex 21.25 21.75 0
      vertex 36.5 28 0
      vertex 21.25 11 0
    endloop
  endfacet
  facet normal 0 0 -1
    outer loop
      vertex 0 28 0
      vertex 21.25 21.75 0
      vertex 8.5 21.75 0
    endloop
  endfacet
  facet normal 0 0 -1
    outer loop
      vertex 21.25 21.75 0
      vertex 0 28 0
      vertex 36.5 28 0
    endloop
  endfacet
  facet normal 0 0 -1
    outer loop
      vertex 8.5 11 0
      vertex 0 28 0
      vertex 8.5 21.75 0
    endloop
  endfacet
  facet normal 0 -1 0
    outer loop
      vertex 0 0 0
      vertex 36.5 0 0.75
      vertex 0 0 0.75
    endloop
  endfacet
  facet normal 0 -1 -0
    outer loop
      vertex 36.5 0 0.75
      vertex 0 0 0
      vertex 36.5 0 0
    endloop
  endfacet
  facet normal 1 -0 0
    outer loop
      vertex 8.5 11 0.75
      vertex 8.5 21.75 0
      vertex 8.5 21.75 0.75
    endloop
  endfacet
  facet normal 1 0 0
    outer loop
      vertex 8.5 21.75 0
      vertex 8.5 11 0.75
      vertex 8.5 11 0
    endloop
  endfacet
  facet normal -1 0 0
    outer loop
      vertex 21.25 11 0
      vertex 21.25 21.75 0.75
      vertex 21.25 21.75 0
    endloop
  endfacet
  facet normal -1 -0 0
    outer loop
      vertex 21.25 21.75 0.75
      vertex 21.25 11 0
      vertex 21.25 11 0.75
    endloop
  endfacet
  facet normal 0 1 -0
    outer loop
      vertex 21.25 11 0
      vertex 8.5 11 0.75
      vertex 21.25 11 0.75
    endloop
  endfacet
  facet normal 0 1 0
    outer loop
      vertex 8.5 11 0.75
      vertex 21.25 11 0
      vertex 8.5 11 0
    endloop
  endfacet
  facet normal 0 -1 0
    outer loop
      vertex 8.5 21.75 0
      vertex 21.25 21.75 0.75
      vertex 8.5 21.75 0.75
    endloop
  endfacet
  facet normal 0 -1 -0
    outer loop
      vertex 21.25 21.75 0.75
      vertex 8.5 21.75 0
      vertex 21.25 21.75 0
    endloop
  endfacet
endsolid OpenSCAD_Model
