solid OpenSCAD_Model
  facet normal -1 0 0
    outer loop
      vertex 0 0 0
      vertex 0 28 0.75
      vertex 0 28 0
    endloop
  endfacet
  facet normal -1 -0 0
    outer loop
      vertex 0 28 0.75
      vertex 0 0 0
      vertex 0 0 0.75
    endloop
  endfacet
  facet normal 0 0 1
    outer loop
      vertex 45.5 28 0.75
      vertex 15 24 0.75
      vertex 45.5 24 0.75
    endloop
  endfacet
  facet normal 0 0 1
    outer loop
      vertex 15 24 0.75
      vertex 0 28 0.75
      vertex 15 4 0.75
    endloop
  endfacet
  facet normal -0 0 1
    outer loop
      vertex 0 28 0.75
      vertex 15 24 0.75
      vertex 45.5 28 0.75
    endloop
  endfacet
  facet normal -0 0 1
    outer loop
      vertex 15 4 0.75
      vertex 45.5 0 0.75
      vertex 45.5 4 0.75
    endloop
  endfacet
  facet normal 0 0 1
    outer loop
      vertex 15 4 0.75
      vertex 0 0 0.75
      vertex 45.5 0 0.75
    endloop
  endfacet
  facet normal 0 0 1
    outer loop
      vertex 0 0 0.75
      vertex 15 4 0.75
      vertex 0 28 0.75
    endloop
  endfacet
  facet normal 1 -0 0
    outer loop
      vertex 45.5 0 0.75
      vertex 45.5 4 0
      vertex 45.5 4 0.75
    endloop
  endfacet
  facet normal 1 0 0
    outer loop
      vertex 45.5 4 0
      vertex 45.5 0 0.75
      vertex 45.5 0 0
    endloop
  endfacet
  facet normal 1 -0 0
    outer loop
      vertex 45.5 24 0.75
      vertex 45.5 28 0
      vertex 45.5 28 0.75
    endloop
  endfacet
  facet normal 1 0 0
    outer loop
      vertex 45.5 28 0
      vertex 45.5 24 0.75
      vertex 45.5 24 0
    endloop
  endfacet
  facet normal 0 1 -0
    outer loop
      vertex 45.5 28 0
      vertex 0 28 0.75
      vertex 45.5 28 0.75
    endloop
  endfacet
  facet normal 0 1 0
    outer loop
      vertex 0 28 0.75
      vertex 45.5 28 0
      vertex 0 28 0
    endloop
  endfacet
  facet normal 0 0 -1
    outer loop
      vertex 45.5 0 0
      vertex 15 4 0
      vertex 45.5 4 0
    endloop
  endfacet
  facet normal -0 0 -1
    outer loop
      vertex 15 4 0
      vertex 0 0 0
      vertex 15 24 0
    endloop
  endfacet
  facet normal 0 0 -1
    outer loop
      vertex 0 0 0
      vertex 15 4 0
      vertex 45.5 0 0
    endloop
  endfacet
  facet normal 0 0 -1
    outer loop
      vertex 15 24 0
      vertex 45.5 28 0
      vertex 45.5 24 0
    endloop
  endfacet
  facet normal 0 0 -1
    outer loop
      vertex 15 24 0
      vertex 0 28 0
      vertex 45.5 28 0
    endloop
  endfacet
  facet normal 0 0 -1
    outer loop
      vertex 0 28 0
      vertex 15 24 0
      vertex 0 0 0
    endloop
  endfacet
  facet normal 0 -1 0
    outer loop
      vertex 0 0 0
      vertex 45.5 0 0.75
      vertex 0 0 0.75
    endloop
  endfacet
  facet normal 0 -1 -0
    outer loop
      vertex 45.5 0 0.75
      vertex 0 0 0
      vertex 45.5 0 0
    endloop
  endfacet
  facet normal 1 -0 0
    outer loop
      vertex 15 4 0.75
      vertex 15 24 0
      vertex 15 24 0.75
    endloop
  endfacet
  facet normal 1 0 0
    outer loop
      vertex 15 24 0
      vertex 15 4 0.75
      vertex 15 4 0
    endloop
  endfacet
  facet normal 0 1 -0
    outer loop
      vertex 45.5 4 0
      vertex 15 4 0.75
      vertex 45.5 4 0.75
    endloop
  endfacet
  facet normal 0 1 0
    outer loop
      vertex 15 4 0.75
      vertex 45.5 4 0
      vertex 15 4 0
    endloop
  endfacet
  facet normal 0 -1 0
    outer loop
      vertex 15 24 0
      vertex 45.5 24 0.75
      vertex 15 24 0.75
    endloop
  endfacet
  facet normal 0 -1 -0
    outer loop
      vertex 45.5 24 0.75
      vertex 15 24 0
      vertex 45.5 24 0
    endloop
  endfacet
endsolid OpenSCAD_Model
