solid OpenSCAD_Model
  facet normal 0 0 -1
    outer loop
      vertex 26 45 0
      vertex 54 41 0
      vertex 54 0 0
    endloop
  endfacet
  facet normal 0 0 -1
    outer loop
      vertex 54 41 0
      vertex 26 45 0
      vertex 26 53.5 0
    endloop
  endfacet
  facet normal 0 0 -1
    outer loop
      vertex 0 0 0
      vertex 26 45 0
      vertex 54 0 0
    endloop
  endfacet
  facet normal 0 0 -1
    outer loop
      vertex 0 41 0
      vertex 19.75 45 0
      vertex 0 0 0
    endloop
  endfacet
  facet normal -0 0 -1
    outer loop
      vertex 26 45 0
      vertex 0 0 0
      vertex 19.75 45 0
    endloop
  endfacet
  facet normal 0 0 -1
    outer loop
      vertex 54 41 0
      vertex 26 53.5 0
      vertex 27 63 0
    endloop
  endfacet
  facet normal 0 0 -1
    outer loop
      vertex 19.75 53.5 0
      vertex 27 63 0
      vertex 26 53.5 0
    endloop
  endfacet
  facet normal -0 0 -1
    outer loop
      vertex 19.75 53.5 0
      vertex 0 41 0
      vertex 27 63 0
    endloop
  endfacet
  facet normal -0 0 -1
    outer loop
      vertex 19.75 45 0
      vertex 0 41 0
      vertex 19.75 53.5 0
    endloop
  endfacet
  facet normal 0 -1 0
    outer loop
      vertex 0 0 0
      vertex 54 0 0.75
      vertex 0 0 0.75
    endloop
  endfacet
  facet normal 0 -1 -0
    outer loop
      vertex 54 0 0.75
      vertex 0 0 0
      vertex 54 0 0
    endloop
  endfacet
  facet normal 1 -0 0
    outer loop
      vertex 54 0 0.75
      vertex 54 41 0
      vertex 54 41 0.75
    endloop
  endfacet
  facet normal 1 0 0
    outer loop
      vertex 54 41 0
      vertex 54 0 0.75
      vertex 54 0 0
    endloop
  endfacet
  facet normal 0.631673 0.775235 -0
    outer loop
      vertex 54 41 0
      vertex 27 63 0.75
      vertex 54 41 0.75
    endloop
  endfacet
  facet normal 0.631673 0.775235 0
    outer loop
      vertex 27 63 0.75
      vertex 54 41 0
      vertex 27 63 0
    endloop
  endfacet
  facet normal 0 0 1
    outer loop
      vertex 27 63 0.75
      vertex 19.75 53.5 0.75
      vertex 26 53.5 0.75
    endloop
  endfacet
  facet normal 0 0 1
    outer loop
      vertex 19.75 53.5 0.75
      vertex 0 41 0.75
      vertex 19.75 45 0.75
    endloop
  endfacet
  facet normal 0 0 1
    outer loop
      vertex 0 41 0.75
      vertex 19.75 53.5 0.75
      vertex 27 63 0.75
    endloop
  endfacet
  facet normal -0 0 1
    outer loop
      vertex 26 53.5 0.75
      vertex 54 41 0.75
      vertex 27 63 0.75
    endloop
  endfacet
  facet normal -0 0 1
    outer loop
      vertex 26 45 0.75
      vertex 54 41 0.75
      vertex 26 53.5 0.75
    endloop
  endfacet
  facet normal 0 0 1
    outer loop
      vertex 54 41 0.75
      vertex 26 45 0.75
      vertex 54 0 0.75
    endloop
  endfacet
  facet normal 0 0 1
    outer loop
      vertex 0 0 0.75
      vertex 26 45 0.75
      vertex 19.75 45 0.75
    endloop
  endfacet
  facet normal 0 0 1
    outer loop
      vertex 0 0 0.75
      vertex 19.75 45 0.75
      vertex 0 41 0.75
    endloop
  endfacet
  facet normal 0 0 1
    outer loop
      vertex 26 45 0.75
      vertex 0 0 0.75
      vertex 54 0 0.75
    endloop
  endfacet
  facet normal -1 0 0
    outer loop
      vertex 0 0 0
      vertex 0 41 0.75
      vertex 0 41 0
    endloop
  endfacet
  facet normal -1 -0 0
    outer loop
      vertex 0 41 0.75
      vertex 0 0 0
      vertex 0 0 0.75
    endloop
  endfacet
  facet normal -0.631673 0.775235 0
    outer loop
      vertex 27 63 0
      vertex 0 41 0.75
      vertex 27 63 0.75
    endloop
  endfacet
  facet normal -0.631673 0.775235 0
    outer loop
      vertex 0 41 0.75
      vertex 27 63 0
      vertex 0 41 0
    endloop
  endfacet
  facet normal 1 -0 0
    outer loop
      vertex 19.75 45 0.75
      vertex 19.75 53.5 0
      vertex 19.75 53.5 0.75
    endloop
  endfacet
  facet normal 1 0 0
    outer loop
      vertex 19.75 53.5 0
      vertex 19.75 45 0.75
      vertex 19.75 45 0
    endloop
  endfacet
  facet normal -1 0 0
    outer loop
      vertex 26 45 0
      vertex 26 53.5 0.75
      vertex 26 53.5 0
    endloop
  endfacet
  facet normal -1 -0 0
    outer loop
      vertex 26 53.5 0.75
      vertex 26 45 0
      vertex 26 45 0.75
    endloop
  endfacet
  facet normal 0 1 -0
    outer loop
      vertex 26 45 0
      vertex 19.75 45 0.75
      vertex 26 45 0.75
    endloop
  endfacet
  facet normal 0 1 0
    outer loop
      vertex 19.75 45 0.75
      vertex 26 45 0
      vertex 19.75 45 0
    endloop
  endfacet
  facet normal 0 -1 0
    outer loop
      vertex 19.75 53.5 0
      vertex 26 53.5 0.75
      vertex 19.75 53.5 0.75
    endloop
  endfacet
  facet normal 0 -1 -0
    outer loop
      vertex 26 53.5 0.75
      vertex 19.75 53.5 0
      vertex 26 53.5 0
    endloop
  endfacet
endsolid OpenSCAD_Model
