solid OpenSCAD_Model
  facet normal -1 0 0
    outer loop
      vertex 0 -3.2 3.8147e-07
      vertex 0 0 3.4
      vertex 0 0 3.8147e-07
    endloop
  endfacet
  facet normal -1 -0 0
    outer loop
      vertex 0 0 3.4
      vertex 0 -3.2 3.8147e-07
      vertex 0 -3.2 3.4
    endloop
  endfacet
  facet normal 0 0 -1
    outer loop
      vertex 0 -3.2 3.8147e-07
      vertex 10.5 0 3.8147e-07
      vertex 10.5 -3.2 3.8147e-07
    endloop
  endfacet
  facet normal -0 0 -1
    outer loop
      vertex 10.5 0 3.8147e-07
      vertex 0 -3.2 3.8147e-07
      vertex 0 0 3.8147e-07
    endloop
  endfacet
  facet normal 1 -0 0
    outer loop
      vertex 10.5 -3.2 3.4
      vertex 10.5 0 3.8147e-07
      vertex 10.5 0 3.4
    endloop
  endfacet
  facet normal 1 0 0
    outer loop
      vertex 10.5 0 3.8147e-07
      vertex 10.5 -3.2 3.4
      vertex 10.5 -3.2 3.8147e-07
    endloop
  endfacet
  facet normal 0 -1 0
    outer loop
      vertex 8.2 -3.2 0.2
      vertex 9 -3.2 3
      vertex 8.2 -3.2 3
    endloop
  endfacet
  facet normal 0 -1 -0
    outer loop
      vertex 9 -3.2 3
      vertex 8.2 -3.2 0.2
      vertex 9 -3.2 0.2
    endloop
  endfacet
  facet normal 0 -1 0
    outer loop
      vertex 7.2 -3.2 0.2
      vertex 8 -3.2 3
      vertex 7.2 -3.2 3
    endloop
  endfacet
  facet normal 0 -1 -0
    outer loop
      vertex 8 -3.2 3
      vertex 7.2 -3.2 0.2
      vertex 8 -3.2 0.2
    endloop
  endfacet
  facet normal 0 -1 0
    outer loop
      vertex 6.2 -3.2 0.2
      vertex 7 -3.2 3
      vertex 6.2 -3.2 3
    endloop
  endfacet
  facet normal 0 -1 -0
    outer loop
      vertex 7 -3.2 3
      vertex 6.2 -3.2 0.2
      vertex 7 -3.2 0.2
    endloop
  endfacet
  facet normal 0 -1 0
    outer loop
      vertex 5.2 -3.2 0.2
      vertex 6 -3.2 3
      vertex 5.2 -3.2 3
    endloop
  endfacet
  facet normal 0 -1 -0
    outer loop
      vertex 6 -3.2 3
      vertex 5.2 -3.2 0.2
      vertex 6 -3.2 0.2
    endloop
  endfacet
  facet normal 0 -1 0
    outer loop
      vertex 4.2 -3.2 0.2
      vertex 5 -3.2 3
      vertex 4.2 -3.2 3
    endloop
  endfacet
  facet normal 0 -1 -0
    outer loop
      vertex 5 -3.2 3
      vertex 4.2 -3.2 0.2
      vertex 5 -3.2 0.2
    endloop
  endfacet
  facet normal 0 -1 0
    outer loop
      vertex 3.2 -3.2 0.2
      vertex 4 -3.2 3
      vertex 3.2 -3.2 3
    endloop
  endfacet
  facet normal 0 -1 -0
    outer loop
      vertex 4 -3.2 3
      vertex 3.2 -3.2 0.2
      vertex 4 -3.2 0.2
    endloop
  endfacet
  facet normal 0 -1 0
    outer loop
      vertex 2.2 -3.2 0.2
      vertex 3 -3.2 3
      vertex 2.2 -3.2 3
    endloop
  endfacet
  facet normal 0 -1 -0
    outer loop
      vertex 3 -3.2 3
      vertex 2.2 -3.2 0.2
      vertex 3 -3.2 0.2
    endloop
  endfacet
  facet normal 0 -1 0
    outer loop
      vertex 1.2 -3.2 0.2
      vertex 2 -3.2 3
      vertex 1.2 -3.2 3
    endloop
  endfacet
  facet normal 0 -1 -0
    outer loop
      vertex 2 -3.2 3
      vertex 1.2 -3.2 0.2
      vertex 2 -3.2 0.2
    endloop
  endfacet
  facet normal 0 -1 0
    outer loop
      vertex 1.2 -3.2 3
      vertex 0 -3.2 3.4
      vertex 1 -3.2 3
    endloop
  endfacet
  facet normal 0 -1 0
    outer loop
      vertex 0 -3.2 3.8147e-07
      vertex 1 -3.2 3
      vertex 0 -3.2 3.4
    endloop
  endfacet
  facet normal 0 -1 0
    outer loop
      vertex 0 -3.2 3.8147e-07
      vertex 1.2 -3.2 0.2
      vertex 1 -3.2 0.2
    endloop
  endfacet
  facet normal 0 -1 -0
    outer loop
      vertex 1.2 -3.2 0.2
      vertex 0 -3.2 3.8147e-07
      vertex 2 -3.2 0.2
    endloop
  endfacet
  facet normal 0 -1 -0
    outer loop
      vertex 2 -3.2 0.2
      vertex 0 -3.2 3.8147e-07
      vertex 2.2 -3.2 0.2
    endloop
  endfacet
  facet normal 0 -1 -0
    outer loop
      vertex 2.2 -3.2 0.2
      vertex 0 -3.2 3.8147e-07
      vertex 3 -3.2 0.2
    endloop
  endfacet
  facet normal 0 -1 -0
    outer loop
      vertex 3 -3.2 0.2
      vertex 0 -3.2 3.8147e-07
      vertex 3.2 -3.2 0.2
    endloop
  endfacet
  facet normal 0 -1 -0
    outer loop
      vertex 3.2 -3.2 0.2
      vertex 0 -3.2 3.8147e-07
      vertex 4 -3.2 0.2
    endloop
  endfacet
  facet normal 0 -1 -0
    outer loop
      vertex 4 -3.2 0.2
      vertex 0 -3.2 3.8147e-07
      vertex 4.2 -3.2 0.2
    endloop
  endfacet
  facet normal 0 -1 -0
    outer loop
      vertex 4.2 -3.2 0.2
      vertex 0 -3.2 3.8147e-07
      vertex 5 -3.2 0.2
    endloop
  endfacet
  facet normal 0 -1 -0
    outer loop
      vertex 5 -3.2 0.2
      vertex 0 -3.2 3.8147e-07
      vertex 5.2 -3.2 0.2
    endloop
  endfacet
  facet normal 0 -1 -0
    outer loop
      vertex 5.2 -3.2 0.2
      vertex 0 -3.2 3.8147e-07
      vertex 6 -3.2 0.2
    endloop
  endfacet
  facet normal 0 -1 0
    outer loop
      vertex 10.5 -3.2 3.8147e-07
      vertex 6 -3.2 0.2
      vertex 0 -3.2 3.8147e-07
    endloop
  endfacet
  facet normal 0 -1 0
    outer loop
      vertex 6 -3.2 0.2
      vertex 10.5 -3.2 3.8147e-07
      vertex 6.2 -3.2 0.2
    endloop
  endfacet
  facet normal 0 -1 0
    outer loop
      vertex 6.2 -3.2 0.2
      vertex 10.5 -3.2 3.8147e-07
      vertex 7 -3.2 0.2
    endloop
  endfacet
  facet normal 0 -1 0
    outer loop
      vertex 7 -3.2 0.2
      vertex 10.5 -3.2 3.8147e-07
      vertex 7.2 -3.2 0.2
    endloop
  endfacet
  facet normal 0 -1 0
    outer loop
      vertex 7.2 -3.2 0.2
      vertex 10.5 -3.2 3.8147e-07
      vertex 8 -3.2 0.2
    endloop
  endfacet
  facet normal 0 -1 0
    outer loop
      vertex 8 -3.2 0.2
      vertex 10.5 -3.2 3.8147e-07
      vertex 8.2 -3.2 0.2
    endloop
  endfacet
  facet normal 0 -1 0
    outer loop
      vertex 8.2 -3.2 0.2
      vertex 10.5 -3.2 3.8147e-07
      vertex 9 -3.2 0.2
    endloop
  endfacet
  facet normal 0 -1 -0
    outer loop
      vertex 1 -3.2 3
      vertex 0 -3.2 3.8147e-07
      vertex 1 -3.2 0.2
    endloop
  endfacet
  facet normal 0 -1 0
    outer loop
      vertex 2 -3.2 3
      vertex 0 -3.2 3.4
      vertex 1.2 -3.2 3
    endloop
  endfacet
  facet normal 0 -1 0
    outer loop
      vertex 2.2 -3.2 3
      vertex 0 -3.2 3.4
      vertex 2 -3.2 3
    endloop
  endfacet
  facet normal 0 -1 0
    outer loop
      vertex 3 -3.2 3
      vertex 0 -3.2 3.4
      vertex 2.2 -3.2 3
    endloop
  endfacet
  facet normal 0 -1 0
    outer loop
      vertex 3.2 -3.2 3
      vertex 0 -3.2 3.4
      vertex 3 -3.2 3
    endloop
  endfacet
  facet normal 0 -1 0
    outer loop
      vertex 4 -3.2 3
      vertex 0 -3.2 3.4
      vertex 3.2 -3.2 3
    endloop
  endfacet
  facet normal 0 -1 0
    outer loop
      vertex 4.2 -3.2 3
      vertex 0 -3.2 3.4
      vertex 4 -3.2 3
    endloop
  endfacet
  facet normal 0 -1 0
    outer loop
      vertex 5 -3.2 3
      vertex 0 -3.2 3.4
      vertex 4.2 -3.2 3
    endloop
  endfacet
  facet normal 0 -1 0
    outer loop
      vertex 0 -3.2 3.4
      vertex 5 -3.2 3
      vertex 10.5 -3.2 3.4
    endloop
  endfacet
  facet normal 0 -1 0
    outer loop
      vertex 5.2 -3.2 3
      vertex 10.5 -3.2 3.4
      vertex 5 -3.2 3
    endloop
  endfacet
  facet normal 0 -1 0
    outer loop
      vertex 6 -3.2 3
      vertex 10.5 -3.2 3.4
      vertex 5.2 -3.2 3
    endloop
  endfacet
  facet normal 0 -1 0
    outer loop
      vertex 6.2 -3.2 3
      vertex 10.5 -3.2 3.4
      vertex 6 -3.2 3
    endloop
  endfacet
  facet normal 0 -1 0
    outer loop
      vertex 7 -3.2 3
      vertex 10.5 -3.2 3.4
      vertex 6.2 -3.2 3
    endloop
  endfacet
  facet normal 0 -1 0
    outer loop
      vertex 7.2 -3.2 3
      vertex 10.5 -3.2 3.4
      vertex 7 -3.2 3
    endloop
  endfacet
  facet normal 0 -1 0
    outer loop
      vertex 8 -3.2 3
      vertex 10.5 -3.2 3.4
      vertex 7.2 -3.2 3
    endloop
  endfacet
  facet normal 0 -1 0
    outer loop
      vertex 8.2 -3.2 3
      vertex 10.5 -3.2 3.4
      vertex 8 -3.2 3
    endloop
  endfacet
  facet normal 0 -1 0
    outer loop
      vertex 9 -3.2 3
      vertex 10.5 -3.2 3.4
      vertex 8.2 -3.2 3
    endloop
  endfacet
  facet normal 0 -1 0
    outer loop
      vertex 9.2 -3.2 3
      vertex 10.5 -3.2 3.4
      vertex 9 -3.2 3
    endloop
  endfacet
  facet normal 0 -1 0
    outer loop
      vertex 10.5 -3.2 3.8147e-07
      vertex 9.2 -3.2 3
      vertex 9.2 -3.2 0.2
    endloop
  endfacet
  facet normal 0 -1 0
    outer loop
      vertex 9.2 -3.2 3
      vertex 10.5 -3.2 3.8147e-07
      vertex 10.5 -3.2 3.4
    endloop
  endfacet
  facet normal 0 -1 0
    outer loop
      vertex 9 -3.2 0.2
      vertex 10.5 -3.2 3.8147e-07
      vertex 9.2 -3.2 0.2
    endloop
  endfacet
  facet normal -0 0 1
    outer loop
      vertex 0 0 3.4
      vertex 10.5 -3.2 3.4
      vertex 10.5 0 3.4
    endloop
  endfacet
  facet normal 0 0 1
    outer loop
      vertex 10.5 -3.2 3.4
      vertex 0 0 3.4
      vertex 0 -3.2 3.4
    endloop
  endfacet
  facet normal 0 1 -0
    outer loop
      vertex 2 0 0.2
      vertex 1.2 0 3
      vertex 2 0 3
    endloop
  endfacet
  facet normal 0 1 0
    outer loop
      vertex 1.2 0 3
      vertex 2 0 0.2
      vertex 1.2 0 0.2
    endloop
  endfacet
  facet normal 0 1 -0
    outer loop
      vertex 3 0 0.2
      vertex 2.2 0 3
      vertex 3 0 3
    endloop
  endfacet
  facet normal 0 1 0
    outer loop
      vertex 2.2 0 3
      vertex 3 0 0.2
      vertex 2.2 0 0.2
    endloop
  endfacet
  facet normal 0 1 -0
    outer loop
      vertex 4 0 0.2
      vertex 3.2 0 3
      vertex 4 0 3
    endloop
  endfacet
  facet normal 0 1 0
    outer loop
      vertex 3.2 0 3
      vertex 4 0 0.2
      vertex 3.2 0 0.2
    endloop
  endfacet
  facet normal 0 1 -0
    outer loop
      vertex 5 0 0.2
      vertex 4.2 0 3
      vertex 5 0 3
    endloop
  endfacet
  facet normal 0 1 0
    outer loop
      vertex 4.2 0 3
      vertex 5 0 0.2
      vertex 4.2 0 0.2
    endloop
  endfacet
  facet normal 0 1 -0
    outer loop
      vertex 6 0 0.2
      vertex 5.2 0 3
      vertex 6 0 3
    endloop
  endfacet
  facet normal 0 1 0
    outer loop
      vertex 5.2 0 3
      vertex 6 0 0.2
      vertex 5.2 0 0.2
    endloop
  endfacet
  facet normal 0 1 -0
    outer loop
      vertex 7 0 0.2
      vertex 6.2 0 3
      vertex 7 0 3
    endloop
  endfacet
  facet normal 0 1 0
    outer loop
      vertex 6.2 0 3
      vertex 7 0 0.2
      vertex 6.2 0 0.2
    endloop
  endfacet
  facet normal 0 1 -0
    outer loop
      vertex 8 0 0.2
      vertex 7.2 0 3
      vertex 8 0 3
    endloop
  endfacet
  facet normal 0 1 0
    outer loop
      vertex 7.2 0 3
      vertex 8 0 0.2
      vertex 7.2 0 0.2
    endloop
  endfacet
  facet normal 0 1 -0
    outer loop
      vertex 9 0 0.2
      vertex 8.2 0 3
      vertex 9 0 3
    endloop
  endfacet
  facet normal 0 1 0
    outer loop
      vertex 8.2 0 3
      vertex 9 0 0.2
      vertex 8.2 0 0.2
    endloop
  endfacet
  facet normal 0 1 0
    outer loop
      vertex 9 0 3
      vertex 10.5 0 3.4
      vertex 9.2 0 3
    endloop
  endfacet
  facet normal 0 1 -0
    outer loop
      vertex 10.5 0 3.8147e-07
      vertex 9.2 0 3
      vertex 10.5 0 3.4
    endloop
  endfacet
  facet normal 0 1 0
    outer loop
      vertex 10.5 0 3.8147e-07
      vertex 9 0 0.2
      vertex 9.2 0 0.2
    endloop
  endfacet
  facet normal 0 1 0
    outer loop
      vertex 9 0 0.2
      vertex 10.5 0 3.8147e-07
      vertex 8.2 0 0.2
    endloop
  endfacet
  facet normal 0 1 0
    outer loop
      vertex 8.2 0 0.2
      vertex 10.5 0 3.8147e-07
      vertex 8 0 0.2
    endloop
  endfacet
  facet normal 0 1 0
    outer loop
      vertex 8 0 0.2
      vertex 10.5 0 3.8147e-07
      vertex 7.2 0 0.2
    endloop
  endfacet
  facet normal 0 1 0
    outer loop
      vertex 7.2 0 0.2
      vertex 10.5 0 3.8147e-07
      vertex 7 0 0.2
    endloop
  endfacet
  facet normal 0 1 0
    outer loop
      vertex 7 0 0.2
      vertex 10.5 0 3.8147e-07
      vertex 6.2 0 0.2
    endloop
  endfacet
  facet normal 0 1 0
    outer loop
      vertex 6.2 0 0.2
      vertex 10.5 0 3.8147e-07
      vertex 6 0 0.2
    endloop
  endfacet
  facet normal 0 1 0
    outer loop
      vertex 6 0 0.2
      vertex 10.5 0 3.8147e-07
      vertex 5.2 0 0.2
    endloop
  endfacet
  facet normal 0 1 0
    outer loop
      vertex 5.2 0 0.2
      vertex 10.5 0 3.8147e-07
      vertex 5 0 0.2
    endloop
  endfacet
  facet normal 0 1 0
    outer loop
      vertex 0 0 3.8147e-07
      vertex 5 0 0.2
      vertex 10.5 0 3.8147e-07
    endloop
  endfacet
  facet normal 0 1 0
    outer loop
      vertex 5 0 0.2
      vertex 0 0 3.8147e-07
      vertex 4.2 0 0.2
    endloop
  endfacet
  facet normal 0 1 0
    outer loop
      vertex 4.2 0 0.2
      vertex 0 0 3.8147e-07
      vertex 4 0 0.2
    endloop
  endfacet
  facet normal 0 1 0
    outer loop
      vertex 4 0 0.2
      vertex 0 0 3.8147e-07
      vertex 3.2 0 0.2
    endloop
  endfacet
  facet normal 0 1 0
    outer loop
      vertex 3.2 0 0.2
      vertex 0 0 3.8147e-07
      vertex 3 0 0.2
    endloop
  endfacet
  facet normal 0 1 0
    outer loop
      vertex 3 0 0.2
      vertex 0 0 3.8147e-07
      vertex 2.2 0 0.2
    endloop
  endfacet
  facet normal 0 1 0
    outer loop
      vertex 2 0 0.2
      vertex 0 0 3.8147e-07
      vertex 1.2 0 0.2
    endloop
  endfacet
  facet normal 0 1 0
    outer loop
      vertex 2.2 0 0.2
      vertex 0 0 3.8147e-07
      vertex 2 0 0.2
    endloop
  endfacet
  facet normal 0 1 0
    outer loop
      vertex 9.2 0 3
      vertex 10.5 0 3.8147e-07
      vertex 9.2 0 0.2
    endloop
  endfacet
  facet normal 0 1 0
    outer loop
      vertex 8.2 0 3
      vertex 10.5 0 3.4
      vertex 9 0 3
    endloop
  endfacet
  facet normal 0 1 0
    outer loop
      vertex 8 0 3
      vertex 10.5 0 3.4
      vertex 8.2 0 3
    endloop
  endfacet
  facet normal 0 1 0
    outer loop
      vertex 7.2 0 3
      vertex 10.5 0 3.4
      vertex 8 0 3
    endloop
  endfacet
  facet normal 0 1 0
    outer loop
      vertex 7 0 3
      vertex 10.5 0 3.4
      vertex 7.2 0 3
    endloop
  endfacet
  facet normal 0 1 0
    outer loop
      vertex 6.2 0 3
      vertex 10.5 0 3.4
      vertex 7 0 3
    endloop
  endfacet
  facet normal 0 1 0
    outer loop
      vertex 6 0 3
      vertex 10.5 0 3.4
      vertex 6.2 0 3
    endloop
  endfacet
  facet normal 0 1 0
    outer loop
      vertex 5.2 0 3
      vertex 10.5 0 3.4
      vertex 6 0 3
    endloop
  endfacet
  facet normal 0 1 0
    outer loop
      vertex 10.5 0 3.4
      vertex 5.2 0 3
      vertex 0 0 3.4
    endloop
  endfacet
  facet normal 0 1 -0
    outer loop
      vertex 5 0 3
      vertex 0 0 3.4
      vertex 5.2 0 3
    endloop
  endfacet
  facet normal 0 1 -0
    outer loop
      vertex 4.2 0 3
      vertex 0 0 3.4
      vertex 5 0 3
    endloop
  endfacet
  facet normal 0 1 -0
    outer loop
      vertex 4 0 3
      vertex 0 0 3.4
      vertex 4.2 0 3
    endloop
  endfacet
  facet normal 0 1 -0
    outer loop
      vertex 3.2 0 3
      vertex 0 0 3.4
      vertex 4 0 3
    endloop
  endfacet
  facet normal 0 1 -0
    outer loop
      vertex 3 0 3
      vertex 0 0 3.4
      vertex 3.2 0 3
    endloop
  endfacet
  facet normal 0 1 -0
    outer loop
      vertex 2.2 0 3
      vertex 0 0 3.4
      vertex 3 0 3
    endloop
  endfacet
  facet normal 0 1 -0
    outer loop
      vertex 2 0 3
      vertex 0 0 3.4
      vertex 2.2 0 3
    endloop
  endfacet
  facet normal 0 1 -0
    outer loop
      vertex 1.2 0 3
      vertex 0 0 3.4
      vertex 2 0 3
    endloop
  endfacet
  facet normal 0 1 -0
    outer loop
      vertex 1 0 3
      vertex 0 0 3.4
      vertex 1.2 0 3
    endloop
  endfacet
  facet normal 0 1 0
    outer loop
      vertex 0 0 3.8147e-07
      vertex 1 0 3
      vertex 1 0 0.2
    endloop
  endfacet
  facet normal 0 1 0
    outer loop
      vertex 1 0 3
      vertex 0 0 3.8147e-07
      vertex 0 0 3.4
    endloop
  endfacet
  facet normal 0 1 0
    outer loop
      vertex 1.2 0 0.2
      vertex 0 0 3.8147e-07
      vertex 1 0 0.2
    endloop
  endfacet
  facet normal 1 -0 0
    outer loop
      vertex 1 -3.2 3
      vertex 1 0 0.2
      vertex 1 0 3
    endloop
  endfacet
  facet normal 1 0 0
    outer loop
      vertex 1 0 0.2
      vertex 1 -3.2 3
      vertex 1 -3.2 0.2
    endloop
  endfacet
  facet normal -0 0 1
    outer loop
      vertex 1 0 0.2
      vertex 1.2 -3.2 0.2
      vertex 1.2 0 0.2
    endloop
  endfacet
  facet normal 0 0 1
    outer loop
      vertex 1.2 -3.2 0.2
      vertex 1 0 0.2
      vertex 1 -3.2 0.2
    endloop
  endfacet
  facet normal -1 0 0
    outer loop
      vertex 1.2 -3.2 0.2
      vertex 1.2 0 3
      vertex 1.2 0 0.2
    endloop
  endfacet
  facet normal -1 -0 0
    outer loop
      vertex 1.2 0 3
      vertex 1.2 -3.2 0.2
      vertex 1.2 -3.2 3
    endloop
  endfacet
  facet normal 0 0 -1
    outer loop
      vertex 1 -3.2 3
      vertex 1.2 0 3
      vertex 1.2 -3.2 3
    endloop
  endfacet
  facet normal -0 0 -1
    outer loop
      vertex 1.2 0 3
      vertex 1 -3.2 3
      vertex 1 0 3
    endloop
  endfacet
  facet normal 1 -0 0
    outer loop
      vertex 2 -3.2 3
      vertex 2 0 0.2
      vertex 2 0 3
    endloop
  endfacet
  facet normal 1 0 0
    outer loop
      vertex 2 0 0.2
      vertex 2 -3.2 3
      vertex 2 -3.2 0.2
    endloop
  endfacet
  facet normal -0 0 1
    outer loop
      vertex 2 0 0.2
      vertex 2.2 -3.2 0.2
      vertex 2.2 0 0.2
    endloop
  endfacet
  facet normal 0 0 1
    outer loop
      vertex 2.2 -3.2 0.2
      vertex 2 0 0.2
      vertex 2 -3.2 0.2
    endloop
  endfacet
  facet normal -1 0 0
    outer loop
      vertex 2.2 -3.2 0.2
      vertex 2.2 0 3
      vertex 2.2 0 0.2
    endloop
  endfacet
  facet normal -1 -0 0
    outer loop
      vertex 2.2 0 3
      vertex 2.2 -3.2 0.2
      vertex 2.2 -3.2 3
    endloop
  endfacet
  facet normal 0 0 -1
    outer loop
      vertex 2 -3.2 3
      vertex 2.2 0 3
      vertex 2.2 -3.2 3
    endloop
  endfacet
  facet normal -0 0 -1
    outer loop
      vertex 2.2 0 3
      vertex 2 -3.2 3
      vertex 2 0 3
    endloop
  endfacet
  facet normal 1 -0 0
    outer loop
      vertex 3 -3.2 3
      vertex 3 0 0.2
      vertex 3 0 3
    endloop
  endfacet
  facet normal 1 0 0
    outer loop
      vertex 3 0 0.2
      vertex 3 -3.2 3
      vertex 3 -3.2 0.2
    endloop
  endfacet
  facet normal -0 0 1
    outer loop
      vertex 3 0 0.2
      vertex 3.2 -3.2 0.2
      vertex 3.2 0 0.2
    endloop
  endfacet
  facet normal 0 0 1
    outer loop
      vertex 3.2 -3.2 0.2
      vertex 3 0 0.2
      vertex 3 -3.2 0.2
    endloop
  endfacet
  facet normal -1 0 0
    outer loop
      vertex 3.2 -3.2 0.2
      vertex 3.2 0 3
      vertex 3.2 0 0.2
    endloop
  endfacet
  facet normal -1 -0 0
    outer loop
      vertex 3.2 0 3
      vertex 3.2 -3.2 0.2
      vertex 3.2 -3.2 3
    endloop
  endfacet
  facet normal 0 0 -1
    outer loop
      vertex 3 -3.2 3
      vertex 3.2 0 3
      vertex 3.2 -3.2 3
    endloop
  endfacet
  facet normal -0 0 -1
    outer loop
      vertex 3.2 0 3
      vertex 3 -3.2 3
      vertex 3 0 3
    endloop
  endfacet
  facet normal 1 -0 0
    outer loop
      vertex 4 -3.2 3
      vertex 4 0 0.2
      vertex 4 0 3
    endloop
  endfacet
  facet normal 1 0 0
    outer loop
      vertex 4 0 0.2
      vertex 4 -3.2 3
      vertex 4 -3.2 0.2
    endloop
  endfacet
  facet normal -0 0 1
    outer loop
      vertex 4 0 0.2
      vertex 4.2 -3.2 0.2
      vertex 4.2 0 0.2
    endloop
  endfacet
  facet normal 0 0 1
    outer loop
      vertex 4.2 -3.2 0.2
      vertex 4 0 0.2
      vertex 4 -3.2 0.2
    endloop
  endfacet
  facet normal -1 0 0
    outer loop
      vertex 4.2 -3.2 0.2
      vertex 4.2 0 3
      vertex 4.2 0 0.2
    endloop
  endfacet
  facet normal -1 -0 0
    outer loop
      vertex 4.2 0 3
      vertex 4.2 -3.2 0.2
      vertex 4.2 -3.2 3
    endloop
  endfacet
  facet normal 0 0 -1
    outer loop
      vertex 4 -3.2 3
      vertex 4.2 0 3
      vertex 4.2 -3.2 3
    endloop
  endfacet
  facet normal -0 0 -1
    outer loop
      vertex 4.2 0 3
      vertex 4 -3.2 3
      vertex 4 0 3
    endloop
  endfacet
  facet normal 1 -0 0
    outer loop
      vertex 5 -3.2 3
      vertex 5 0 0.2
      vertex 5 0 3
    endloop
  endfacet
  facet normal 1 0 0
    outer loop
      vertex 5 0 0.2
      vertex 5 -3.2 3
      vertex 5 -3.2 0.2
    endloop
  endfacet
  facet normal -0 0 1
    outer loop
      vertex 5 0 0.2
      vertex 5.2 -3.2 0.2
      vertex 5.2 0 0.2
    endloop
  endfacet
  facet normal 0 0 1
    outer loop
      vertex 5.2 -3.2 0.2
      vertex 5 0 0.2
      vertex 5 -3.2 0.2
    endloop
  endfacet
  facet normal -1 0 0
    outer loop
      vertex 5.2 -3.2 0.2
      vertex 5.2 0 3
      vertex 5.2 0 0.2
    endloop
  endfacet
  facet normal -1 -0 0
    outer loop
      vertex 5.2 0 3
      vertex 5.2 -3.2 0.2
      vertex 5.2 -3.2 3
    endloop
  endfacet
  facet normal 0 0 -1
    outer loop
      vertex 5 -3.2 3
      vertex 5.2 0 3
      vertex 5.2 -3.2 3
    endloop
  endfacet
  facet normal -0 0 -1
    outer loop
      vertex 5.2 0 3
      vertex 5 -3.2 3
      vertex 5 0 3
    endloop
  endfacet
  facet normal 1 -0 0
    outer loop
      vertex 6 -3.2 3
      vertex 6 0 0.2
      vertex 6 0 3
    endloop
  endfacet
  facet normal 1 0 0
    outer loop
      vertex 6 0 0.2
      vertex 6 -3.2 3
      vertex 6 -3.2 0.2
    endloop
  endfacet
  facet normal -0 0 1
    outer loop
      vertex 6 0 0.2
      vertex 6.2 -3.2 0.2
      vertex 6.2 0 0.2
    endloop
  endfacet
  facet normal 0 0 1
    outer loop
      vertex 6.2 -3.2 0.2
      vertex 6 0 0.2
      vertex 6 -3.2 0.2
    endloop
  endfacet
  facet normal -1 0 0
    outer loop
      vertex 6.2 -3.2 0.2
      vertex 6.2 0 3
      vertex 6.2 0 0.2
    endloop
  endfacet
  facet normal -1 -0 0
    outer loop
      vertex 6.2 0 3
      vertex 6.2 -3.2 0.2
      vertex 6.2 -3.2 3
    endloop
  endfacet
  facet normal 0 0 -1
    outer loop
      vertex 6 -3.2 3
      vertex 6.2 0 3
      vertex 6.2 -3.2 3
    endloop
  endfacet
  facet normal -0 0 -1
    outer loop
      vertex 6.2 0 3
      vertex 6 -3.2 3
      vertex 6 0 3
    endloop
  endfacet
  facet normal 1 -0 0
    outer loop
      vertex 7 -3.2 3
      vertex 7 0 0.2
      vertex 7 0 3
    endloop
  endfacet
  facet normal 1 0 0
    outer loop
      vertex 7 0 0.2
      vertex 7 -3.2 3
      vertex 7 -3.2 0.2
    endloop
  endfacet
  facet normal -0 0 1
    outer loop
      vertex 7 0 0.2
      vertex 7.2 -3.2 0.2
      vertex 7.2 0 0.2
    endloop
  endfacet
  facet normal 0 0 1
    outer loop
      vertex 7.2 -3.2 0.2
      vertex 7 0 0.2
      vertex 7 -3.2 0.2
    endloop
  endfacet
  facet normal -1 0 0
    outer loop
      vertex 7.2 -3.2 0.2
      vertex 7.2 0 3
      vertex 7.2 0 0.2
    endloop
  endfacet
  facet normal -1 -0 0
    outer loop
      vertex 7.2 0 3
      vertex 7.2 -3.2 0.2
      vertex 7.2 -3.2 3
    endloop
  endfacet
  facet normal 0 0 -1
    outer loop
      vertex 7 -3.2 3
      vertex 7.2 0 3
      vertex 7.2 -3.2 3
    endloop
  endfacet
  facet normal -0 0 -1
    outer loop
      vertex 7.2 0 3
      vertex 7 -3.2 3
      vertex 7 0 3
    endloop
  endfacet
  facet normal 1 -0 0
    outer loop
      vertex 8 -3.2 3
      vertex 8 0 0.2
      vertex 8 0 3
    endloop
  endfacet
  facet normal 1 0 0
    outer loop
      vertex 8 0 0.2
      vertex 8 -3.2 3
      vertex 8 -3.2 0.2
    endloop
  endfacet
  facet normal -0 0 1
    outer loop
      vertex 8 0 0.2
      vertex 8.2 -3.2 0.2
      vertex 8.2 0 0.2
    endloop
  endfacet
  facet normal 0 0 1
    outer loop
      vertex 8.2 -3.2 0.2
      vertex 8 0 0.2
      vertex 8 -3.2 0.2
    endloop
  endfacet
  facet normal -1 0 0
    outer loop
      vertex 8.2 -3.2 0.2
      vertex 8.2 0 3
      vertex 8.2 0 0.2
    endloop
  endfacet
  facet normal -1 -0 0
    outer loop
      vertex 8.2 0 3
      vertex 8.2 -3.2 0.2
      vertex 8.2 -3.2 3
    endloop
  endfacet
  facet normal 0 0 -1
    outer loop
      vertex 8 -3.2 3
      vertex 8.2 0 3
      vertex 8.2 -3.2 3
    endloop
  endfacet
  facet normal -0 0 -1
    outer loop
      vertex 8.2 0 3
      vertex 8 -3.2 3
      vertex 8 0 3
    endloop
  endfacet
  facet normal 1 -0 0
    outer loop
      vertex 9 -3.2 3
      vertex 9 0 0.2
      vertex 9 0 3
    endloop
  endfacet
  facet normal 1 0 0
    outer loop
      vertex 9 0 0.2
      vertex 9 -3.2 3
      vertex 9 -3.2 0.2
    endloop
  endfacet
  facet normal -0 0 1
    outer loop
      vertex 9 0 0.2
      vertex 9.2 -3.2 0.2
      vertex 9.2 0 0.2
    endloop
  endfacet
  facet normal 0 0 1
    outer loop
      vertex 9.2 -3.2 0.2
      vertex 9 0 0.2
      vertex 9 -3.2 0.2
    endloop
  endfacet
  facet normal -1 0 0
    outer loop
      vertex 9.2 -3.2 0.2
      vertex 9.2 0 3
      vertex 9.2 0 0.2
    endloop
  endfacet
  facet normal -1 -0 0
    outer loop
      vertex 9.2 0 3
      vertex 9.2 -3.2 0.2
      vertex 9.2 -3.2 3
    endloop
  endfacet
  facet normal 0 0 -1
    outer loop
      vertex 9 -3.2 3
      vertex 9.2 0 3
      vertex 9.2 -3.2 3
    endloop
  endfacet
  facet normal -0 0 -1
    outer loop
      vertex 9.2 0 3
      vertex 9 -3.2 3
      vertex 9 0 3
    endloop
  endfacet
endsolid OpenSCAD_Model
