solid OpenSCAD_Model
  facet normal -1 0 0
    outer loop
      vertex 1.2 -20.1 1.2
      vertex 1.2 11.5 2.4
      vertex 1.2 11.5 1.2
    endloop
  endfacet
  facet normal -1 -0 0
    outer loop
      vertex 1.2 11.5 2.4
      vertex 1.2 -20.1 1.2
      vertex 1.2 -20.1 2.4
    endloop
  endfacet
  facet normal -0 0 1
    outer loop
      vertex 2.4 10.3 1.2
      vertex 6.1 -1.2 1.2
      vertex 6.1 10.3 1.2
    endloop
  endfacet
  facet normal 0 0 1
    outer loop
      vertex 6.1 -1.2 1.2
      vertex 2.4 10.3 1.2
      vertex 2.4 -1.2 1.2
    endloop
  endfacet
  facet normal 0 0 1
    outer loop
      vertex 10.2 12.7 1.2
      vertex 7.2 11.5 1.2
      vertex 10.2 0 1.2
    endloop
  endfacet
  facet normal -0 0 1
    outer loop
      vertex 0 12.7 1.2
      vertex 7.2 11.5 1.2
      vertex 10.2 12.7 1.2
    endloop
  endfacet
  facet normal 0 0 1
    outer loop
      vertex 1.2 11.5 1.2
      vertex 0 12.7 1.2
      vertex 1.2 -20.1 1.2
    endloop
  endfacet
  facet normal 0 0 1
    outer loop
      vertex 7.2 11.5 1.2
      vertex 0 12.7 1.2
      vertex 1.2 11.5 1.2
    endloop
  endfacet
  facet normal 0 0 1
    outer loop
      vertex 22.6 -2.4 1.2
      vertex 20.5 -16.95 1.2
      vertex 22.6 -20.1 1.2
    endloop
  endfacet
  facet normal 0 0 1
    outer loop
      vertex 22.6 -2.4 1.2
      vertex 9 -16.95 1.2
      vertex 20.5 -16.95 1.2
    endloop
  endfacet
  facet normal 0 0 1
    outer loop
      vertex 2.4 -20.1 1.2
      vertex 9 -16.95 1.2
      vertex 2.4 -2.4 1.2
    endloop
  endfacet
  facet normal -0 0 1
    outer loop
      vertex 2.4 -2.4 1.2
      vertex 9 -16.95 1.2
      vertex 22.6 -2.4 1.2
    endloop
  endfacet
  facet normal 0 0 1
    outer loop
      vertex 25 0 1.2
      vertex 23.8 -1.2 1.2
      vertex 25 -21.3 1.2
    endloop
  endfacet
  facet normal -0 0 1
    outer loop
      vertex 10.2 0 1.2
      vertex 23.8 -1.2 1.2
      vertex 25 0 1.2
    endloop
  endfacet
  facet normal 0 0 1
    outer loop
      vertex 10.2 0 1.2
      vertex 7.2 -1.2 1.2
      vertex 23.8 -1.2 1.2
    endloop
  endfacet
  facet normal 0 0 1
    outer loop
      vertex 7.2 -1.2 1.2
      vertex 10.2 0 1.2
      vertex 7.2 11.5 1.2
    endloop
  endfacet
  facet normal -0 0 1
    outer loop
      vertex 23.8 -20.1 1.2
      vertex 25 -21.3 1.2
      vertex 23.8 -1.2 1.2
    endloop
  endfacet
  facet normal -0 0 1
    outer loop
      vertex 22.6 -20.1 1.2
      vertex 25 -21.3 1.2
      vertex 23.8 -20.1 1.2
    endloop
  endfacet
  facet normal -0 0 1
    outer loop
      vertex 20.5 -18.45 1.2
      vertex 22.6 -20.1 1.2
      vertex 20.5 -16.95 1.2
    endloop
  endfacet
  facet normal -0 0 1
    outer loop
      vertex 9 -18.45 1.2
      vertex 22.6 -20.1 1.2
      vertex 20.5 -18.45 1.2
    endloop
  endfacet
  facet normal 0 0 1
    outer loop
      vertex 9 -18.45 1.2
      vertex 25 -21.3 1.2
      vertex 22.6 -20.1 1.2
    endloop
  endfacet
  facet normal 0 0 1
    outer loop
      vertex 9 -16.95 1.2
      vertex 2.4 -20.1 1.2
      vertex 9 -18.45 1.2
    endloop
  endfacet
  facet normal 0 0 1
    outer loop
      vertex 0 -21.3 1.2
      vertex 9 -18.45 1.2
      vertex 2.4 -20.1 1.2
    endloop
  endfacet
  facet normal 0 0 1
    outer loop
      vertex 0 -21.3 1.2
      vertex 2.4 -20.1 1.2
      vertex 1.2 -20.1 1.2
    endloop
  endfacet
  facet normal 0 0 1
    outer loop
      vertex 9 -18.45 1.2
      vertex 0 -21.3 1.2
      vertex 25 -21.3 1.2
    endloop
  endfacet
  facet normal 0 0 1
    outer loop
      vertex 0 -21.3 1.2
      vertex 1.2 -20.1 1.2
      vertex 0 12.7 1.2
    endloop
  endfacet
  facet normal 1 -0 0
    outer loop
      vertex 7.2 -1.2 2.4
      vertex 7.2 11.5 1.2
      vertex 7.2 11.5 2.4
    endloop
  endfacet
  facet normal 1 0 0
    outer loop
      vertex 7.2 11.5 1.2
      vertex 7.2 -1.2 2.4
      vertex 7.2 -1.2 1.2
    endloop
  endfacet
  facet normal 0 0 1
    outer loop
      vertex 7.2 11.5 2.4
      vertex 6.1 10.3 2.4
      vertex 7.2 -1.2 2.4
    endloop
  endfacet
  facet normal 0 0 1
    outer loop
      vertex 7.2 11.5 2.4
      vertex 2.4 10.3 2.4
      vertex 6.1 10.3 2.4
    endloop
  endfacet
  facet normal 0 0 1
    outer loop
      vertex 1.2 11.5 2.4
      vertex 2.4 -1.2 2.4
      vertex 2.4 10.3 2.4
    endloop
  endfacet
  facet normal 0 0 1
    outer loop
      vertex 2.4 -1.2 2.4
      vertex 1.2 11.5 2.4
      vertex 2.4 -2.4 2.4
    endloop
  endfacet
  facet normal -0 0 1
    outer loop
      vertex 1.2 11.5 2.4
      vertex 2.4 10.3 2.4
      vertex 7.2 11.5 2.4
    endloop
  endfacet
  facet normal 0 0 1
    outer loop
      vertex 2.4 -2.4 2.4
      vertex 1.2 11.5 2.4
      vertex 1.2 -20.1 2.4
    endloop
  endfacet
  facet normal 0 0 1
    outer loop
      vertex 2.4 -2.4 2.4
      vertex 1.2 -20.1 2.4
      vertex 2.4 -20.1 2.4
    endloop
  endfacet
  facet normal 0 0 1
    outer loop
      vertex 23.8 -1.2 2.4
      vertex 22.6 -2.4 2.4
      vertex 23.8 -20.1 2.4
    endloop
  endfacet
  facet normal -0 0 1
    outer loop
      vertex 7.2 -1.2 2.4
      vertex 22.6 -2.4 2.4
      vertex 23.8 -1.2 2.4
    endloop
  endfacet
  facet normal 0 0 1
    outer loop
      vertex 6.1 -1.2 2.4
      vertex 7.2 -1.2 2.4
      vertex 6.1 10.3 2.4
    endloop
  endfacet
  facet normal 0 0 1
    outer loop
      vertex 2.4 -2.4 2.4
      vertex 7.2 -1.2 2.4
      vertex 6.1 -1.2 2.4
    endloop
  endfacet
  facet normal 0 0 1
    outer loop
      vertex 2.4 -2.4 2.4
      vertex 6.1 -1.2 2.4
      vertex 2.4 -1.2 2.4
    endloop
  endfacet
  facet normal 0 0 1
    outer loop
      vertex 7.2 -1.2 2.4
      vertex 2.4 -2.4 2.4
      vertex 22.6 -2.4 2.4
    endloop
  endfacet
  facet normal 0 0 1
    outer loop
      vertex 23.8 -20.1 2.4
      vertex 22.6 -2.4 2.4
      vertex 22.6 -20.1 2.4
    endloop
  endfacet
  facet normal 0 1 -0
    outer loop
      vertex 7.2 11.5 1.2
      vertex 1.2 11.5 2.4
      vertex 7.2 11.5 2.4
    endloop
  endfacet
  facet normal 0 1 0
    outer loop
      vertex 1.2 11.5 2.4
      vertex 7.2 11.5 1.2
      vertex 1.2 11.5 1.2
    endloop
  endfacet
  facet normal 0 1 -0
    outer loop
      vertex 23.8 -1.2 1.2
      vertex 7.2 -1.2 2.4
      vertex 23.8 -1.2 2.4
    endloop
  endfacet
  facet normal 0 1 0
    outer loop
      vertex 7.2 -1.2 2.4
      vertex 23.8 -1.2 1.2
      vertex 7.2 -1.2 1.2
    endloop
  endfacet
  facet normal 0 1 -0
    outer loop
      vertex 6.1 -1.2 1.2
      vertex 2.4 -1.2 2.4
      vertex 6.1 -1.2 2.4
    endloop
  endfacet
  facet normal 0 1 0
    outer loop
      vertex 2.4 -1.2 2.4
      vertex 6.1 -1.2 1.2
      vertex 2.4 -1.2 1.2
    endloop
  endfacet
  facet normal 1 -0 0
    outer loop
      vertex 2.4 -1.2 2.4
      vertex 2.4 10.3 1.2
      vertex 2.4 10.3 2.4
    endloop
  endfacet
  facet normal 1 0 0
    outer loop
      vertex 2.4 10.3 1.2
      vertex 2.4 -1.2 2.4
      vertex 2.4 -1.2 1.2
    endloop
  endfacet
  facet normal -1 0 0
    outer loop
      vertex 6.1 -1.2 1.2
      vertex 6.1 10.3 2.4
      vertex 6.1 10.3 1.2
    endloop
  endfacet
  facet normal -1 -0 0
    outer loop
      vertex 6.1 10.3 2.4
      vertex 6.1 -1.2 1.2
      vertex 6.1 -1.2 2.4
    endloop
  endfacet
  facet normal 0 -1 0
    outer loop
      vertex 2.4 10.3 1.2
      vertex 6.1 10.3 2.4
      vertex 2.4 10.3 2.4
    endloop
  endfacet
  facet normal 0 -1 -0
    outer loop
      vertex 6.1 10.3 2.4
      vertex 2.4 10.3 1.2
      vertex 6.1 10.3 1.2
    endloop
  endfacet
  facet normal -1 0 0
    outer loop
      vertex 0 -21.3 1.90735e-07
      vertex 0 12.7 1.2
      vertex 0 12.7 1.90735e-07
    endloop
  endfacet
  facet normal -1 -0 0
    outer loop
      vertex 0 12.7 1.2
      vertex 0 -21.3 1.90735e-07
      vertex 0 -21.3 1.2
    endloop
  endfacet
  facet normal 0 0 -1
    outer loop
      vertex 20.5 -16.95 1.90735e-07
      vertex 25 -21.3 1.90735e-07
      vertex 20.5 -18.45 1.90735e-07
    endloop
  endfacet
  facet normal 0 0 -1
    outer loop
      vertex 25 -21.3 1.90735e-07
      vertex 9 -18.45 1.90735e-07
      vertex 20.5 -18.45 1.90735e-07
    endloop
  endfacet
  facet normal -0 0 -1
    outer loop
      vertex 9 -18.45 1.90735e-07
      vertex 0 -21.3 1.90735e-07
      vertex 9 -16.95 1.90735e-07
    endloop
  endfacet
  facet normal 0 0 -1
    outer loop
      vertex 0 -21.3 1.90735e-07
      vertex 9 -18.45 1.90735e-07
      vertex 25 -21.3 1.90735e-07
    endloop
  endfacet
  facet normal 0 0 -1
    outer loop
      vertex 25 -21.3 1.90735e-07
      vertex 20.5 -16.95 1.90735e-07
      vertex 25 0 1.90735e-07
    endloop
  endfacet
  facet normal 0 0 -1
    outer loop
      vertex 20.5 -16.95 1.90735e-07
      vertex 10.2 0 1.90735e-07
      vertex 25 0 1.90735e-07
    endloop
  endfacet
  facet normal 0 0 -1
    outer loop
      vertex 9 -16.95 1.90735e-07
      vertex 10.2 0 1.90735e-07
      vertex 20.5 -16.95 1.90735e-07
    endloop
  endfacet
  facet normal 0 0 -1
    outer loop
      vertex 0 -21.3 1.90735e-07
      vertex 10.2 0 1.90735e-07
      vertex 9 -16.95 1.90735e-07
    endloop
  endfacet
  facet normal -0 0 -1
    outer loop
      vertex 10.2 0 1.90735e-07
      vertex 0 -21.3 1.90735e-07
      vertex 0 12.7 1.90735e-07
    endloop
  endfacet
  facet normal 0 0 -1
    outer loop
      vertex 10.2 0 1.90735e-07
      vertex 0 12.7 1.90735e-07
      vertex 10.2 12.7 1.90735e-07
    endloop
  endfacet
  facet normal 1 -0 0
    outer loop
      vertex 25 -21.3 1.2
      vertex 25 0 1.90735e-07
      vertex 25 0 1.2
    endloop
  endfacet
  facet normal 1 0 0
    outer loop
      vertex 25 0 1.90735e-07
      vertex 25 -21.3 1.2
      vertex 25 -21.3 1.90735e-07
    endloop
  endfacet
  facet normal 0 -1 0
    outer loop
      vertex 0 -21.3 1.90735e-07
      vertex 25 -21.3 1.2
      vertex 0 -21.3 1.2
    endloop
  endfacet
  facet normal 0 -1 -0
    outer loop
      vertex 25 -21.3 1.2
      vertex 0 -21.3 1.90735e-07
      vertex 25 -21.3 1.90735e-07
    endloop
  endfacet
  facet normal 0 1 -0
    outer loop
      vertex 25 0 1.90735e-07
      vertex 10.2 0 1.2
      vertex 25 0 1.2
    endloop
  endfacet
  facet normal 0 1 0
    outer loop
      vertex 10.2 0 1.2
      vertex 25 0 1.90735e-07
      vertex 10.2 0 1.90735e-07
    endloop
  endfacet
  facet normal 1 -0 0
    outer loop
      vertex 9 -18.45 1.2
      vertex 9 -16.95 1.90735e-07
      vertex 9 -16.95 1.2
    endloop
  endfacet
  facet normal 1 0 0
    outer loop
      vertex 9 -16.95 1.90735e-07
      vertex 9 -18.45 1.2
      vertex 9 -18.45 1.90735e-07
    endloop
  endfacet
  facet normal -1 0 0
    outer loop
      vertex 20.5 -18.45 1.90735e-07
      vertex 20.5 -16.95 1.2
      vertex 20.5 -16.95 1.90735e-07
    endloop
  endfacet
  facet normal -1 -0 0
    outer loop
      vertex 20.5 -16.95 1.2
      vertex 20.5 -18.45 1.90735e-07
      vertex 20.5 -18.45 1.2
    endloop
  endfacet
  facet normal 0 -1 0
    outer loop
      vertex 9 -16.95 1.90735e-07
      vertex 20.5 -16.95 1.2
      vertex 9 -16.95 1.2
    endloop
  endfacet
  facet normal 0 -1 -0
    outer loop
      vertex 20.5 -16.95 1.2
      vertex 9 -16.95 1.90735e-07
      vertex 20.5 -16.95 1.90735e-07
    endloop
  endfacet
  facet normal 0 1 -0
    outer loop
      vertex 20.5 -18.45 1.90735e-07
      vertex 9 -18.45 1.2
      vertex 20.5 -18.45 1.2
    endloop
  endfacet
  facet normal 0 1 0
    outer loop
      vertex 9 -18.45 1.2
      vertex 20.5 -18.45 1.90735e-07
      vertex 9 -18.45 1.90735e-07
    endloop
  endfacet
  facet normal 1 -0 0
    outer loop
      vertex 23.8 -20.1 2.4
      vertex 23.8 -1.2 1.2
      vertex 23.8 -1.2 2.4
    endloop
  endfacet
  facet normal 1 0 0
    outer loop
      vertex 23.8 -1.2 1.2
      vertex 23.8 -20.1 2.4
      vertex 23.8 -20.1 1.2
    endloop
  endfacet
  facet normal 0 -1 0
    outer loop
      vertex 22.6 -20.1 1.2
      vertex 23.8 -20.1 2.4
      vertex 22.6 -20.1 2.4
    endloop
  endfacet
  facet normal 0 -1 -0
    outer loop
      vertex 23.8 -20.1 2.4
      vertex 22.6 -20.1 1.2
      vertex 23.8 -20.1 1.2
    endloop
  endfacet
  facet normal 0 -1 0
    outer loop
      vertex 1.2 -20.1 1.2
      vertex 2.4 -20.1 2.4
      vertex 1.2 -20.1 2.4
    endloop
  endfacet
  facet normal 0 -1 -0
    outer loop
      vertex 2.4 -20.1 2.4
      vertex 1.2 -20.1 1.2
      vertex 2.4 -20.1 1.2
    endloop
  endfacet
  facet normal 1 -0 0
    outer loop
      vertex 2.4 -20.1 2.4
      vertex 2.4 -2.4 1.2
      vertex 2.4 -2.4 2.4
    endloop
  endfacet
  facet normal 1 0 0
    outer loop
      vertex 2.4 -2.4 1.2
      vertex 2.4 -20.1 2.4
      vertex 2.4 -20.1 1.2
    endloop
  endfacet
  facet normal -1 0 0
    outer loop
      vertex 22.6 -20.1 1.2
      vertex 22.6 -2.4 2.4
      vertex 22.6 -2.4 1.2
    endloop
  endfacet
  facet normal -1 -0 0
    outer loop
      vertex 22.6 -2.4 2.4
      vertex 22.6 -20.1 1.2
      vertex 22.6 -20.1 2.4
    endloop
  endfacet
  facet normal 0 -1 0
    outer loop
      vertex 2.4 -2.4 1.2
      vertex 22.6 -2.4 2.4
      vertex 2.4 -2.4 2.4
    endloop
  endfacet
  facet normal 0 -1 -0
    outer loop
      vertex 22.6 -2.4 2.4
      vertex 2.4 -2.4 1.2
      vertex 22.6 -2.4 1.2
    endloop
  endfacet
  facet normal 1 -0 0
    outer loop
      vertex 10.2 0 1.2
      vertex 10.2 12.7 1.90735e-07
      vertex 10.2 12.7 1.2
    endloop
  endfacet
  facet normal 1 0 0
    outer loop
      vertex 10.2 12.7 1.90735e-07
      vertex 10.2 0 1.2
      vertex 10.2 0 1.90735e-07
    endloop
  endfacet
  facet normal 0 1 -0
    outer loop
      vertex 10.2 12.7 1.90735e-07
      vertex 0 12.7 1.2
      vertex 10.2 12.7 1.2
    endloop
  endfacet
  facet normal 0 1 0
    outer loop
      vertex 0 12.7 1.2
      vertex 10.2 12.7 1.90735e-07
      vertex 0 12.7 1.90735e-07
    endloop
  endfacet
endsolid OpenSCAD_Model
