solid OpenSCAD_Model
  facet normal -1 0 0
    outer loop
      vertex 0 0 0
      vertex 0 7 1.75
      vertex 0 7 0
    endloop
  endfacet
  facet normal -1 -0 0
    outer loop
      vertex 0 7 1.75
      vertex 0 0 0
      vertex 0 0 1.75
    endloop
  endfacet
  facet normal 0 0 1
    outer loop
      vertex 38 7 1.75
      vertex 37 6 1.75
      vertex 38 0 1.75
    endloop
  endfacet
  facet normal 0 0 1
    outer loop
      vertex 38 7 1.75
      vertex 1 6 1.75
      vertex 37 6 1.75
    endloop
  endfacet
  facet normal 0 0 1
    outer loop
      vertex 1 6 1.75
      vertex 0 7 1.75
      vertex 1 1 1.75
    endloop
  endfacet
  facet normal -0 0 1
    outer loop
      vertex 0 7 1.75
      vertex 1 6 1.75
      vertex 38 7 1.75
    endloop
  endfacet
  facet normal -0 0 1
    outer loop
      vertex 37 1 1.75
      vertex 38 0 1.75
      vertex 37 6 1.75
    endloop
  endfacet
  facet normal -0 0 1
    outer loop
      vertex 1 1 1.75
      vertex 38 0 1.75
      vertex 37 1 1.75
    endloop
  endfacet
  facet normal 0 0 1
    outer loop
      vertex 1 1 1.75
      vertex 0 0 1.75
      vertex 38 0 1.75
    endloop
  endfacet
  facet normal 0 0 1
    outer loop
      vertex 0 0 1.75
      vertex 1 1 1.75
      vertex 0 7 1.75
    endloop
  endfacet
  facet normal 1 -0 0
    outer loop
      vertex 38 0 1.75
      vertex 38 7 0
      vertex 38 7 1.75
    endloop
  endfacet
  facet normal 1 0 0
    outer loop
      vertex 38 7 0
      vertex 38 0 1.75
      vertex 38 0 0
    endloop
  endfacet
  facet normal 0 1 -0
    outer loop
      vertex 38 7 0
      vertex 0 7 1.75
      vertex 38 7 1.75
    endloop
  endfacet
  facet normal 0 1 0
    outer loop
      vertex 0 7 1.75
      vertex 38 7 0
      vertex 0 7 0
    endloop
  endfacet
  facet normal 0 0 -1
    outer loop
      vertex 0 0 0
      vertex 38 7 0
      vertex 38 0 0
    endloop
  endfacet
  facet normal -0 0 -1
    outer loop
      vertex 38 7 0
      vertex 0 0 0
      vertex 0 7 0
    endloop
  endfacet
  facet normal 0 -1 0
    outer loop
      vertex 0 0 0
      vertex 38 0 1.75
      vertex 0 0 1.75
    endloop
  endfacet
  facet normal 0 -1 -0
    outer loop
      vertex 38 0 1.75
      vertex 0 0 0
      vertex 38 0 0
    endloop
  endfacet
  facet normal 1 -0 0
    outer loop
      vertex 1 1 1.75
      vertex 1 6 0.349999
      vertex 1 6 1.75
    endloop
  endfacet
  facet normal 1 0 0
    outer loop
      vertex 1 6 0.349999
      vertex 1 1 1.75
      vertex 1 1 0.349999
    endloop
  endfacet
  facet normal -1 0 0
    outer loop
      vertex 37 1 0.349999
      vertex 37 6 1.75
      vertex 37 6 0.349999
    endloop
  endfacet
  facet normal -1 -0 0
    outer loop
      vertex 37 6 1.75
      vertex 37 1 0.349999
      vertex 37 1 1.75
    endloop
  endfacet
  facet normal -0 0 1
    outer loop
      vertex 1 6 0.349999
      vertex 37 1 0.349999
      vertex 37 6 0.349999
    endloop
  endfacet
  facet normal 0 0 1
    outer loop
      vertex 37 1 0.349999
      vertex 1 6 0.349999
      vertex 1 1 0.349999
    endloop
  endfacet
  facet normal 0 1 -0
    outer loop
      vertex 37 1 0.349999
      vertex 1 1 1.75
      vertex 37 1 1.75
    endloop
  endfacet
  facet normal 0 1 0
    outer loop
      vertex 1 1 1.75
      vertex 37 1 0.349999
      vertex 1 1 0.349999
    endloop
  endfacet
  facet normal 0 -1 0
    outer loop
      vertex 1 6 0.349999
      vertex 37 6 1.75
      vertex 1 6 1.75
    endloop
  endfacet
  facet normal 0 -1 -0
    outer loop
      vertex 37 6 1.75
      vertex 1 6 0.349999
      vertex 37 6 0.349999
    endloop
  endfacet
endsolid OpenSCAD_Model
