solid OpenSCAD_Model
  facet normal -1 0 0
    outer loop
      vertex 25 8.75 1.25
      vertex 25 6.75 1.25
      vertex 25 8.75 4.45
    endloop
  endfacet
  facet normal -1 0 0
    outer loop
      vertex 25 8.75 4.45
      vertex 25 10 5.7
      vertex 25 10 4.45
    endloop
  endfacet
  facet normal -1 0 0
    outer loop
      vertex 25 8.75 4.45
      vertex 25 6.75 5.7
      vertex 25 10 5.7
    endloop
  endfacet
  facet normal -1 0 0
    outer loop
      vertex 25 6.75 5.7
      vertex 25 8.75 4.45
      vertex 25 6.75 1.25
    endloop
  endfacet
  facet normal 0 0 -1
    outer loop
      vertex 25 8.75 4.45
      vertex 32 10 4.45
      vertex 32 8.75 4.45
    endloop
  endfacet
  facet normal -0 0 -1
    outer loop
      vertex 32 10 4.45
      vertex 25 8.75 4.45
      vertex 25 10 4.45
    endloop
  endfacet
  facet normal 1 0 0
    outer loop
      vertex 32 10 5.7
      vertex 32 8.75 4.45
      vertex 32 10 4.45
    endloop
  endfacet
  facet normal 1 -0 0
    outer loop
      vertex 32 6.75 5.7
      vertex 32 8.75 4.45
      vertex 32 10 5.7
    endloop
  endfacet
  facet normal 1 0 0
    outer loop
      vertex 32 6.75 1.25
      vertex 32 8.75 4.45
      vertex 32 6.75 5.7
    endloop
  endfacet
  facet normal 1 0 0
    outer loop
      vertex 32 8.75 4.45
      vertex 32 6.75 1.25
      vertex 32 8.75 1.25
    endloop
  endfacet
  facet normal 0 1 -0
    outer loop
      vertex 32 8.75 1.25
      vertex 25 8.75 4.45
      vertex 32 8.75 4.45
    endloop
  endfacet
  facet normal 0 1 0
    outer loop
      vertex 25 8.75 4.45
      vertex 32 8.75 1.25
      vertex 25 8.75 1.25
    endloop
  endfacet
  facet normal -0 0 1
    outer loop
      vertex -2.5 38 1.25
      vertex 0 17 1.25
      vertex 0 38 1.25
    endloop
  endfacet
  facet normal 0 0 1
    outer loop
      vertex 0 17 1.25
      vertex -2.5 38 1.25
      vertex -2.5 17 1.25
    endloop
  endfacet
  facet normal 0 0 1
    outer loop
      vertex 33.75 14.25 1.25
      vertex 31 11.25 1.25
      vertex 33.75 12.25 1.25
    endloop
  endfacet
  facet normal 0 0 1
    outer loop
      vertex 32 18.75 1.25
      vertex 26 16.25 1.25
      vertex 31 16.25 1.25
    endloop
  endfacet
  facet normal 0 0 1
    outer loop
      vertex 26 16.25 1.25
      vertex 25 18.75 1.25
      vertex 26 11.25 1.25
    endloop
  endfacet
  facet normal -0 0 1
    outer loop
      vertex 25 18.75 1.25
      vertex 26 16.25 1.25
      vertex 32 18.75 1.25
    endloop
  endfacet
  facet normal -0 0 1
    outer loop
      vertex 25 34.25 1.25
      vertex 32 20.75 1.25
      vertex 32 34.25 1.25
    endloop
  endfacet
  facet normal 0 0 1
    outer loop
      vertex 32 20.75 1.25
      vertex 25 34.25 1.25
      vertex 25 20.75 1.25
    endloop
  endfacet
  facet normal 0 0 1
    outer loop
      vertex 33.75 41.75 1.25
      vertex 31 38.75 1.25
      vertex 33.75 39.75 1.25
    endloop
  endfacet
  facet normal 0 0 1
    outer loop
      vertex 32 46.25 1.25
      vertex 26 43.75 1.25
      vertex 31 43.75 1.25
    endloop
  endfacet
  facet normal 0 0 1
    outer loop
      vertex 26 43.75 1.25
      vertex 25 46.25 1.25
      vertex 26 38.75 1.25
    endloop
  endfacet
  facet normal -0 0 1
    outer loop
      vertex 25 46.25 1.25
      vertex 26 43.75 1.25
      vertex 32 46.25 1.25
    endloop
  endfacet
  facet normal 0 0 1
    outer loop
      vertex 25 48.25 1.25
      vertex 35 53.5 1.25
      vertex 35 55 1.25
    endloop
  endfacet
  facet normal 0 0 1
    outer loop
      vertex 31 38.75 1.25
      vertex 33.75 41.75 1.25
      vertex 31 43.75 1.25
    endloop
  endfacet
  facet normal 0 0 1
    outer loop
      vertex 32 20.75 1.25
      vertex 33.75 39.75 1.25
      vertex 32 34.25 1.25
    endloop
  endfacet
  facet normal 0 0 1
    outer loop
      vertex 35 53.5 1.25
      vertex 32 46.25 1.25
      vertex 33.75 41.75 1.25
    endloop
  endfacet
  facet normal 0 0 1
    outer loop
      vertex 32 46.25 1.25
      vertex 35 53.5 1.25
      vertex 32 48.25 1.25
    endloop
  endfacet
  facet normal 0 0 1
    outer loop
      vertex 35 53.5 1.25
      vertex 25 48.25 1.25
      vertex 32 48.25 1.25
    endloop
  endfacet
  facet normal 0 0 1
    outer loop
      vertex 0 55 1.25
      vertex 25 46.25 1.25
      vertex 25 48.25 1.25
    endloop
  endfacet
  facet normal 0 0 1
    outer loop
      vertex 25 46.25 1.25
      vertex 15 30 1.25
      vertex 25 36.25 1.25
    endloop
  endfacet
  facet normal 0 0 1
    outer loop
      vertex 25 36.25 1.25
      vertex 15 30 1.25
      vertex 25 34.25 1.25
    endloop
  endfacet
  facet normal 0 0 1
    outer loop
      vertex 25 34.25 1.25
      vertex 15 30 1.25
      vertex 25 20.75 1.25
    endloop
  endfacet
  facet normal -0 0 1
    outer loop
      vertex 15 25 1.25
      vertex 25 20.75 1.25
      vertex 15 30 1.25
    endloop
  endfacet
  facet normal 0 0 1
    outer loop
      vertex 25 20.75 1.25
      vertex 15 25 1.25
      vertex 25 18.75 1.25
    endloop
  endfacet
  facet normal 0 0 1
    outer loop
      vertex 25 18.75 1.25
      vertex 15 25 1.25
      vertex 25 8.75 1.25
    endloop
  endfacet
  facet normal 0 0 1
    outer loop
      vertex 25 46.25 1.25
      vertex 10 30 1.25
      vertex 15 30 1.25
    endloop
  endfacet
  facet normal 0 0 1
    outer loop
      vertex 25 46.25 1.25
      vertex 0 38 1.25
      vertex 10 30 1.25
    endloop
  endfacet
  facet normal 0 0 1
    outer loop
      vertex 25 46.25 1.25
      vertex 0 55 1.25
      vertex 0 38 1.25
    endloop
  endfacet
  facet normal -0 0 1
    outer loop
      vertex 0 55 1.25
      vertex 25 48.25 1.25
      vertex 35 55 1.25
    endloop
  endfacet
  facet normal -0 0 1
    outer loop
      vertex 33.75 39.75 1.25
      vertex 35.75 14.25 1.25
      vertex 35.75 39.75 1.25
    endloop
  endfacet
  facet normal 0 0 1
    outer loop
      vertex 35.75 14.25 1.25
      vertex 33.75 39.75 1.25
      vertex 33.75 14.25 1.25
    endloop
  endfacet
  facet normal -0 0 1
    outer loop
      vertex 35 53.5 1.25
      vertex 35.75 41.75 1.25
      vertex 43 53.5 1.25
    endloop
  endfacet
  facet normal 0 0 1
    outer loop
      vertex 35.75 41.75 1.25
      vertex 35 53.5 1.25
      vertex 33.75 41.75 1.25
    endloop
  endfacet
  facet normal 0 0 1
    outer loop
      vertex 33.75 39.75 1.25
      vertex 31 38.75 1.25
      vertex 32 36.25 1.25
    endloop
  endfacet
  facet normal -0 0 1
    outer loop
      vertex 26 38.75 1.25
      vertex 32 36.25 1.25
      vertex 31 38.75 1.25
    endloop
  endfacet
  facet normal 0 0 1
    outer loop
      vertex 26 38.75 1.25
      vertex 25 36.25 1.25
      vertex 32 36.25 1.25
    endloop
  endfacet
  facet normal 0 0 1
    outer loop
      vertex 25 36.25 1.25
      vertex 26 38.75 1.25
      vertex 25 46.25 1.25
    endloop
  endfacet
  facet normal 0 0 1
    outer loop
      vertex 33.75 12.25 1.25
      vertex 31 11.25 1.25
      vertex 32 8.75 1.25
    endloop
  endfacet
  facet normal -0 0 1
    outer loop
      vertex 26 11.25 1.25
      vertex 32 8.75 1.25
      vertex 31 11.25 1.25
    endloop
  endfacet
  facet normal 0 0 1
    outer loop
      vertex 26 11.25 1.25
      vertex 25 8.75 1.25
      vertex 32 8.75 1.25
    endloop
  endfacet
  facet normal 0 0 1
    outer loop
      vertex 25 8.75 1.25
      vertex 26 11.25 1.25
      vertex 25 18.75 1.25
    endloop
  endfacet
  facet normal 0 0 1
    outer loop
      vertex 52 34.25 1.25
      vertex 35.75 39.75 1.25
      vertex 52 20.75 1.25
    endloop
  endfacet
  facet normal 0 0 1
    outer loop
      vertex 52 20.75 1.25
      vertex 48.5 14.25 1.25
      vertex 50.5 14.25 1.25
    endloop
  endfacet
  facet normal 0 0 1
    outer loop
      vertex 59 18.75 1.25
      vertex 58 16.25 1.25
      vertex 59 8.75 1.25
    endloop
  endfacet
  facet normal 0 0 1
    outer loop
      vertex 59 18.75 1.25
      vertex 53 16.25 1.25
      vertex 58 16.25 1.25
    endloop
  endfacet
  facet normal 0 0 1
    outer loop
      vertex 53 16.25 1.25
      vertex 52 18.75 1.25
      vertex 53 11.25 1.25
    endloop
  endfacet
  facet normal -0 0 1
    outer loop
      vertex 52 18.75 1.25
      vertex 53 16.25 1.25
      vertex 59 18.75 1.25
    endloop
  endfacet
  facet normal -0 0 1
    outer loop
      vertex 52 34.25 1.25
      vertex 59 20.75 1.25
      vertex 59 34.25 1.25
    endloop
  endfacet
  facet normal 0 0 1
    outer loop
      vertex 59 20.75 1.25
      vertex 52 34.25 1.25
      vertex 52 20.75 1.25
    endloop
  endfacet
  facet normal 0 0 1
    outer loop
      vertex 59 46.25 1.25
      vertex 58 43.75 1.25
      vertex 59 36.25 1.25
    endloop
  endfacet
  facet normal 0 0 1
    outer loop
      vertex 59 46.25 1.25
      vertex 53 43.75 1.25
      vertex 58 43.75 1.25
    endloop
  endfacet
  facet normal 0 0 1
    outer loop
      vertex 53 43.75 1.25
      vertex 52 46.25 1.25
      vertex 53 38.75 1.25
    endloop
  endfacet
  facet normal -0 0 1
    outer loop
      vertex 52 46.25 1.25
      vertex 53 43.75 1.25
      vertex 59 46.25 1.25
    endloop
  endfacet
  facet normal 0 0 1
    outer loop
      vertex 85 58 1.25
      vertex 75 30 1.25
      vertex 85 0 1.25
    endloop
  endfacet
  facet normal -0 0 1
    outer loop
      vertex 59 46.25 1.25
      vertex 75 30 1.25
      vertex 85 58 1.25
    endloop
  endfacet
  facet normal 0 0 1
    outer loop
      vertex 75 30 1.25
      vertex 59 46.25 1.25
      vertex 70 30 1.25
    endloop
  endfacet
  facet normal 0 0 1
    outer loop
      vertex 59 46.25 1.25
      vertex 85 58 1.25
      vertex 59 48.25 1.25
    endloop
  endfacet
  facet normal -0 0 1
    outer loop
      vertex 50 58 1.25
      vertex 59 48.25 1.25
      vertex 85 58 1.25
    endloop
  endfacet
  facet normal 0 0 1
    outer loop
      vertex 48.5 41.75 1.25
      vertex 52 46.25 1.25
      vertex 52 48.25 1.25
    endloop
  endfacet
  facet normal 0 0 1
    outer loop
      vertex 52 46.25 1.25
      vertex 50.5 41.75 1.25
      vertex 52 36.25 1.25
    endloop
  endfacet
  facet normal -0 0 1
    outer loop
      vertex 50.5 39.75 1.25
      vertex 52 36.25 1.25
      vertex 50.5 41.75 1.25
    endloop
  endfacet
  facet normal 0 0 1
    outer loop
      vertex 52 36.25 1.25
      vertex 48.5 39.75 1.25
      vertex 52 34.25 1.25
    endloop
  endfacet
  facet normal -0 0 1
    outer loop
      vertex 35.75 39.75 1.25
      vertex 52 34.25 1.25
      vertex 48.5 39.75 1.25
    endloop
  endfacet
  facet normal 0 0 1
    outer loop
      vertex 52 20.75 1.25
      vertex 50.5 14.25 1.25
      vertex 52 18.75 1.25
    endloop
  endfacet
  facet normal -0 0 1
    outer loop
      vertex 48.5 39.75 1.25
      vertex 52 36.25 1.25
      vertex 50.5 39.75 1.25
    endloop
  endfacet
  facet normal -0 0 1
    outer loop
      vertex 50 55 1.25
      vertex 59 48.25 1.25
      vertex 50 58 1.25
    endloop
  endfacet
  facet normal 0 0 1
    outer loop
      vertex 59 48.25 1.25
      vertex 50 55 1.25
      vertex 52 48.25 1.25
    endloop
  endfacet
  facet normal -0 0 1
    outer loop
      vertex 43 53.5 1.25
      vertex 52 48.25 1.25
      vertex 50 55 1.25
    endloop
  endfacet
  facet normal 0 0 1
    outer loop
      vertex 52 46.25 1.25
      vertex 48.5 41.75 1.25
      vertex 50.5 41.75 1.25
    endloop
  endfacet
  facet normal 0 0 1
    outer loop
      vertex 35.75 39.75 1.25
      vertex 48.5 39.75 1.25
      vertex 48.5 41.75 1.25
    endloop
  endfacet
  facet normal 0 0 1
    outer loop
      vertex 35.75 14.25 1.25
      vertex 52 20.75 1.25
      vertex 35.75 39.75 1.25
    endloop
  endfacet
  facet normal 0 0 1
    outer loop
      vertex 52 48.25 1.25
      vertex 43 53.5 1.25
      vertex 48.5 41.75 1.25
    endloop
  endfacet
  facet normal 0 0 1
    outer loop
      vertex 43 53.5 1.25
      vertex 50 55 1.25
      vertex 43 55 1.25
    endloop
  endfacet
  facet normal -0 0 1
    outer loop
      vertex 75 25 1.25
      vertex 85 0 1.25
      vertex 75 30 1.25
    endloop
  endfacet
  facet normal 0 0 1
    outer loop
      vertex 59 8.75 1.25
      vertex 75 25 1.25
      vertex 70 25 1.25
    endloop
  endfacet
  facet normal -0 0 1
    outer loop
      vertex 59 36.25 1.25
      vertex 70 30 1.25
      vertex 59 46.25 1.25
    endloop
  endfacet
  facet normal -0 0 1
    outer loop
      vertex 59 34.25 1.25
      vertex 70 30 1.25
      vertex 59 36.25 1.25
    endloop
  endfacet
  facet normal 0 0 1
    outer loop
      vertex 70 30 1.25
      vertex 59 34.25 1.25
      vertex 70 25 1.25
    endloop
  endfacet
  facet normal 0 0 1
    outer loop
      vertex 59 20.75 1.25
      vertex 70 25 1.25
      vertex 59 34.25 1.25
    endloop
  endfacet
  facet normal 0 0 1
    outer loop
      vertex 59 18.75 1.25
      vertex 70 25 1.25
      vertex 59 20.75 1.25
    endloop
  endfacet
  facet normal 0 0 1
    outer loop
      vertex 59 8.75 1.25
      vertex 70 25 1.25
      vertex 59 18.75 1.25
    endloop
  endfacet
  facet normal 0 0 1
    outer loop
      vertex 75 25 1.25
      vertex 59 8.75 1.25
      vertex 85 0 1.25
    endloop
  endfacet
  facet normal -0 0 1
    outer loop
      vertex 59 6.75 1.25
      vertex 85 0 1.25
      vertex 59 8.75 1.25
    endloop
  endfacet
  facet normal -0 0 1
    outer loop
      vertex 52 6.75 1.25
      vertex 85 0 1.25
      vertex 59 6.75 1.25
    endloop
  endfacet
  facet normal 0 0 1
    outer loop
      vertex 52 18.75 1.25
      vertex 50.5 14.25 1.25
      vertex 52 8.75 1.25
    endloop
  endfacet
  facet normal -0 0 1
    outer loop
      vertex 50.5 12.25 1.25
      vertex 52 8.75 1.25
      vertex 50.5 14.25 1.25
    endloop
  endfacet
  facet normal -0 0 1
    outer loop
      vertex 48.5 12.25 1.25
      vertex 52 8.75 1.25
      vertex 50.5 12.25 1.25
    endloop
  endfacet
  facet normal 0 0 1
    outer loop
      vertex 52 8.75 1.25
      vertex 48.5 12.25 1.25
      vertex 52 6.75 1.25
    endloop
  endfacet
  facet normal 0 0 1
    outer loop
      vertex 35.75 41.75 1.25
      vertex 48.5 41.75 1.25
      vertex 43 53.5 1.25
    endloop
  endfacet
  facet normal 0 0 1
    outer loop
      vertex 48.5 41.75 1.25
      vertex 35.75 41.75 1.25
      vertex 35.75 39.75 1.25
    endloop
  endfacet
  facet normal 0 0 1
    outer loop
      vertex 52 20.75 1.25
      vertex 35.75 14.25 1.25
      vertex 48.5 14.25 1.25
    endloop
  endfacet
  facet normal 0 0 1
    outer loop
      vertex 48.5 14.25 1.25
      vertex 35.75 14.25 1.25
      vertex 48.5 12.25 1.25
    endloop
  endfacet
  facet normal 0 0 1
    outer loop
      vertex 35.75 12.25 1.25
      vertex 48.5 12.25 1.25
      vertex 35.75 14.25 1.25
    endloop
  endfacet
  facet normal 0 0 1
    outer loop
      vertex 48.5 12.25 1.25
      vertex 35.75 12.25 1.25
      vertex 52 6.75 1.25
    endloop
  endfacet
  facet normal 0 0 1
    outer loop
      vertex 32 8.75 1.25
      vertex 35.75 12.25 1.25
      vertex 33.75 12.25 1.25
    endloop
  endfacet
  facet normal -0 0 1
    outer loop
      vertex 31 43.75 1.25
      vertex 33.75 41.75 1.25
      vertex 32 46.25 1.25
    endloop
  endfacet
  facet normal 0 0 1
    outer loop
      vertex 33.75 39.75 1.25
      vertex 32 36.25 1.25
      vertex 32 34.25 1.25
    endloop
  endfacet
  facet normal 0 0 1
    outer loop
      vertex 33.75 39.75 1.25
      vertex 32 20.75 1.25
      vertex 33.75 14.25 1.25
    endloop
  endfacet
  facet normal -0 0 1
    outer loop
      vertex 32 18.75 1.25
      vertex 33.75 14.25 1.25
      vertex 32 20.75 1.25
    endloop
  endfacet
  facet normal -0 0 1
    outer loop
      vertex 31 16.25 1.25
      vertex 33.75 14.25 1.25
      vertex 32 18.75 1.25
    endloop
  endfacet
  facet normal 0 0 1
    outer loop
      vertex 31 11.25 1.25
      vertex 33.75 14.25 1.25
      vertex 31 16.25 1.25
    endloop
  endfacet
  facet normal 0 0 1
    outer loop
      vertex 35.75 12.25 1.25
      vertex 32 8.75 1.25
      vertex 32 6.75 1.25
    endloop
  endfacet
  facet normal 0 0 1
    outer loop
      vertex 35.75 12.25 1.25
      vertex 32 6.75 1.25
      vertex 52 6.75 1.25
    endloop
  endfacet
  facet normal 0 0 1
    outer loop
      vertex 52 6.75 1.25
      vertex 32 6.75 1.25
      vertex 85 0 1.25
    endloop
  endfacet
  facet normal 0 0 1
    outer loop
      vertex 0 0 1.25
      vertex 32 6.75 1.25
      vertex 25 6.75 1.25
    endloop
  endfacet
  facet normal -0 0 1
    outer loop
      vertex 10 25 1.25
      vertex 25 8.75 1.25
      vertex 15 25 1.25
    endloop
  endfacet
  facet normal -0 0 1
    outer loop
      vertex 0 17 1.25
      vertex 25 8.75 1.25
      vertex 10 25 1.25
    endloop
  endfacet
  facet normal 0 0 1
    outer loop
      vertex 10 30 1.25
      vertex 0 38 1.25
      vertex 10 25 1.25
    endloop
  endfacet
  facet normal 0 0 1
    outer loop
      vertex 0 17 1.25
      vertex 10 25 1.25
      vertex 0 38 1.25
    endloop
  endfacet
  facet normal 0 0 1
    outer loop
      vertex 0 0 1.25
      vertex 25 8.75 1.25
      vertex 0 17 1.25
    endloop
  endfacet
  facet normal 0 0 1
    outer loop
      vertex 32 6.75 1.25
      vertex 0 0 1.25
      vertex 85 0 1.25
    endloop
  endfacet
  facet normal 0 0 1
    outer loop
      vertex 25 8.75 1.25
      vertex 0 0 1.25
      vertex 25 6.75 1.25
    endloop
  endfacet
  facet normal -0 0 1
    outer loop
      vertex 58 38.75 1.25
      vertex 59 36.25 1.25
      vertex 58 43.75 1.25
    endloop
  endfacet
  facet normal -0 0 1
    outer loop
      vertex 53 38.75 1.25
      vertex 59 36.25 1.25
      vertex 58 38.75 1.25
    endloop
  endfacet
  facet normal 0 0 1
    outer loop
      vertex 53 38.75 1.25
      vertex 52 36.25 1.25
      vertex 59 36.25 1.25
    endloop
  endfacet
  facet normal 0 0 1
    outer loop
      vertex 52 36.25 1.25
      vertex 53 38.75 1.25
      vertex 52 46.25 1.25
    endloop
  endfacet
  facet normal -0 0 1
    outer loop
      vertex 58 11.25 1.25
      vertex 59 8.75 1.25
      vertex 58 16.25 1.25
    endloop
  endfacet
  facet normal -0 0 1
    outer loop
      vertex 53 11.25 1.25
      vertex 59 8.75 1.25
      vertex 58 11.25 1.25
    endloop
  endfacet
  facet normal 0 0 1
    outer loop
      vertex 53 11.25 1.25
      vertex 52 8.75 1.25
      vertex 59 8.75 1.25
    endloop
  endfacet
  facet normal 0 0 1
    outer loop
      vertex 52 8.75 1.25
      vertex 53 11.25 1.25
      vertex 52 18.75 1.25
    endloop
  endfacet
  facet normal 0 -1 0
    outer loop
      vertex 25 6.75 1.25
      vertex 32 6.75 5.7
      vertex 25 6.75 5.7
    endloop
  endfacet
  facet normal 0 -1 -0
    outer loop
      vertex 32 6.75 5.7
      vertex 25 6.75 1.25
      vertex 32 6.75 1.25
    endloop
  endfacet
  facet normal -0 0 1
    outer loop
      vertex 25 10 5.7
      vertex 32 6.75 5.7
      vertex 32 10 5.7
    endloop
  endfacet
  facet normal 0 0 1
    outer loop
      vertex 32 6.75 5.7
      vertex 25 10 5.7
      vertex 25 6.75 5.7
    endloop
  endfacet
  facet normal 0 1 -0
    outer loop
      vertex 32 10 4.45
      vertex 25 10 5.7
      vertex 32 10 5.7
    endloop
  endfacet
  facet normal 0 1 0
    outer loop
      vertex 25 10 5.7
      vertex 32 10 4.45
      vertex 25 10 4.45
    endloop
  endfacet
  facet normal -1 0 0
    outer loop
      vertex 25 18.75 4.45
      vertex 25 20.75 1.25
      vertex 25 18.75 1.25
    endloop
  endfacet
  facet normal -1 0 0
    outer loop
      vertex 25 20.75 1.25
      vertex 25 18.75 4.45
      vertex 25 20.75 5.7
    endloop
  endfacet
  facet normal -1 0 0
    outer loop
      vertex 25 17.5 5.7
      vertex 25 18.75 4.45
      vertex 25 17.5 4.45
    endloop
  endfacet
  facet normal -1 0 0
    outer loop
      vertex 25 18.75 4.45
      vertex 25 17.5 5.7
      vertex 25 20.75 5.7
    endloop
  endfacet
  facet normal 0 0 -1
    outer loop
      vertex 25 17.5 4.45
      vertex 32 18.75 4.45
      vertex 32 17.5 4.45
    endloop
  endfacet
  facet normal -0 0 -1
    outer loop
      vertex 32 18.75 4.45
      vertex 25 17.5 4.45
      vertex 25 18.75 4.45
    endloop
  endfacet
  facet normal 1 0 0
    outer loop
      vertex 32 20.75 5.7
      vertex 32 18.75 4.45
      vertex 32 20.75 1.25
    endloop
  endfacet
  facet normal 1 -0 0
    outer loop
      vertex 32 17.5 5.7
      vertex 32 18.75 4.45
      vertex 32 20.75 5.7
    endloop
  endfacet
  facet normal 1 0 0
    outer loop
      vertex 32 18.75 4.45
      vertex 32 17.5 5.7
      vertex 32 17.5 4.45
    endloop
  endfacet
  facet normal 1 0 0
    outer loop
      vertex 32 20.75 1.25
      vertex 32 18.75 4.45
      vertex 32 18.75 1.25
    endloop
  endfacet
  facet normal 0 -1 0
    outer loop
      vertex 25 18.75 1.25
      vertex 32 18.75 4.45
      vertex 25 18.75 4.45
    endloop
  endfacet
  facet normal 0 -1 -0
    outer loop
      vertex 32 18.75 4.45
      vertex 25 18.75 1.25
      vertex 32 18.75 1.25
    endloop
  endfacet
  facet normal 0 1 -0
    outer loop
      vertex 32 20.75 1.25
      vertex 25 20.75 5.7
      vertex 32 20.75 5.7
    endloop
  endfacet
  facet normal 0 1 0
    outer loop
      vertex 25 20.75 5.7
      vertex 32 20.75 1.25
      vertex 25 20.75 1.25
    endloop
  endfacet
  facet normal -0 0 1
    outer loop
      vertex 25 20.75 5.7
      vertex 32 17.5 5.7
      vertex 32 20.75 5.7
    endloop
  endfacet
  facet normal 0 0 1
    outer loop
      vertex 32 17.5 5.7
      vertex 25 20.75 5.7
      vertex 25 17.5 5.7
    endloop
  endfacet
  facet normal 0 -1 0
    outer loop
      vertex 25 17.5 4.45
      vertex 32 17.5 5.7
      vertex 25 17.5 5.7
    endloop
  endfacet
  facet normal 0 -1 -0
    outer loop
      vertex 32 17.5 5.7
      vertex 25 17.5 4.45
      vertex 32 17.5 4.45
    endloop
  endfacet
  facet normal -1 0 0
    outer loop
      vertex 33.75 12.25 1.25
      vertex 33.75 14.25 4.13
      vertex 33.75 14.25 1.25
    endloop
  endfacet
  facet normal -1 -0 0
    outer loop
      vertex 33.75 14.25 4.13
      vertex 33.75 12.25 1.25
      vertex 33.75 12.25 4.13
    endloop
  endfacet
  facet normal -0 0 1
    outer loop
      vertex 33.75 14.25 4.13
      vertex 35.75 12.25 4.13
      vertex 35.75 14.25 4.13
    endloop
  endfacet
  facet normal 0 0 1
    outer loop
      vertex 35.75 12.25 4.13
      vertex 33.75 14.25 4.13
      vertex 33.75 12.25 4.13
    endloop
  endfacet
  facet normal 1 -0 0
    outer loop
      vertex 35.75 12.25 4.13
      vertex 35.75 14.25 1.25
      vertex 35.75 14.25 4.13
    endloop
  endfacet
  facet normal 1 0 0
    outer loop
      vertex 35.75 14.25 1.25
      vertex 35.75 12.25 4.13
      vertex 35.75 12.25 1.25
    endloop
  endfacet
  facet normal 0 -1 0
    outer loop
      vertex 33.75 12.25 1.25
      vertex 35.75 12.25 4.13
      vertex 33.75 12.25 4.13
    endloop
  endfacet
  facet normal 0 -1 -0
    outer loop
      vertex 35.75 12.25 4.13
      vertex 33.75 12.25 1.25
      vertex 35.75 12.25 1.25
    endloop
  endfacet
  facet normal 0 1 -0
    outer loop
      vertex 35.75 14.25 1.25
      vertex 33.75 14.25 4.13
      vertex 35.75 14.25 4.13
    endloop
  endfacet
  facet normal 0 1 0
    outer loop
      vertex 33.75 14.25 4.13
      vertex 35.75 14.25 1.25
      vertex 33.75 14.25 1.25
    endloop
  endfacet
  facet normal -1 0 0
    outer loop
      vertex 52 8.75 1.25
      vertex 52 6.75 1.25
      vertex 52 8.75 4.45
    endloop
  endfacet
  facet normal -1 0 0
    outer loop
      vertex 52 8.75 4.45
      vertex 52 10 5.7
      vertex 52 10 4.45
    endloop
  endfacet
  facet normal -1 0 0
    outer loop
      vertex 52 8.75 4.45
      vertex 52 6.75 5.7
      vertex 52 10 5.7
    endloop
  endfacet
  facet normal -1 0 0
    outer loop
      vertex 52 6.75 5.7
      vertex 52 8.75 4.45
      vertex 52 6.75 1.25
    endloop
  endfacet
  facet normal 0 0 -1
    outer loop
      vertex 52 8.75 4.45
      vertex 59 10 4.45
      vertex 59 8.75 4.45
    endloop
  endfacet
  facet normal -0 0 -1
    outer loop
      vertex 59 10 4.45
      vertex 52 8.75 4.45
      vertex 52 10 4.45
    endloop
  endfacet
  facet normal 1 0 0
    outer loop
      vertex 59 10 5.7
      vertex 59 8.75 4.45
      vertex 59 10 4.45
    endloop
  endfacet
  facet normal 1 -0 0
    outer loop
      vertex 59 6.75 5.7
      vertex 59 8.75 4.45
      vertex 59 10 5.7
    endloop
  endfacet
  facet normal 1 0 0
    outer loop
      vertex 59 6.75 1.25
      vertex 59 8.75 4.45
      vertex 59 6.75 5.7
    endloop
  endfacet
  facet normal 1 0 0
    outer loop
      vertex 59 8.75 4.45
      vertex 59 6.75 1.25
      vertex 59 8.75 1.25
    endloop
  endfacet
  facet normal 0 -1 0
    outer loop
      vertex 52 6.75 1.25
      vertex 59 6.75 5.7
      vertex 52 6.75 5.7
    endloop
  endfacet
  facet normal 0 -1 -0
    outer loop
      vertex 59 6.75 5.7
      vertex 52 6.75 1.25
      vertex 59 6.75 1.25
    endloop
  endfacet
  facet normal 0 1 -0
    outer loop
      vertex 59 8.75 1.25
      vertex 52 8.75 4.45
      vertex 59 8.75 4.45
    endloop
  endfacet
  facet normal 0 1 0
    outer loop
      vertex 52 8.75 4.45
      vertex 59 8.75 1.25
      vertex 52 8.75 1.25
    endloop
  endfacet
  facet normal -0 0 1
    outer loop
      vertex 52 10 5.7
      vertex 59 6.75 5.7
      vertex 59 10 5.7
    endloop
  endfacet
  facet normal 0 0 1
    outer loop
      vertex 59 6.75 5.7
      vertex 52 10 5.7
      vertex 52 6.75 5.7
    endloop
  endfacet
  facet normal 0 1 -0
    outer loop
      vertex 59 10 4.45
      vertex 52 10 5.7
      vertex 59 10 5.7
    endloop
  endfacet
  facet normal 0 1 0
    outer loop
      vertex 52 10 5.7
      vertex 59 10 4.45
      vertex 52 10 4.45
    endloop
  endfacet
  facet normal -1 0 0
    outer loop
      vertex 52 18.75 4.45
      vertex 52 20.75 1.25
      vertex 52 18.75 1.25
    endloop
  endfacet
  facet normal -1 0 0
    outer loop
      vertex 52 20.75 1.25
      vertex 52 18.75 4.45
      vertex 52 20.75 5.7
    endloop
  endfacet
  facet normal -1 0 0
    outer loop
      vertex 52 17.5 5.7
      vertex 52 18.75 4.45
      vertex 52 17.5 4.45
    endloop
  endfacet
  facet normal -1 0 0
    outer loop
      vertex 52 18.75 4.45
      vertex 52 17.5 5.7
      vertex 52 20.75 5.7
    endloop
  endfacet
  facet normal 0 0 -1
    outer loop
      vertex 52 17.5 4.45
      vertex 59 18.75 4.45
      vertex 59 17.5 4.45
    endloop
  endfacet
  facet normal -0 0 -1
    outer loop
      vertex 59 18.75 4.45
      vertex 52 17.5 4.45
      vertex 52 18.75 4.45
    endloop
  endfacet
  facet normal 1 0 0
    outer loop
      vertex 59 20.75 5.7
      vertex 59 18.75 4.45
      vertex 59 20.75 1.25
    endloop
  endfacet
  facet normal 1 -0 0
    outer loop
      vertex 59 17.5 5.7
      vertex 59 18.75 4.45
      vertex 59 20.75 5.7
    endloop
  endfacet
  facet normal 1 0 0
    outer loop
      vertex 59 18.75 4.45
      vertex 59 17.5 5.7
      vertex 59 17.5 4.45
    endloop
  endfacet
  facet normal 1 0 0
    outer loop
      vertex 59 20.75 1.25
      vertex 59 18.75 4.45
      vertex 59 18.75 1.25
    endloop
  endfacet
  facet normal 0 1 -0
    outer loop
      vertex 59 20.75 1.25
      vertex 52 20.75 5.7
      vertex 59 20.75 5.7
    endloop
  endfacet
  facet normal 0 1 0
    outer loop
      vertex 52 20.75 5.7
      vertex 59 20.75 1.25
      vertex 52 20.75 1.25
    endloop
  endfacet
  facet normal 0 -1 0
    outer loop
      vertex 52 18.75 1.25
      vertex 59 18.75 4.45
      vertex 52 18.75 4.45
    endloop
  endfacet
  facet normal 0 -1 -0
    outer loop
      vertex 59 18.75 4.45
      vertex 52 18.75 1.25
      vertex 59 18.75 1.25
    endloop
  endfacet
  facet normal -0 0 1
    outer loop
      vertex 52 20.75 5.7
      vertex 59 17.5 5.7
      vertex 59 20.75 5.7
    endloop
  endfacet
  facet normal 0 0 1
    outer loop
      vertex 59 17.5 5.7
      vertex 52 20.75 5.7
      vertex 52 17.5 5.7
    endloop
  endfacet
  facet normal 0 -1 0
    outer loop
      vertex 52 17.5 4.45
      vertex 59 17.5 5.7
      vertex 52 17.5 5.7
    endloop
  endfacet
  facet normal 0 -1 -0
    outer loop
      vertex 59 17.5 5.7
      vertex 52 17.5 4.45
      vertex 59 17.5 4.45
    endloop
  endfacet
  facet normal -1 0 0
    outer loop
      vertex 48.5 12.25 1.25
      vertex 48.5 14.25 4.13
      vertex 48.5 14.25 1.25
    endloop
  endfacet
  facet normal -1 -0 0
    outer loop
      vertex 48.5 14.25 4.13
      vertex 48.5 12.25 1.25
      vertex 48.5 12.25 4.13
    endloop
  endfacet
  facet normal -0 0 1
    outer loop
      vertex 48.5 14.25 4.13
      vertex 50.5 12.25 4.13
      vertex 50.5 14.25 4.13
    endloop
  endfacet
  facet normal 0 0 1
    outer loop
      vertex 50.5 12.25 4.13
      vertex 48.5 14.25 4.13
      vertex 48.5 12.25 4.13
    endloop
  endfacet
  facet normal 1 -0 0
    outer loop
      vertex 50.5 12.25 4.13
      vertex 50.5 14.25 1.25
      vertex 50.5 14.25 4.13
    endloop
  endfacet
  facet normal 1 0 0
    outer loop
      vertex 50.5 14.25 1.25
      vertex 50.5 12.25 4.13
      vertex 50.5 12.25 1.25
    endloop
  endfacet
  facet normal 0 1 -0
    outer loop
      vertex 50.5 14.25 1.25
      vertex 48.5 14.25 4.13
      vertex 50.5 14.25 4.13
    endloop
  endfacet
  facet normal 0 1 0
    outer loop
      vertex 48.5 14.25 4.13
      vertex 50.5 14.25 1.25
      vertex 48.5 14.25 1.25
    endloop
  endfacet
  facet normal 0 -1 0
    outer loop
      vertex 48.5 12.25 1.25
      vertex 50.5 12.25 4.13
      vertex 48.5 12.25 4.13
    endloop
  endfacet
  facet normal 0 -1 -0
    outer loop
      vertex 50.5 12.25 4.13
      vertex 48.5 12.25 1.25
      vertex 50.5 12.25 1.25
    endloop
  endfacet
  facet normal -1 0 0
    outer loop
      vertex 25 36.25 1.25
      vertex 25 34.25 1.25
      vertex 25 36.25 4.45
    endloop
  endfacet
  facet normal -1 0 0
    outer loop
      vertex 25 36.25 4.45
      vertex 25 37.5 5.7
      vertex 25 37.5 4.45
    endloop
  endfacet
  facet normal -1 0 0
    outer loop
      vertex 25 36.25 4.45
      vertex 25 34.25 5.7
      vertex 25 37.5 5.7
    endloop
  endfacet
  facet normal -1 0 0
    outer loop
      vertex 25 34.25 5.7
      vertex 25 36.25 4.45
      vertex 25 34.25 1.25
    endloop
  endfacet
  facet normal 0 0 -1
    outer loop
      vertex 25 36.25 4.45
      vertex 32 37.5 4.45
      vertex 32 36.25 4.45
    endloop
  endfacet
  facet normal -0 0 -1
    outer loop
      vertex 32 37.5 4.45
      vertex 25 36.25 4.45
      vertex 25 37.5 4.45
    endloop
  endfacet
  facet normal 1 0 0
    outer loop
      vertex 32 37.5 5.7
      vertex 32 36.25 4.45
      vertex 32 37.5 4.45
    endloop
  endfacet
  facet normal 1 -0 0
    outer loop
      vertex 32 34.25 5.7
      vertex 32 36.25 4.45
      vertex 32 37.5 5.7
    endloop
  endfacet
  facet normal 1 0 0
    outer loop
      vertex 32 34.25 1.25
      vertex 32 36.25 4.45
      vertex 32 34.25 5.7
    endloop
  endfacet
  facet normal 1 0 0
    outer loop
      vertex 32 36.25 4.45
      vertex 32 34.25 1.25
      vertex 32 36.25 1.25
    endloop
  endfacet
  facet normal 0 1 -0
    outer loop
      vertex 32 36.25 1.25
      vertex 25 36.25 4.45
      vertex 32 36.25 4.45
    endloop
  endfacet
  facet normal 0 1 0
    outer loop
      vertex 25 36.25 4.45
      vertex 32 36.25 1.25
      vertex 25 36.25 1.25
    endloop
  endfacet
  facet normal 0 -1 0
    outer loop
      vertex 25 34.25 1.25
      vertex 32 34.25 5.7
      vertex 25 34.25 5.7
    endloop
  endfacet
  facet normal 0 -1 -0
    outer loop
      vertex 32 34.25 5.7
      vertex 25 34.25 1.25
      vertex 32 34.25 1.25
    endloop
  endfacet
  facet normal -0 0 1
    outer loop
      vertex 25 37.5 5.7
      vertex 32 34.25 5.7
      vertex 32 37.5 5.7
    endloop
  endfacet
  facet normal 0 0 1
    outer loop
      vertex 32 34.25 5.7
      vertex 25 37.5 5.7
      vertex 25 34.25 5.7
    endloop
  endfacet
  facet normal 0 1 -0
    outer loop
      vertex 32 37.5 4.45
      vertex 25 37.5 5.7
      vertex 32 37.5 5.7
    endloop
  endfacet
  facet normal 0 1 0
    outer loop
      vertex 25 37.5 5.7
      vertex 32 37.5 4.45
      vertex 25 37.5 4.45
    endloop
  endfacet
  facet normal -1 0 0
    outer loop
      vertex 25 46.25 4.45
      vertex 25 48.25 1.25
      vertex 25 46.25 1.25
    endloop
  endfacet
  facet normal -1 0 0
    outer loop
      vertex 25 48.25 1.25
      vertex 25 46.25 4.45
      vertex 25 48.25 5.7
    endloop
  endfacet
  facet normal -1 0 0
    outer loop
      vertex 25 45 5.7
      vertex 25 46.25 4.45
      vertex 25 45 4.45
    endloop
  endfacet
  facet normal -1 0 0
    outer loop
      vertex 25 46.25 4.45
      vertex 25 45 5.7
      vertex 25 48.25 5.7
    endloop
  endfacet
  facet normal 0 0 -1
    outer loop
      vertex 25 45 4.45
      vertex 32 46.25 4.45
      vertex 32 45 4.45
    endloop
  endfacet
  facet normal -0 0 -1
    outer loop
      vertex 32 46.25 4.45
      vertex 25 45 4.45
      vertex 25 46.25 4.45
    endloop
  endfacet
  facet normal 1 0 0
    outer loop
      vertex 32 48.25 5.7
      vertex 32 46.25 4.45
      vertex 32 48.25 1.25
    endloop
  endfacet
  facet normal 1 -0 0
    outer loop
      vertex 32 45 5.7
      vertex 32 46.25 4.45
      vertex 32 48.25 5.7
    endloop
  endfacet
  facet normal 1 0 0
    outer loop
      vertex 32 46.25 4.45
      vertex 32 45 5.7
      vertex 32 45 4.45
    endloop
  endfacet
  facet normal 1 0 0
    outer loop
      vertex 32 48.25 1.25
      vertex 32 46.25 4.45
      vertex 32 46.25 1.25
    endloop
  endfacet
  facet normal 0 1 -0
    outer loop
      vertex 32 48.25 1.25
      vertex 25 48.25 5.7
      vertex 32 48.25 5.7
    endloop
  endfacet
  facet normal 0 1 0
    outer loop
      vertex 25 48.25 5.7
      vertex 32 48.25 1.25
      vertex 25 48.25 1.25
    endloop
  endfacet
  facet normal 0 -1 0
    outer loop
      vertex 25 46.25 1.25
      vertex 32 46.25 4.45
      vertex 25 46.25 4.45
    endloop
  endfacet
  facet normal 0 -1 -0
    outer loop
      vertex 32 46.25 4.45
      vertex 25 46.25 1.25
      vertex 32 46.25 1.25
    endloop
  endfacet
  facet normal -0 0 1
    outer loop
      vertex 25 48.25 5.7
      vertex 32 45 5.7
      vertex 32 48.25 5.7
    endloop
  endfacet
  facet normal 0 0 1
    outer loop
      vertex 32 45 5.7
      vertex 25 48.25 5.7
      vertex 25 45 5.7
    endloop
  endfacet
  facet normal 0 -1 0
    outer loop
      vertex 25 45 4.45
      vertex 32 45 5.7
      vertex 25 45 5.7
    endloop
  endfacet
  facet normal 0 -1 -0
    outer loop
      vertex 32 45 5.7
      vertex 25 45 4.45
      vertex 32 45 4.45
    endloop
  endfacet
  facet normal -1 0 0
    outer loop
      vertex 33.75 39.75 1.25
      vertex 33.75 41.75 4.13
      vertex 33.75 41.75 1.25
    endloop
  endfacet
  facet normal -1 -0 0
    outer loop
      vertex 33.75 41.75 4.13
      vertex 33.75 39.75 1.25
      vertex 33.75 39.75 4.13
    endloop
  endfacet
  facet normal -0 0 1
    outer loop
      vertex 33.75 41.75 4.13
      vertex 35.75 39.75 4.13
      vertex 35.75 41.75 4.13
    endloop
  endfacet
  facet normal 0 0 1
    outer loop
      vertex 35.75 39.75 4.13
      vertex 33.75 41.75 4.13
      vertex 33.75 39.75 4.13
    endloop
  endfacet
  facet normal 1 -0 0
    outer loop
      vertex 35.75 39.75 4.13
      vertex 35.75 41.75 1.25
      vertex 35.75 41.75 4.13
    endloop
  endfacet
  facet normal 1 0 0
    outer loop
      vertex 35.75 41.75 1.25
      vertex 35.75 39.75 4.13
      vertex 35.75 39.75 1.25
    endloop
  endfacet
  facet normal 0 1 -0
    outer loop
      vertex 35.75 41.75 1.25
      vertex 33.75 41.75 4.13
      vertex 35.75 41.75 4.13
    endloop
  endfacet
  facet normal 0 1 0
    outer loop
      vertex 33.75 41.75 4.13
      vertex 35.75 41.75 1.25
      vertex 33.75 41.75 1.25
    endloop
  endfacet
  facet normal 0 -1 0
    outer loop
      vertex 33.75 39.75 1.25
      vertex 35.75 39.75 4.13
      vertex 33.75 39.75 4.13
    endloop
  endfacet
  facet normal 0 -1 -0
    outer loop
      vertex 35.75 39.75 4.13
      vertex 33.75 39.75 1.25
      vertex 35.75 39.75 1.25
    endloop
  endfacet
  facet normal -1 0 0
    outer loop
      vertex 52 36.25 1.25
      vertex 52 34.25 1.25
      vertex 52 36.25 4.45
    endloop
  endfacet
  facet normal -1 0 0
    outer loop
      vertex 52 36.25 4.45
      vertex 52 37.5 5.7
      vertex 52 37.5 4.45
    endloop
  endfacet
  facet normal -1 0 0
    outer loop
      vertex 52 36.25 4.45
      vertex 52 34.25 5.7
      vertex 52 37.5 5.7
    endloop
  endfacet
  facet normal -1 0 0
    outer loop
      vertex 52 34.25 5.7
      vertex 52 36.25 4.45
      vertex 52 34.25 1.25
    endloop
  endfacet
  facet normal 0 0 -1
    outer loop
      vertex 52 36.25 4.45
      vertex 59 37.5 4.45
      vertex 59 36.25 4.45
    endloop
  endfacet
  facet normal -0 0 -1
    outer loop
      vertex 59 37.5 4.45
      vertex 52 36.25 4.45
      vertex 52 37.5 4.45
    endloop
  endfacet
  facet normal 1 0 0
    outer loop
      vertex 59 37.5 5.7
      vertex 59 36.25 4.45
      vertex 59 37.5 4.45
    endloop
  endfacet
  facet normal 1 -0 0
    outer loop
      vertex 59 34.25 5.7
      vertex 59 36.25 4.45
      vertex 59 37.5 5.7
    endloop
  endfacet
  facet normal 1 0 0
    outer loop
      vertex 59 34.25 1.25
      vertex 59 36.25 4.45
      vertex 59 34.25 5.7
    endloop
  endfacet
  facet normal 1 0 0
    outer loop
      vertex 59 36.25 4.45
      vertex 59 34.25 1.25
      vertex 59 36.25 1.25
    endloop
  endfacet
  facet normal 0 1 -0
    outer loop
      vertex 59 36.25 1.25
      vertex 52 36.25 4.45
      vertex 59 36.25 4.45
    endloop
  endfacet
  facet normal 0 1 0
    outer loop
      vertex 52 36.25 4.45
      vertex 59 36.25 1.25
      vertex 52 36.25 1.25
    endloop
  endfacet
  facet normal 0 -1 0
    outer loop
      vertex 52 34.25 1.25
      vertex 59 34.25 5.7
      vertex 52 34.25 5.7
    endloop
  endfacet
  facet normal 0 -1 -0
    outer loop
      vertex 59 34.25 5.7
      vertex 52 34.25 1.25
      vertex 59 34.25 1.25
    endloop
  endfacet
  facet normal -0 0 1
    outer loop
      vertex 52 37.5 5.7
      vertex 59 34.25 5.7
      vertex 59 37.5 5.7
    endloop
  endfacet
  facet normal 0 0 1
    outer loop
      vertex 59 34.25 5.7
      vertex 52 37.5 5.7
      vertex 52 34.25 5.7
    endloop
  endfacet
  facet normal 0 1 -0
    outer loop
      vertex 59 37.5 4.45
      vertex 52 37.5 5.7
      vertex 59 37.5 5.7
    endloop
  endfacet
  facet normal 0 1 0
    outer loop
      vertex 52 37.5 5.7
      vertex 59 37.5 4.45
      vertex 52 37.5 4.45
    endloop
  endfacet
  facet normal -1 0 0
    outer loop
      vertex 52 46.25 4.45
      vertex 52 48.25 1.25
      vertex 52 46.25 1.25
    endloop
  endfacet
  facet normal -1 0 0
    outer loop
      vertex 52 48.25 1.25
      vertex 52 46.25 4.45
      vertex 52 48.25 5.7
    endloop
  endfacet
  facet normal -1 0 0
    outer loop
      vertex 52 45 5.7
      vertex 52 46.25 4.45
      vertex 52 45 4.45
    endloop
  endfacet
  facet normal -1 0 0
    outer loop
      vertex 52 46.25 4.45
      vertex 52 45 5.7
      vertex 52 48.25 5.7
    endloop
  endfacet
  facet normal 0 0 -1
    outer loop
      vertex 52 45 4.45
      vertex 59 46.25 4.45
      vertex 59 45 4.45
    endloop
  endfacet
  facet normal -0 0 -1
    outer loop
      vertex 59 46.25 4.45
      vertex 52 45 4.45
      vertex 52 46.25 4.45
    endloop
  endfacet
  facet normal 1 0 0
    outer loop
      vertex 59 48.25 5.7
      vertex 59 46.25 4.45
      vertex 59 48.25 1.25
    endloop
  endfacet
  facet normal 1 -0 0
    outer loop
      vertex 59 45 5.7
      vertex 59 46.25 4.45
      vertex 59 48.25 5.7
    endloop
  endfacet
  facet normal 1 0 0
    outer loop
      vertex 59 46.25 4.45
      vertex 59 45 5.7
      vertex 59 45 4.45
    endloop
  endfacet
  facet normal 1 0 0
    outer loop
      vertex 59 48.25 1.25
      vertex 59 46.25 4.45
      vertex 59 46.25 1.25
    endloop
  endfacet
  facet normal 0 1 -0
    outer loop
      vertex 59 48.25 1.25
      vertex 52 48.25 5.7
      vertex 59 48.25 5.7
    endloop
  endfacet
  facet normal 0 1 0
    outer loop
      vertex 52 48.25 5.7
      vertex 59 48.25 1.25
      vertex 52 48.25 1.25
    endloop
  endfacet
  facet normal 0 -1 0
    outer loop
      vertex 52 46.25 1.25
      vertex 59 46.25 4.45
      vertex 52 46.25 4.45
    endloop
  endfacet
  facet normal 0 -1 -0
    outer loop
      vertex 59 46.25 4.45
      vertex 52 46.25 1.25
      vertex 59 46.25 1.25
    endloop
  endfacet
  facet normal -0 0 1
    outer loop
      vertex 52 48.25 5.7
      vertex 59 45 5.7
      vertex 59 48.25 5.7
    endloop
  endfacet
  facet normal 0 0 1
    outer loop
      vertex 59 45 5.7
      vertex 52 48.25 5.7
      vertex 52 45 5.7
    endloop
  endfacet
  facet normal 0 -1 0
    outer loop
      vertex 52 45 4.45
      vertex 59 45 5.7
      vertex 52 45 5.7
    endloop
  endfacet
  facet normal 0 -1 -0
    outer loop
      vertex 59 45 5.7
      vertex 52 45 4.45
      vertex 59 45 4.45
    endloop
  endfacet
  facet normal -1 0 0
    outer loop
      vertex 48.5 39.75 1.25
      vertex 48.5 41.75 4.13
      vertex 48.5 41.75 1.25
    endloop
  endfacet
  facet normal -1 -0 0
    outer loop
      vertex 48.5 41.75 4.13
      vertex 48.5 39.75 1.25
      vertex 48.5 39.75 4.13
    endloop
  endfacet
  facet normal -0 0 1
    outer loop
      vertex 48.5 41.75 4.13
      vertex 50.5 39.75 4.13
      vertex 50.5 41.75 4.13
    endloop
  endfacet
  facet normal 0 0 1
    outer loop
      vertex 50.5 39.75 4.13
      vertex 48.5 41.75 4.13
      vertex 48.5 39.75 4.13
    endloop
  endfacet
  facet normal 1 -0 0
    outer loop
      vertex 50.5 39.75 4.13
      vertex 50.5 41.75 1.25
      vertex 50.5 41.75 4.13
    endloop
  endfacet
  facet normal 1 0 0
    outer loop
      vertex 50.5 41.75 1.25
      vertex 50.5 39.75 4.13
      vertex 50.5 39.75 1.25
    endloop
  endfacet
  facet normal 0 -1 0
    outer loop
      vertex 48.5 39.75 1.25
      vertex 50.5 39.75 4.13
      vertex 48.5 39.75 4.13
    endloop
  endfacet
  facet normal 0 -1 -0
    outer loop
      vertex 50.5 39.75 4.13
      vertex 48.5 39.75 1.25
      vertex 50.5 39.75 1.25
    endloop
  endfacet
  facet normal 0 1 -0
    outer loop
      vertex 50.5 41.75 1.25
      vertex 48.5 41.75 4.13
      vertex 50.5 41.75 4.13
    endloop
  endfacet
  facet normal 0 1 0
    outer loop
      vertex 48.5 41.75 4.13
      vertex 50.5 41.75 1.25
      vertex 48.5 41.75 1.25
    endloop
  endfacet
  facet normal -1 0 0
    outer loop
      vertex 0 0 0
      vertex 0 17 1.25
      vertex 0 17 0
    endloop
  endfacet
  facet normal -1 -0 0
    outer loop
      vertex 0 17 1.25
      vertex 0 0 0
      vertex 0 0 1.25
    endloop
  endfacet
  facet normal -1 0 0
    outer loop
      vertex 0 38 0
      vertex 0 55 1.25
      vertex 0 55 0
    endloop
  endfacet
  facet normal -1 -0 0
    outer loop
      vertex 0 55 1.25
      vertex 0 38 0
      vertex 0 38 1.25
    endloop
  endfacet
  facet normal 1 -0 0
    outer loop
      vertex 85 0 1.25
      vertex 85 58 0
      vertex 85 58 1.25
    endloop
  endfacet
  facet normal 1 0 0
    outer loop
      vertex 85 58 0
      vertex 85 0 1.25
      vertex 85 0 0
    endloop
  endfacet
  facet normal 0 1 -0
    outer loop
      vertex 50 55 0
      vertex 43 55 1.25
      vertex 50 55 1.25
    endloop
  endfacet
  facet normal 0 1 0
    outer loop
      vertex 43 55 1.25
      vertex 50 55 0
      vertex 43 55 0
    endloop
  endfacet
  facet normal 0 1 -0
    outer loop
      vertex 35 55 0
      vertex 0 55 1.25
      vertex 35 55 1.25
    endloop
  endfacet
  facet normal 0 1 0
    outer loop
      vertex 0 55 1.25
      vertex 35 55 0
      vertex 0 55 0
    endloop
  endfacet
  facet normal 0 0 -1
    outer loop
      vertex -2.5 17 0
      vertex 0 38 0
      vertex 0 17 0
    endloop
  endfacet
  facet normal -0 0 -1
    outer loop
      vertex 0 38 0
      vertex -2.5 17 0
      vertex -2.5 38 0
    endloop
  endfacet
  facet normal 0 0 -1
    outer loop
      vertex 26 16.25 0
      vertex 31 38.75 0
      vertex 31 16.25 0
    endloop
  endfacet
  facet normal -0 0 -1
    outer loop
      vertex 31 38.75 0
      vertex 26 16.25 0
      vertex 26 38.75 0
    endloop
  endfacet
  facet normal 0 0 -1
    outer loop
      vertex 53 16.25 0
      vertex 58 38.75 0
      vertex 58 16.25 0
    endloop
  endfacet
  facet normal -0 0 -1
    outer loop
      vertex 58 38.75 0
      vertex 53 16.25 0
      vertex 53 38.75 0
    endloop
  endfacet
  facet normal 0 0 -1
    outer loop
      vertex 85 0 0
      vertex 73.5 27.5 0
      vertex 85 58 0
    endloop
  endfacet
  facet normal 0 0 -1
    outer loop
      vertex 85 0 0
      vertex 73.4808 27.3049 0
      vertex 73.5 27.5 0
    endloop
  endfacet
  facet normal 0 0 -1
    outer loop
      vertex 85 0 0
      vertex 73.4239 27.1173 0
      vertex 73.4808 27.3049 0
    endloop
  endfacet
  facet normal 0 0 -1
    outer loop
      vertex 85 0 0
      vertex 73.3315 26.9444 0
      vertex 73.4239 27.1173 0
    endloop
  endfacet
  facet normal 0 0 -1
    outer loop
      vertex 85 0 0
      vertex 73.2071 26.7929 0
      vertex 73.3315 26.9444 0
    endloop
  endfacet
  facet normal 0 0 -1
    outer loop
      vertex 85 0 0
      vertex 73.0556 26.6685 0
      vertex 73.2071 26.7929 0
    endloop
  endfacet
  facet normal 0 0 -1
    outer loop
      vertex 85 0 0
      vertex 72.8827 26.5761 0
      vertex 73.0556 26.6685 0
    endloop
  endfacet
  facet normal 0 0 -1
    outer loop
      vertex 85 0 0
      vertex 72.6951 26.5192 0
      vertex 72.8827 26.5761 0
    endloop
  endfacet
  facet normal 0 0 -1
    outer loop
      vertex 85 0 0
      vertex 72.5 26.5 0
      vertex 72.6951 26.5192 0
    endloop
  endfacet
  facet normal 0 0 -1
    outer loop
      vertex 58 11.25 0
      vertex 72.5 26.5 0
      vertex 85 0 0
    endloop
  endfacet
  facet normal -0 0 -1
    outer loop
      vertex 72.5 26.5 0
      vertex 58 11.25 0
      vertex 72.3049 26.5192 0
    endloop
  endfacet
  facet normal 0 0 -1
    outer loop
      vertex 58 16.25 0
      vertex 72.3049 26.5192 0
      vertex 58 11.25 0
    endloop
  endfacet
  facet normal -0 0 -1
    outer loop
      vertex 72.3049 26.5192 0
      vertex 58 16.25 0
      vertex 72.1173 26.5761 0
    endloop
  endfacet
  facet normal -0 0 -1
    outer loop
      vertex 72.1173 26.5761 0
      vertex 58 16.25 0
      vertex 71.9444 26.6685 0
    endloop
  endfacet
  facet normal -0 0 -1
    outer loop
      vertex 71.9444 26.6685 0
      vertex 58 16.25 0
      vertex 71.7929 26.7929 0
    endloop
  endfacet
  facet normal -0 0 -1
    outer loop
      vertex 71.5761 27.1173 0
      vertex 58 16.25 0
      vertex 71.5192 27.3049 0
    endloop
  endfacet
  facet normal -0 0 -1
    outer loop
      vertex 71.6685 26.9444 0
      vertex 58 16.25 0
      vertex 71.5761 27.1173 0
    endloop
  endfacet
  facet normal -0 0 -1
    outer loop
      vertex 71.7929 26.7929 0
      vertex 58 16.25 0
      vertex 71.6685 26.9444 0
    endloop
  endfacet
  facet normal 0 0 -1
    outer loop
      vertex 85 0 0
      vertex 53 11.25 0
      vertex 58 11.25 0
    endloop
  endfacet
  facet normal 0 0 -1
    outer loop
      vertex 31 16.25 0
      vertex 53 16.25 0
      vertex 53 11.25 0
    endloop
  endfacet
  facet normal 0 0 -1
    outer loop
      vertex 53 16.25 0
      vertex 31 16.25 0
      vertex 53 38.75 0
    endloop
  endfacet
  facet normal 0 0 -1
    outer loop
      vertex 53 38.75 0
      vertex 31 38.75 0
      vertex 53 43.75 0
    endloop
  endfacet
  facet normal 0 0 -1
    outer loop
      vertex 31 43.75 0
      vertex 53 43.75 0
      vertex 31 38.75 0
    endloop
  endfacet
  facet normal 0 0 -1
    outer loop
      vertex 53 43.75 0
      vertex 43 53.5 0
      vertex 50 55 0
    endloop
  endfacet
  facet normal -0 0 -1
    outer loop
      vertex 53 38.75 0
      vertex 31 16.25 0
      vertex 31 38.75 0
    endloop
  endfacet
  facet normal 0 0 -1
    outer loop
      vertex 31 16.25 0
      vertex 53 11.25 0
      vertex 31 11.25 0
    endloop
  endfacet
  facet normal 0 0 -1
    outer loop
      vertex 0 0 0
      vertex 53 11.25 0
      vertex 85 0 0
    endloop
  endfacet
  facet normal -0 0 -1
    outer loop
      vertex 53 11.25 0
      vertex 0 0 0
      vertex 31 11.25 0
    endloop
  endfacet
  facet normal 0 0 -1
    outer loop
      vertex 12.5 26.5 0
      vertex 26 16.25 0
      vertex 26 11.25 0
    endloop
  endfacet
  facet normal 0 -0 -1
    outer loop
      vertex 13.5 27.5 0
      vertex 26 16.25 0
      vertex 13.4808 27.3049 0
    endloop
  endfacet
  facet normal 0 0 -1
    outer loop
      vertex 13.4808 27.6951 0
      vertex 26 38.75 0
      vertex 13.5 27.5 0
    endloop
  endfacet
  facet normal 0 0 -1
    outer loop
      vertex 26 16.25 0
      vertex 13.5 27.5 0
      vertex 26 38.75 0
    endloop
  endfacet
  facet normal 0 0 -1
    outer loop
      vertex 26 16.25 0
      vertex 13.4239 27.1173 0
      vertex 13.4808 27.3049 0
    endloop
  endfacet
  facet normal 0 0 -1
    outer loop
      vertex 26 16.25 0
      vertex 13.3315 26.9444 0
      vertex 13.4239 27.1173 0
    endloop
  endfacet
  facet normal 0 0 -1
    outer loop
      vertex 26 16.25 0
      vertex 13.2071 26.7929 0
      vertex 13.3315 26.9444 0
    endloop
  endfacet
  facet normal 0 0 -1
    outer loop
      vertex 26 16.25 0
      vertex 13.0556 26.6685 0
      vertex 13.2071 26.7929 0
    endloop
  endfacet
  facet normal 0 0 -1
    outer loop
      vertex 26 16.25 0
      vertex 12.8827 26.5761 0
      vertex 13.0556 26.6685 0
    endloop
  endfacet
  facet normal 0 0 -1
    outer loop
      vertex 26 16.25 0
      vertex 12.6951 26.5192 0
      vertex 12.8827 26.5761 0
    endloop
  endfacet
  facet normal 0 0 -1
    outer loop
      vertex 26 16.25 0
      vertex 12.5 26.5 0
      vertex 12.6951 26.5192 0
    endloop
  endfacet
  facet normal 0 0 -1
    outer loop
      vertex 0 17 0
      vertex 12.5 26.5 0
      vertex 26 11.25 0
    endloop
  endfacet
  facet normal -0 0 -1
    outer loop
      vertex 12.5 26.5 0
      vertex 0 17 0
      vertex 12.3049 26.5192 0
    endloop
  endfacet
  facet normal -0 0 -1
    outer loop
      vertex 12.3049 26.5192 0
      vertex 0 17 0
      vertex 12.1173 26.5761 0
    endloop
  endfacet
  facet normal -0 0 -1
    outer loop
      vertex 12.1173 26.5761 0
      vertex 0 17 0
      vertex 11.9444 26.6685 0
    endloop
  endfacet
  facet normal -0 0 -1
    outer loop
      vertex 11.5761 27.1173 0
      vertex 0 17 0
      vertex 11.5192 27.3049 0
    endloop
  endfacet
  facet normal -0 0 -1
    outer loop
      vertex 11.6685 26.9444 0
      vertex 0 17 0
      vertex 11.5761 27.1173 0
    endloop
  endfacet
  facet normal -0 0 -1
    outer loop
      vertex 11.7929 26.7929 0
      vertex 0 17 0
      vertex 11.6685 26.9444 0
    endloop
  endfacet
  facet normal -0 0 -1
    outer loop
      vertex 11.9444 26.6685 0
      vertex 0 17 0
      vertex 11.7929 26.7929 0
    endloop
  endfacet
  facet normal 0 0 -1
    outer loop
      vertex 0 17 0
      vertex 26 11.25 0
      vertex 0 0 0
    endloop
  endfacet
  facet normal -0 0 -1
    outer loop
      vertex 31 11.25 0
      vertex 0 0 0
      vertex 26 11.25 0
    endloop
  endfacet
  facet normal 0 0 -1
    outer loop
      vertex 73.4808 27.6951 0
      vertex 85 58 0
      vertex 73.5 27.5 0
    endloop
  endfacet
  facet normal 0 0 -1
    outer loop
      vertex 73.4239 27.8827 0
      vertex 85 58 0
      vertex 73.4808 27.6951 0
    endloop
  endfacet
  facet normal 0 0 -1
    outer loop
      vertex 73.3315 28.0556 0
      vertex 85 58 0
      vertex 73.4239 27.8827 0
    endloop
  endfacet
  facet normal 0 0 -1
    outer loop
      vertex 73.2071 28.2071 0
      vertex 85 58 0
      vertex 73.3315 28.0556 0
    endloop
  endfacet
  facet normal 0 0 -1
    outer loop
      vertex 73.0556 28.3315 0
      vertex 85 58 0
      vertex 73.2071 28.2071 0
    endloop
  endfacet
  facet normal 0 0 -1
    outer loop
      vertex 72.8827 28.4239 0
      vertex 85 58 0
      vertex 73.0556 28.3315 0
    endloop
  endfacet
  facet normal 0 0 -1
    outer loop
      vertex 72.6951 28.4808 0
      vertex 85 58 0
      vertex 72.8827 28.4239 0
    endloop
  endfacet
  facet normal 0 0 -1
    outer loop
      vertex 58 43.75 0
      vertex 72.6951 28.4808 0
      vertex 72.5 28.5 0
    endloop
  endfacet
  facet normal 0 0 -1
    outer loop
      vertex 58 43.75 0
      vertex 72.5 28.5 0
      vertex 72.3049 28.4808 0
    endloop
  endfacet
  facet normal 0 0 -1
    outer loop
      vertex 58 38.75 0
      vertex 72.3049 28.4808 0
      vertex 72.1173 28.4239 0
    endloop
  endfacet
  facet normal 0 0 -1
    outer loop
      vertex 58 38.75 0
      vertex 72.1173 28.4239 0
      vertex 71.9444 28.3315 0
    endloop
  endfacet
  facet normal 0 0 -1
    outer loop
      vertex 58 38.75 0
      vertex 71.9444 28.3315 0
      vertex 71.7929 28.2071 0
    endloop
  endfacet
  facet normal 0 0 -1
    outer loop
      vertex 58 38.75 0
      vertex 71.7929 28.2071 0
      vertex 71.6685 28.0556 0
    endloop
  endfacet
  facet normal 0 0 -1
    outer loop
      vertex 58 38.75 0
      vertex 71.6685 28.0556 0
      vertex 71.5761 27.8827 0
    endloop
  endfacet
  facet normal -0 0 -1
    outer loop
      vertex 71.5192 27.3049 0
      vertex 58 16.25 0
      vertex 71.5 27.5 0
    endloop
  endfacet
  facet normal 0 0 -1
    outer loop
      vertex 58 38.75 0
      vertex 71.5 27.5 0
      vertex 58 16.25 0
    endloop
  endfacet
  facet normal 0 0 -1
    outer loop
      vertex 71.5 27.5 0
      vertex 58 38.75 0
      vertex 71.5192 27.6951 0
    endloop
  endfacet
  facet normal 0 0 -1
    outer loop
      vertex 71.5192 27.6951 0
      vertex 58 38.75 0
      vertex 71.5761 27.8827 0
    endloop
  endfacet
  facet normal 0 0 -1
    outer loop
      vertex 72.3049 28.4808 0
      vertex 58 38.75 0
      vertex 58 43.75 0
    endloop
  endfacet
  facet normal 0 0 -1
    outer loop
      vertex 72.6951 28.4808 0
      vertex 58 43.75 0
      vertex 85 58 0
    endloop
  endfacet
  facet normal 0 0 -1
    outer loop
      vertex 50 55 0
      vertex 58 43.75 0
      vertex 53 43.75 0
    endloop
  endfacet
  facet normal 0 0 -1
    outer loop
      vertex 50 58 0
      vertex 58 43.75 0
      vertex 50 55 0
    endloop
  endfacet
  facet normal 0 0 -1
    outer loop
      vertex 58 43.75 0
      vertex 50 58 0
      vertex 85 58 0
    endloop
  endfacet
  facet normal -0 0 -1
    outer loop
      vertex 50 55 0
      vertex 43 53.5 0
      vertex 43 55 0
    endloop
  endfacet
  facet normal 0 0 -1
    outer loop
      vertex 53 43.75 0
      vertex 31 43.75 0
      vertex 43 53.5 0
    endloop
  endfacet
  facet normal -0 0 -1
    outer loop
      vertex 43 53.5 0
      vertex 31 43.75 0
      vertex 35 53.5 0
    endloop
  endfacet
  facet normal 0 0 -1
    outer loop
      vertex 26 43.75 0
      vertex 35 53.5 0
      vertex 31 43.75 0
    endloop
  endfacet
  facet normal -0 0 -1
    outer loop
      vertex 35 53.5 0
      vertex 26 43.75 0
      vertex 35 55 0
    endloop
  endfacet
  facet normal 0 0 -1
    outer loop
      vertex 13.4239 27.8827 0
      vertex 26 38.75 0
      vertex 13.4808 27.6951 0
    endloop
  endfacet
  facet normal 0 0 -1
    outer loop
      vertex 13.3315 28.0556 0
      vertex 26 38.75 0
      vertex 13.4239 27.8827 0
    endloop
  endfacet
  facet normal 0 0 -1
    outer loop
      vertex 13.2071 28.2071 0
      vertex 26 38.75 0
      vertex 13.3315 28.0556 0
    endloop
  endfacet
  facet normal 0 0 -1
    outer loop
      vertex 13.0556 28.3315 0
      vertex 26 38.75 0
      vertex 13.2071 28.2071 0
    endloop
  endfacet
  facet normal 0 0 -1
    outer loop
      vertex 12.8827 28.4239 0
      vertex 26 38.75 0
      vertex 13.0556 28.3315 0
    endloop
  endfacet
  facet normal 0 0 -1
    outer loop
      vertex 12.6951 28.4808 0
      vertex 26 38.75 0
      vertex 12.8827 28.4239 0
    endloop
  endfacet
  facet normal 0 0 -1
    outer loop
      vertex 12.5 28.5 0
      vertex 26 38.75 0
      vertex 12.6951 28.4808 0
    endloop
  endfacet
  facet normal -0 0 -1
    outer loop
      vertex 26 38.75 0
      vertex 12.5 28.5 0
      vertex 26 43.75 0
    endloop
  endfacet
  facet normal 0 0 -1
    outer loop
      vertex 26 43.75 0
      vertex 12.5 28.5 0
      vertex 0 38 0
    endloop
  endfacet
  facet normal 0 0 -1
    outer loop
      vertex 0 38 0
      vertex 12.5 28.5 0
      vertex 12.3049 28.4808 0
    endloop
  endfacet
  facet normal 0 0 -1
    outer loop
      vertex 0 38 0
      vertex 12.3049 28.4808 0
      vertex 12.1173 28.4239 0
    endloop
  endfacet
  facet normal 0 0 -1
    outer loop
      vertex 0 38 0
      vertex 12.1173 28.4239 0
      vertex 11.9444 28.3315 0
    endloop
  endfacet
  facet normal 0 0 -1
    outer loop
      vertex 0 38 0
      vertex 11.9444 28.3315 0
      vertex 11.7929 28.2071 0
    endloop
  endfacet
  facet normal -0 0 -1
    outer loop
      vertex 11.5192 27.3049 0
      vertex 0 17 0
      vertex 11.5 27.5 0
    endloop
  endfacet
  facet normal 0 0 -1
    outer loop
      vertex 0 38 0
      vertex 11.5 27.5 0
      vertex 0 17 0
    endloop
  endfacet
  facet normal 0 0 -1
    outer loop
      vertex 11.5 27.5 0
      vertex 0 38 0
      vertex 11.5192 27.6951 0
    endloop
  endfacet
  facet normal 0 0 -1
    outer loop
      vertex 11.5192 27.6951 0
      vertex 0 38 0
      vertex 11.5761 27.8827 0
    endloop
  endfacet
  facet normal 0 0 -1
    outer loop
      vertex 11.5761 27.8827 0
      vertex 0 38 0
      vertex 11.6685 28.0556 0
    endloop
  endfacet
  facet normal 0 0 -1
    outer loop
      vertex 11.6685 28.0556 0
      vertex 0 38 0
      vertex 11.7929 28.2071 0
    endloop
  endfacet
  facet normal -0 0 -1
    outer loop
      vertex 26 43.75 0
      vertex 0 38 0
      vertex 0 55 0
    endloop
  endfacet
  facet normal 0 0 -1
    outer loop
      vertex 26 43.75 0
      vertex 0 55 0
      vertex 35 55 0
    endloop
  endfacet
  facet normal 0 -1 0
    outer loop
      vertex 0 0 0
      vertex 85 0 1.25
      vertex 0 0 1.25
    endloop
  endfacet
  facet normal 0 -1 -0
    outer loop
      vertex 85 0 1.25
      vertex 0 0 0
      vertex 85 0 0
    endloop
  endfacet
  facet normal -1 0 0
    outer loop
      vertex 10 25 1.25
      vertex 10 30 5.7
      vertex 10 30 1.25
    endloop
  endfacet
  facet normal -1 -0 0
    outer loop
      vertex 10 30 5.7
      vertex 10 25 1.25
      vertex 10 25 5.7
    endloop
  endfacet
  facet normal 0 0 1
    outer loop
      vertex 15 30 5.7
      vertex 13.5 27.5 5.7
      vertex 15 25 5.7
    endloop
  endfacet
  facet normal 0 0 1
    outer loop
      vertex 15 30 5.7
      vertex 13.4808 27.6951 5.7
      vertex 13.5 27.5 5.7
    endloop
  endfacet
  facet normal 0 0 1
    outer loop
      vertex 15 30 5.7
      vertex 13.4239 27.8827 5.7
      vertex 13.4808 27.6951 5.7
    endloop
  endfacet
  facet normal 0 0 1
    outer loop
      vertex 15 30 5.7
      vertex 13.3315 28.0556 5.7
      vertex 13.4239 27.8827 5.7
    endloop
  endfacet
  facet normal 0 0 1
    outer loop
      vertex 15 30 5.7
      vertex 13.2071 28.2071 5.7
      vertex 13.3315 28.0556 5.7
    endloop
  endfacet
  facet normal 0 0 1
    outer loop
      vertex 15 30 5.7
      vertex 13.0556 28.3315 5.7
      vertex 13.2071 28.2071 5.7
    endloop
  endfacet
  facet normal 0 0 1
    outer loop
      vertex 15 30 5.7
      vertex 12.8827 28.4239 5.7
      vertex 13.0556 28.3315 5.7
    endloop
  endfacet
  facet normal 0 0 1
    outer loop
      vertex 15 30 5.7
      vertex 12.6951 28.4808 5.7
      vertex 12.8827 28.4239 5.7
    endloop
  endfacet
  facet normal 0 0 1
    outer loop
      vertex 15 30 5.7
      vertex 12.5 28.5 5.7
      vertex 12.6951 28.4808 5.7
    endloop
  endfacet
  facet normal -0 0 1
    outer loop
      vertex 10 30 5.7
      vertex 12.5 28.5 5.7
      vertex 15 30 5.7
    endloop
  endfacet
  facet normal 0 0 1
    outer loop
      vertex 12.5 28.5 5.7
      vertex 10 30 5.7
      vertex 12.3049 28.4808 5.7
    endloop
  endfacet
  facet normal 0 0 1
    outer loop
      vertex 12.3049 28.4808 5.7
      vertex 10 30 5.7
      vertex 12.1173 28.4239 5.7
    endloop
  endfacet
  facet normal 0 0 1
    outer loop
      vertex 11.5192 27.6951 5.7
      vertex 10 30 5.7
      vertex 11.5 27.5 5.7
    endloop
  endfacet
  facet normal 0 0 1
    outer loop
      vertex 11.5761 27.8827 5.7
      vertex 10 30 5.7
      vertex 11.5192 27.6951 5.7
    endloop
  endfacet
  facet normal 0 0 1
    outer loop
      vertex 11.6685 28.0556 5.7
      vertex 10 30 5.7
      vertex 11.5761 27.8827 5.7
    endloop
  endfacet
  facet normal 0 0 1
    outer loop
      vertex 11.7929 28.2071 5.7
      vertex 10 30 5.7
      vertex 11.6685 28.0556 5.7
    endloop
  endfacet
  facet normal 0 0 1
    outer loop
      vertex 11.9444 28.3315 5.7
      vertex 10 30 5.7
      vertex 11.7929 28.2071 5.7
    endloop
  endfacet
  facet normal 0 0 1
    outer loop
      vertex 12.1173 28.4239 5.7
      vertex 10 30 5.7
      vertex 11.9444 28.3315 5.7
    endloop
  endfacet
  facet normal -0 0 1
    outer loop
      vertex 13.4808 27.3049 5.7
      vertex 15 25 5.7
      vertex 13.5 27.5 5.7
    endloop
  endfacet
  facet normal -0 0 1
    outer loop
      vertex 13.4239 27.1173 5.7
      vertex 15 25 5.7
      vertex 13.4808 27.3049 5.7
    endloop
  endfacet
  facet normal -0 0 1
    outer loop
      vertex 13.3315 26.9444 5.7
      vertex 15 25 5.7
      vertex 13.4239 27.1173 5.7
    endloop
  endfacet
  facet normal -0 0 1
    outer loop
      vertex 13.2071 26.7929 5.7
      vertex 15 25 5.7
      vertex 13.3315 26.9444 5.7
    endloop
  endfacet
  facet normal -0 0 1
    outer loop
      vertex 13.0556 26.6685 5.7
      vertex 15 25 5.7
      vertex 13.2071 26.7929 5.7
    endloop
  endfacet
  facet normal -0 0 1
    outer loop
      vertex 12.8827 26.5761 5.7
      vertex 15 25 5.7
      vertex 13.0556 26.6685 5.7
    endloop
  endfacet
  facet normal -0 0 1
    outer loop
      vertex 12.6951 26.5192 5.7
      vertex 15 25 5.7
      vertex 12.8827 26.5761 5.7
    endloop
  endfacet
  facet normal -0 0 1
    outer loop
      vertex 12.5 26.5 5.7
      vertex 15 25 5.7
      vertex 12.6951 26.5192 5.7
    endloop
  endfacet
  facet normal 0 0 1
    outer loop
      vertex 10 25 5.7
      vertex 12.5 26.5 5.7
      vertex 12.3049 26.5192 5.7
    endloop
  endfacet
  facet normal 0 0 1
    outer loop
      vertex 10 25 5.7
      vertex 12.3049 26.5192 5.7
      vertex 12.1173 26.5761 5.7
    endloop
  endfacet
  facet normal 0 0 1
    outer loop
      vertex 10 25 5.7
      vertex 12.1173 26.5761 5.7
      vertex 11.9444 26.6685 5.7
    endloop
  endfacet
  facet normal 0 0 1
    outer loop
      vertex 10 25 5.7
      vertex 11.5 27.5 5.7
      vertex 10 30 5.7
    endloop
  endfacet
  facet normal 0 0 1
    outer loop
      vertex 11.5 27.5 5.7
      vertex 10 25 5.7
      vertex 11.5192 27.3049 5.7
    endloop
  endfacet
  facet normal 0 0 1
    outer loop
      vertex 11.5192 27.3049 5.7
      vertex 10 25 5.7
      vertex 11.5761 27.1173 5.7
    endloop
  endfacet
  facet normal 0 0 1
    outer loop
      vertex 12.5 26.5 5.7
      vertex 10 25 5.7
      vertex 15 25 5.7
    endloop
  endfacet
  facet normal 0 0 1
    outer loop
      vertex 11.7929 26.7929 5.7
      vertex 10 25 5.7
      vertex 11.9444 26.6685 5.7
    endloop
  endfacet
  facet normal 0 0 1
    outer loop
      vertex 11.6685 26.9444 5.7
      vertex 10 25 5.7
      vertex 11.7929 26.7929 5.7
    endloop
  endfacet
  facet normal 0 0 1
    outer loop
      vertex 11.5761 27.1173 5.7
      vertex 10 25 5.7
      vertex 11.6685 26.9444 5.7
    endloop
  endfacet
  facet normal 1 -0 0
    outer loop
      vertex 15 25 5.7
      vertex 15 30 1.25
      vertex 15 30 5.7
    endloop
  endfacet
  facet normal 1 0 0
    outer loop
      vertex 15 30 1.25
      vertex 15 25 5.7
      vertex 15 25 1.25
    endloop
  endfacet
  facet normal 0 1 -0
    outer loop
      vertex 15 30 1.25
      vertex 10 30 5.7
      vertex 15 30 5.7
    endloop
  endfacet
  facet normal 0 1 0
    outer loop
      vertex 10 30 5.7
      vertex 15 30 1.25
      vertex 10 30 1.25
    endloop
  endfacet
  facet normal 0 -1 0
    outer loop
      vertex 10 25 1.25
      vertex 15 25 5.7
      vertex 10 25 5.7
    endloop
  endfacet
  facet normal 0 -1 -0
    outer loop
      vertex 15 25 5.7
      vertex 10 25 1.25
      vertex 15 25 1.25
    endloop
  endfacet
  facet normal -1 0 0
    outer loop
      vertex 70 25 1.25
      vertex 70 30 5.7
      vertex 70 30 1.25
    endloop
  endfacet
  facet normal -1 -0 0
    outer loop
      vertex 70 30 5.7
      vertex 70 25 1.25
      vertex 70 25 5.7
    endloop
  endfacet
  facet normal 0 0 1
    outer loop
      vertex 75 30 5.7
      vertex 73.5 27.5 5.7
      vertex 75 25 5.7
    endloop
  endfacet
  facet normal 0 0 1
    outer loop
      vertex 75 30 5.7
      vertex 73.4808 27.6951 5.7
      vertex 73.5 27.5 5.7
    endloop
  endfacet
  facet normal 0 0 1
    outer loop
      vertex 75 30 5.7
      vertex 73.4239 27.8827 5.7
      vertex 73.4808 27.6951 5.7
    endloop
  endfacet
  facet normal 0 0 1
    outer loop
      vertex 75 30 5.7
      vertex 73.3315 28.0556 5.7
      vertex 73.4239 27.8827 5.7
    endloop
  endfacet
  facet normal 0 0 1
    outer loop
      vertex 75 30 5.7
      vertex 73.2071 28.2071 5.7
      vertex 73.3315 28.0556 5.7
    endloop
  endfacet
  facet normal 0 0 1
    outer loop
      vertex 75 30 5.7
      vertex 73.0556 28.3315 5.7
      vertex 73.2071 28.2071 5.7
    endloop
  endfacet
  facet normal 0 0 1
    outer loop
      vertex 75 30 5.7
      vertex 72.8827 28.4239 5.7
      vertex 73.0556 28.3315 5.7
    endloop
  endfacet
  facet normal 0 0 1
    outer loop
      vertex 75 30 5.7
      vertex 72.6951 28.4808 5.7
      vertex 72.8827 28.4239 5.7
    endloop
  endfacet
  facet normal 0 0 1
    outer loop
      vertex 75 30 5.7
      vertex 72.5 28.5 5.7
      vertex 72.6951 28.4808 5.7
    endloop
  endfacet
  facet normal -0 0 1
    outer loop
      vertex 70 30 5.7
      vertex 72.5 28.5 5.7
      vertex 75 30 5.7
    endloop
  endfacet
  facet normal 0 0 1
    outer loop
      vertex 72.5 28.5 5.7
      vertex 70 30 5.7
      vertex 72.3049 28.4808 5.7
    endloop
  endfacet
  facet normal 0 0 1
    outer loop
      vertex 72.3049 28.4808 5.7
      vertex 70 30 5.7
      vertex 72.1173 28.4239 5.7
    endloop
  endfacet
  facet normal 0 0 1
    outer loop
      vertex 71.5192 27.6951 5.7
      vertex 70 30 5.7
      vertex 71.5 27.5 5.7
    endloop
  endfacet
  facet normal 0 0 1
    outer loop
      vertex 71.5761 27.8827 5.7
      vertex 70 30 5.7
      vertex 71.5192 27.6951 5.7
    endloop
  endfacet
  facet normal 0 0 1
    outer loop
      vertex 71.6685 28.0556 5.7
      vertex 70 30 5.7
      vertex 71.5761 27.8827 5.7
    endloop
  endfacet
  facet normal 0 0 1
    outer loop
      vertex 71.7929 28.2071 5.7
      vertex 70 30 5.7
      vertex 71.6685 28.0556 5.7
    endloop
  endfacet
  facet normal 0 0 1
    outer loop
      vertex 71.9444 28.3315 5.7
      vertex 70 30 5.7
      vertex 71.7929 28.2071 5.7
    endloop
  endfacet
  facet normal 0 0 1
    outer loop
      vertex 72.1173 28.4239 5.7
      vertex 70 30 5.7
      vertex 71.9444 28.3315 5.7
    endloop
  endfacet
  facet normal -0 0 1
    outer loop
      vertex 73.4808 27.3049 5.7
      vertex 75 25 5.7
      vertex 73.5 27.5 5.7
    endloop
  endfacet
  facet normal -0 0 1
    outer loop
      vertex 73.4239 27.1173 5.7
      vertex 75 25 5.7
      vertex 73.4808 27.3049 5.7
    endloop
  endfacet
  facet normal -0 0 1
    outer loop
      vertex 73.3315 26.9444 5.7
      vertex 75 25 5.7
      vertex 73.4239 27.1173 5.7
    endloop
  endfacet
  facet normal -0 0 1
    outer loop
      vertex 73.2071 26.7929 5.7
      vertex 75 25 5.7
      vertex 73.3315 26.9444 5.7
    endloop
  endfacet
  facet normal -0 0 1
    outer loop
      vertex 73.0556 26.6685 5.7
      vertex 75 25 5.7
      vertex 73.2071 26.7929 5.7
    endloop
  endfacet
  facet normal -0 0 1
    outer loop
      vertex 72.8827 26.5761 5.7
      vertex 75 25 5.7
      vertex 73.0556 26.6685 5.7
    endloop
  endfacet
  facet normal -0 0 1
    outer loop
      vertex 72.6951 26.5192 5.7
      vertex 75 25 5.7
      vertex 72.8827 26.5761 5.7
    endloop
  endfacet
  facet normal -0 0 1
    outer loop
      vertex 72.5 26.5 5.7
      vertex 75 25 5.7
      vertex 72.6951 26.5192 5.7
    endloop
  endfacet
  facet normal 0 0 1
    outer loop
      vertex 70 25 5.7
      vertex 72.5 26.5 5.7
      vertex 72.3049 26.5192 5.7
    endloop
  endfacet
  facet normal 0 0 1
    outer loop
      vertex 70 25 5.7
      vertex 72.3049 26.5192 5.7
      vertex 72.1173 26.5761 5.7
    endloop
  endfacet
  facet normal 0 0 1
    outer loop
      vertex 70 25 5.7
      vertex 72.1173 26.5761 5.7
      vertex 71.9444 26.6685 5.7
    endloop
  endfacet
  facet normal 0 0 1
    outer loop
      vertex 70 25 5.7
      vertex 71.5 27.5 5.7
      vertex 70 30 5.7
    endloop
  endfacet
  facet normal 0 0 1
    outer loop
      vertex 71.5 27.5 5.7
      vertex 70 25 5.7
      vertex 71.5192 27.3049 5.7
    endloop
  endfacet
  facet normal 0 0 1
    outer loop
      vertex 71.5192 27.3049 5.7
      vertex 70 25 5.7
      vertex 71.5761 27.1173 5.7
    endloop
  endfacet
  facet normal 0 0 1
    outer loop
      vertex 72.5 26.5 5.7
      vertex 70 25 5.7
      vertex 75 25 5.7
    endloop
  endfacet
  facet normal 0 0 1
    outer loop
      vertex 71.7929 26.7929 5.7
      vertex 70 25 5.7
      vertex 71.9444 26.6685 5.7
    endloop
  endfacet
  facet normal 0 0 1
    outer loop
      vertex 71.6685 26.9444 5.7
      vertex 70 25 5.7
      vertex 71.7929 26.7929 5.7
    endloop
  endfacet
  facet normal 0 0 1
    outer loop
      vertex 71.5761 27.1173 5.7
      vertex 70 25 5.7
      vertex 71.6685 26.9444 5.7
    endloop
  endfacet
  facet normal 1 -0 0
    outer loop
      vertex 75 25 5.7
      vertex 75 30 1.25
      vertex 75 30 5.7
    endloop
  endfacet
  facet normal 1 0 0
    outer loop
      vertex 75 30 1.25
      vertex 75 25 5.7
      vertex 75 25 1.25
    endloop
  endfacet
  facet normal 0 1 -0
    outer loop
      vertex 75 30 1.25
      vertex 70 30 5.7
      vertex 75 30 5.7
    endloop
  endfacet
  facet normal 0 1 0
    outer loop
      vertex 70 30 5.7
      vertex 75 30 1.25
      vertex 70 30 1.25
    endloop
  endfacet
  facet normal 0 -1 0
    outer loop
      vertex 70 25 1.25
      vertex 75 25 5.7
      vertex 70 25 5.7
    endloop
  endfacet
  facet normal 0 -1 -0
    outer loop
      vertex 75 25 5.7
      vertex 70 25 1.25
      vertex 75 25 1.25
    endloop
  endfacet
  facet normal -0.995193 -0.097938 0
    outer loop
      vertex 13.5 27.5 0
      vertex 13.4808 27.6951 5.7
      vertex 13.4808 27.6951 0
    endloop
  endfacet
  facet normal -0.995193 -0.097938 0
    outer loop
      vertex 13.4808 27.6951 5.7
      vertex 13.5 27.5 0
      vertex 13.5 27.5 5.7
    endloop
  endfacet
  facet normal 0.097938 -0.995193 0
    outer loop
      vertex 12.3049 28.4808 0
      vertex 12.5 28.5 5.7
      vertex 12.3049 28.4808 5.7
    endloop
  endfacet
  facet normal 0.097938 -0.995193 0
    outer loop
      vertex 12.5 28.5 5.7
      vertex 12.3049 28.4808 0
      vertex 12.5 28.5 0
    endloop
  endfacet
  facet normal -0.634598 -0.772842 0
    outer loop
      vertex 13.0556 28.3315 0
      vertex 13.2071 28.2071 5.7
      vertex 13.0556 28.3315 5.7
    endloop
  endfacet
  facet normal -0.634598 -0.772842 -0
    outer loop
      vertex 13.2071 28.2071 5.7
      vertex 13.0556 28.3315 0
      vertex 13.2071 28.2071 0
    endloop
  endfacet
  facet normal 0.772842 -0.634598 0
    outer loop
      vertex 11.6685 28.0556 5.7
      vertex 11.7929 28.2071 0
      vertex 11.7929 28.2071 5.7
    endloop
  endfacet
  facet normal 0.772842 -0.634598 0
    outer loop
      vertex 11.7929 28.2071 0
      vertex 11.6685 28.0556 5.7
      vertex 11.6685 28.0556 0
    endloop
  endfacet
  facet normal 0.471329 -0.881957 0
    outer loop
      vertex 11.9444 28.3315 0
      vertex 12.1173 28.4239 5.7
      vertex 11.9444 28.3315 5.7
    endloop
  endfacet
  facet normal 0.471329 -0.881957 0
    outer loop
      vertex 12.1173 28.4239 5.7
      vertex 11.9444 28.3315 0
      vertex 12.1173 28.4239 0
    endloop
  endfacet
  facet normal -0.881957 -0.471329 0
    outer loop
      vertex 13.4239 27.8827 0
      vertex 13.3315 28.0556 5.7
      vertex 13.3315 28.0556 0
    endloop
  endfacet
  facet normal -0.881957 -0.471329 0
    outer loop
      vertex 13.3315 28.0556 5.7
      vertex 13.4239 27.8827 0
      vertex 13.4239 27.8827 5.7
    endloop
  endfacet
  facet normal -0.956951 -0.290248 0
    outer loop
      vertex 13.4808 27.6951 0
      vertex 13.4239 27.8827 5.7
      vertex 13.4239 27.8827 0
    endloop
  endfacet
  facet normal -0.956951 -0.290248 0
    outer loop
      vertex 13.4239 27.8827 5.7
      vertex 13.4808 27.6951 0
      vertex 13.4808 27.6951 5.7
    endloop
  endfacet
  facet normal -0.772842 -0.634598 0
    outer loop
      vertex 13.3315 28.0556 0
      vertex 13.2071 28.2071 5.7
      vertex 13.2071 28.2071 0
    endloop
  endfacet
  facet normal -0.772842 -0.634598 0
    outer loop
      vertex 13.2071 28.2071 5.7
      vertex 13.3315 28.0556 0
      vertex 13.3315 28.0556 5.7
    endloop
  endfacet
  facet normal -0.290248 -0.956951 0
    outer loop
      vertex 12.6951 28.4808 0
      vertex 12.8827 28.4239 5.7
      vertex 12.6951 28.4808 5.7
    endloop
  endfacet
  facet normal -0.290248 -0.956951 -0
    outer loop
      vertex 12.8827 28.4239 5.7
      vertex 12.6951 28.4808 0
      vertex 12.8827 28.4239 0
    endloop
  endfacet
  facet normal -0.097938 -0.995193 0
    outer loop
      vertex 12.5 28.5 0
      vertex 12.6951 28.4808 5.7
      vertex 12.5 28.5 5.7
    endloop
  endfacet
  facet normal -0.097938 -0.995193 -0
    outer loop
      vertex 12.6951 28.4808 5.7
      vertex 12.5 28.5 0
      vertex 12.6951 28.4808 0
    endloop
  endfacet
  facet normal -0.471329 -0.881957 0
    outer loop
      vertex 12.8827 28.4239 0
      vertex 13.0556 28.3315 5.7
      vertex 12.8827 28.4239 5.7
    endloop
  endfacet
  facet normal -0.471329 -0.881957 -0
    outer loop
      vertex 13.0556 28.3315 5.7
      vertex 12.8827 28.4239 0
      vertex 13.0556 28.3315 0
    endloop
  endfacet
  facet normal 0.956951 -0.290248 0
    outer loop
      vertex 11.5192 27.6951 5.7
      vertex 11.5761 27.8827 0
      vertex 11.5761 27.8827 5.7
    endloop
  endfacet
  facet normal 0.956951 -0.290248 0
    outer loop
      vertex 11.5761 27.8827 0
      vertex 11.5192 27.6951 5.7
      vertex 11.5192 27.6951 0
    endloop
  endfacet
  facet normal 0.881957 -0.471329 0
    outer loop
      vertex 11.5761 27.8827 5.7
      vertex 11.6685 28.0556 0
      vertex 11.6685 28.0556 5.7
    endloop
  endfacet
  facet normal 0.881957 -0.471329 0
    outer loop
      vertex 11.6685 28.0556 0
      vertex 11.5761 27.8827 5.7
      vertex 11.5761 27.8827 0
    endloop
  endfacet
  facet normal 0.995193 -0.097938 0
    outer loop
      vertex 11.5 27.5 5.7
      vertex 11.5192 27.6951 0
      vertex 11.5192 27.6951 5.7
    endloop
  endfacet
  facet normal 0.995193 -0.097938 0
    outer loop
      vertex 11.5192 27.6951 0
      vertex 11.5 27.5 5.7
      vertex 11.5 27.5 0
    endloop
  endfacet
  facet normal 0.634598 -0.772842 0
    outer loop
      vertex 11.7929 28.2071 0
      vertex 11.9444 28.3315 5.7
      vertex 11.7929 28.2071 5.7
    endloop
  endfacet
  facet normal 0.634598 -0.772842 0
    outer loop
      vertex 11.9444 28.3315 5.7
      vertex 11.7929 28.2071 0
      vertex 11.9444 28.3315 0
    endloop
  endfacet
  facet normal 0.290248 -0.956951 0
    outer loop
      vertex 12.1173 28.4239 0
      vertex 12.3049 28.4808 5.7
      vertex 12.1173 28.4239 5.7
    endloop
  endfacet
  facet normal 0.290248 -0.956951 0
    outer loop
      vertex 12.3049 28.4808 5.7
      vertex 12.1173 28.4239 0
      vertex 12.3049 28.4808 0
    endloop
  endfacet
  facet normal -0.995193 0.097938 0
    outer loop
      vertex 13.4808 27.3049 0
      vertex 13.5 27.5 5.7
      vertex 13.5 27.5 0
    endloop
  endfacet
  facet normal -0.995193 0.097938 0
    outer loop
      vertex 13.5 27.5 5.7
      vertex 13.4808 27.3049 0
      vertex 13.4808 27.3049 5.7
    endloop
  endfacet
  facet normal -0.290248 0.956951 0
    outer loop
      vertex 12.8827 26.5761 0
      vertex 12.6951 26.5192 5.7
      vertex 12.8827 26.5761 5.7
    endloop
  endfacet
  facet normal -0.290248 0.956951 0
    outer loop
      vertex 12.6951 26.5192 5.7
      vertex 12.8827 26.5761 0
      vertex 12.6951 26.5192 0
    endloop
  endfacet
  facet normal -0.634598 0.772842 0
    outer loop
      vertex 13.2071 26.7929 0
      vertex 13.0556 26.6685 5.7
      vertex 13.2071 26.7929 5.7
    endloop
  endfacet
  facet normal -0.634598 0.772842 0
    outer loop
      vertex 13.0556 26.6685 5.7
      vertex 13.2071 26.7929 0
      vertex 13.0556 26.6685 0
    endloop
  endfacet
  facet normal 0.471329 0.881957 -0
    outer loop
      vertex 12.1173 26.5761 0
      vertex 11.9444 26.6685 5.7
      vertex 12.1173 26.5761 5.7
    endloop
  endfacet
  facet normal 0.471329 0.881957 0
    outer loop
      vertex 11.9444 26.6685 5.7
      vertex 12.1173 26.5761 0
      vertex 11.9444 26.6685 0
    endloop
  endfacet
  facet normal 0.097938 0.995193 -0
    outer loop
      vertex 12.5 26.5 0
      vertex 12.3049 26.5192 5.7
      vertex 12.5 26.5 5.7
    endloop
  endfacet
  facet normal 0.097938 0.995193 0
    outer loop
      vertex 12.3049 26.5192 5.7
      vertex 12.5 26.5 0
      vertex 12.3049 26.5192 0
    endloop
  endfacet
  facet normal 0.772842 0.634598 0
    outer loop
      vertex 11.7929 26.7929 5.7
      vertex 11.6685 26.9444 0
      vertex 11.6685 26.9444 5.7
    endloop
  endfacet
  facet normal 0.772842 0.634598 0
    outer loop
      vertex 11.6685 26.9444 0
      vertex 11.7929 26.7929 5.7
      vertex 11.7929 26.7929 0
    endloop
  endfacet
  facet normal 0.634598 0.772842 -0
    outer loop
      vertex 11.9444 26.6685 0
      vertex 11.7929 26.7929 5.7
      vertex 11.9444 26.6685 5.7
    endloop
  endfacet
  facet normal 0.634598 0.772842 0
    outer loop
      vertex 11.7929 26.7929 5.7
      vertex 11.9444 26.6685 0
      vertex 11.7929 26.7929 0
    endloop
  endfacet
  facet normal 0.956951 0.290248 0
    outer loop
      vertex 11.5761 27.1173 5.7
      vertex 11.5192 27.3049 0
      vertex 11.5192 27.3049 5.7
    endloop
  endfacet
  facet normal 0.956951 0.290248 0
    outer loop
      vertex 11.5192 27.3049 0
      vertex 11.5761 27.1173 5.7
      vertex 11.5761 27.1173 0
    endloop
  endfacet
  facet normal 0.995193 0.097938 0
    outer loop
      vertex 11.5192 27.3049 5.7
      vertex 11.5 27.5 0
      vertex 11.5 27.5 5.7
    endloop
  endfacet
  facet normal 0.995193 0.097938 0
    outer loop
      vertex 11.5 27.5 0
      vertex 11.5192 27.3049 5.7
      vertex 11.5192 27.3049 0
    endloop
  endfacet
  facet normal -0.471329 0.881957 0
    outer loop
      vertex 13.0556 26.6685 0
      vertex 12.8827 26.5761 5.7
      vertex 13.0556 26.6685 5.7
    endloop
  endfacet
  facet normal -0.471329 0.881957 0
    outer loop
      vertex 12.8827 26.5761 5.7
      vertex 13.0556 26.6685 0
      vertex 12.8827 26.5761 0
    endloop
  endfacet
  facet normal -0.772842 0.634598 0
    outer loop
      vertex 13.2071 26.7929 0
      vertex 13.3315 26.9444 5.7
      vertex 13.3315 26.9444 0
    endloop
  endfacet
  facet normal -0.772842 0.634598 0
    outer loop
      vertex 13.3315 26.9444 5.7
      vertex 13.2071 26.7929 0
      vertex 13.2071 26.7929 5.7
    endloop
  endfacet
  facet normal -0.956951 0.290248 0
    outer loop
      vertex 13.4239 27.1173 0
      vertex 13.4808 27.3049 5.7
      vertex 13.4808 27.3049 0
    endloop
  endfacet
  facet normal -0.956951 0.290248 0
    outer loop
      vertex 13.4808 27.3049 5.7
      vertex 13.4239 27.1173 0
      vertex 13.4239 27.1173 5.7
    endloop
  endfacet
  facet normal -0.881957 0.471329 0
    outer loop
      vertex 13.3315 26.9444 0
      vertex 13.4239 27.1173 5.7
      vertex 13.4239 27.1173 0
    endloop
  endfacet
  facet normal -0.881957 0.471329 0
    outer loop
      vertex 13.4239 27.1173 5.7
      vertex 13.3315 26.9444 0
      vertex 13.3315 26.9444 5.7
    endloop
  endfacet
  facet normal 0.290248 0.956951 -0
    outer loop
      vertex 12.3049 26.5192 0
      vertex 12.1173 26.5761 5.7
      vertex 12.3049 26.5192 5.7
    endloop
  endfacet
  facet normal 0.290248 0.956951 0
    outer loop
      vertex 12.1173 26.5761 5.7
      vertex 12.3049 26.5192 0
      vertex 12.1173 26.5761 0
    endloop
  endfacet
  facet normal -0.097938 0.995193 0
    outer loop
      vertex 12.6951 26.5192 0
      vertex 12.5 26.5 5.7
      vertex 12.6951 26.5192 5.7
    endloop
  endfacet
  facet normal -0.097938 0.995193 0
    outer loop
      vertex 12.5 26.5 5.7
      vertex 12.6951 26.5192 0
      vertex 12.5 26.5 0
    endloop
  endfacet
  facet normal 0.881957 0.471329 0
    outer loop
      vertex 11.6685 26.9444 5.7
      vertex 11.5761 27.1173 0
      vertex 11.5761 27.1173 5.7
    endloop
  endfacet
  facet normal 0.881957 0.471329 0
    outer loop
      vertex 11.5761 27.1173 0
      vertex 11.6685 26.9444 5.7
      vertex 11.6685 26.9444 0
    endloop
  endfacet
  facet normal -0.995193 -0.097938 0
    outer loop
      vertex 73.5 27.5 0
      vertex 73.4808 27.6951 5.7
      vertex 73.4808 27.6951 0
    endloop
  endfacet
  facet normal -0.995193 -0.097938 0
    outer loop
      vertex 73.4808 27.6951 5.7
      vertex 73.5 27.5 0
      vertex 73.5 27.5 5.7
    endloop
  endfacet
  facet normal 0.097938 -0.995193 0
    outer loop
      vertex 72.3049 28.4808 0
      vertex 72.5 28.5 5.7
      vertex 72.3049 28.4808 5.7
    endloop
  endfacet
  facet normal 0.097938 -0.995193 0
    outer loop
      vertex 72.5 28.5 5.7
      vertex 72.3049 28.4808 0
      vertex 72.5 28.5 0
    endloop
  endfacet
  facet normal -0.634598 -0.772842 0
    outer loop
      vertex 73.0556 28.3315 0
      vertex 73.2071 28.2071 5.7
      vertex 73.0556 28.3315 5.7
    endloop
  endfacet
  facet normal -0.634598 -0.772842 -0
    outer loop
      vertex 73.2071 28.2071 5.7
      vertex 73.0556 28.3315 0
      vertex 73.2071 28.2071 0
    endloop
  endfacet
  facet normal 0.772842 -0.634598 0
    outer loop
      vertex 71.6685 28.0556 5.7
      vertex 71.7929 28.2071 0
      vertex 71.7929 28.2071 5.7
    endloop
  endfacet
  facet normal 0.772842 -0.634598 0
    outer loop
      vertex 71.7929 28.2071 0
      vertex 71.6685 28.0556 5.7
      vertex 71.6685 28.0556 0
    endloop
  endfacet
  facet normal 0.471329 -0.881957 0
    outer loop
      vertex 71.9444 28.3315 0
      vertex 72.1173 28.4239 5.7
      vertex 71.9444 28.3315 5.7
    endloop
  endfacet
  facet normal 0.471329 -0.881957 0
    outer loop
      vertex 72.1173 28.4239 5.7
      vertex 71.9444 28.3315 0
      vertex 72.1173 28.4239 0
    endloop
  endfacet
  facet normal -0.881957 -0.471329 0
    outer loop
      vertex 73.4239 27.8827 0
      vertex 73.3315 28.0556 5.7
      vertex 73.3315 28.0556 0
    endloop
  endfacet
  facet normal -0.881957 -0.471329 0
    outer loop
      vertex 73.3315 28.0556 5.7
      vertex 73.4239 27.8827 0
      vertex 73.4239 27.8827 5.7
    endloop
  endfacet
  facet normal -0.956951 -0.290248 0
    outer loop
      vertex 73.4808 27.6951 0
      vertex 73.4239 27.8827 5.7
      vertex 73.4239 27.8827 0
    endloop
  endfacet
  facet normal -0.956951 -0.290248 0
    outer loop
      vertex 73.4239 27.8827 5.7
      vertex 73.4808 27.6951 0
      vertex 73.4808 27.6951 5.7
    endloop
  endfacet
  facet normal -0.772842 -0.634598 0
    outer loop
      vertex 73.3315 28.0556 0
      vertex 73.2071 28.2071 5.7
      vertex 73.2071 28.2071 0
    endloop
  endfacet
  facet normal -0.772842 -0.634598 0
    outer loop
      vertex 73.2071 28.2071 5.7
      vertex 73.3315 28.0556 0
      vertex 73.3315 28.0556 5.7
    endloop
  endfacet
  facet normal -0.290248 -0.956951 0
    outer loop
      vertex 72.6951 28.4808 0
      vertex 72.8827 28.4239 5.7
      vertex 72.6951 28.4808 5.7
    endloop
  endfacet
  facet normal -0.290248 -0.956951 -0
    outer loop
      vertex 72.8827 28.4239 5.7
      vertex 72.6951 28.4808 0
      vertex 72.8827 28.4239 0
    endloop
  endfacet
  facet normal -0.097938 -0.995193 0
    outer loop
      vertex 72.5 28.5 0
      vertex 72.6951 28.4808 5.7
      vertex 72.5 28.5 5.7
    endloop
  endfacet
  facet normal -0.097938 -0.995193 -0
    outer loop
      vertex 72.6951 28.4808 5.7
      vertex 72.5 28.5 0
      vertex 72.6951 28.4808 0
    endloop
  endfacet
  facet normal -0.471329 -0.881957 0
    outer loop
      vertex 72.8827 28.4239 0
      vertex 73.0556 28.3315 5.7
      vertex 72.8827 28.4239 5.7
    endloop
  endfacet
  facet normal -0.471329 -0.881957 -0
    outer loop
      vertex 73.0556 28.3315 5.7
      vertex 72.8827 28.4239 0
      vertex 73.0556 28.3315 0
    endloop
  endfacet
  facet normal 0.956951 -0.290248 0
    outer loop
      vertex 71.5192 27.6951 5.7
      vertex 71.5761 27.8827 0
      vertex 71.5761 27.8827 5.7
    endloop
  endfacet
  facet normal 0.956951 -0.290248 0
    outer loop
      vertex 71.5761 27.8827 0
      vertex 71.5192 27.6951 5.7
      vertex 71.5192 27.6951 0
    endloop
  endfacet
  facet normal 0.881957 -0.471329 0
    outer loop
      vertex 71.5761 27.8827 5.7
      vertex 71.6685 28.0556 0
      vertex 71.6685 28.0556 5.7
    endloop
  endfacet
  facet normal 0.881957 -0.471329 0
    outer loop
      vertex 71.6685 28.0556 0
      vertex 71.5761 27.8827 5.7
      vertex 71.5761 27.8827 0
    endloop
  endfacet
  facet normal 0.995193 -0.097938 0
    outer loop
      vertex 71.5 27.5 5.7
      vertex 71.5192 27.6951 0
      vertex 71.5192 27.6951 5.7
    endloop
  endfacet
  facet normal 0.995193 -0.097938 0
    outer loop
      vertex 71.5192 27.6951 0
      vertex 71.5 27.5 5.7
      vertex 71.5 27.5 0
    endloop
  endfacet
  facet normal 0.634598 -0.772842 0
    outer loop
      vertex 71.7929 28.2071 0
      vertex 71.9444 28.3315 5.7
      vertex 71.7929 28.2071 5.7
    endloop
  endfacet
  facet normal 0.634598 -0.772842 0
    outer loop
      vertex 71.9444 28.3315 5.7
      vertex 71.7929 28.2071 0
      vertex 71.9444 28.3315 0
    endloop
  endfacet
  facet normal 0.290248 -0.956951 0
    outer loop
      vertex 72.1173 28.4239 0
      vertex 72.3049 28.4808 5.7
      vertex 72.1173 28.4239 5.7
    endloop
  endfacet
  facet normal 0.290248 -0.956951 0
    outer loop
      vertex 72.3049 28.4808 5.7
      vertex 72.1173 28.4239 0
      vertex 72.3049 28.4808 0
    endloop
  endfacet
  facet normal -0.995193 0.097938 0
    outer loop
      vertex 73.4808 27.3049 0
      vertex 73.5 27.5 5.7
      vertex 73.5 27.5 0
    endloop
  endfacet
  facet normal -0.995193 0.097938 0
    outer loop
      vertex 73.5 27.5 5.7
      vertex 73.4808 27.3049 0
      vertex 73.4808 27.3049 5.7
    endloop
  endfacet
  facet normal -0.290248 0.956951 0
    outer loop
      vertex 72.8827 26.5761 0
      vertex 72.6951 26.5192 5.7
      vertex 72.8827 26.5761 5.7
    endloop
  endfacet
  facet normal -0.290248 0.956951 0
    outer loop
      vertex 72.6951 26.5192 5.7
      vertex 72.8827 26.5761 0
      vertex 72.6951 26.5192 0
    endloop
  endfacet
  facet normal -0.634598 0.772842 0
    outer loop
      vertex 73.2071 26.7929 0
      vertex 73.0556 26.6685 5.7
      vertex 73.2071 26.7929 5.7
    endloop
  endfacet
  facet normal -0.634598 0.772842 0
    outer loop
      vertex 73.0556 26.6685 5.7
      vertex 73.2071 26.7929 0
      vertex 73.0556 26.6685 0
    endloop
  endfacet
  facet normal 0.471329 0.881957 -0
    outer loop
      vertex 72.1173 26.5761 0
      vertex 71.9444 26.6685 5.7
      vertex 72.1173 26.5761 5.7
    endloop
  endfacet
  facet normal 0.471329 0.881957 0
    outer loop
      vertex 71.9444 26.6685 5.7
      vertex 72.1173 26.5761 0
      vertex 71.9444 26.6685 0
    endloop
  endfacet
  facet normal 0.097938 0.995193 -0
    outer loop
      vertex 72.5 26.5 0
      vertex 72.3049 26.5192 5.7
      vertex 72.5 26.5 5.7
    endloop
  endfacet
  facet normal 0.097938 0.995193 0
    outer loop
      vertex 72.3049 26.5192 5.7
      vertex 72.5 26.5 0
      vertex 72.3049 26.5192 0
    endloop
  endfacet
  facet normal 0.772842 0.634598 0
    outer loop
      vertex 71.7929 26.7929 5.7
      vertex 71.6685 26.9444 0
      vertex 71.6685 26.9444 5.7
    endloop
  endfacet
  facet normal 0.772842 0.634598 0
    outer loop
      vertex 71.6685 26.9444 0
      vertex 71.7929 26.7929 5.7
      vertex 71.7929 26.7929 0
    endloop
  endfacet
  facet normal 0.634598 0.772842 -0
    outer loop
      vertex 71.9444 26.6685 0
      vertex 71.7929 26.7929 5.7
      vertex 71.9444 26.6685 5.7
    endloop
  endfacet
  facet normal 0.634598 0.772842 0
    outer loop
      vertex 71.7929 26.7929 5.7
      vertex 71.9444 26.6685 0
      vertex 71.7929 26.7929 0
    endloop
  endfacet
  facet normal 0.956951 0.290248 0
    outer loop
      vertex 71.5761 27.1173 5.7
      vertex 71.5192 27.3049 0
      vertex 71.5192 27.3049 5.7
    endloop
  endfacet
  facet normal 0.956951 0.290248 0
    outer loop
      vertex 71.5192 27.3049 0
      vertex 71.5761 27.1173 5.7
      vertex 71.5761 27.1173 0
    endloop
  endfacet
  facet normal 0.995193 0.097938 0
    outer loop
      vertex 71.5192 27.3049 5.7
      vertex 71.5 27.5 0
      vertex 71.5 27.5 5.7
    endloop
  endfacet
  facet normal 0.995193 0.097938 0
    outer loop
      vertex 71.5 27.5 0
      vertex 71.5192 27.3049 5.7
      vertex 71.5192 27.3049 0
    endloop
  endfacet
  facet normal -0.471329 0.881957 0
    outer loop
      vertex 73.0556 26.6685 0
      vertex 72.8827 26.5761 5.7
      vertex 73.0556 26.6685 5.7
    endloop
  endfacet
  facet normal -0.471329 0.881957 0
    outer loop
      vertex 72.8827 26.5761 5.7
      vertex 73.0556 26.6685 0
      vertex 72.8827 26.5761 0
    endloop
  endfacet
  facet normal -0.772842 0.634598 0
    outer loop
      vertex 73.2071 26.7929 0
      vertex 73.3315 26.9444 5.7
      vertex 73.3315 26.9444 0
    endloop
  endfacet
  facet normal -0.772842 0.634598 0
    outer loop
      vertex 73.3315 26.9444 5.7
      vertex 73.2071 26.7929 0
      vertex 73.2071 26.7929 5.7
    endloop
  endfacet
  facet normal -0.956951 0.290248 0
    outer loop
      vertex 73.4239 27.1173 0
      vertex 73.4808 27.3049 5.7
      vertex 73.4808 27.3049 0
    endloop
  endfacet
  facet normal -0.956951 0.290248 0
    outer loop
      vertex 73.4808 27.3049 5.7
      vertex 73.4239 27.1173 0
      vertex 73.4239 27.1173 5.7
    endloop
  endfacet
  facet normal -0.881957 0.471329 0
    outer loop
      vertex 73.3315 26.9444 0
      vertex 73.4239 27.1173 5.7
      vertex 73.4239 27.1173 0
    endloop
  endfacet
  facet normal -0.881957 0.471329 0
    outer loop
      vertex 73.4239 27.1173 5.7
      vertex 73.3315 26.9444 0
      vertex 73.3315 26.9444 5.7
    endloop
  endfacet
  facet normal 0.290248 0.956951 -0
    outer loop
      vertex 72.3049 26.5192 0
      vertex 72.1173 26.5761 5.7
      vertex 72.3049 26.5192 5.7
    endloop
  endfacet
  facet normal 0.290248 0.956951 0
    outer loop
      vertex 72.1173 26.5761 5.7
      vertex 72.3049 26.5192 0
      vertex 72.1173 26.5761 0
    endloop
  endfacet
  facet normal -0.097938 0.995193 0
    outer loop
      vertex 72.6951 26.5192 0
      vertex 72.5 26.5 5.7
      vertex 72.6951 26.5192 5.7
    endloop
  endfacet
  facet normal -0.097938 0.995193 0
    outer loop
      vertex 72.5 26.5 5.7
      vertex 72.6951 26.5192 0
      vertex 72.5 26.5 0
    endloop
  endfacet
  facet normal 0.881957 0.471329 0
    outer loop
      vertex 71.6685 26.9444 5.7
      vertex 71.5761 27.1173 0
      vertex 71.5761 27.1173 5.7
    endloop
  endfacet
  facet normal 0.881957 0.471329 0
    outer loop
      vertex 71.5761 27.1173 0
      vertex 71.6685 26.9444 5.7
      vertex 71.6685 26.9444 0
    endloop
  endfacet
  facet normal 1 -0 0
    outer loop
      vertex 26 11.25 1.25
      vertex 26 16.25 0
      vertex 26 16.25 1.25
    endloop
  endfacet
  facet normal 1 0 0
    outer loop
      vertex 26 16.25 0
      vertex 26 11.25 1.25
      vertex 26 11.25 0
    endloop
  endfacet
  facet normal -1 0 0
    outer loop
      vertex 31 11.25 0
      vertex 31 16.25 1.25
      vertex 31 16.25 0
    endloop
  endfacet
  facet normal -1 -0 0
    outer loop
      vertex 31 16.25 1.25
      vertex 31 11.25 0
      vertex 31 11.25 1.25
    endloop
  endfacet
  facet normal 0 1 -0
    outer loop
      vertex 31 11.25 0
      vertex 26 11.25 1.25
      vertex 31 11.25 1.25
    endloop
  endfacet
  facet normal 0 1 0
    outer loop
      vertex 26 11.25 1.25
      vertex 31 11.25 0
      vertex 26 11.25 0
    endloop
  endfacet
  facet normal 0 -1 0
    outer loop
      vertex 26 16.25 0
      vertex 31 16.25 1.25
      vertex 26 16.25 1.25
    endloop
  endfacet
  facet normal 0 -1 -0
    outer loop
      vertex 31 16.25 1.25
      vertex 26 16.25 0
      vertex 31 16.25 0
    endloop
  endfacet
  facet normal 1 -0 0
    outer loop
      vertex 53 11.25 1.25
      vertex 53 16.25 0
      vertex 53 16.25 1.25
    endloop
  endfacet
  facet normal 1 0 0
    outer loop
      vertex 53 16.25 0
      vertex 53 11.25 1.25
      vertex 53 11.25 0
    endloop
  endfacet
  facet normal -1 0 0
    outer loop
      vertex 58 11.25 0
      vertex 58 16.25 1.25
      vertex 58 16.25 0
    endloop
  endfacet
  facet normal -1 -0 0
    outer loop
      vertex 58 16.25 1.25
      vertex 58 11.25 0
      vertex 58 11.25 1.25
    endloop
  endfacet
  facet normal 0 1 -0
    outer loop
      vertex 58 11.25 0
      vertex 53 11.25 1.25
      vertex 58 11.25 1.25
    endloop
  endfacet
  facet normal 0 1 0
    outer loop
      vertex 53 11.25 1.25
      vertex 58 11.25 0
      vertex 53 11.25 0
    endloop
  endfacet
  facet normal 0 -1 0
    outer loop
      vertex 53 16.25 0
      vertex 58 16.25 1.25
      vertex 53 16.25 1.25
    endloop
  endfacet
  facet normal 0 -1 -0
    outer loop
      vertex 58 16.25 1.25
      vertex 53 16.25 0
      vertex 58 16.25 0
    endloop
  endfacet
  facet normal 1 -0 0
    outer loop
      vertex 26 38.75 1.25
      vertex 26 43.75 0
      vertex 26 43.75 1.25
    endloop
  endfacet
  facet normal 1 0 0
    outer loop
      vertex 26 43.75 0
      vertex 26 38.75 1.25
      vertex 26 38.75 0
    endloop
  endfacet
  facet normal -1 0 0
    outer loop
      vertex 31 38.75 0
      vertex 31 43.75 1.25
      vertex 31 43.75 0
    endloop
  endfacet
  facet normal -1 -0 0
    outer loop
      vertex 31 43.75 1.25
      vertex 31 38.75 0
      vertex 31 38.75 1.25
    endloop
  endfacet
  facet normal 0 -1 0
    outer loop
      vertex 26 43.75 0
      vertex 31 43.75 1.25
      vertex 26 43.75 1.25
    endloop
  endfacet
  facet normal 0 -1 -0
    outer loop
      vertex 31 43.75 1.25
      vertex 26 43.75 0
      vertex 31 43.75 0
    endloop
  endfacet
  facet normal 0 1 -0
    outer loop
      vertex 31 38.75 0
      vertex 26 38.75 1.25
      vertex 31 38.75 1.25
    endloop
  endfacet
  facet normal 0 1 0
    outer loop
      vertex 26 38.75 1.25
      vertex 31 38.75 0
      vertex 26 38.75 0
    endloop
  endfacet
  facet normal 1 -0 0
    outer loop
      vertex 53 38.75 1.25
      vertex 53 43.75 0
      vertex 53 43.75 1.25
    endloop
  endfacet
  facet normal 1 0 0
    outer loop
      vertex 53 43.75 0
      vertex 53 38.75 1.25
      vertex 53 38.75 0
    endloop
  endfacet
  facet normal -1 0 0
    outer loop
      vertex 58 38.75 0
      vertex 58 43.75 1.25
      vertex 58 43.75 0
    endloop
  endfacet
  facet normal -1 -0 0
    outer loop
      vertex 58 43.75 1.25
      vertex 58 38.75 0
      vertex 58 38.75 1.25
    endloop
  endfacet
  facet normal 0 -1 0
    outer loop
      vertex 53 43.75 0
      vertex 58 43.75 1.25
      vertex 53 43.75 1.25
    endloop
  endfacet
  facet normal 0 -1 -0
    outer loop
      vertex 58 43.75 1.25
      vertex 53 43.75 0
      vertex 58 43.75 0
    endloop
  endfacet
  facet normal 0 1 -0
    outer loop
      vertex 58 38.75 0
      vertex 53 38.75 1.25
      vertex 58 38.75 1.25
    endloop
  endfacet
  facet normal 0 1 0
    outer loop
      vertex 53 38.75 1.25
      vertex 58 38.75 0
      vertex 53 38.75 0
    endloop
  endfacet
  facet normal 1 -0 0
    outer loop
      vertex 35 53.5 1.25
      vertex 35 55 0
      vertex 35 55 1.25
    endloop
  endfacet
  facet normal 1 0 0
    outer loop
      vertex 35 55 0
      vertex 35 53.5 1.25
      vertex 35 53.5 0
    endloop
  endfacet
  facet normal -1 0 0
    outer loop
      vertex 43 53.5 0
      vertex 43 55 1.25
      vertex 43 55 0
    endloop
  endfacet
  facet normal -1 -0 0
    outer loop
      vertex 43 55 1.25
      vertex 43 53.5 0
      vertex 43 53.5 1.25
    endloop
  endfacet
  facet normal 0 1 -0
    outer loop
      vertex 43 53.5 0
      vertex 35 53.5 1.25
      vertex 43 53.5 1.25
    endloop
  endfacet
  facet normal 0 1 0
    outer loop
      vertex 35 53.5 1.25
      vertex 43 53.5 0
      vertex 35 53.5 0
    endloop
  endfacet
  facet normal -1 0 0
    outer loop
      vertex 50 55 0
      vertex 50 58 1.25
      vertex 50 58 0
    endloop
  endfacet
  facet normal -1 -0 0
    outer loop
      vertex 50 58 1.25
      vertex 50 55 0
      vertex 50 55 1.25
    endloop
  endfacet
  facet normal 0 1 -0
    outer loop
      vertex 85 58 0
      vertex 50 58 1.25
      vertex 85 58 1.25
    endloop
  endfacet
  facet normal 0 1 0
    outer loop
      vertex 50 58 1.25
      vertex 85 58 0
      vertex 50 58 0
    endloop
  endfacet
  facet normal -1 0 0
    outer loop
      vertex -2.5 17 0
      vertex -2.5 38 1.25
      vertex -2.5 38 0
    endloop
  endfacet
  facet normal -1 -0 0
    outer loop
      vertex -2.5 38 1.25
      vertex -2.5 17 0
      vertex -2.5 17 1.25
    endloop
  endfacet
  facet normal 0 1 -0
    outer loop
      vertex 0 38 0
      vertex -2.5 38 1.25
      vertex 0 38 1.25
    endloop
  endfacet
  facet normal 0 1 0
    outer loop
      vertex -2.5 38 1.25
      vertex 0 38 0
      vertex -2.5 38 0
    endloop
  endfacet
  facet normal 0 -1 0
    outer loop
      vertex -2.5 17 0
      vertex 0 17 1.25
      vertex -2.5 17 1.25
    endloop
  endfacet
  facet normal 0 -1 -0
    outer loop
      vertex 0 17 1.25
      vertex -2.5 17 0
      vertex 0 17 0
    endloop
  endfacet
endsolid OpenSCAD_Model
